<?xml version="1.0" standalone="no"?><!DOCTYPE svg PUBLIC "-//W3C//DTD SVG 1.1//EN" "http://www.w3.org/Graphics/SVG/1.1/DTD/svg11.dtd"><svg t="1667295129321" class="icon" viewBox="0 0 1024 1024" version="1.1" xmlns="http://www.w3.org/2000/svg" p-id="1513" xmlns:xlink="http://www.w3.org/1999/xlink" width="100" height="100"><path d="M110.2336 478.2592c14.9504-27.136 54.5792-45.2096 54.5792-45.2096s-52.7872 139.0592-42.8032 238.2336c34.9184-38.0416 44.9024-53.8624 44.9024-53.8624s-27.4432 105.1136 24.9344 202.9568c12.4928-47.104 23.7056-79.8208 23.7056-79.8208s16.8448 119.7568 69.2224 187.0848c11.2128-58.0096 16.8448-69.2224 16.8448-69.2224s33.4336 67.3792 76.5952 93.5424c0.1024-33.792 0-72.96 0-72.96s79.7184 74.1376 144.8448 81.5616c66.6624-24.4224 121.7024-82.2272 121.7024-82.2272s-0.1024 39.168 0 72.96c43.1616-26.2144 76.5952-93.5424 76.5952-93.5424s5.632 11.2128 16.8448 69.2224c52.3776-67.3792 69.2224-187.0848 69.2224-187.0848s11.2128 32.7168 23.7056 79.8208c52.3776-97.792 24.9344-202.9568 24.9344-202.9568s9.984 15.8208 44.9024 53.8624c9.984-99.1744-42.8032-238.2336-42.8032-238.2336s39.6288 18.0736 54.5792 45.2096c-4.9664-140.032-87.9616-213.0432-87.9616-213.0432s-13.7216-188.9792-63.6416-200.192c-44.8512-6.0416-110.2848 80.896-129.4336 112.1792-1.024 1.6896-2.7136 2.7648-4.6592 3.072-14.0288 2.2528-29.2352 6.8096-41.6768 11.1616-6.4 2.2016-11.7248-5.2736-7.4752-10.5984 2.4064-3.0208 5.0176-6.4 7.7824-10.1376 3.584-4.864-0.5632-11.6736-6.6048-10.7008-29.4912 4.7104-58.0608 14.848-77.4656 22.8864-6.5024 2.6624-12.2368-5.12-7.7824-10.5472 0.8192-0.9728 1.6896-2.048 2.56-3.072 3.6864-4.4544 0.4608-11.264-5.3248-11.1616-53.8624 1.1776-92.928 36.0448-92.928 36.0448-102.912-153.4464-134.144-129.1264-134.144-129.1264-60.416 9.3696-63.6416 200.192-63.6416 200.192S96.6656 374.784 110.2336 478.2592z" fill="#FFFFFF" p-id="1514"></path><path d="M245.2992 489.5232a55.5008 24.9856 0 1 0 111.0016 0 55.5008 24.9856 0 1 0-111.0016 0Z" fill="#FFA29E" p-id="1515"></path><path d="M664.2688 489.5232a55.5008 24.9856 0 1 0 111.0016 0 55.5008 24.9856 0 1 0-111.0016 0Z" fill="#FFA29E" p-id="1516"></path><path d="M393.6256 381.3376m-42.9056 0a42.9056 42.9056 0 1 0 85.8112 0 42.9056 42.9056 0 1 0-85.8112 0Z" fill="#3E3344" p-id="1517"></path><path d="M636.16 381.3376m-42.9056 0a42.9056 42.9056 0 1 0 85.8112 0 42.9056 42.9056 0 1 0-85.8112 0Z" fill="#3E3344" p-id="1518"></path><path d="M509.7984 492.6464c-14.0288 1.536-35.9936-22.5792-40.2432-30.0032s-5.632-32.8192 44.1344-32.8192 42.3424 26.8288 34.6112 36.7104c-7.7824 9.8816-25.4464 24.7296-38.5024 26.112z" fill="#3E3344" p-id="1519"></path><path d="M664.32 196.7104s55.6544-99.6352 87.4496-89.344c31.7952 10.2912 29.952 129.1264 29.952 129.1264s-72.0384-36.0448-117.4016-39.7824zM354.4064 196.7104S298.752 97.0752 266.9568 107.3664s-29.952 129.1264-29.952 129.1264 72.0384-36.0448 117.4016-39.7824z" fill="#FFA29E" p-id="1520"></path><path d="M448.0512 541.184s8.3456 105.6768 62.72 105.6768 62.1056-105.6768 62.1056-105.6768-51.9168-9.728-63.1296-40.2432c-17.8688 12.7488-45.056 41.1136-61.696 40.2432z" fill="#FF8980" p-id="1521"></path><path d="M391.2704 376.2688a12.9536 9.8816 0 1 0 25.9072 0 12.9536 9.8816 0 1 0-25.9072 0Z" fill="#FFFFFF" p-id="1522"></path><path d="M613.2224 376.2688a12.9536 9.8816 0 1 0 25.9072 0 12.9536 9.8816 0 1 0-25.9072 0Z" fill="#FFFFFF" p-id="1523"></path><path d="M266.9568 107.3664c-5.2224 1.6896-9.5232 6.3488-13.1072 12.9024 13.568 1.4336 42.8544 13.3632 73.5232 81.3056 9.5232-2.4576 18.7392-4.1984 27.0336-4.9152 0 0.0512-55.6544-99.584-87.4496-89.2928zM751.7696 107.3664c5.2224 1.6896 9.5232 6.3488 13.1072 12.9024-13.568 1.4336-42.8544 13.3632-73.5232 81.3056-9.5232-2.4576-18.7392-4.1984-27.0336-4.9152 0 0.0512 55.6544-99.584 87.4496-89.2928z" fill="#F48282" p-id="1524"></path><path d="M166.8608 446.0544s-9.7792 109.8752 0 129.4848c25.4976-4.9152 45.1072 14.7968 38.2464 41.216-6.8608 26.4192-8.8064 79.36-8.8064 91.136 12.7488-17.664 47.0528-20.5824 53.9136 6.8608 6.8608 27.4432 18.6368 99.9936 26.4704 117.6576 7.8336-25.4976 36.864-17.664 43.4176-7.8336 6.6048 9.7792 21.2992 31.3856 21.2992 31.3856s10.8032-51.968 70.0928-12.7488c31.8464 29.3888 61.3376 48.9984 109.312 69.4784 45.1072-28.5184 98.2528-73.4208 98.2528-73.4208s37.0688-36.3008 62.5664 14.6944c8.8064-25.4976 28.416-61.7472 69.632-30.4128 6.8608-39.2192 18.6368-84.3264 19.6096-100.9664 0.9728-16.6912 27.8016-58.2144 55.552-24.7808-4.9152-43.1616-5.2224-73.216-7.8336-91.5456-2.6112-18.2784 21.5552-45.1072 47.7184-24.832-11.776-72.5504-9.7792-122.2144-18.2784-146.432 25.4464 43.3664 61.7984 172.6976 54.1184 219.8528-29.5936-16.7936-45.9264-38.0928-45.9264-38.0928s14.3872 125.7472-21.248 195.6864c-18.944-46.1824-31.6928-72.2432-31.6928-72.2432s8.4992 106.8032-63.8976 173.0048c-13.312-41.2672-21.4016-51.456-21.4016-51.456s-32.0512 59.5968-63.5904 80.2816c-9.5744-39.1168-9.5232-63.7952-9.5232-63.7952s-71.424 57.4976-121.7024 82.2272c-66.9696-18.4832-144.8448-81.5616-144.8448-81.5616l-3.9424 77.8752s-77.1584-83.3536-78.5408-92.16c-17.5104 53.8624-10.9568 62.9248-10.9568 62.9248s-66.6624-124.0576-69.2224-187.0848c-16.3328 52.9408-26.112 75.1616-26.112 75.1616s-39.1168-85.2992-26.9312-186.2656c-28.9792 20.5824-41.216 33.1776-41.216 33.1776s2.304-167.5264 45.4656-216.4736z" fill="#EBE6EF" p-id="1525"></path><path d="M655.5648 486.7072c-5.4272-1.536-11.1104 1.5872-12.6464 7.0144-0.1024 0.3072-9.728 32.1024-57.2416 32.1024-43.9808 0-53.504-24.2688-62.7712-47.7184-0.9216-2.304-1.792-4.5568-2.6624-6.656a10.07616 10.07616 0 0 0-9.8304-6.2976c-4.2496 0.1536-7.9872 2.9184-9.3696 6.9632-8.7552 25.9584-32.4608 53.76-72.8064 53.76-39.3216 0-56.2688-33.7408-56.9856-35.1744a10.20416 10.20416 0 0 0-13.6192-4.7616c-5.12 2.4576-7.2704 8.5504-4.8128 13.6704 0.9216 1.8944 22.9888 46.7456 75.4176 46.7456 1.9968 0 3.9424-0.1024 5.888-0.2048 0.3072 16.4864 3.5328 67.84 30.8224 95.744 12.0832 12.3904 27.1872 18.6368 44.8512 18.6368s32.768-6.2976 44.8512-18.6368c27.136-27.8016 30.3616-78.848 30.72-95.5392h0.3072c62.7712 0 76.3904-45.056 76.9024-46.9504a10.1888 10.1888 0 0 0-7.0144-12.6976z m-115.5584 140.9024c-8.192 8.3456-18.0224 12.4416-30.1568 12.4416-12.1344 0-21.9648-4.0448-30.1568-12.4416-23.8592-24.3712-25.0368-75.8272-25.0368-84.7872 25.4976-7.0656 43.9296-23.9616 55.5008-42.3424 8.6528 18.3296 22.9888 38.0416 54.8352 44.032-0.2048 12.3392-2.3552 59.904-24.9856 83.0976z" fill="#3F3344" p-id="1526"></path><path d="M523.0592 970.8032c-0.4096 0-0.768 0-1.1776-0.0512-49.664-5.632-105.728-46.6432-133.4272-69.3248 0 14.1824 0 33.1264-0.0512 50.6368 0 3.6864-1.9968 7.0656-5.2224 8.9088-3.2256 1.792-7.168 1.7408-10.3424-0.1536-29.6448-18.0224-54.4768-53.2992-68.4032-76.1856-2.5088 10.0864-5.7344 24.576-9.6768 45.056-0.768 3.9424-3.7888 7.0656-7.68 8.0384-3.9424 0.9216-7.9872-0.512-10.4448-3.6864-34.6112-44.4928-53.9648-109.7216-63.5392-151.6032-3.4304 11.6224-7.3728 25.3952-11.4176 40.6528-1.0752 4.0448-4.5056 7.0656-8.704 7.5264a10.3424 10.3424 0 0 1-10.24-5.3248c-34.2528-63.8976-35.7888-130.0992-32.1024-170.752-5.7856 6.7584-12.8 14.6432-21.1968 23.808-2.7136 2.9696-6.9632 4.0448-10.8032 2.7648-3.84-1.28-6.5536-4.6592-6.9632-8.704-7.5776-75.2128 19.3024-170.7008 34.2528-216.4224-10.0352 7.0656-20.8384 16.4352-26.8288 27.2896a10.21952 10.21952 0 0 1-19.0976-3.6352C87.04 380.928 173.2608 279.3472 190.1568 260.5056c0.8704-32.7168 8.192-193.3312 70.4512-205.9264 2.8672-1.28 7.6288-2.5088 14.4896-1.4336 29.0816 4.6592 72.3456 48.0256 125.3376 125.5424 15.3088-10.9568 48.4864-30.5664 90.368-31.488 6.6048-0.2048 12.7488 3.5328 15.6672 9.6256 1.8432 3.84 2.2016 8.0896 1.1264 11.9808 18.8928-7.2704 43.9808-15.4112 69.888-19.5584 6.8096-1.0752 13.6704 2.048 17.2544 7.9872 3.584 5.9392 3.2768 13.3632-0.8192 18.8928-0.3584 0.4608-0.7168 0.9216-1.024 1.3824 11.3664-3.5328 21.76-6.144 30.976-7.7312 8.9088-13.8752 81.2032-123.392 138.5984-115.5584 0.3072 0.0512 0.6144 0.1024 0.8704 0.1536 52.5824 11.8272 68.096 165.0688 71.2704 205.4656 15.7696 15.3088 83.712 88.576 88.32 217.4464 0.1536 4.7616-2.9184 8.96-7.5264 10.24s-9.4208-0.768-11.6736-4.9152c-5.9904-10.8544-16.7936-20.224-26.8288-27.2896 14.8992 45.6704 41.7792 141.2096 34.2528 216.4224a10.27584 10.27584 0 0 1-17.7664 5.9392c-8.3968-9.1648-15.4112-17.0496-21.1968-23.808 3.6864 40.704 2.1504 106.8544-32.1024 170.752a10.3424 10.3424 0 0 1-10.24 5.3248 10.24 10.24 0 0 1-8.704-7.5264 1342.976 1342.976 0 0 0-11.4176-40.6528c-9.5744 41.8304-28.928 107.1104-63.5392 151.6032a10.22464 10.22464 0 0 1-18.1248-4.352c-3.9424-20.48-7.2192-34.9696-9.6768-45.056-13.9264 22.9376-38.7072 58.2144-68.4032 76.1856-3.1744 1.9456-7.1168 1.9968-10.3424 0.1536a10.20416 10.20416 0 0 1-5.2224-8.9088c-0.0512-16.8448-0.0512-35.072-0.0512-49.1008-21.9136 19.5584-62.0032 51.1488-107.9296 67.9424-1.024 0.3584-2.2016 0.5632-3.3792 0.5632z m-144.896-102.0416c2.56 0 5.0176 0.9216 6.9632 2.7648 0.768 0.7168 76.0832 70.0928 136.6528 78.592 62.5152-23.7568 114.9952-78.2848 115.5072-78.848 2.9184-3.0208 7.3216-3.9936 11.2128-2.4576 3.8912 1.5872 6.4512 5.3248 6.4 9.5232 0 0-0.0512 25.1904-0.0512 52.6336 32.6144-28.7232 56.9344-77.2096 57.2416-77.7728a10.24 10.24 0 0 1 18.3296 0c0.8704 1.7408 5.0688 11.4176 12.9024 48.0256 39.8336-65.8944 53.7088-161.6896 53.8624-162.7648 0.6656-4.7104 4.4544-8.2944 9.1648-8.7552 4.7104-0.4096 9.1136 2.4064 10.6496 6.8608 0.1024 0.256 7.2704 21.3504 16.4864 53.5552 33.9968-85.3504 12.8-169.8304 12.544-170.752-1.28-4.864 1.2288-9.984 5.8368-11.9808 4.608-1.9968 10.0352-0.3584 12.6976 3.9424 0.0512 0.1024 6.7584 10.496 27.2384 33.9456 0.3072-92.8768-42.9056-207.9744-43.4176-209.2544-1.4848-3.8912-0.4608-8.2944 2.56-11.1104 3.0208-2.816 7.4752-3.584 11.264-1.8432 1.1776 0.512 20.2752 9.3696 37.632 24.2176-14.336-114.2272-81.3056-174.3872-82.0736-175.0528a10.1376 10.1376 0 0 1-3.4304-6.9632c-5.4272-74.9568-26.1632-183.3472-55.2448-190.8736-35.1744-4.0448-94.6176 67.84-118.8352 107.4688-2.56 4.1984-6.8608 7.0656-11.776 7.8336-11.3152 1.8432-24.7296 5.4272-39.9872 10.7008-7.2192 2.5088-15.0528 0-19.456-6.2464-4.4032-6.2464-4.1472-14.4384 0.6656-20.4288 0.7168-0.9216 1.4848-1.8432 2.2016-2.816-25.6512 5.0176-50.0224 13.824-66.6112 20.6848-7.3216 3.0208-15.4112 0.768-20.1216-5.5808-3.9936-5.4272-4.4544-12.288-1.3824-18.0224-45.5168 3.84-78.6944 32.768-79.0528 33.0752-2.2016 1.9456-5.1712 2.8672-8.0896 2.5088-2.9184-0.3584-5.5808-1.9968-7.2192-4.4544C303.7184 71.0144 271.7184 72.7552 269.056 73.216c-1.0752 0.6144-2.2528 1.024-3.4816 1.2288-37.7856 5.8368-53.76 119.808-54.9376 190.2592-0.0512 2.56-1.024 4.9664-2.7648 6.8608-0.9216 0.9728-83.456 89.9584-88.3712 179.456 18.176-16.64 39.8336-26.6752 41.0624-27.2384 3.7888-1.7408 8.2432-0.9728 11.264 1.8432 3.0208 2.816 4.0448 7.2192 2.56 11.1104-0.4608 1.28-43.7248 116.4288-43.4176 209.2544 20.48-23.4496 27.1872-33.8432 27.2896-33.9968 2.7136-4.2496 8.0896-5.9392 12.7488-3.8912 4.608 1.9968 7.1168 7.0656 5.8368 11.9296-0.256 0.9216-21.4016 85.4016 12.544 170.752 9.216-32.2048 16.384-53.2992 16.4864-53.5552 1.536-4.4544 5.9392-7.3728 10.6496-6.8608 4.7104 0.4608 8.4992 4.096 9.1648 8.7552 0.1536 1.0752 14.08 96.8704 53.8624 162.7648 7.8336-36.6592 12.032-46.2848 12.9024-48.0256a10.24 10.24 0 0 1 18.3296 0c0.256 0.5632 24.6272 49.0496 57.2416 77.7728 0.0512-27.392-0.0512-52.5824-0.0512-52.5824a10.2656 10.2656 0 0 1 10.1888-10.2912zM488.5504 161.9456zM270.1824 72.448z m0.0512-0.0512l-0.0512 0.0512s0.0512 0 0.0512-0.0512z m0.0512 0z" fill="#3F3344" p-id="1527"></path></svg>