<?xml version="1.0" standalone="no"?><!DOCTYPE svg PUBLIC "-//W3C//DTD SVG 1.1//EN" "http://www.w3.org/Graphics/SVG/1.1/DTD/svg11.dtd"><svg t="1667310790705" class="icon" viewBox="0 0 1024 1024" version="1.1" xmlns="http://www.w3.org/2000/svg" p-id="1680" xmlns:xlink="http://www.w3.org/1999/xlink" width="100" height="100"><path d="M514.2016 215.3472c-302.08 0-355.84 257.536-363.4688 390.144 31.744-4.4544 70.3488 3.7376 114.4832 34.048-12.6464-48.5888-65.9968-276.6848 69.7856-302.08 123.2896-23.04 144.0256 194.9184 137.1648 304.1792 12.8512-3.1744 26.9312-4.9152 41.728-4.9152 14.7968 0 28.928 1.7408 41.728 4.9152-6.8608-109.2608 13.8752-327.2192 137.1648-304.1792 135.7824 25.3952 82.3808 253.44 69.7856 302.08 45.0048-30.8736 84.1728-38.8096 116.2752-33.792-9.472-136.3968-67.0208-390.4-364.6464-390.4z" fill="#EA7513" p-id="1681"></path><path d="M501.248 215.808s100.1472-15.0528 79.5648 84.6336c-5.9904 29.44-38.7584 87.3984-63.0272 115.5072-1.5872 1.8432-4.608 1.2288-5.376-1.1264-6.144-18.688-10.9056-39.2192-42.6496-58.88-45.8752-26.4704-97.28-131.4304 31.488-140.1344z" fill="#FBF2E3" p-id="1682"></path><path d="M762.5728 639.5392c12.6464-48.5888 65.9968-276.6848-69.7856-302.08-123.2896-23.04-144.0256 194.9184-137.1648 304.1792 38.5024 9.472 50.3296 28.7744 50.3296 54.6304-0.9216 23.552-31.9488 50.0736-91.1872 50.0736-59.2384 0-92.9792-27.136-92.9792-47.1552 0-25.9072 11.8272-48.0768 50.3296-57.6 6.8608-109.2608-13.8752-327.2192-137.1648-304.1792-135.7824 25.3952-82.3808 253.44-69.7856 302.08-82.5344-56.6272-145.664-36.1472-180.992 0.256-29.5936 30.5152-36.9152 75.6736-21.76 115.456 57.5488 151.04 337.152 159.1808 337.152 159.1808s47.36 41.984 114.5856 41.984 113.9712-41.984 113.9712-41.984 262.912-7.68 331.3152-145.8688c26.3168-53.1968 9.728-119.04-41.5232-148.8896-36.8128-21.4016-90.0096-24.8832-155.3408 19.9168z" fill="#FDE2C5" p-id="1683"></path><path d="M377.344 758.2208s38.3488 140.1344 140.1344 140.1344 128.768-135.8848 128.768-135.8848-62.7712 29.2864-133.1712 29.2864-135.7312-33.536-135.7312-33.536z" fill="#F26261" p-id="1684"></path><path d="M546.2528 786.4832c-2.048-2.4576-5.2736-3.7888-8.3968-3.4816-0.256 0-22.9376 1.8944-49.2032-1.024-3.2256-0.3584-6.4 0.8704-8.5504 3.328s-2.9184 5.7856-2.1504 8.9088l10.1888 40.2432c1.1264 4.4032 5.0688 7.4752 9.5744 7.4752h30.5152c4.5056 0 8.3968-3.0208 9.5744-7.3728l10.3936-39.168c0.8192-3.1232 0.1024-6.4512-1.9456-8.9088z" fill="#FFFFFF" p-id="1685"></path><path d="M399.616 914.432s47.36 41.984 114.5856 41.984 113.9712-41.984 113.9712-41.984 262.912-7.68 331.3152-145.8688c8.0384-16.2304 12.032-33.5872 12.288-50.7392-106.3936 148.736-344.32 154.2144-344.32 154.2144s-44.3392 56.2176-112.64 56.2176-116.0192-57.4976-116.0192-57.4976-67.9936-2.6112-147.712-20.9408c-117.8624-34.6112-171.264-106.5472-194.6624-155.0336-3.4304 19.8656-1.4848 40.8064 6.0416 60.416 57.5488 151.0912 337.152 159.232 337.152 159.232z" fill="#F4CBA8" p-id="1686"></path><path d="M422.7072 689.3568a91.1872 53.1456 0 1 0 182.3744 0 91.1872 53.1456 0 1 0-182.3744 0Z" fill="#3A2517" p-id="1687"></path><path d="M513.8944 752.6912c-56.8832 0-101.4272-27.8528-101.4272-63.3856s44.544-63.3856 101.4272-63.3856 101.4272 27.8528 101.4272 63.3856-44.544 63.3856-101.4272 63.3856z m0-106.24c-43.8784 0-80.9472 19.6096-80.9472 42.9056s37.0688 42.9056 80.9472 42.9056 80.9472-19.6608 80.9472-42.9056-37.0688-42.9056-80.9472-42.9056z" fill="#3A2517" p-id="1688"></path><path d="M479.1808 319.1808c-13.568-9.7792-29.3376-28.416-28.416-53.6576 0.768-26.8288 30.3616-42.1888 52.2752-49.9712-1.1264 0.1536-1.792 0.256-1.792 0.256-128.768 8.6528-77.4144 113.6128-31.488 140.1344 31.744 19.6608 36.4544 40.192 42.6496 58.88 0.6144 1.8944 2.7136 2.6112 4.3008 1.8432 11.008-46.9504-25.3952-88.7296-37.5296-97.4848z" fill="#FDE2C5" p-id="1689"></path><path d="M295.731578 543.581228a120.9344 66.9184 85.365 1 0 133.399114-10.815058 120.9344 66.9184 85.365 1 0-133.399114 10.815058Z" fill="#FFFFFF" p-id="1690"></path><path d="M421.7856 605.6448c-0.512-4.096-1.0752-8.2944-1.8944-12.4928-10.4448-54.5792-43.3664-94.1056-73.5744-88.32-27.6992 5.2736-43.3664 46.8992-37.7856 95.8464 14.336 36.4544 38.4 60.0576 63.6416 58.0096 21.9648-1.792 39.8848-22.528 49.6128-53.0432z" fill="#3A2517" p-id="1691"></path><path d="M655.586072 658.707609a66.9184 120.9344 4.635 1 0 19.544887-241.077817 66.9184 120.9344 4.635 1 0-19.544887 241.077817Z" fill="#FFFFFF" p-id="1692"></path><path d="M606.0032 605.6448c0.512-4.096 1.0752-8.2944 1.8944-12.4928 10.4448-54.5792 43.3664-94.1056 73.5744-88.32 27.6992 5.2736 43.3664 46.8992 37.7856 95.8464-14.336 36.4544-38.4 60.0576-63.6416 58.0096-21.9648-1.792-39.8848-22.528-49.6128-53.0432z" fill="#3A2517" p-id="1693"></path><path d="M384.2048 610.9184a14.592 13.568 0 1 0 29.184 0 14.592 13.568 0 1 0-29.184 0Z" fill="#FFFFFF" p-id="1694"></path><path d="M612.864 610.9184a14.592 13.568 0 1 0 29.184 0 14.592 13.568 0 1 0-29.184 0Z" fill="#FFFFFF" p-id="1695"></path><path d="M579.4816 219.904c0.1536 0 0.256 0.0512 0.4096 0.0512 97.9456 14.08 164.2496 59.8016 208.9984 117.5552-3.6352-50.3296-23.808-135.2192-107.4688-222.8224-43.6736-42.1888-91.6992-41.1648-106.7008 15.1552-8.448 31.744-15.0016 61.7472-15.2064 87.6032 1.4336 0.1536 2.7648 0.3584 4.1984 0.512 5.3248 0.512 10.5472 1.1776 15.7696 1.9456z" fill="#EA7513" p-id="1696"></path><path d="M705.6896 263.168c-0.8704-29.3888-8.8576-80.2304-49.5616-122.0608-20.48-19.2512-36.9152-18.4832-43.3664 17.8688-3.9424 22.016-6.6048 46.2336-6.5024 65.6896 38.144 8.192 71.0656 21.4528 99.4304 38.5024z" fill="#C84F00" p-id="1697"></path><path d="M446.7712 220.1088c-1.4336-25.8048-9.3696-55.5008-19.3536-86.8352-17.664-55.552-65.6384-54.272-107.3152-10.0864-83.9168 96.6656-97.2288 186.9312-96.9216 235.9296 43.8784-67.3792 113.5616-122.9312 223.5904-139.008z" fill="#EA7513" p-id="1698"></path><path d="M400.384 229.7856c-0.8192-19.456-4.608-43.6736-9.6256-65.536-8.192-35.9936-24.6272-35.9936-44.1856-15.7696-39.8336 45.0048-44.5952 97.9968-43.7248 126.9248 27.4432-19.4048 59.6992-35.1232 97.536-45.6192z" fill="#C84F00" p-id="1699"></path><path d="M477.5936 676.8128a35.4816 18.0224 0 1 0 70.9632 0 35.4816 18.0224 0 1 0-70.9632 0Z" fill="#493326" p-id="1700"></path><path d="M923.0848 610.816c-8.6528-5.0176-20.2752-10.2912-34.6112-13.5168-6.144-76.4928-26.88-181.2992-89.6-263.7312-4.6592-56.064-27.8016-139.8272-110.336-226.304-27.136-26.1632-56.6784-37.3248-80.9984-30.5152-14.4384 3.9936-33.536 16.0256-42.7008 50.3808-6.6048 24.6784-13.312 52.7872-15.104 78.7456-47.3088-5.376-74.9056-0.9216-93.696 2.304-3.0208-25.856-11.0592-53.6576-18.7904-77.9776-10.8032-33.9456-30.464-45.0048-45.056-48.3328-24.6272-5.632-53.6064 6.912-79.7696 34.6112-85.3504 98.2528-99.2256 191.0784-99.4816 239.5136-50.6368 79.104-67.1744 172.9536-71.8848 240.7936-35.3792 7.68-58.368 29.184-67.8912 39.8336-27.8016 31.0784-36.2496 76.032-22.0672 117.3504 52.5824 152.576 309.5552 169.0624 344.6272 170.5984 11.7248 9.4208 56.9856 42.1376 118.4768 42.1376 61.44 0 106.1888-32.6656 117.8624-42.1376 33.536-1.4848 269.8752-16.64 336.5888-151.4496 29.2352-59.0848 9.2672-130.4064-45.568-162.304zM231.7312 364.6464c1.0752-1.6896 1.6896-3.6352 1.6896-5.632-0.256-44.6464 11.6736-133.7344 94.1568-228.7616 20.48-21.7088 42.9056-32.256 60.0064-28.416 16.9984 3.8912 25.7536 20.9408 30.0544 34.56 8.4992 26.7264 17.408 57.6 18.8928 84.224 0.1536 2.8672 1.536 5.5296 3.7376 7.3728 2.2016 1.792 5.12 2.6112 7.936 2.2016 3.1232-0.4608 6.3488-1.024 9.8816-1.6384 20.1216-3.4816 47.6672-8.192 99.9936-1.024 2.8672 0.4096 5.8368-0.4608 8.0896-2.4064 2.2016-1.9456 3.5328-4.7104 3.5328-7.68 0.2048-26.6752 7.6288-57.9584 14.8992-85.0944 3.6864-13.824 11.6224-31.2832 28.416-35.9424 16.9472-4.7104 39.8848 4.864 61.0304 25.2416 79.5648 83.3536 100.864 163.6864 104.6528 216.4224 0.1536 1.9968 0.8704 3.9424 2.1504 5.5296 59.8528 77.1584 80.4864 176.6912 86.8864 250.624-22.4768-1.28-45.824 3.4304-69.7856 13.824-1.28 0.5632-2.6112 1.1776-3.8912 1.7408-2.304 1.0752-4.608 2.1504-6.912 3.2768-2.2528 1.1264-4.4544 2.2528-6.7584 3.4816-0.6656 0.3584-1.3312 0.6656-1.9968 1.024 3.9936-17.9712 8.192-39.7824 11.1616-63.3344 0.0512-0.5632 0.1536-1.1776 0.2048-1.792 0.5632-4.6592 1.1264-9.3696 1.5872-14.1312 0.1536-1.5872 0.3072-3.1744 0.4096-4.7104l0.3072-3.328c0.4096-4.9664 0.768-9.984 1.024-15.0016 0-0.4608 0.0512-0.9216 0.1024-1.4336 1.3824-27.3408 0.4608-55.3472-4.608-81.152-0.0512-0.1536-0.0512-0.3072-0.1024-0.4608-0.512-2.56-1.0752-5.0688-1.6384-7.5776 0-0.0512 0-0.1024-0.0512-0.1024-1.0752-4.5056-2.2528-8.9088-3.6352-13.2096-0.2048-0.5632-0.3584-1.1776-0.512-1.7408-1.9456-6.0416-4.1984-11.8272-6.7584-17.408-1.4848-3.2256-3.0208-6.4-4.7104-9.472-1.28-2.3552-2.6624-4.6592-4.096-6.912-16.6912-26.3168-41.1136-42.6496-72.4992-48.4864-23.7568-4.4544-45.2608-0.9728-64.1536 10.24-5.1712 3.072-10.1888 6.7072-15.0016 10.9568-1.9968 1.792-3.9424 3.6352-5.8368 5.5808-0.512 0.512-0.9728 1.0752-1.4848 1.6384-1.3824 1.4336-2.7136 2.8672-4.0448 4.4032-0.6656 0.768-1.28 1.5872-1.9456 2.4064-1.1264 1.3824-2.2528 2.7136-3.328 4.1472l-1.9968 2.7648c-0.9728 1.3824-1.9968 2.7648-2.9184 4.1472-0.6656 1.024-1.3312 2.048-1.9968 3.1232-0.9216 1.3824-1.792 2.816-2.6624 4.2496-0.6656 1.1264-1.28 2.2528-1.9456 3.3792-0.8192 1.4336-1.6384 2.8672-2.4576 4.352-0.6144 1.1776-1.2288 2.4064-1.8432 3.584-0.768 1.4848-1.536 2.9696-2.2528 4.5056-0.6144 1.2288-1.1776 2.5088-1.7408 3.7888-0.7168 1.536-1.4336 3.072-2.0992 4.608-0.5632 1.28-1.1264 2.6112-1.6384 3.9424-0.6656 1.5872-1.3312 3.1744-1.9456 4.7616-0.512 1.3312-1.024 2.7136-1.536 4.096-0.6144 1.6384-1.2288 3.2256-1.792 4.9152-0.512 1.3824-0.9728 2.816-1.4336 4.2496-0.5632 1.6384-1.1264 3.328-1.6384 4.9664-0.4608 1.4336-0.9216 2.9184-1.3312 4.352l-1.536 5.0688-1.2288 4.4544-1.3824 5.1712c-0.4096 1.4848-0.768 3.0208-1.1264 4.5568-0.4096 1.7408-0.8704 3.4816-1.28 5.2736l-1.0752 4.608c-0.4096 1.792-0.768 3.584-1.1776 5.3248-0.3072 1.536-0.6656 3.072-0.9728 4.608-0.3584 1.792-0.7168 3.584-1.0752 5.4272-0.3072 1.536-0.5632 3.1232-0.8704 4.6592-0.3072 1.8432-0.6656 3.6352-0.9728 5.4784l-0.768 4.6592c-0.3072 1.8432-0.5632 3.6864-0.8192 5.5296-0.256 1.536-0.4608 3.1232-0.6656 4.6592l-0.768 5.5808-0.6144 4.608c-0.2048 1.8432-0.4608 3.7376-0.6656 5.5808-0.1536 1.536-0.3584 3.072-0.512 4.5568-0.2048 1.8944-0.4096 3.7888-0.5632 5.632-0.1536 1.4848-0.3072 2.9696-0.4096 4.4544l-0.4608 5.6832c-0.1024 1.4848-0.256 2.9184-0.3584 4.4032-0.1536 1.8944-0.256 3.7888-0.4096 5.6832l-0.3072 4.2496-0.3072 5.7856c-0.0512 1.3312-0.1536 2.6624-0.2048 3.9936-0.1024 1.9968-0.1536 3.9424-0.256 5.888l-0.1536 3.7888c-0.0512 2.0992-0.1024 4.1472-0.2048 6.1952-0.0512 1.0752-0.0512 2.2016-0.1024 3.2768-0.0512 2.304-0.1024 4.5568-0.1024 6.8096 0 0.8192-0.0512 1.6896-0.0512 2.5088-0.0512 2.9184-0.0512 5.7856-0.0512 8.6016v0.4608c0 3.0208 0.0512 5.9904 0.1024 8.9088v0.4608l0.1536 8.0384c0 0.768 0.0512 1.4848 0.0512 2.2528 0.0512 1.792 0.1024 3.6352 0.2048 5.376-9.6768-1.8944-20.0192-2.8672-30.8224-2.8672-10.8032 0-21.1456 1.024-30.8736 2.8672 0.0512-1.7408 0.1024-3.584 0.2048-5.376 0-0.768 0.0512-1.4848 0.0512-2.2528 0.0512-2.6112 0.1536-5.3248 0.1536-8.0384v-0.4608c0.0512-2.9184 0.0512-5.888 0.1024-8.9088v-0.4608c0-2.816 0-5.6832-0.0512-8.6016 0-0.8192-0.0512-1.6896-0.0512-2.5088-0.0512-2.2528-0.0512-4.5056-0.1024-6.8096 0-1.0752-0.0512-2.2016-0.1024-3.2768-0.0512-2.048-0.1024-4.096-0.2048-6.1952l-0.1536-3.84c-0.1024-1.9456-0.1536-3.84-0.256-5.7856-0.0512-1.3824-0.1536-2.7648-0.2048-4.1472l-0.3072-5.6832-0.3072-4.1984c-0.1536-1.8944-0.256-3.84-0.4096-5.7344-0.1024-1.4336-0.256-2.8672-0.3584-4.352-0.1536-1.8944-0.3072-3.7888-0.512-5.6832-0.1536-1.4848-0.3072-2.9696-0.4096-4.4544-0.2048-1.8944-0.3584-3.7888-0.5632-5.632-0.1536-1.536-0.3584-3.0208-0.512-4.5568-0.2048-1.8944-0.4096-3.7888-0.6656-5.632-0.2048-1.536-0.4096-3.0208-0.5632-4.5568l-0.768-5.632c-0.2048-1.536-0.4608-3.072-0.6656-4.608-0.256-1.8432-0.5632-3.7376-0.8704-5.5808l-0.768-4.608a208.384 208.384 0 0 0-0.9728-5.5296c-0.256-1.536-0.5632-3.072-0.8704-4.5568l-1.0752-5.5296-0.9216-4.5568c-0.3584-1.8432-0.768-3.6352-1.1776-5.4272-0.3584-1.4848-0.6656-3.0208-1.024-4.5056-0.4096-1.792-0.8704-3.584-1.28-5.376-0.3584-1.4848-0.7168-2.9696-1.1264-4.4032-0.4608-1.792-0.9216-3.5328-1.4336-5.3248l-1.2288-4.352-1.536-5.2224c-0.4096-1.3824-0.8704-2.816-1.28-4.1984-0.5632-1.7408-1.1264-3.4304-1.6896-5.1712-0.4608-1.3824-0.9216-2.7136-1.3824-4.096l-1.8432-5.0688c-0.512-1.3312-0.9728-2.6112-1.4848-3.9424-0.6656-1.6896-1.3312-3.2768-1.9968-4.9152-0.512-1.28-1.024-2.56-1.5872-3.7888-0.7168-1.6384-1.4336-3.2256-2.1504-4.8128-0.5632-1.2288-1.1264-2.4064-1.6896-3.6352-0.768-1.5872-1.5872-3.1232-2.3552-4.7104-0.5632-1.1264-1.1264-2.2528-1.7408-3.3792-0.8192-1.5872-1.6896-3.072-2.56-4.608-0.6144-1.024-1.1776-2.0992-1.792-3.1232-0.9216-1.536-1.8944-3.0208-2.816-4.5056-0.6144-0.9728-1.2288-1.9456-1.8432-2.8672-1.024-1.536-2.048-2.9696-3.1232-4.4032-0.6144-0.8192-1.1776-1.6896-1.792-2.5088-1.1776-1.536-2.3552-2.9696-3.5328-4.4544-0.5632-0.6656-1.1264-1.3824-1.6896-2.048-1.4336-1.6896-2.9184-3.2768-4.4032-4.8128-0.3584-0.4096-0.768-0.8192-1.1264-1.2288-1.8944-1.9456-3.84-3.84-5.888-5.5808l-0.1536-0.1536c-1.8432-1.6384-3.7376-3.1232-5.632-4.608-0.512-0.3584-1.024-0.768-1.4848-1.1264-1.9456-1.4336-3.9424-2.7648-5.9392-4.0448-0.3072-0.2048-0.6144-0.3584-0.9216-0.5632-1.792-1.1264-3.6864-2.0992-5.5296-3.072-0.512-0.256-0.9728-0.512-1.4848-0.768-2.0992-1.024-4.1984-1.9456-6.3488-2.816-0.4096-0.1536-0.8704-0.3072-1.28-0.4608-1.9456-0.7168-3.8912-1.3824-5.888-1.9456-0.4096-0.1024-0.8192-0.256-1.2288-0.3584-2.2528-0.6144-4.5056-1.1264-6.8096-1.5872-0.512-0.1024-0.9728-0.1536-1.4848-0.256-2.1504-0.3584-4.352-0.6656-6.5536-0.8704-0.256 0-0.512-0.0512-0.768-0.1024-2.4064-0.2048-4.8128-0.3072-7.3216-0.3072-0.256 0-0.512-0.0512-0.768-0.0512-0.256 0-0.512 0.0512-0.768 0.0512-2.816 0-5.632 0.1536-8.4992 0.4096-0.3584 0.0512-0.768 0.1024-1.1264 0.1024-3.0208 0.3072-6.0928 0.7168-9.1648 1.28-31.3856 5.888-55.808 22.1696-72.4992 48.4864-41.6256 65.5872-25.4464 177.7664-11.1616 241.7664-3.7888-2.0992-7.4752-3.9936-11.1616-5.7856a1.536 1.536 0 0 1-0.4096-0.2048c-28.8768-14.0288-54.272-18.5856-76.0832-17.5616 4.9664-65.5872 21.4528-154.9824 69.9904-229.3248z m363.1104 324.6592c0 23.2448-37.0688 42.9056-80.9472 42.9056s-80.9472-19.6608-80.9472-42.9056c0-13.568 12.6976-25.856 31.9488-33.792 7.5776 2.304 21.76 3.4816 48.9984 3.4816s41.472-1.1776 48.9984-3.4816c19.2512 7.936 31.9488 20.224 31.9488 33.792z m355.4816 74.7008c-64.8704 131.072-319.8464 140.0832-322.4576 140.1856-2.4064 0.0512-4.7104 1.024-6.5536 2.6112-0.4608 0.4096-44.9024 39.3728-107.1616 39.3728-62.3104 0-107.3664-39.0144-107.8272-39.424-1.792-1.5872-4.096-2.5088-6.5024-2.56-2.7648-0.1024-278.7328-9.8304-329.4208-156.928-11.776-34.2528-4.9152-71.424 17.9712-97.024 9.7792-10.9568 36.5056-35.4304 79.2576-35.4304 18.7904 0 40.6528 4.7616 65.536 17.4592 0.3072 0.1536 0.5632 0.3072 0.8704 0.4608 1.792 0.9216 3.584 1.8432 5.376 2.8672l1.8432 1.0752c1.536 0.8704 3.072 1.7408 4.608 2.6624 1.0752 0.6144 2.1504 1.3312 3.2256 1.9968 1.1264 0.7168 2.304 1.3824 3.4304 2.1504 2.2528 1.4848 4.5568 2.9696 6.8608 4.5568 2.6624 1.792 5.9392 2.2528 8.8576 1.3312a10.2656 10.2656 0 0 0 6.8608-12.3392c-10.6496-40.9088-41.8304-179.8656 2.7136-250.0608 12.032-18.944 28.3136-31.1296 49.5616-37.1712 3.0208-0.8704 6.1952-1.5872 9.4208-2.2016 24.064-4.5056 44.288 0.8704 61.7984 16.384 1.024 0.9216 2.048 1.9456 3.072 2.9184 0.768 0.768 1.5872 1.4848 2.3552 2.2528 0.9728 0.9728 1.8432 2.048 2.7648 3.072 0.768 0.8704 1.5872 1.7408 2.3552 2.6624 0.9216 1.0752 1.7408 2.2016 2.6112 3.328l2.2528 2.8672c0.8192 1.1264 1.6384 2.3552 2.4576 3.5328 0.7168 1.024 1.4336 2.048 2.1504 3.1744 0.768 1.2288 1.536 2.4576 2.2528 3.7376 0.6656 1.1264 1.3824 2.2528 2.048 3.3792 0.7168 1.28 1.4336 2.6112 2.1504 3.9424 0.6144 1.1776 1.28 2.3552 1.8944 3.584 0.6656 1.3312 1.3312 2.7136 1.9968 4.096 0.6144 1.28 1.2288 2.5088 1.792 3.7888 0.6144 1.3824 1.2288 2.816 1.8432 4.2496 0.5632 1.3312 1.1264 2.6112 1.6896 3.9424 0.5632 1.4336 1.1264 2.9184 1.7408 4.4032 0.512 1.3824 1.0752 2.7136 1.5872 4.1472 0.5632 1.4848 1.0752 3.0208 1.5872 4.5568 0.512 1.4336 0.9728 2.816 1.4336 4.2496 0.512 1.536 0.9728 3.072 1.4848 4.6592 0.4608 1.4848 0.9216 2.9184 1.3312 4.4032 0.4608 1.5872 0.9216 3.1744 1.3312 4.7616l1.2288 4.5056c0.4096 1.5872 0.8192 3.2256 1.2288 4.864 0.3584 1.536 0.768 3.072 1.1264 4.608 0.4096 1.6384 0.768 3.2768 1.1264 4.9152 0.3584 1.536 0.7168 3.1232 1.024 4.7104 0.3584 1.6384 0.7168 3.328 1.024 4.9664l0.9216 4.7616 0.9216 5.0176c0.3072 1.5872 0.5632 3.2256 0.8192 4.8128 0.3072 1.6896 0.5632 3.3792 0.8192 5.0688 0.256 1.5872 0.512 3.1744 0.768 4.8128l0.768 5.12c0.2048 1.5872 0.4608 3.2256 0.6656 4.8128 0.2048 1.6896 0.4608 3.3792 0.6656 5.0688 0.2048 1.6384 0.4096 3.2256 0.5632 4.864 0.2048 1.6896 0.4096 3.3792 0.5632 5.0688 0.1536 1.5872 0.3584 3.2256 0.512 4.8128 0.1536 1.6896 0.3584 3.3792 0.512 5.0688 0.1536 1.5872 0.3072 3.1744 0.4096 4.7616 0.1536 1.6896 0.3072 3.3792 0.4096 5.0688 0.1024 1.536 0.2048 3.072 0.3584 4.6592 0.1024 1.6896 0.256 3.3792 0.3584 5.0176 0.1024 1.536 0.2048 3.072 0.256 4.5568 0.1024 1.6384 0.2048 3.328 0.256 4.9664 0.0512 1.4848 0.1536 2.9696 0.2048 4.4544 0.0512 1.6384 0.1536 3.328 0.2048 4.9664l0.1536 4.3008 0.1536 4.8128c0.0512 1.4336 0.0512 2.8672 0.1024 4.3008 0.0512 1.536 0.0512 3.1232 0.1024 4.6592 0 1.3824 0 2.7136 0.0512 4.096 0 1.536 0 3.1232 0.0512 4.608v3.8912c0 1.4848 0 3.0208-0.0512 4.4544 0 1.28-0.0512 2.56-0.0512 3.84 0 1.4336-0.0512 2.816-0.0512 4.1984-0.0512 1.2288-0.0512 2.3552-0.1024 3.584-0.0512 1.3824-0.0512 2.816-0.1024 4.1472l-0.1536 3.2256-0.1536 4.0448v0.1024c-0.3072 0.1536-0.6144 0.3584-0.9216 0.5632-29.4912 10.9568-48.896 30.976-48.896 54.3744 0 35.5328 44.544 63.3856 101.4272 63.3856s101.4272-27.8528 101.4272-63.3856c0-23.3984-19.4048-43.4176-48.896-54.3744a8.9088 8.9088 0 0 0-0.9216-0.5632v-0.1024l-0.1536-4.0448-0.1536-3.2256c-0.0512-1.3312-0.1024-2.7648-0.1024-4.1472-0.0512-1.1776-0.0512-2.3552-0.1024-3.584-0.0512-1.3824-0.0512-2.816-0.0512-4.1984 0-1.28-0.0512-2.56-0.0512-3.84 0-1.4848 0-2.9696-0.0512-4.4544v-3.8912c0-1.536 0-3.072 0.0512-4.608 0-1.3824 0-2.7136 0.0512-4.096 0-1.536 0.0512-3.072 0.1024-4.6592 0.0512-1.4336 0.0512-2.8672 0.1024-4.3008l0.1536-4.7616 0.1536-4.4032c0.0512-1.5872 0.1536-3.2256 0.2048-4.8128 0.0512-1.536 0.1536-3.0208 0.2048-4.5568 0.1024-1.6384 0.1536-3.2768 0.256-4.9152 0.1024-1.536 0.1536-3.072 0.256-4.6592 0.1024-1.6384 0.2048-3.328 0.3584-5.0176 0.1024-1.536 0.2048-3.1232 0.3584-4.7104 0.1536-1.6384 0.256-3.328 0.4096-4.9664 0.1536-1.6384 0.256-3.2256 0.4096-4.864l0.4608-4.9664c0.1536-1.6384 0.3072-3.2768 0.512-4.864 0.2048-1.6896 0.3584-3.328 0.5632-5.0176 0.2048-1.6384 0.4096-3.2768 0.5632-4.9152 0.2048-1.6896 0.4096-3.328 0.6656-5.0176 0.2048-1.6384 0.4608-3.2768 0.6656-4.9152 0.256-1.6896 0.4608-3.328 0.7168-5.0176l0.768-4.9152c0.256-1.6384 0.512-3.328 0.8192-4.9664 0.256-1.6384 0.5632-3.2768 0.8704-4.9152l0.9216-4.9152c0.3072-1.6384 0.6144-3.2768 0.9728-4.9152 0.3072-1.5872 0.6656-3.2256 0.9728-4.8128l1.0752-4.864 1.0752-4.7616c0.3584-1.5872 0.768-3.1744 1.1776-4.7616 0.4096-1.5872 0.768-3.1232 1.1776-4.6592 0.4096-1.5872 0.8704-3.1744 1.28-4.7616 0.4096-1.536 0.8704-3.0208 1.28-4.5568 0.4608-1.5872 0.9216-3.1232 1.4336-4.6592l1.3824-4.4544c0.512-1.536 1.024-3.0208 1.536-4.5056 0.512-1.4336 0.9728-2.8672 1.4848-4.3008 0.512-1.4848 1.1264-2.9184 1.6384-4.4032 0.512-1.3824 1.0752-2.816 1.6384-4.1472 0.5632-1.4336 1.1776-2.816 1.792-4.2496 0.5632-1.3312 1.1264-2.6624 1.7408-3.9936 0.6144-1.3824 1.28-2.7136 1.9456-4.096l1.8432-3.84c0.6656-1.3312 1.3824-2.6112 2.0992-3.9424 0.6656-1.1776 1.28-2.4064 1.9456-3.584 0.7168-1.28 1.4848-2.5088 2.2528-3.7888 0.6656-1.1264 1.3312-2.2528 2.048-3.328 0.768-1.2288 1.6384-2.4064 2.4576-3.584 0.7168-1.024 1.3824-2.0992 2.1504-3.1232 0.8704-1.1776 1.7408-2.304 2.6624-3.4304 0.7168-0.9216 1.4336-1.8944 2.2016-2.816 0.9728-1.1776 1.9968-2.304 3.0208-3.4304 0.7168-0.768 1.3824-1.5872 2.0992-2.304 1.3824-1.4336 2.8672-2.816 4.3008-4.1472 0.3584-0.3584 0.7168-0.7168 1.0752-1.024 10.9568-9.6768 22.9888-15.4112 36.3008-17.2544 7.9872-1.0752 16.4864-0.8192 25.4976 0.8704 3.2256 0.6144 6.4 1.3312 9.4208 2.2016 21.2992 5.9904 37.5808 18.2272 49.5616 37.1712 4.1984 6.6048 7.68 13.7728 10.5984 21.4016 28.2624 73.984 1.7408 191.5904-7.8848 228.6592a10.2656 10.2656 0 0 0 6.8608 12.3392c2.9696 0.9216 6.2464 0.4608 8.8576-1.3312 2.304-1.5872 4.608-3.072 6.8608-4.5568l1.6896-1.0752c1.7408-1.0752 3.4816-2.2016 5.2224-3.2256 0.5632-0.3584 1.1776-0.6656 1.7408-1.024 1.792-1.024 3.5328-2.048 5.2736-3.0208l1.3824-0.768c2.0992-1.1264 4.1472-2.2016 6.1952-3.2256l0.3072-0.1536c28.2112-13.9776 55.04-19.0464 80.1792-15.104h0.4608c13.824 2.2528 25.5488 7.0656 35.072 12.5952 45.3632 26.7264 61.8496 86.272 37.376 135.7312z" fill="#3A2517" p-id="1701"></path><path d="M726.3744 688.0768c-4.5056-3.3792-10.9568-2.4576-14.336 2.048-0.6656 0.9216-69.12 90.2656-193.3824 90.2656-124.7232 0-213.1456-90.2656-214.016-91.1872a10.26048 10.26048 0 0 0-14.7968 14.2336c1.9968 2.0992 28.3136 29.0304 72.2432 54.016 4.0448 13.3632 49.5104 155.392 152.9856 155.392 104.0896 0 143.8208-140.4928 147.0976-152.7808 42.0864-26.0608 64.5632-55.3984 66.2528-57.6 3.3792-4.5568 2.4576-10.9568-2.048-14.3872z m-211.3024 204.288c-69.5808 0-110.592-81.9712-126.208-121.1392 35.7888 16.5888 79.8208 29.6448 129.792 29.6448 46.6944 0 85.9136-11.4176 117.2992-26.4704-14.0288 38.3488-51.5584 117.9648-120.8832 117.9648z" fill="#3A2517" p-id="1702"></path></svg>