<?xml version="1.0" standalone="no"?><!DOCTYPE svg PUBLIC "-//W3C//DTD SVG 1.1//EN" "http://www.w3.org/Graphics/SVG/1.1/DTD/svg11.dtd"><svg t="1665368800648" class="icon" viewBox="0 0 1465 1024" version="1.1" xmlns="http://www.w3.org/2000/svg" p-id="4475" xmlns:xlink="http://www.w3.org/1999/xlink" width="286.1328125" height="200"><path d="M1428.622963 470.009765L992.317735 33.704537a60.611992 60.611992 0 0 0-43.029458-17.751056h-0.056174c-16.290526 0-31.62609 6.347688-43.085633 17.80723l-175.038894 175.095068L556.124856 33.816885a60.499643 60.499643 0 0 0-42.973284-17.80723h-0.112349a61.061386 61.061386 0 0 0-43.085633 17.863404L27.132152 476.750672v1.179659a60.668166 60.668166 0 0 0 6.628559 78.363048l436.192879 436.249053c11.515717 11.459542 26.795107 17.80723 42.804762 17.807231h0.337045c16.065829 0 31.738439-6.51621 43.141807-17.807231l174.98272-175.038894 174.926546 174.98272c11.29102 11.347194 26.851281 17.80723 42.580065 17.80723h0.617916c16.234352 0 31.569916-6.347688 43.141807-17.863404l442.821439-442.765264v-1.292007a61.229908 61.229908 0 0 0-6.684734-78.363048z m-959.287289 0.280871a61.061386 61.061386 0 0 0 0.617916 86.002743l175.038895 174.98272-131.953262 132.009435-350.077788-350.133962 350.077788-350.021614 170.095562 169.814691c1.516704 1.966098 3.145757 3.763673 7.976741 8.257611l215.203467 215.147293a61.061386 61.061386 0 0 0 103.64145-42.91711 60.780515 60.780515 0 0 0-17.582533-43.422678L817.335016 295.027045l132.009435-132.009436 350.077788 350.021614-350.077788 350.077788-169.870865-169.702342a67.970816 67.970816 0 0 0-8.482308-8.76318L555.563114 469.504197a61.061386 61.061386 0 0 0-86.22744 0.786439z" p-id="4476"></path></svg>