<?xml version="1.0" standalone="no"?>
<!DOCTYPE svg PUBLIC "-//W3C//DTD SVG 1.1//EN" "http://www.w3.org/Graphics/SVG/1.1/DTD/svg11.dtd"><svg t="1665369428894"
  class="icon" viewBox="0 0 1024 1024" version="1.1" xmlns="http://www.w3.org/2000/svg" p-id="18468"
  xmlns:xlink="http://www.w3.org/1999/xlink" width="200" height="200">
  <path
    d="M689.28 417.92l-63.36 63.36-63.36-63.36-45.44 45.44 63.36 64-63.36 63.36 45.44 46.08 63.36-64 63.36 64 45.44-46.08-63.36-63.36 63.36-64zM160 581.76V192.64c0-17.92 14.08-32 32-32h416c17.92 0 32 14.72 32 32v32h64v-32c0-53.12-42.88-96.64-96-96.64H192c-53.12 0-96 43.52-96 96.64v526.72l167.68-140.8-40.96-49.92-62.72 53.12z"
    fill="" p-id="18469"></path>
  <path
    d="M832 289.28H416c-53.12 0-96 43.52-96 96.64v289.92c0 53.12 42.88 96.64 96 96.64h309.12l202.88 155.52V385.92c0-53.12-42.88-96.64-96-96.64z m32 508.8l-117.12-89.6H416c-17.92 0-32-14.72-32-32V385.92c0-17.92 14.08-32 32-32H832c17.92 0 32 14.72 32 32v412.16z"
    fill="" p-id="18470"></path>
</svg>