<?xml version="1.0" standalone="no"?><!DOCTYPE svg PUBLIC "-//W3C//DTD SVG 1.1//EN" "http://www.w3.org/Graphics/SVG/1.1/DTD/svg11.dtd"><svg t="1665368990252" class="icon" viewBox="0 0 1025 1024" version="1.1" xmlns="http://www.w3.org/2000/svg" p-id="7608" xmlns:xlink="http://www.w3.org/1999/xlink" width="200.1953125" height="200"><path d="M511.308498 958.895809c-246.714723 0-447.417311-200.702588-447.417311-447.423311 0-246.714723 200.702588-447.417311 447.417311-447.417311 246.721723 0 447.423311 200.702588 447.423311 447.417311C958.731809 758.194221 758.029221 958.895809 511.308498 958.895809L511.308498 958.895809zM511.308498 128.259376c-211.307619 0-383.213123 171.905504-383.213123 383.213123 0 211.279619 171.905504 383.219123 383.213123 383.219123 211.279619 0 383.219123-171.939504 383.219123-383.219123C894.527621 300.165879 722.588117 128.259376 511.308498 128.259376L511.308498 128.259376zM511.308498 128.259376" p-id="7609"></path><path d="M648.5469 603.031767 396.433161 603.031767 396.433161 290.641851c0-0.917003 0.719002-1.636005 1.637005-1.636005l27.520081 0 0 252.058738c0 12.355036 10.051029 22.406066 22.406066 22.406066 12.298036 0 22.302065-10.07303 22.302065-22.455066L470.298378 288.955847l143.599421 0c0.933003 0 1.638005 0.704002 1.638005 1.637005L615.535803 540.967585c0 12.299036 10.007029 22.306065 22.306065 22.306065 12.353036 0 22.403066-10.007029 22.403066-22.306065L660.244934 290.641851c0-25.555075-20.791061-46.346136-46.347136-46.346136l-215.780632 0c-25.555075 0-46.346136 20.791061-46.346136 46.346136l0 338.07999c0 2.989009 0.572002 5.859017 1.689005 8.502025 1.168003 2.828008 2.821008 5.294016 4.875014 7.290021l121.436356 121.388356c8.121024 8.225024 19.110056 12.754037 30.942091 12.754037 11.758034 0 22.757067-4.524013 30.970091-12.737037l121.456356-121.454356c2.444007-2.446007 4.203012-5.557016 5.371016-9.503028 1.572005-3.25401 2.337007-6.372019 2.337007-9.524028C670.849965 613.082796 660.844936 603.031767 648.5469 603.031767zM596.601748 647.744898l-85.937252 85.982252-85.938252-85.982252L596.601748 647.744898z" p-id="7610"></path></svg>