<?xml version="1.0" standalone="no"?>
<!DOCTYPE svg PUBLIC "-//W3C//DTD SVG 1.1//EN" "http://www.w3.org/Graphics/SVG/1.1/DTD/svg11.dtd"><svg t="1667294569899"
    class="icon" viewBox="0 0 1024 1024" version="1.1" xmlns="http://www.w3.org/2000/svg" p-id="1146"
    xmlns:xlink="http://www.w3.org/1999/xlink" width="100" height="100">
    <path
        d="M689.8688 259.1744c0-95.5904-77.5168-173.1072-173.1072-173.1072h-5.9904c-95.5904 0-173.1072 77.5168-173.1072 173.1072v85.9648h352.2048V259.1744z"
        fill="" p-id="1147"></path>
    <path
        d="M503.6544 651.9296h20.1728c105.6768 0 191.6416-85.9648 191.6416-191.5904v-6.8608c0-14.1312-11.4688-25.6-25.6-25.6s-25.6 11.4688-25.6 25.6v6.8608c0 77.4144-62.976 140.3904-140.4416 140.3904h-20.1728c-77.4144 0-140.4416-62.976-140.4416-140.3904V370.7904h301.8752c2.816 11.1104 12.7488 19.3536 24.7296 19.3536 14.1312 0 25.6-11.4688 25.6-25.6v-30.72c0-14.1312-11.4688-25.6-25.6-25.6-8.8576 0-16.64 4.5056-21.248 11.3152H363.2128V259.1744c0-81.3568 66.1504-147.5072 147.5072-147.5072h5.9904c79.616 0 144.384 62.2592 147.4048 141.7728 0.5632 14.1312 12.4416 25.2416 26.5728 24.576a25.58464 25.58464 0 0 0 24.576-26.5728 198.07744 198.07744 0 0 0-198.5536-191.0272h-5.9904c-109.568 0-198.7072 89.1392-198.7072 198.7072V460.288c0 105.6768 85.9648 191.6416 191.6416 191.6416z"
        fill="#44454A" p-id="1148"></path>
    <path
        d="M821.6064 352.8704c-14.1312 0-25.6 11.4688-25.6 25.6v75.3664c0 155.648-126.6176 282.2656-282.2656 282.2656s-282.2656-126.6176-282.2656-282.2656V378.4704c0-14.1312-11.4688-25.6-25.6-25.6s-25.6 11.4688-25.6 25.6v75.3664c0 175.2576 135.936 319.232 307.8656 332.3904v126.1056H356.352c-14.1312 0-25.6 11.4688-25.6 25.6s11.4688 25.6 25.6 25.6h314.7776c14.1312 0 25.6-11.4688 25.6-25.6s-11.4688-25.6-25.6-25.6h-131.7888v-126.1056c171.9296-13.1072 307.8656-157.1328 307.8656-332.3904V378.4704c0-14.1312-11.4688-25.6-25.6-25.6z"
        fill="#44454A" p-id="1149"></path>
</svg>