<?xml version="1.0" standalone="no"?><!DOCTYPE svg PUBLIC "-//W3C//DTD SVG 1.1//EN" "http://www.w3.org/Graphics/SVG/1.1/DTD/svg11.dtd"><svg t="1665369231813" class="icon" viewBox="0 0 1025 1024" version="1.1" xmlns="http://www.w3.org/2000/svg" p-id="11384" xmlns:xlink="http://www.w3.org/1999/xlink" width="200.1953125" height="200"><path d="M403.494 877.807c-43.434-21.288-90.129-34.678-137.426-40.344 1.631-11.674 3.176-23.176 4.721-34.592 10.558-6.953 18.112-17.167 18.798-25.665 1.288-10.644 2.489-21.288 3.691-32.103 1.459 1.631 3.348 2.747 5.579 3.004 5.064 0.515 9.528-3.176 10.129-8.326l4.979-49.442c0.515-5.064-3.176-9.7-8.155-10.215-1.888-0.258-3.777 0.257-5.322 1.03 1.116-9.356 2.146-18.713 3.262-28.069 0.858-12.961 6.953-47.211-17.253-69.442-34.936-35.193-112.104-35.193-147.125 0-24.206 22.232-18.026 56.481-17.167 69.442 1.116 9.442 2.146 18.798 3.262 28.069-1.545-0.773-3.433-1.288-5.236-1.03-4.979 0.515-8.67 5.15-8.155 10.215l4.979 49.442c0.515 5.064 4.979 8.841 10.043 8.326 2.232-0.172 4.206-1.373 5.665-3.004 1.116 10.816 2.403 21.459 3.605 32.103 0.773 8.498 8.24 18.627 18.884 25.665 1.545 11.416 3.09 22.919 4.635 34.507-47.382 5.751-93.906 19.056-137.426 40.344C8.47 885.275-1.315 904.76 0.144 919.867c1.631 17.339 3.348 34.678 5.15 52.103 1.459 15.022 14.163 30.043 28.241 32.876 119.056 19.571 240.001 19.571 359.144 0 14.077-2.918 26.61-17.854 28.241-32.876 1.631-17.425 3.348-34.678 4.979-52.103C427.357 904.76 417.486 885.275 403.494 877.807zM1001.437 877.807c-43.434-21.288-90.043-34.678-137.34-40.344 1.545-11.588 3.09-23.09 4.807-34.592 10.472-6.953 18.026-17.167 18.798-25.665 1.202-10.644 2.489-21.288 3.605-32.103 1.545 1.631 3.348 2.747 5.665 3.004 5.064 0.515 9.442-3.176 9.957-8.326l5.064-49.442c0.515-5.064-3.09-9.7-8.155-10.215-1.803-0.258-3.691 0.258-5.322 1.03 1.116-9.356 2.232-18.713 3.262-28.069 0.773-12.961 7.125-47.211-17.082-69.442-35.107-35.193-112.275-35.193-147.211 0-24.206 22.232-18.026 56.481-17.167 69.442 1.03 9.356 1.974 18.712 3.176 28.069-1.545-0.773-3.434-1.288-5.408-1.03-4.979 0.515-8.584 5.15-8.069 10.215l5.064 49.442c0.429 5.064 4.979 8.841 9.957 8.326 2.318-0.172 4.292-1.373 5.665-3.004 1.202 10.816 2.403 21.459 3.605 32.103 0.858 8.498 8.326 18.627 18.884 25.665 1.545 11.416 3.09 22.919 4.721 34.507-47.382 5.751-93.992 19.056-137.426 40.344-13.992 7.554-23.863 27.039-22.404 42.146 1.717 17.339 3.434 34.678 5.15 52.103 1.545 15.022 14.163 30.043 28.155 32.876 119.142 19.571 240.087 19.571 359.144 0 14.077-2.918 26.695-17.854 28.241-32.876 1.717-17.425 3.434-34.678 5.064-52.103C1025.386 904.76 1015.515 885.275 1001.437 877.807zM702.466 325.014c-43.52-21.202-90.043-34.507-137.426-40.344 1.631-11.416 3.176-23.09 4.721-34.592 10.644-6.867 18.112-16.996 18.798-25.494 1.288-10.816 2.489-21.459 3.777-32.103 1.459 1.545 3.433 2.575 5.665 2.918 4.979 0.429 9.442-3.262 9.871-8.326l5.064-49.442c0.601-5.064-3.176-9.614-8.155-10.215-1.803-0.172-3.691 0.258-5.322 1.116 1.202-9.442 2.318-18.798 3.262-28.241 0.858-12.876 7.125-47.211-17.168-69.357-34.936-35.279-112.104-35.279-147.039 0-24.206 22.146-18.026 56.481-17.167 69.357 1.03 9.442 2.232 18.798 3.262 28.241-1.631-0.858-3.433-1.288-5.322-1.116-5.064 0.601-8.755 5.15-8.24 10.215l4.979 49.442c0.601 5.064 5.064 8.755 9.957 8.326 2.232-0.258 4.292-1.373 5.751-2.918 1.116 10.644 2.403 21.288 3.605 32.103 0.773 8.498 8.326 18.627 18.884 25.494 1.545 11.502 3.09 23.004 4.635 34.592-47.382 5.837-93.906 19.228-137.34 40.429-14.077 7.468-23.949 27.039-22.404 42.146 1.631 17.339 3.348 34.764 5.15 52.103 1.459 15.107 14.163 30.043 28.155 32.79 119.142 19.657 240.087 19.657 359.144 0 14.077-2.747 26.61-17.683 28.241-32.79 1.717-17.339 3.433-34.764 4.979-52.103C726.243 352.139 716.457 332.568 702.466 325.014zM654.483 747.677 537.915 678.75 537.915 540.981c0-14.678-11.588-26.524-26.009-26.524-14.335 0-25.923 11.846-25.923 26.524l0 137.683-116.481 69.013c-12.446 7.382-16.738 23.691-9.442 36.395 4.807 8.584 13.476 13.391 22.575 13.391 4.378 0 8.927-1.202 12.876-3.605l116.481-68.842 116.567 68.842c4.034 2.403 8.584 3.605 12.961 3.605 9.013 0 17.768-4.807 22.489-13.391C671.135 771.368 666.929 755.059 654.483 747.677z" p-id="11385"></path></svg>