<?xml version="1.0" standalone="no"?>
<!DOCTYPE svg PUBLIC "-//W3C//DTD SVG 1.1//EN" "http://www.w3.org/Graphics/SVG/1.1/DTD/svg11.dtd"><svg t="1665368874926"
    class="icon" viewBox="0 0 1024 1024" version="1.1" xmlns="http://www.w3.org/2000/svg" p-id="5446"
    xmlns:xlink="http://www.w3.org/1999/xlink" width="200" height="200">
    <path
        d="M61.141068 400.532698L3.815672 725.688936l61.197513 74.337875 83.560965-473.80941H-0.067734zM79.169555 298.333642h74.315297l-61.208801-74.315297zM359.011862 660.653173l-13.095206 74.337875 53.566168 65.024474 13.095207-74.326586zM455.171319 484.138819v0.011289H287.959077l59.3687 72.068792L107.64034 716.398113 92.908233 800.015522l347.508401-232.259293 1.648189-9.302112h0.011289l13.106496-74.304009h-0.011289zM494.490806 261.181638H187.904926l-13.095207 74.315297 61.208802 74.315298 19.676677-111.478591h157.921418l-26.201702 148.641884h74.315297l32.771884-185.793888h-0.011289z"
        p-id="5447"></path>
    <path
        d="M617.224501 400.543987l-57.359263 325.156238 61.23138 74.326586 83.527098-473.80941H556.00441zM635.23041 298.344931h74.315297L648.325616 224.018345zM982.783966 224.018345h-74.326586l-32.749306 185.805177H717.7415l30.626979 37.163293H869.137893l-62.224809 353.039996 87.410504-74.326586 49.140891-278.71341h74.315298l6.558892-37.163293h-74.326586z"
        p-id="5448"></path>
</svg>