<svg t="1672825954953" class="icon" viewBox="0 0 1024 1024" version="1.1" xmlns="http://www.w3.org/2000/svg" p-id="30857" width="32" height="32"><path d="M874.656 256H665.6l4.256-8.544s0-4.256 4.256-4.256l4.256-8.544c0-8.544 4.256-21.344 4.256-38.4v-38.4c0-29.856-12.8-59.744-34.144-81.056s-51.2-34.144-81.056-34.144h-51.2c-42.656 0-81.056 21.344-106.656 64-38.4 85.344-89.6 157.856-157.856 221.856l-12.8 12.8H42.656c-25.6 0-42.656 17.056-42.656 42.656v384c0 25.6 17.056 42.656 42.656 42.656H243.2l115.2 76.8c8.544 4.256 17.056 8.544 25.6 8.544h256c12.8 0 25.6-4.256 34.144-17.056l128-170.656c4.256-8.544 8.544-17.056 8.544-25.6v-128h64c85.344 0 149.344-64 149.344-149.344s-64-149.344-149.344-149.344zM85.344 725.344V640h85.344v85.344H85.344z m789.312-256h-149.344c-25.6 0-42.656 17.056-42.656 42.656s17.056 42.656 42.656 42.656v115.2l-106.656 140.8H396.8l-115.2-76.8c-8.544-4.256-17.056-8.544-25.6-8.544v-298.656c12.8 0 21.344-4.256 29.856-12.8l25.6-25.6c72.544-72.544 132.256-153.6 174.944-243.2 4.256-8.544 17.056-17.056 29.856-17.056h51.2c8.544 0 17.056 4.256 21.344 8.544s8.544 17.056 8.544 21.344v38.4c0 4.256 0 4.256-4.256 12.8l-34.144 72.544c-8.544 12.8-4.256 29.856 0 42.656s25.6 17.056 38.4 17.056h277.344c34.144 0 64 29.856 64 64s-29.856 64-64 64z" p-id="30858"></path></svg>
