<svg t="1672838437372" class="icon" viewBox="0 0 1024 1024" version="1.1" xmlns="http://www.w3.org/2000/svg" p-id="36667" width="32" height="32"><path d="M512 972.8c-6.826667 0-13.653333-1.706667-18.773333-6.826667l-105.813334-105.813333H128c-51.2 0-93.866667-42.666667-93.866667-93.866667V223.573333c0-51.2 42.666667-93.866667 93.866667-93.866666h768c51.2 0 93.866667 42.666667 93.866667 93.866666v542.72c0 51.2-42.666667 93.866667-93.866667 93.866667H634.88L529.066667 965.973333c-3.413333 5.12-10.24 6.826667-17.066667 6.826667zM128 180.906667c-23.893333 0-42.666667 18.773333-42.666667 42.666666v542.72c0 23.893333 18.773333 42.666667 42.666667 42.666667h271.36c6.826667 0 13.653333 3.413333 18.773333 6.826667l95.573334 95.573333 95.573333-95.573333c5.12-5.12 11.946667-6.826667 18.773333-6.826667h271.36c23.893333 0 42.666667-18.773333 42.666667-42.666667V223.573333c0-23.893333-18.773333-42.666667-42.666667-42.666666H128z" fill="#333333" p-id="36668"></path><path d="M421.546667 384h-170.666667c-13.653333 0-25.6-11.946667-25.6-25.6s11.946667-25.6 25.6-25.6h170.666667c13.653333 0 25.6 11.946667 25.6 25.6s-11.946667 25.6-25.6 25.6zM331.093333 566.613333h-80.213333c-13.653333 0-25.6-11.946667-25.6-25.6s11.946667-25.6 25.6-25.6h80.213333c13.653333 0 25.6 11.946667 25.6 25.6s-11.946667 25.6-25.6 25.6zM783.36 657.066667c-8.533333 0-18.773333-5.12-22.186667-13.653334l-158.72-317.44c-6.826667-11.946667-1.706667-27.306667 11.946667-34.133333 11.946667-6.826667 27.306667-1.706667 34.133333 11.946667l158.72 317.44c6.826667 11.946667 1.706667 27.306667-11.946666 34.133333-3.413333 0-8.533333 1.706667-11.946667 1.706667z" fill="#333333" p-id="36669"></path><path d="M465.92 657.066667c-3.413333 0-8.533333-1.706667-11.946667-3.413334-11.946667-6.826667-17.066667-22.186667-11.946666-34.133333l158.72-317.44c6.826667-11.946667 22.186667-17.066667 34.133333-11.946667 11.946667 6.826667 17.066667 22.186667 11.946667 34.133334l-158.72 317.44c-3.413333 8.533333-11.946667 15.36-22.186667 15.36z" fill="#333333" p-id="36670"></path><path d="M738.986667 566.613333H512c-13.653333 0-25.6-11.946667-25.6-25.6s11.946667-25.6 25.6-25.6h226.986667c13.653333 0 25.6 11.946667 25.6 25.6s-11.946667 25.6-25.6 25.6z" fill="" p-id="36671"></path></svg>
