<?xml version="1.0" standalone="no"?>
<!DOCTYPE svg PUBLIC "-//W3C//DTD SVG 1.1//EN" "http://www.w3.org/Graphics/SVG/1.1/DTD/svg11.dtd"><svg t="1669269233794"
    class="icon" viewBox="0 0 1024 1024" version="1.1" xmlns="http://www.w3.org/2000/svg" p-id="24035"
    xmlns:xlink="http://www.w3.org/1999/xlink" width="100" height="100">
    <path
        d="M0 136.594286m70.034286 0l883.931428 0q70.034286 0 70.034286 70.034285l0 61.074286q0 70.034286-70.034286 70.034286l-883.931428 0q-70.034286 0-70.034286-70.034286l0-61.074286q0-70.034286 70.034286-70.034285Z"
        p-id="24036"></path>
    <path
        d="M685.714286 146.285714h-73.142857V73.142857h-201.142858v73.142857h-73.142857V73.142857a73.142857 73.142857 0 0 1 73.142857-73.142857h201.142858a73.142857 73.142857 0 0 1 73.142857 73.142857zM164.571429 274.285714v676.571429a73.142857 73.142857 0 0 0 73.142857 73.142857h548.571428a73.142857 73.142857 0 0 0 73.142857-73.142857V274.285714z m233.142857 521.142857a36.571429 36.571429 0 0 1-73.142857 0v-329.142857a36.571429 36.571429 0 0 1 73.142857 0z m155.428571 0a36.571429 36.571429 0 0 1-73.142857 0v-329.142857a36.571429 36.571429 0 0 1 73.142857 0z m146.285714 0a36.571429 36.571429 0 0 1-73.142857 0v-329.142857a36.571429 36.571429 0 0 1 73.142857 0z"
        p-id="24037"></path>
</svg>
