<svg t="1672839111543" class="icon" viewBox="0 0 1024 1024" version="1.1" xmlns="http://www.w3.org/2000/svg" p-id="40796" width="32" height="32"><path d="M921.6 0H102.4C45.8 0 0 45.8 0 102.4v819.3C0 978.2 45.8 1024 102.4 1024h819.3c56.5 0 102.4-45.8 102.4-102.4V102.4C1024 45.8 978.2 0 921.6 0z m-76.8 819.2H179.2c-14.1 0-25.6-11.5-25.6-25.6s11.5-25.6 25.6-25.6h665.6c14.1 0 25.6 11.5 25.6 25.6 0 14.1-11.5 25.6-25.6 25.6z m25.6-190.1c0 20.1-16.4 36.5-36.5 36.5H190.1c-20.1 0-36.5-16.4-36.5-36.5V241.3c0-20.1 16.4-36.5 36.5-36.5h643.8c20.1 0 36.5 16.4 36.5 36.5v387.8z" fill="" p-id="40797"></path></svg>
