<svg t="1672839080577" class="icon" viewBox="0 0 1024 1024" version="1.1" xmlns="http://www.w3.org/2000/svg" p-id="40621" width="32" height="32"><path d="M242.526316 970.105263a26.947368 26.947368 0 1 1 0 53.894737H26.947368a26.947368 26.947368 0 1 1 0-53.894737h215.578948z m538.947368 0a26.947368 26.947368 0 1 1 0 53.894737h-215.578947a26.947368 26.947368 0 1 1 0-53.894737h215.578947z m215.578948 0a26.947368 26.947368 0 1 1 0 53.894737h-53.894737a26.947368 26.947368 0 1 1 0-53.894737h53.894737z m-538.947369-134.736842a26.947368 26.947368 0 1 1 0 53.894737H26.947368a26.947368 26.947368 0 1 1 0-53.894737h431.157895z m538.947369 0a26.947368 26.947368 0 1 1 0 53.894737H565.894737a26.947368 26.947368 0 1 1 0-53.894737h431.157895zM323.368421 0a161.684211 161.684211 0 0 1 161.684211 161.684211v431.157894a161.684211 161.684211 0 0 1-161.684211 161.684211H161.684211a161.684211 161.684211 0 0 1-161.684211-161.684211V161.684211a161.684211 161.684211 0 0 1 161.684211-161.684211h161.68421z m538.947368 0a161.684211 161.684211 0 0 1 161.684211 161.684211v431.157894a161.684211 161.684211 0 0 1-161.684211 161.684211h-161.68421a161.684211 161.684211 0 0 1-161.684211-161.684211V161.684211a161.684211 161.684211 0 0 1 161.684211-161.684211h161.68421zM323.368421 80.842105H161.684211a80.842105 80.842105 0 0 0-80.707369 76.099369L80.842105 161.684211v431.157894a80.842105 80.842105 0 0 0 76.099369 80.707369L161.684211 673.684211h161.68421a80.842105 80.842105 0 0 0 80.707368-76.099369L404.210526 592.842105V161.684211a80.842105 80.842105 0 0 0-76.099368-80.707369L323.368421 80.842105z m538.947368 0h-161.68421a80.842105 80.842105 0 0 0-80.707368 76.099369L619.789474 161.684211v431.157894a80.842105 80.842105 0 0 0 76.099368 80.707369L700.631579 673.684211h161.68421a80.842105 80.842105 0 0 0 80.707369-76.099369L943.157895 592.842105V161.684211a80.842105 80.842105 0 0 0-76.099369-80.707369L862.315789 80.842105z" fill="" p-id="40622"></path></svg>
