<svg t="1679136848842" class="icon" viewBox="0 0 1024 1024" version="1.1" xmlns="http://www.w3.org/2000/svg" p-id="9692" width="32" height="32"><path d="M813.018 99.196c15.168 0 29.305 2.911 42.41 8.733s24.578 13.686 34.504 23.59c9.883 9.904 17.746 21.409 23.59 34.515s8.723 27.231 8.723 42.378v491.949c0 15.146-2.879 29.272-8.723 42.378s-13.707 24.61-23.59 34.515c-9.926 9.904-21.398 17.768-34.504 23.59s-27.242 8.733-42.41 8.733H703.791V700.361h54.184c15.168 0 28.102-5.242 38.887-15.727s16.156-23.3 16.156-38.446V372.692c0-15.146-5.371-28.112-16.156-38.887s-23.719-16.167-38.887-16.167H321.111c-15.168 0-28.145 5.393-38.887 16.167-10.785 10.774-16.199 23.74-16.199 38.887v54.173H156.799V208.412c0-15.146 2.922-29.272 8.766-42.378 5.801-13.105 13.664-24.61 23.59-34.515 9.883-9.904 21.398-17.768 34.504-23.59s27.242-8.733 42.367-8.733h546.992zM539.521 481.908c15.168 0 29.305 2.911 42.41 8.744 13.105 5.822 24.578 13.686 34.504 23.59 9.883 9.904 17.746 21.409 23.59 34.515s8.723 27.231 8.723 42.378v218.442c0 15.157-2.879 29.272-8.723 42.389-5.844 13.095-13.707 24.61-23.59 34.504-9.926 9.904-21.398 17.778-34.504 23.601s-27.242 8.733-42.41 8.733H211.885c-15.168 0-29.434-2.911-42.84-8.733s-25.051-13.696-34.934-23.601c-9.926-9.894-17.789-21.409-23.59-34.504-5.844-13.116-8.766-27.231-8.766-42.389V591.135c0-15.146 2.922-29.272 8.766-42.378 5.801-13.105 13.664-24.61 23.59-34.515 9.883-9.904 21.527-17.768 34.934-23.59 13.406-5.833 27.672-8.744 42.84-8.744h327.636z m0 218.453c0-15.146-5.371-27.962-16.156-38.446s-23.719-15.727-38.887-15.727H266.025c-15.125 0-27.93 5.242-38.414 15.727s-15.727 23.3-15.727 38.446v55.043c0 15.146 5.242 27.962 15.727 38.457 10.484 10.474 23.289 15.716 38.414 15.716h218.453c15.168 0 28.102-5.242 38.887-15.716 10.785-10.495 16.156-23.311 16.156-38.457v-55.043z m0 0" fill="" p-id="9693"></path></svg>
