<svg t="1672898977566" class="icon" viewBox="0 0 1024 1024" version="1.1" xmlns="http://www.w3.org/2000/svg" p-id="41335" width="32" height="32"><path d="M945.92 192A14.08 14.08 0 0 1 960 206.08v611.84A14.08 14.08 0 0 1 945.92 832H78.08A14.08 14.08 0 0 1 64 817.92V206.08A14.08 14.08 0 0 1 78.08 192h867.84m0-64H78.08A78.08 78.08 0 0 0 0 206.08v611.84A78.08 78.08 0 0 0 78.08 896h867.84a78.08 78.08 0 0 0 78.08-78.08V206.08A78.08 78.08 0 0 0 945.92 128z" fill="#515151" p-id="41336"></path><path d="M64 832h611.84L320 512 64 707.2V832z m896-268.8L832 448 547.2 664.96 732.8 832H960V563.2zM192 352a96 96 0 1 0 192 0 96 96 0 1 0-192 0z" fill="" p-id="41337"></path></svg>
