<svg t="1676017608682" class="icon" viewBox="0 0 1024 1024" version="1.1" xmlns="http://www.w3.org/2000/svg" p-id="2632"
    width="" height="">
    <path
        d="M211.844673 75.577011c-1.410602-2.891733-3.314914-6.030322-5.642406-9.345236-0.564241-0.881626-1.128481-1.763252-1.798517-2.609613-7.440924-10.403187-19.818953-24.332879-29.44631-30.892176C120.790336-8.706438 57.313261-1.053924 23.705677 4.235832 11.891888 6.140144 0.64234 8.044457 0.183894 10.65407c-0.35265 2.327493 14.564462 6.700358 19.818954 9.592091 39.320521 21.511675 51.3459 53.743923 57.693607 75.996165 0.705301 5.360286 1.974842 10.755838 3.667565 16.116124 0.105795 0.670036 0.14106 1.022686 0.14106 1.022686h0.246855c3.138589 9.627356 7.899369 19.148918 14.317607 28.000443 27.330407 38.015715 73.703937 51.381166 103.643957 29.904755 26.836697-19.325243 31.209562-60.056366 12.131174-95.709323z"
        fill="" p-id="2633"></path>
    <path
        d="M343.806459 651.560935c-50.816925-16.080859-82.379137-59.59792-70.459553-97.331515 6.559298-20.665314 25.002914-34.982921 48.524697-41.295364-13.189126-20.136339-26.766167-40.519533-38.826811-59.88004l-2.750673-4.3376c-42.847025-65.839833-80.051644-125.931463-111.155411-179.005351 1.516397 3.314914 3.138589 6.806153 4.937106 10.791103 0.564241 1.304807 1.128481 2.433288 1.727987 3.808624 5.818732 13.118595 12.624885 29.37578 19.607363 47.572541 0.705301 1.833782 1.410602 3.808624 2.115903 5.712937 2.715408 7.299864 5.430816 14.881848 8.110959 22.710687 0.846361 2.539083 1.727987 5.078166 2.574348 7.652514 2.715408 8.146225 5.289756 16.539304 7.758309 25.002914 0.599506 2.010107 1.199011 3.949685 1.763252 5.959792 3.032794 10.755838 5.853997 21.688001 8.216755 32.620163 11.884319 54.308164 14.564462 109.180569-7.088273 146.279393l-9.451031 16.186654c-13.753366 14.846582-12.94227 44.010772 1.551661 64.852411 0 0 39.073666 55.859826 83.119703 97.613635 102.021765 96.626214 224.074074 152.344979 338.509134 164.335094-94.333986-103.573427-190.219634-234.054081-215.751524-269.354388-20.91217 7.652514-46.93777 8.357815-73.033901 0.105796z"
        fill="" p-id="2634"></path>
    <path
        d="M1002.94535 573.801518c-0.21159-3.350179-0.811096-6.770888-1.128481-10.156332-0.952156-9.944742-1.974842-19.889483-3.597034-29.904755-0.811096-4.972371-1.974842-9.980007-2.962264-14.987643-1.657457-8.46361-3.350179-16.962485-5.466081-25.46136-1.375337-5.536612-3.103324-11.037958-4.690251-16.574569-2.327493-8.040429-4.690251-16.045594-7.405659-24.050759-1.974842-5.748202-4.12601-11.461138-6.312442-17.20934-2.962263-7.793574-6.065587-15.587148-9.415766-23.345457-2.503818-5.818732-5.148696-11.602199-7.899369-17.385666-3.632299-7.687779-7.476189-15.340293-11.496404-22.957542-2.997529-5.712937-6.065587-11.390608-9.274706-17.06828-4.3376-7.652514-8.992586-15.199233-13.753366-22.781217-3.455974-5.501346-6.876683-11.002693-10.544248-16.433509-5.219226-7.758309-10.791103-15.375558-16.433509-22.992807-3.702829-5.042901-7.299864-10.085802-11.179018-15.058173-6.524033-8.32255-13.541776-16.398244-20.559519-24.509204-3.526504-4.05548-6.841418-8.216755-10.508983-12.236969-10.932163-11.990114-22.358036-23.733373-34.383415-35.159247-176.818918-167.544212-413.553142-211.660779-566.462362-117.785238 2.750673 9.733151 4.47866 19.466303 4.76078 29.023129 6.488768 7.123538 13.0128 14.282342 19.713159 21.723265 4.972371-6.171382 11.037958-11.037958 11.037958-11.037958 3.209119-2.362758 9.274706-2.115902 13.577041 0.705301l4.161274 2.010108c25.919806 12.44856 64.147111-6.312442 64.147111-6.312443 3.773359-1.798517 11.531669-1.093216 17.244605 1.551662 0 0 3.103324 1.516397 9.521562 5.853997 44.116567 29.340515 60.902727 81.638571 37.522004 116.797817-9.451031 14.211812-24.086023 23.169132-40.977979 27.189347 15.587148 19.184183 31.456417 38.897341 47.819397 59.562656l3.561769 4.302335c46.126674 56.106681 93.52289 117.996829 140.989636 183.907191 34.524476 48.030987 83.789739 118.878455 130.410124 193.181898 1.727987-6.382973 4.090745-12.554355 7.864104-18.232027 5.078166-7.687779 13.577041-14.211812 13.577041-14.211811 3.173854-2.468553 9.274706-2.186433 13.577041 0.63477l4.19654 2.045373c25.88454 12.413295 64.111846-6.347707 64.111845-6.347708 3.773359-1.833782 11.531669-1.128481 17.244606 1.586927 0 0 3.103324 1.445867 9.556826 5.748202 44.116567 29.37578 60.902727 81.638571 37.522004 116.797817-20.171604 30.363201-63.688665 37.874655-103.608692 20.55952 13.859161 25.46136 26.342986 50.182154 36.746173 73.457081 40.096352-15.975064 76.45461-39.249991 106.570956-71.059059 13.894426-14.670257 25.46136-30.821646 35.864547-47.643071 0.07053 0.176325 0.21159 0.42318 0.317385 0.634771 1.692722-2.715408 2.962263-5.642407 4.549191-8.428345 2.715408-4.725516 5.325021-9.521561 7.793574-14.423402 3.068059-6.136117 5.889262-12.37803 8.569405-18.690472 2.080637-4.972371 4.161275-9.944742 6.030322-15.022908 2.398023-6.665093 4.443395-13.471246 6.418238-20.312663 1.445867-5.042901 2.997529-10.050537 4.19654-15.163968 1.763252-7.405659 3.068059-14.952378 4.3376-22.534362 0.811096-4.831311 1.798517-9.556826 2.433288-14.458667 1.128481-8.922056 1.692722-17.985171 2.186432-27.083552 0.21159-3.738094 0.670036-7.405659 0.775831-11.179018 0.387915-12.907005 0.07053-25.919806-0.846361-39.073666z m-327.29485-345.491612c-23.415988 35.229776-78.112067 39.884762-122.228634 10.579513-44.116567-29.411045-60.937992-81.709101-37.522004-116.833083 5.113431-7.687779 13.612306-14.211812 13.612306-14.211812 3.138589-2.503818 9.239441-2.186433 13.50651 0.634771l4.231805 2.045372c25.919806 12.413295 64.111846-6.347707 64.111846-6.347707 3.773359-1.833782 11.566934-1.128481 17.244605 1.516397 0 0 3.138589 1.551662 9.556827 5.818732 44.116567 29.411045 60.867462 81.673836 37.486739 116.797817z m68.096795 163.277142c-44.116567-29.340515-60.973257-81.638571-37.592534-116.833082 5.113431-7.687779 13.612306-14.176547 13.612306-14.176547 3.173854-2.433288 9.274706-2.115902 13.577041 0.634771l4.19654 2.045372c25.849275 12.413295 64.111846-6.312442 64.111845-6.312442 3.808624-1.869047 11.531669-1.163746 17.20934 1.586927 0 0 3.173854 1.516397 9.592092 5.748202 44.116567 29.37578 60.902727 81.673836 37.486739 116.833082-23.415988 35.123981-78.112067 39.849497-122.193369 10.473717z m206.864733 220.230185c-23.451253 35.194511-78.182597 39.884762-122.263899 10.579512-44.151832-29.37578-60.973257-81.709101-37.522004-116.868347 5.078166-7.687779 13.612306-14.176547 13.612306-14.176547 3.138589-2.503818 9.239441-2.186433 13.506511 0.634771l4.161275 2.080637c25.919806 12.342765 64.147111-6.312442 64.147111-6.312442 3.773359-1.904312 11.531669-1.163746 17.244605 1.516396 0 0 3.138589 1.481132 9.592091 5.783467 44.081302 29.30525 60.902727 81.603306 37.522004 116.762553z"
        fill="" p-id="2635"></path>
    <path
        d="M217.663405 196.218718c-13.400716 9.662621-29.44631 14.564462-46.444059 15.410823 35.476632 63.230219 82.167547 139.579034 137.956842 225.096761l-0.105795 0.07053c36.922498 59.210005 80.333765 123.850826 128.258956 190.607549 173.715595 241.706595 341.471397 418.278658 374.726331 394.43949 33.184404-23.874433-80.72168-239.167512-254.402009-480.909372-47.960456-66.686194-95.427202-128.400016-139.75536-182.355529l-0.105795 0.07053c-63.406545-80.404295-120.994357-149.135861-169.660115-202.985579-6.065587 16.186654-16.186654 30.327936-30.468996 40.554797z m192.053416 166.063081c0.42318 0.28212 0.846361 0.705301 1.093217 1.093216 1.622192 2.221698 1.199011 6.206647-2.186433 8.957321-46.44406 37.698329-83.049173 60.162161-84.812425 60.832196-4.584455 1.939577-8.710465 0.528976-9.239441-3.068058-0.493711-3.561769 2.785938-8.075695 7.335129-9.980007 0.387915-0.14106 35.229776-19.818953 75.925634-54.801875 3.949685-3.350179 8.922056-4.972371 11.884319-3.032793z m-112.671807 19.395773c0.42318-0.105795 35.406102-17.244605 73.280756-53.038623 3.597034-3.491239 8.88679-4.302335 12.87174-0.952156 0.599506 0.564241 1.163746 1.128481 1.586927 1.798517 2.433288 3.385444 2.997529 8.569405-0.176325 11.355344-43.728651 37.98045-80.157439 58.222584-81.885427 58.751559-4.831311 1.340072-9.944742-1.586927-11.531668-6.524033-1.516397-4.972371 1.057951-10.050537 5.853997-11.390608z"
        fill="" p-id="2636"></path>
</svg>
