<?xml version="1.0" standalone="no"?>
<!DOCTYPE svg PUBLIC "-//W3C//DTD SVG 1.1//EN" "http://www.w3.org/Graphics/SVG/1.1/DTD/svg11.dtd"><svg t="1669269106642"
    class="icon" viewBox="0 0 1024 1024" version="1.1" xmlns="http://www.w3.org/2000/svg" p-id="17421"
    xmlns:xlink="http://www.w3.org/1999/xlink" width="100" height="100">
    <path
        d="M911.946436 131.156132 143.093511 131.156132c-35.149545 0-63.732533 28.591175-63.732533 63.733557L79.360977 795.681968c0 35.144428 28.584012 63.733557 63.732533 63.733557l768.852926 0c35.149545 0 63.732533-28.589129 63.732533-63.733557L975.67897 194.889689C975.67897 159.748331 947.093934 131.156132 911.946436 131.156132zM947.670056 795.681968c0 19.701714-16.029068 35.723619-35.723619 35.723619L143.093511 831.405587c-19.694551 0-35.723619-16.021905-35.723619-35.723619L107.369891 271.206842l840.300164 0L947.670056 795.681968zM947.670056 243.195881 107.369891 243.195881l0-48.306192c0-19.701714 16.029068-35.723619 35.723619-35.723619l768.852926 0c19.694551 0 35.723619 16.021905 35.723619 35.723619L947.670056 243.195881zM219.410664 187.176007l-56.019875 0c-7.740288 0-14.004969 6.27082-14.004969 14.004969 0 7.728008 6.263657 14.005992 14.004969 14.005992l56.019875 0c7.740288 0 14.005992-6.277984 14.005992-14.005992C233.414609 193.446827 227.150952 187.176007 219.410664 187.176007zM331.450413 187.176007l-56.019875 0c-7.741311 0-14.005992 6.27082-14.005992 14.004969 0 7.728008 6.262634 14.005992 14.005992 14.005992l56.019875 0c7.739265 0 14.004969-6.277984 14.004969-14.005992C345.454358 193.446827 339.190701 187.176007 331.450413 187.176007zM443.489138 187.176007l-56.019875 0c-7.740288 0-14.005992 6.27082-14.005992 14.004969 0 7.728008 6.263657 14.005992 14.005992 14.005992l56.019875 0c7.740288 0 14.005992-6.277984 14.005992-14.005992C457.49513 193.446827 451.231473 187.176007 443.489138 187.176007z"
        p-id="17422"></path>
</svg>
