<svg xml:space="preserve" style="enable-background:new 0 0 300 300;" viewBox="0 0 300 300" y="0px" x="0px" xmlns:xlink="http://www.w3.org/1999/xlink" xmlns="http://www.w3.org/2000/svg" id="图层_1" version="1.1">
<style type="text/css">
	.st0{fill:#E5C3AC;}
	.st1{fill:#EACCB7;}
	.st2{fill:#A1ADBF;}
	.st3{fill:#473E37;}
	.st4{fill:#E5C7B3;}
	.st5{fill:#1AB394;}
	.st6{fill:url(#SVGID_1_);}
</style>
<g>
	<g>
		<polygon points="139.3,161.4 131.1,194.3 167.3,194.3 162.3,161.4" class="st0"></polygon>
		<path d="M102,124.7c-5.8-15.9-7.3-33.4,3.1-43.9s42.8-19.8,48-25.1c5.2-5.2,29,14.7,33.4,20.9
			c5.2,7.3,18,25.8,10.4,49.1c-8.3,25.8-24.8,43.9-44.5,43.9c-18.1,0-25.5-7.4-32.8-13.6C112.9,150.2,106.1,136.2,102,124.7z" class="st1"></path>
		<path d="M209.5,196c-10.5-10.5-42.6-17.5-42.6-17.5c-3-1.6-14,0-16.9,0.4c-2.8-0.4-13.9-2-16.9-0.4
			c0,0-32.2,7.1-42.6,17.5s-31.4,40.5-26.2,43.2c4.8,2.4,73.2,0.4,85.7,0.1c12.5,0.4,80.9,2.3,85.7-0.1
			C240.9,236.5,220,206.5,209.5,196z" class="st2"></path>
		<path d="M127.8,112.1c13.2,1.6,32.9-13.2,37.8-11.5s21.4,11.5,29.6,13.2c1.3,0.3,2.8-0.2,4.4-1.1
			c13.7-16.9,4.7-29.2,0.6-35c-4.4-6.2-23-32.9-47-21.8c-6.7,3.1-34.3,5.5-48.3,18.5c-9.4,8.8-8.8,30.1-4.8,44.2
			C106.3,112.3,119.1,111,127.8,112.1z" class="st3"></path>
		<path d="M103.2,125.2c0,0-9.9,6.6-4.9,14.8c4.9,8.2,15.1,8.2,15.1,8.2L103.2,125.2z" class="st4"></path>
		<path d="M196.8,125.2c0,0,9.9,6.6,4.9,14.8s-15.1,8.2-15.1,8.2L196.8,125.2z" class="st4"></path>
	</g>
	<g>
		<g>
			<path d="M62.9,30H43.2C35.9,30,30,35.9,30,43.2v19.7c0,1.8,1.5,3.3,3.3,3.3h0c1.8,0,3.3-1.5,3.3-3.3V43.2
				c0-3.6,2.9-6.6,6.6-6.6h19.7c1.8,0,3.3-1.5,3.3-3.3v0C66.2,31.5,64.7,30,62.9,30z" class="st5"></path>
			<path d="M256.8,30h-19.7c-1.8,0-3.3,1.5-3.3,3.3v0c0,1.8,1.5,3.3,3.3,3.3h19.7c3.6,0,6.6,2.9,6.6,6.6v19.7
				c0,1.8,1.5,3.3,3.3,3.3h0c1.8,0,3.3-1.5,3.3-3.3V43.2C270,35.9,264.1,30,256.8,30z" class="st5"></path>
		</g>
		<g>
			<path d="M62.9,263.4H43.2c-3.6,0-6.6-2.9-6.6-6.6v-19.7c0-1.8-1.5-3.3-3.3-3.3h0c-1.8,0-3.3,1.5-3.3,3.3v19.7
				c0,7.3,5.9,13.2,13.2,13.2h19.7c1.8,0,3.3-1.5,3.3-3.3v0C66.2,264.9,64.7,263.4,62.9,263.4z" class="st5"></path>
			<path d="M263.4,237.1v19.7c0,3.6-2.9,6.6-6.6,6.6h-19.7c-1.8,0-3.3,1.5-3.3,3.3v0c0,1.8,1.5,3.3,3.3,3.3h19.7
				c7.3,0,13.2-5.9,13.2-13.2v-19.7c0-1.8-1.5-3.3-3.3-3.3h0C264.9,233.8,263.4,235.3,263.4,237.1z" class="st5"></path>
		</g>
	</g>
	<linearGradient y2="117.5903" x2="150" y1="240.3301" x1="150" gradientUnits="userSpaceOnUse" id="SVGID_1_">
		<stop style="stop-color:#FFFFFF;stop-opacity:0" offset="0"></stop>
		<stop style="stop-color:#1AB394;stop-opacity:0.6" offset="1"></stop>
	</linearGradient>
	<rect height="122.7" width="203.8" class="st6" y="117.6" x="48.1"></rect>
	<rect height="3.3" width="203.8" class="st5" y="115.2" x="48.1"></rect>
</g>
</svg>
