<svg xml:space="preserve" style="enable-background:new 0 0 480 480;" viewBox="0 0 480 480" y="0px" x="0px" xmlns:xlink="http://www.w3.org/1999/xlink" xmlns="http://www.w3.org/2000/svg" id="图层_1" version="1.1">
<style type="text/css">
	.st0{fill:url(#SVGID_1_);}
	.st1{fill:url(#SVGID_2_);}
	.st2{fill:url(#SVGID_3_);}
	.st3{fill:url(#SVGID_4_);}
	.st4{fill:url(#SVGID_5_);}
	.st5{fill:url(#SVGID_6_);}
	.st6{fill:url(#SVGID_7_);}
	.st7{fill:url(#SVGID_8_);}
	.st8{fill:url(#SVGID_9_);}
	.st9{fill:url(#SVGID_10_);}
	.st10{fill:url(#SVGID_11_);}
	.st11{fill:url(#SVGID_12_);}
	.st12{fill:url(#SVGID_13_);}
	.st13{fill:url(#SVGID_14_);}
	.st14{fill:url(#SVGID_15_);}
	.st15{fill:url(#SVGID_16_);}
	.st16{fill:url(#SVGID_17_);}
	.st17{fill:url(#SVGID_18_);}
	.st18{fill:url(#SVGID_19_);}
	.st19{fill:url(#SVGID_20_);}
	.st20{fill:url(#SVGID_21_);}
	.st21{fill:url(#SVGID_22_);}
	.st22{fill:url(#SVGID_23_);}
	.st23{fill:url(#SVGID_24_);}
	.st24{fill:url(#SVGID_25_);}
	.st25{fill:url(#SVGID_26_);}
	.st26{fill:url(#SVGID_27_);}
	.st27{fill:url(#SVGID_28_);}
	.st28{fill:url(#SVGID_29_);}
	.st29{fill:url(#SVGID_30_);}
	.st30{fill:url(#SVGID_31_);}
	.st31{fill:url(#SVGID_32_);}
	.st32{fill:url(#SVGID_33_);}
	.st33{fill:url(#SVGID_34_);}
	.st34{fill:url(#SVGID_35_);}
	.st35{fill:url(#SVGID_36_);}
	.st36{fill:url(#SVGID_37_);}
	.st37{fill:url(#SVGID_38_);}
	.st38{fill:url(#SVGID_39_);}
	.st39{fill:url(#SVGID_40_);}
	.st40{fill:url(#SVGID_41_);}
	.st41{fill:#FFFFFF;}
</style>
<g>
	
		<linearGradient gradientTransform="matrix(1 0 0 1 0 -858)" y2="919" x2="88.65" y1="1068.8" x1="88.65" gradientUnits="userSpaceOnUse" id="SVGID_1_">
		<stop style="stop-color:#FFFFFF" offset="0"></stop>
		<stop style="stop-color:#CFF4EE" offset="1"></stop>
	</linearGradient>
	<rect height="149.8" width="33.9" class="st0" y="61" x="71.7"></rect>
	
		<linearGradient gradientTransform="matrix(1 0 0 1 0 -858)" y2="886.2" x2="122.55" y1="1055.6" x1="122.55" gradientUnits="userSpaceOnUse" id="SVGID_2_">
		<stop style="stop-color:#FFFFFF" offset="0"></stop>
		<stop style="stop-color:#CFF4EE" offset="1"></stop>
	</linearGradient>
	<rect height="169.4" width="33.9" class="st1" y="28.2" x="105.6"></rect>
</g>
<g>
	
		<linearGradient gradientTransform="matrix(1 0 0 1 0 -858)" y2="920.1" x2="348.9" y1="1036.1" x1="348.9" gradientUnits="userSpaceOnUse" id="SVGID_3_">
		<stop style="stop-color:#FFFFFF" offset="0"></stop>
		<stop style="stop-color:#CFF4EE" offset="1"></stop>
	</linearGradient>
	<rect height="116" width="33.4" class="st2" y="62.1" x="332.2"></rect>
	
		<linearGradient gradientTransform="matrix(1 0 0 1 0 -858)" y2="900.6" x2="382.3" y1="1036" x1="382.3" gradientUnits="userSpaceOnUse" id="SVGID_4_">
		<stop style="stop-color:#FFFFFF" offset="0"></stop>
		<stop style="stop-color:#CFF4EE" offset="1"></stop>
	</linearGradient>
	<rect height="135.4" width="33.4" class="st3" y="42.6" x="365.6"></rect>
	
		<linearGradient gradientTransform="matrix(1 0 0 1 0 -858)" y2="938.2" x2="415.9" y1="1046.4" x1="415.9" gradientUnits="userSpaceOnUse" id="SVGID_5_">
		<stop style="stop-color:#FFFFFF" offset="0"></stop>
		<stop style="stop-color:#CFF4EE" offset="1"></stop>
	</linearGradient>
	<rect height="108.2" width="33.4" class="st4" y="80.2" x="399.2"></rect>
</g>
<linearGradient gradientTransform="matrix(1 0 0 1 0 -858)" y2="1085.8" x2="240" y1="1309.8" x1="240" gradientUnits="userSpaceOnUse" id="SVGID_6_">
	<stop style="stop-color:#FFFFFF;stop-opacity:0.2" offset="0"></stop>
	<stop style="stop-color:#DEFFFD" offset="1"></stop>
</linearGradient>
<ellipse ry="112" rx="240" cy="339.8" cx="240" class="st5"></ellipse>
<linearGradient gradientTransform="matrix(1 0 0 1 0 -858)" y2="1164.6" x2="40.3" y1="1222.2" x1="40.3" gradientUnits="userSpaceOnUse" id="SVGID_7_">
	<stop style="stop-color:#F0FFFA" offset="0"></stop>
	<stop style="stop-color:#72C2BA;stop-opacity:0.3" offset="1"></stop>
</linearGradient>
<polygon points="40.3,306.6 20,341.8 37.3,341.8 37.3,364.2 43.2,364.2 43.2,341.8 60.6,341.8" class="st6"></polygon>
<linearGradient gradientTransform="matrix(1 0 0 1 0 -858)" y2="1119.8" x2="71.45" y1="1161.4" x1="71.45" gradientUnits="userSpaceOnUse" id="SVGID_8_">
	<stop style="stop-color:#F0FFFA" offset="0"></stop>
	<stop style="stop-color:#BDEFE3" offset="1"></stop>
</linearGradient>
<polygon points="71.4,261.8 56.8,287.2 69.3,287.2 69.3,303.4 73.6,303.4 73.6,287.2 86.1,287.2" class="st7"></polygon>
<linearGradient gradientTransform="matrix(1 0 0 1 0 -858)" y2="1155.6378" x2="304.3022" y1="1281.1621" x1="326.4353" gradientUnits="userSpaceOnUse" id="SVGID_9_">
	<stop style="stop-color:#FFFFFF;stop-opacity:0" offset="0"></stop>
	<stop style="stop-color:#BDEFE3" offset="1"></stop>
</linearGradient>
<polygon points="203,315.5 244.2,408.3 427.7,405.3 297.5,312.3" class="st8"></polygon>
<g>
	
		<linearGradient gradientTransform="matrix(1 0 0 1 0 -858)" y2="1046.233" x2="403.0329" y1="1101.4233" x1="403.0329" gradientUnits="userSpaceOnUse" id="SVGID_10_">
		<stop style="stop-color:#FFFFFF;stop-opacity:0" offset="0"></stop>
		<stop style="stop-color:#CFF4EE" offset="1"></stop>
	</linearGradient>
	<path d="M430.1,234.2c-5.9-22.4-5-46.1-25.8-46.1c-14.4,0-27.4,45.9-28.5,50.2C374.9,243,433.9,248.6,430.1,234.2z" class="st9"></path>
	
		<linearGradient gradientTransform="matrix(1 0 0 1 0 -858)" y2="1023.9" x2="366.1195" y1="1104.6525" x1="366.1195" gradientUnits="userSpaceOnUse" id="SVGID_11_">
		<stop style="stop-color:#FFFFFF;stop-opacity:0" offset="0"></stop>
		<stop style="stop-color:#CFF4EE" offset="1"></stop>
	</linearGradient>
	<path d="M405.6,233.3c-8.8-32.6-7.2-67.4-37.6-67.4c-21.1,0-40,67.2-41.6,73.6C324.8,245.9,411.2,254.2,405.6,233.3z" class="st10"></path>
</g>
<g>
	
		<linearGradient gradientTransform="matrix(1 0 0 1 0 -858)" y2="1051.2106" x2="59.6986" y1="1114.2031" x1="59.6986" gradientUnits="userSpaceOnUse" id="SVGID_12_">
		<stop style="stop-color:#FFFFFF;stop-opacity:0" offset="0"></stop>
		<stop style="stop-color:#CFF4EE" offset="1"></stop>
	</linearGradient>
	<path d="M90.4,245.8c-6.7-25.4-13.1-49.9-29.3-52.5s-31,52.3-32.3,57.3C27.5,255.5,94.9,262.2,90.4,245.8z" class="st11"></path>
	
		<linearGradient gradientTransform="matrix(1 0 0 1 0 -858)" y2="1041.9777" x2="38.1626" y1="1087.0198" x1="38.1626" gradientUnits="userSpaceOnUse" id="SVGID_13_">
		<stop style="stop-color:#FFFFFF;stop-opacity:0" offset="0"></stop>
		<stop style="stop-color:#CFF4EE" offset="1"></stop>
	</linearGradient>
	<path d="M60.2,221.4c-4.8-18.2-9.3-35.7-21-37.6S17,221.4,16,225C15.2,228.6,63.2,233.3,60.2,221.4z" class="st12"></path>
	
		<linearGradient gradientTransform="matrix(1 0 0 1 0 -858)" y2="1033.3942" x2="100.5195" y1="1114.2524" x1="100.5195" gradientUnits="userSpaceOnUse" id="SVGID_14_">
		<stop style="stop-color:#FFFFFF;stop-opacity:0" offset="0"></stop>
		<stop style="stop-color:#CFF4EE" offset="1"></stop>
	</linearGradient>
	<path d="M140,242.9c-8.8-32.6-16.8-64.2-37.6-67.4s-40,67.2-41.6,73.6C59.2,255.5,145.6,263.8,140,242.9z" class="st13"></path>
</g>
<linearGradient gradientTransform="matrix(1 0 0 1 0 -858)" y2="1156.6" x2="431.0076" y1="1207.8" x1="431.0076" gradientUnits="userSpaceOnUse" id="SVGID_15_">
	<stop style="stop-color:#F0FFFA" offset="0"></stop>
	<stop style="stop-color:#72C2BA;stop-opacity:0.3" offset="1"></stop>
</linearGradient>
<path d="M453.9,314.4c-0.5-3.7-5.3-4.5-9.8-8.8c-4.5-4.5-5.9-7-11.5-7c-10.6,0-10.6,9.8-13.3,9.8
	c-8.3,0-11.5,9.8-11.5,12.3s3.5,5.3,8.8,8.8c3.5,2.4,9.1,2.4,12.3,2.1v18.2h4.5v-18.4c2.4-0.3,3.7-2.2,11.5,0.8
	C449.4,334.1,455.7,327,453.9,314.4z" class="st14"></path>
<linearGradient gradientTransform="matrix(0.7012 0.713 -0.713 0.7012 -634.4299 939.9078)" y2="-1189.5647" x2="-71.3101" y1="-1178.8077" x1="-71.3101" gradientUnits="userSpaceOnUse" id="SVGID_16_">
	<stop style="stop-color:#FFFFFF" offset="0"></stop>
	<stop style="stop-color:#CFF4EE" offset="1"></stop>
</linearGradient>
<path d="M164,70.6c0,0-11.4-12.6-10.1-20.6c1.3-8,8.8,5.4,10.2,10.4C165.8,66.6,164,70.6,164,70.6z" class="st15"></path>
<linearGradient gradientTransform="matrix(0.9394 0.3429 -0.3429 0.9394 -87.2742 -27.2048)" y2="-40.0738" x2="295.1812" y1="-25.7862" x1="295.1812" gradientUnits="userSpaceOnUse" id="SVGID_17_">
	<stop style="stop-color:#FFFFFF" offset="0"></stop>
	<stop style="stop-color:#CFF4EE" offset="1"></stop>
</linearGradient>
<path d="M213,54.9c0,0-20.8-8.6-23.8-18.9c-3-10.2,13.8,1.4,18.1,6.6C212.8,49.3,213,54.9,213,54.9z" class="st16"></path>
<linearGradient gradientTransform="matrix(0.9394 0.3429 -0.3429 0.9394 -87.2742 -27.2048)" y2="-48.0819" x2="356.6606" y1="-40.6236" x1="356.6606" gradientUnits="userSpaceOnUse" id="SVGID_18_">
	<stop style="stop-color:#FFFFFF" offset="0"></stop>
	<stop style="stop-color:#CFF4EE" offset="1"></stop>
</linearGradient>
<path d="M269.1,59.7c0,0-10.9-4.5-12.5-9.9s7.2,0.8,9.4,3.5C269,56.5,269.1,59.7,269.1,59.7z" class="st17"></path>
<linearGradient gradientTransform="matrix(0.9825 -0.1864 0.1864 0.9825 -66.5445 -1296.9457)" y2="1405.4218" x2="11.3624" y1="1415.262" x1="11.3624" gradientUnits="userSpaceOnUse" id="SVGID_19_">
	<stop style="stop-color:#FFFFFF" offset="0"></stop>
	<stop style="stop-color:#CFF4EE" offset="1"></stop>
</linearGradient>
<path d="M218.6,89.4c0,0-15.4,2.1-20.8-2.9c-5.4-5,8.6-4,13-2.4C216.5,86.2,218.6,89.4,218.6,89.4z" class="st18"></path>
<linearGradient gradientTransform="matrix(0.9514 0.3079 -0.3079 0.9514 -55.4419 -128.2891)" y2="115.6558" x2="384.8847" y1="132.2956" x1="384.8847" gradientUnits="userSpaceOnUse" id="SVGID_20_">
	<stop style="stop-color:#F0FFFA" offset="0"></stop>
	<stop style="stop-color:#72C2BA;stop-opacity:0.3" offset="1"></stop>
</linearGradient>
<path d="M286.7,121.4c0,0-24.5-9.3-28.5-21c-4-11.8,16,1.1,21.3,6.9C286.4,114.9,286.7,121.4,286.7,121.4z" class="st19"></path>
<linearGradient gradientTransform="matrix(0.7071 0.7071 0.7071 -0.7071 -898.2837 1254.6034)" y2="1399.4077" x2="-28.1217" y1="1411.8914" x1="-28.1217" gradientUnits="userSpaceOnUse" id="SVGID_21_">
	<stop style="stop-color:#58CCB0" offset="0"></stop>
	<stop style="stop-color:#E5F9F4" offset="0.9851"></stop>
</linearGradient>
<path d="M76.8,240.6c0,0-3.5-8.6-10.6-12.3c0,0,8.2,11.8,5.1,17c0,0,13.6-0.3,19.8,2.2
	C91.2,247.4,81.3,242.2,76.8,240.6z" class="st20"></path>
<linearGradient gradientTransform="matrix(0.7071 -0.7071 -0.7071 -0.7071 -257.7794 -1532.8772)" y2="-1689.6648" x2="-780.4043" y1="-1680.3898" x1="-780.4043" gradientUnits="userSpaceOnUse" id="SVGID_22_">
	<stop style="stop-color:#58CCB0" offset="0"></stop>
	<stop style="stop-color:#E5F9F4" offset="0.9851"></stop>
</linearGradient>
<path d="M381.8,209.8c0,0-6.4,2.6-9.1,7.8c0,0,8.8-6.1,12.6-3.8c0,0-0.2-10.1,1.6-14.7
	C386.7,199,382.9,206.6,381.8,209.8z" class="st21"></path>
<g>
	
		<linearGradient gradientTransform="matrix(1 0 0 -1 0 -90)" y2="-349.3067" x2="362.3732" y1="-386.8889" x1="362.3732" gradientUnits="userSpaceOnUse" id="SVGID_23_">
		<stop style="stop-color:#E9FFFD" offset="0"></stop>
		<stop style="stop-color:#63D0B5" offset="0.9851"></stop>
	</linearGradient>
	<path d="M365.3,293.6c-4.5-16.3-7.7-23.2-15.5-34.2c0,0,26.4,26.9,25.1,34.2C373.6,301,365.3,293.6,365.3,293.6z" class="st22"></path>
	
		<linearGradient gradientTransform="matrix(1 0 0 -1 0 -90)" y2="-354.4904" x2="376.5371" y1="-390.5953" x1="376.5371" gradientUnits="userSpaceOnUse" id="SVGID_24_">
		<stop style="stop-color:#E9FFFD" offset="0"></stop>
		<stop style="stop-color:#63D0B5" offset="0.9851"></stop>
	</linearGradient>
	<path d="M369.8,293.6c0,0,6.7-26.4,13.8-29.1c0,0-10.2,30.9-8.6,34.2C376.5,302.2,367.7,301.3,369.8,293.6z" class="st23"></path>
</g>
<g>
	
		<linearGradient gradientTransform="matrix(1 0 0 -1 0 482)" y2="333.1926" x2="191.8931" y1="155.272" x1="191.8931" gradientUnits="userSpaceOnUse" id="SVGID_25_">
		<stop style="stop-color:#58CCB0" offset="0"></stop>
		<stop style="stop-color:#E5F9F4" offset="0.9851"></stop>
	</linearGradient>
	<path d="M235.6,148.9c-48.1,0.8-86.9,39.8-87.3,88C167.4,199.7,200.5,165.7,235.6,148.9z" class="st24"></path>
	<g>
		
			<linearGradient gradientTransform="matrix(1 0 0 -1 0 482)" y2="333.1926" x2="229.0582" y1="155.272" x1="229.0582" gradientUnits="userSpaceOnUse" id="SVGID_26_">
			<stop style="stop-color:#58CCB0" offset="0"></stop>
			<stop style="stop-color:#E5F9F4" offset="0.9851"></stop>
		</linearGradient>
		<path d="M269.8,154.9c-5,1.2-10.5,3.1-16.3,5.2c-43.4,15.7-85.3,62.1-99.7,108.4c4.3,12,11.1,22.5,20,31.4
			c13.4-5.4,34.9-16.9,68.5-40.5c26.2-18.4,53.1-54.9,61.9-80.3C294.8,168.5,283.1,160.3,269.8,154.9z" class="st25"></path>
		
			<linearGradient gradientTransform="matrix(1 0 0 -1 0 482)" y2="333.2153" x2="257.6548" y1="155.2945" x1="257.6548" gradientUnits="userSpaceOnUse" id="SVGID_27_">
			<stop style="stop-color:#58CCB0" offset="0"></stop>
			<stop style="stop-color:#E5F9F4" offset="0.9851"></stop>
		</linearGradient>
		<path d="M316.1,196.4c-14,29.9-42.3,62.1-63.8,77.2c-25.8,18.2-46.7,30.8-63.4,38.6c14,9.1,30.6,14.5,48.5,14.5
			c49.1,0,89-39.8,89-89C326.2,222.8,322.5,208.8,316.1,196.4z" class="st26"></path>
		
			<linearGradient gradientTransform="matrix(1 0 0 -1 0 482)" y2="202.8866" x2="324.6058" y1="202.8866" x1="131.5896" gradientUnits="userSpaceOnUse" id="SVGID_28_">
			<stop style="stop-color:#E7F9F6" offset="0"></stop>
			<stop style="stop-color:#77D6BF" offset="1"></stop>
		</linearGradient>
		<path d="M173.6,300.1c-14.7,5.8-20,4.5-21.9,3.3c-2.3-1.4-3.9-7.2-1.7-19.6c0.8-5,2.1-10.1,3.7-15.3
			c-3.5-9.5-5.6-20-5.6-30.8c0-0.4,0-0.6,0-1c-7.4,14.5-12.8,29.3-15.3,44c-1.2,7-5,28.1,9.5,37.2c3.7,2.5,8.3,3.7,13.8,3.7
			c8.5,0,19.2-3.1,32.6-9.3C183.3,308.7,178.2,304.6,173.6,300.1z" class="st27"></path>
		
			<linearGradient gradientTransform="matrix(1 0 0 -1 0 482)" y2="316.6396" x2="324.6168" y1="316.6396" x1="131.6006" gradientUnits="userSpaceOnUse" id="SVGID_29_">
			<stop style="stop-color:#E7F9F6" offset="0"></stop>
			<stop style="stop-color:#77D6BF" offset="1"></stop>
		</linearGradient>
		<path d="M269.8,154.9c8.7-2.3,15.9-3.5,21.9-3.5c7.4,0,12.4,1.9,14.2,5.6c2.5,4.7,1.7,12.6-1.7,22.1
			c4.5,5.2,8.7,11.1,11.8,17.3c8.3-18,11.6-35.1,5.2-47.3c-9.3-17.8-34.1-19.6-73.7-5.4c-3.9,1.4-8.1,3.1-12,5c0.6,0,1,0,1.7,0
			C248.8,148.7,259.7,151,269.8,154.9z" class="st28"></path>
		
			<linearGradient gradientTransform="matrix(1 0 0 -1 0 482)" y2="236.3353" x2="324.6168" y1="236.3353" x1="131.6006" gradientUnits="userSpaceOnUse" id="SVGID_30_">
			<stop style="stop-color:#E7F9F6" offset="0"></stop>
			<stop style="stop-color:#77D6BF" offset="1"></stop>
		</linearGradient>
		<path d="M316.1,196.4c-3.3-6.2-7.2-12-11.8-17.3c-8.9,25.4-35.7,61.9-61.9,80.3c-33.7,23.5-55.1,35.1-68.5,40.5
			c4.5,4.5,9.7,8.9,15.1,12.4c16.7-7.8,37.6-20.4,63.4-38.6C273.8,258.6,302,226.6,316.1,196.4z" class="st29"></path>
	</g>
	
		<linearGradient gradientTransform="matrix(1 0 0 -1 0 482)" y2="333.1926" x2="209.0303" y1="155.272" x1="209.0303" gradientUnits="userSpaceOnUse" id="SVGID_31_">
		<stop style="stop-color:#58CCB0" offset="0"></stop>
		<stop style="stop-color:#E5F9F4" offset="0.9851"></stop>
	</linearGradient>
	<path d="M153.8,268.5c14.5-46.3,56.4-92.7,99.7-108.4c5.8-2.1,11.4-3.7,16.3-5.2c-10.1-3.9-21.1-6.2-32.6-6.2
		c-0.6,0-1,0-1.7,0c-35.3,16.9-68.1,50.8-87.3,88c0,0.4,0,0.6,0,1C148.2,248.7,150.3,259,153.8,268.5z" class="st30"></path>
</g>
<g>
	
		<linearGradient gradientTransform="matrix(-1 0 0 1 264.3868 -214.6077)" y2="401.7894" x2="119.8552" y1="363.3282" x1="119.8552" gradientUnits="userSpaceOnUse" id="SVGID_32_">
		<stop style="stop-color:#58CCB0" offset="0"></stop>
		<stop style="stop-color:#E5F9F4" offset="0.9851"></stop>
	</linearGradient>
	<path d="M135.1,187.2c10.4-0.2,18.8-8.6,18.9-19C149.8,176.2,142.7,183.5,135.1,187.2z" class="st31"></path>
	<g>
		
			<linearGradient gradientTransform="matrix(-1 0 0 1 264.3868 -214.6077)" y2="401.7894" x2="127.8892" y1="363.3282" x1="127.8892" gradientUnits="userSpaceOnUse" id="SVGID_33_">
			<stop style="stop-color:#58CCB0" offset="0"></stop>
			<stop style="stop-color:#E5F9F4" offset="0.9851"></stop>
		</linearGradient>
		<path d="M127.7,185.9c1.1-0.3,2.3-0.7,3.5-1.1c9.4-3.4,18.4-13.4,21.6-23.4c-0.9-2.6-2.4-4.9-4.3-6.8
			c-2.9,1.2-7.5,3.7-14.8,8.7c-5.7,4-11.5,11.9-13.4,17.4C122.3,182.9,124.8,184.7,127.7,185.9z" class="st32"></path>
		
			<linearGradient gradientTransform="matrix(-1 0 0 1 264.3868 -214.6077)" y2="401.7943" x2="134.0709" y1="363.3331" x1="134.0709" gradientUnits="userSpaceOnUse" id="SVGID_34_">
			<stop style="stop-color:#58CCB0" offset="0"></stop>
			<stop style="stop-color:#E5F9F4" offset="0.9851"></stop>
		</linearGradient>
		<path d="M117.7,176.9c3-6.5,9.1-13.4,13.8-16.7c5.6-3.9,10.1-6.7,13.7-8.3c-3-2-6.6-3.1-10.5-3.1
			c-10.6,0-19.2,8.6-19.2,19.2C115.5,171.2,116.3,174.2,117.7,176.9z" class="st33"></path>
		
			<linearGradient gradientTransform="matrix(-1 0 0 1 264.3868 -214.6077)" y2="373.6211" x2="148.5437" y1="373.6211" x1="106.8193" gradientUnits="userSpaceOnUse" id="SVGID_35_">
			<stop style="stop-color:#E7F9F6" offset="0"></stop>
			<stop style="stop-color:#77D6BF" offset="1"></stop>
		</linearGradient>
		<path d="M148.5,154.5c3.2-1.2,4.3-1,4.7-0.7c0.5,0.3,0.8,1.6,0.4,4.2c-0.2,1.1-0.4,2.2-0.8,3.3
			c0.8,2.1,1.2,4.3,1.2,6.7c0,0.1,0,0.1,0,0.2c1.6-3.1,2.8-6.3,3.3-9.5c0.3-1.5,1.1-6.1-2.1-8c-0.8-0.5-1.8-0.8-3-0.8
			c-1.8,0-4.2,0.7-7.1,2C146.4,152.6,147.5,153.5,148.5,154.5z" class="st34"></path>
		
			<linearGradient gradientTransform="matrix(-1 0 0 1 264.3868 -214.6077)" y2="398.2111" x2="148.5461" y1="398.2111" x1="106.8217" gradientUnits="userSpaceOnUse" id="SVGID_36_">
			<stop style="stop-color:#E7F9F6" offset="0"></stop>
			<stop style="stop-color:#77D6BF" offset="1"></stop>
		</linearGradient>
		<path d="M127.7,185.9c-1.9,0.5-3.4,0.8-4.7,0.8c-1.6,0-2.7-0.4-3.1-1.2c-0.5-1-0.4-2.7,0.4-4.8
			c-1-1.1-1.9-2.4-2.5-3.7c-1.8,3.9-2.5,7.6-1.1,10.2c2,3.8,7.4,4.2,15.9,1.2c0.8-0.3,1.7-0.7,2.6-1.1c-0.1,0-0.2,0-0.4,0
			C132.2,187.2,129.9,186.7,127.7,185.9z" class="st35"></path>
		
			<linearGradient gradientTransform="matrix(-1 0 0 1 264.3868 -214.6077)" y2="380.8517" x2="148.5461" y1="380.8517" x1="106.8217" gradientUnits="userSpaceOnUse" id="SVGID_37_">
			<stop style="stop-color:#E7F9F6" offset="0"></stop>
			<stop style="stop-color:#77D6BF" offset="1"></stop>
		</linearGradient>
		<path d="M117.7,176.9c0.7,1.3,1.6,2.6,2.5,3.7c1.9-5.5,7.7-13.4,13.4-17.4c7.3-5.1,11.9-7.6,14.8-8.7
			c-1-1-2.1-1.9-3.3-2.7c-3.6,1.7-8.1,4.4-13.7,8.3C126.8,163.5,120.7,170.4,117.7,176.9z" class="st36"></path>
	</g>
	
		<linearGradient gradientTransform="matrix(-1 0 0 1 264.3868 -214.6077)" y2="401.7894" x2="123.5597" y1="363.3282" x1="123.5597" gradientUnits="userSpaceOnUse" id="SVGID_38_">
		<stop style="stop-color:#58CCB0" offset="0"></stop>
		<stop style="stop-color:#E5F9F4" offset="0.9851"></stop>
	</linearGradient>
	<path d="M152.8,161.3c-3.1,10-12.2,20-21.6,23.4c-1.2,0.4-2.5,0.8-3.5,1.1c2.2,0.8,4.6,1.3,7.1,1.3c0.1,0,0.2,0,0.4,0
		c7.6-3.7,14.7-11,18.9-19c0-0.1,0-0.1,0-0.2C154,165.6,153.5,163.4,152.8,161.3z" class="st37"></path>
</g>
<linearGradient gradientTransform="matrix(1 0 0 -1 0 482)" y2="306.6058" x2="229.6647" y1="306.6058" x1="201.3161" gradientUnits="userSpaceOnUse" id="SVGID_39_">
	<stop style="stop-color:#FFFFFF" offset="0"></stop>
	<stop style="stop-color:#CFF4EE" offset="1"></stop>
</linearGradient>
<circle r="14.2" cy="175.4" cx="215.6" class="st38"></circle>
<linearGradient gradientTransform="matrix(1 0 0 -1 0 482)" y2="216.7815" x2="213" y1="252.2567" x1="213" gradientUnits="userSpaceOnUse" id="SVGID_40_">
	<stop style="stop-color:#E9FFFD" offset="0"></stop>
	<stop style="stop-color:#63D0B5" offset="0.9851"></stop>
</linearGradient>
<circle r="17.8" cy="247.5" cx="213" class="st39"></circle>
<linearGradient gradientTransform="matrix(1 0 0 1 0 -858)" y2="1135.546" x2="304.5624" y1="1205.946" x1="304.5624" gradientUnits="userSpaceOnUse" id="SVGID_41_">
	<stop style="stop-color:#3DBF9D" offset="0"></stop>
	<stop style="stop-color:#D6F2E9" offset="0.9851"></stop>
</linearGradient>
<circle r="35.2" cy="312.7" cx="304.6" class="st40"></circle>
<g>
	<path d="M304.9,318.4h-0.7c-1.5,0-2.7-1.2-2.7-2.7v-21.3c0-1.5,1.2-2.7,2.7-2.7h0.7c1.5,0,2.7,1.2,2.7,2.7v21.3
		C307.6,317.2,306.4,318.4,304.9,318.4z" class="st41"></path>
	<circle r="4" cy="329.7" cx="304.6" class="st41"></circle>
</g>
</svg>
