<svg xml:space="preserve" style="enable-background:new 0 0 480 480;" viewBox="0 0 480 480" y="0px" x="0px" xmlns:xlink="http://www.w3.org/1999/xlink" xmlns="http://www.w3.org/2000/svg" id="图层_1" version="1.1">
<style type="text/css">
	.st0{fill:url(#SVGID_1_);}
	.st1{fill:url(#SVGID_2_);}
	.st2{fill:url(#SVGID_3_);}
	.st3{fill:url(#SVGID_4_);}
	.st4{fill:url(#SVGID_5_);}
	.st5{fill:url(#SVGID_6_);}
	.st6{fill:url(#SVGID_7_);}
	.st7{fill:url(#SVGID_8_);}
	.st8{fill:url(#SVGID_9_);}
	.st9{fill:url(#SVGID_10_);}
	.st10{fill:url(#SVGID_11_);}
	.st11{fill:url(#SVGID_12_);}
	.st12{fill:url(#SVGID_13_);}
	.st13{fill:url(#SVGID_14_);}
	.st14{fill:url(#SVGID_15_);}
	.st15{fill:url(#SVGID_16_);}
	.st16{fill:url(#SVGID_17_);}
	.st17{fill:url(#SVGID_18_);}
	.st18{fill:url(#SVGID_19_);}
	.st19{fill:url(#SVGID_20_);}
	.st20{fill:url(#SVGID_21_);}
	.st21{fill:#E1F8F5;}
	.st22{fill:url(#SVGID_22_);}
	.st23{fill:url(#SVGID_23_);}
	.st24{fill:url(#SVGID_24_);}
	.st25{fill:url(#SVGID_25_);}
	.st26{fill:url(#SVGID_26_);}
	.st27{fill:url(#SVGID_27_);}
	.st28{fill:url(#SVGID_28_);}
	.st29{fill:url(#SVGID_29_);}
	.st30{fill:url(#SVGID_30_);}
	.st31{fill:url(#SVGID_31_);}
	.st32{fill:url(#SVGID_32_);}
	.st33{fill:url(#SVGID_33_);}
	.st34{fill:url(#SVGID_34_);}
	.st35{fill:#FFFFFF;}
</style>
<g>
	<g>
		
			<linearGradient gradientTransform="matrix(1 0 0 -1 0 -90)" y2="-151" x2="88.65" y1="-300.8" x1="88.65" gradientUnits="userSpaceOnUse" id="SVGID_1_">
			<stop style="stop-color:#FFFFFF" offset="0"></stop>
			<stop style="stop-color:#CFF4EE" offset="1"></stop>
		</linearGradient>
		<rect height="149.8" width="33.9" class="st0" y="61" x="71.7"></rect>
		
			<linearGradient gradientTransform="matrix(1 0 0 -1 0 -90)" y2="-118.2" x2="122.55" y1="-287.6" x1="122.55" gradientUnits="userSpaceOnUse" id="SVGID_2_">
			<stop style="stop-color:#FFFFFF" offset="0"></stop>
			<stop style="stop-color:#CFF4EE" offset="1"></stop>
		</linearGradient>
		<rect height="169.4" width="33.9" class="st1" y="28.2" x="105.6"></rect>
	</g>
	<g>
		
			<linearGradient gradientTransform="matrix(1 0 0 -1 0 -90)" y2="-152.1" x2="348.9" y1="-268.1" x1="348.9" gradientUnits="userSpaceOnUse" id="SVGID_3_">
			<stop style="stop-color:#FFFFFF" offset="0"></stop>
			<stop style="stop-color:#CFF4EE" offset="1"></stop>
		</linearGradient>
		<rect height="116" width="33.4" class="st2" y="62.1" x="332.2"></rect>
		
			<linearGradient gradientTransform="matrix(1 0 0 -1 0 -90)" y2="-132.6" x2="382.3" y1="-268" x1="382.3" gradientUnits="userSpaceOnUse" id="SVGID_4_">
			<stop style="stop-color:#FFFFFF" offset="0"></stop>
			<stop style="stop-color:#CFF4EE" offset="1"></stop>
		</linearGradient>
		<rect height="135.4" width="33.4" class="st3" y="42.6" x="365.6"></rect>
		
			<linearGradient gradientTransform="matrix(1 0 0 -1 0 -90)" y2="-170.2" x2="415.9" y1="-278.4" x1="415.9" gradientUnits="userSpaceOnUse" id="SVGID_5_">
			<stop style="stop-color:#FFFFFF" offset="0"></stop>
			<stop style="stop-color:#CFF4EE" offset="1"></stop>
		</linearGradient>
		<rect height="108.2" width="33.4" class="st4" y="80.2" x="399.2"></rect>
	</g>
	
		<linearGradient gradientTransform="matrix(1 0 0 -1 0 -90)" y2="-317.8" x2="240" y1="-541.8" x1="240" gradientUnits="userSpaceOnUse" id="SVGID_6_">
		<stop style="stop-color:#FFFFFF;stop-opacity:0.2" offset="0"></stop>
		<stop style="stop-color:#DEFFFD" offset="1"></stop>
	</linearGradient>
	<ellipse ry="112" rx="240" cy="339.8" cx="240" class="st5"></ellipse>
	
		<linearGradient gradientTransform="matrix(1 0 0 -1 0 -90)" y2="-396.6" x2="40.3" y1="-454.2" x1="40.3" gradientUnits="userSpaceOnUse" id="SVGID_7_">
		<stop style="stop-color:#F0FFFA" offset="0"></stop>
		<stop style="stop-color:#72C2BA;stop-opacity:0.3" offset="1"></stop>
	</linearGradient>
	<polygon points="40.3,306.6 20,341.8 37.3,341.8 37.3,364.2 43.2,364.2 43.2,341.8 60.6,341.8" class="st6"></polygon>
	
		<linearGradient gradientTransform="matrix(1 0 0 -1 0 -90)" y2="-351.8" x2="71.45" y1="-393.4" x1="71.45" gradientUnits="userSpaceOnUse" id="SVGID_8_">
		<stop style="stop-color:#F0FFFA" offset="0"></stop>
		<stop style="stop-color:#BDEFE3" offset="1"></stop>
	</linearGradient>
	<polygon points="71.4,261.8 56.8,287.2 69.3,287.2 69.3,303.4 73.6,303.4 73.6,287.2 86.1,287.2" class="st7"></polygon>
	
		<linearGradient gradientTransform="matrix(1 0 0 -1 0 -90)" y2="-417.3291" x2="263.1401" y1="-534.2709" x1="283.7599" gradientUnits="userSpaceOnUse" id="SVGID_9_">
		<stop style="stop-color:#FFFFFF;stop-opacity:0" offset="0"></stop>
		<stop style="stop-color:#BDEFE3" offset="1"></stop>
	</linearGradient>
	<polygon points="135.7,349.8 227.7,424.8 411.2,421.8 321.6,348.2" class="st8"></polygon>
	<g>
		
			<linearGradient gradientTransform="matrix(1 0 0 -1 0 -90)" y2="-278.2331" x2="403.0329" y1="-333.4234" x1="403.0329" gradientUnits="userSpaceOnUse" id="SVGID_10_">
			<stop style="stop-color:#FFFFFF;stop-opacity:0" offset="0"></stop>
			<stop style="stop-color:#CFF4EE" offset="1"></stop>
		</linearGradient>
		<path d="M430.1,234.2c-5.9-22.4-5-46.1-25.8-46.1c-14.4,0-27.4,45.9-28.5,50.2C374.9,243,433.9,248.6,430.1,234.2z" class="st9"></path>
		
			<linearGradient gradientTransform="matrix(1 0 0 -1 0 -90)" y2="-255.9" x2="366.1195" y1="-336.6524" x1="366.1195" gradientUnits="userSpaceOnUse" id="SVGID_11_">
			<stop style="stop-color:#FFFFFF;stop-opacity:0" offset="0"></stop>
			<stop style="stop-color:#CFF4EE" offset="1"></stop>
		</linearGradient>
		<path d="M405.6,233.3c-8.8-32.6-7.2-67.4-37.6-67.4c-21.1,0-40,67.2-41.6,73.6C324.8,245.9,411.2,254.2,405.6,233.3z" class="st10"></path>
	</g>
	<g>
		
			<linearGradient gradientTransform="matrix(1 0 0 -1 0 -90)" y2="-283.2105" x2="59.6986" y1="-346.2031" x1="59.6986" gradientUnits="userSpaceOnUse" id="SVGID_12_">
			<stop style="stop-color:#FFFFFF;stop-opacity:0" offset="0"></stop>
			<stop style="stop-color:#CFF4EE" offset="1"></stop>
		</linearGradient>
		<path d="M90.4,245.8c-6.7-25.4-13.1-49.9-29.3-52.5s-31,52.3-32.3,57.3C27.5,255.5,94.9,262.2,90.4,245.8z" class="st11"></path>
		
			<linearGradient gradientTransform="matrix(1 0 0 -1 0 -90)" y2="-273.9777" x2="38.1626" y1="-319.0197" x1="38.1626" gradientUnits="userSpaceOnUse" id="SVGID_13_">
			<stop style="stop-color:#FFFFFF;stop-opacity:0" offset="0"></stop>
			<stop style="stop-color:#CFF4EE" offset="1"></stop>
		</linearGradient>
		<path d="M60.2,221.4c-4.8-18.2-9.3-35.7-21-37.6S17,221.4,16,225C15.2,228.6,63.2,233.3,60.2,221.4z" class="st12"></path>
		
			<linearGradient gradientTransform="matrix(1 0 0 -1 0 -90)" y2="-265.3942" x2="100.5195" y1="-346.2524" x1="100.5195" gradientUnits="userSpaceOnUse" id="SVGID_14_">
			<stop style="stop-color:#FFFFFF;stop-opacity:0" offset="0"></stop>
			<stop style="stop-color:#CFF4EE" offset="1"></stop>
		</linearGradient>
		<path d="M140,242.9c-8.8-32.6-16.8-64.2-37.6-67.4s-40,67.2-41.6,73.6C59.2,255.5,145.6,263.8,140,242.9z" class="st13"></path>
	</g>
	
		<linearGradient gradientTransform="matrix(1 0 0 -1 0 -90)" y2="-388.6" x2="431.0076" y1="-439.8" x1="431.0076" gradientUnits="userSpaceOnUse" id="SVGID_15_">
		<stop style="stop-color:#F0FFFA" offset="0"></stop>
		<stop style="stop-color:#72C2BA;stop-opacity:0.3" offset="1"></stop>
	</linearGradient>
	<path d="M453.9,314.4c-0.5-3.7-5.3-4.5-9.8-8.8c-4.5-4.5-5.9-7-11.5-7c-10.6,0-10.6,9.8-13.3,9.8
		c-8.3,0-11.5,9.8-11.5,12.3s3.5,5.3,8.8,8.8c3.5,2.4,9.1,2.4,12.3,2.1v18.2h4.5v-18.4c2.4-0.3,3.7-2.2,11.5,0.8
		C449.4,334.1,455.7,327,453.9,314.4z" class="st14"></path>
	
		<linearGradient gradientTransform="matrix(0.7012 0.713 0.713 -0.7012 -947.9853 1206.0118)" y2="1599.7012" x2="-41.1787" y1="1588.9442" x1="-41.1787" gradientUnits="userSpaceOnUse" id="SVGID_16_">
		<stop style="stop-color:#FFFFFF" offset="0"></stop>
		<stop style="stop-color:#CFF4EE" offset="1"></stop>
	</linearGradient>
	<path d="M164,70.6c0,0-11.4-12.6-10.1-20.6c1.3-8,8.8,5.4,10.2,10.4C165.8,66.6,164,70.6,164,70.6z" class="st15"></path>
	
		<linearGradient gradientTransform="matrix(0.9394 0.3429 0.3429 -0.9394 -274.8015 551.3584)" y2="647.8471" x2="272.9561" y1="633.5595" x1="272.9561" gradientUnits="userSpaceOnUse" id="SVGID_17_">
		<stop style="stop-color:#FFFFFF" offset="0"></stop>
		<stop style="stop-color:#CFF4EE" offset="1"></stop>
	</linearGradient>
	<path d="M213,54.9c0,0-20.8-8.6-23.8-18.9c-3-10.2,13.8,1.4,18.1,6.6C212.8,49.3,213,54.9,213,54.9z" class="st16"></path>
	
		<linearGradient gradientTransform="matrix(0.9394 0.3429 0.3429 -0.9394 -274.8015 551.3584)" y2="655.8552" x2="334.4356" y1="648.3969" x1="334.4356" gradientUnits="userSpaceOnUse" id="SVGID_18_">
		<stop style="stop-color:#FFFFFF" offset="0"></stop>
		<stop style="stop-color:#CFF4EE" offset="1"></stop>
	</linearGradient>
	<path d="M269.1,59.7c0,0-10.9-4.5-12.5-9.9s7.2,0.8,9.4,3.5C269,56.5,269.1,59.7,269.1,59.7z" class="st17"></path>
	
		<linearGradient gradientTransform="matrix(0.9825 -0.1864 -0.1864 -0.9825 57.6905 -457.4944)" y2="-557.5468" x2="45.7734" y1="-567.387" x1="45.7734" gradientUnits="userSpaceOnUse" id="SVGID_19_">
		<stop style="stop-color:#FFFFFF" offset="0"></stop>
		<stop style="stop-color:#CFF4EE" offset="1"></stop>
	</linearGradient>
	<path d="M218.6,89.4c0,0-15.4,2.1-20.8-2.9c-5.4-5,8.6-4,13-2.4C216.5,86.2,218.6,89.4,218.6,89.4z" class="st18"></path>
	
		<linearGradient gradientTransform="matrix(0.9514 0.3079 0.3079 -0.9514 -226.3982 473.2441)" y2="509.3026" x2="362.3197" y1="492.6628" x1="362.3197" gradientUnits="userSpaceOnUse" id="SVGID_20_">
		<stop style="stop-color:#F0FFFA" offset="0"></stop>
		<stop style="stop-color:#72C2BA;stop-opacity:0.3" offset="1"></stop>
	</linearGradient>
	<path d="M286.7,121.4c0,0-24.5-9.3-28.5-21c-4-11.8,16,1.1,21.3,6.9C286.4,114.9,286.7,121.4,286.7,121.4z" class="st19"></path>
	
		<linearGradient gradientTransform="matrix(1 0 0 -1 0 -90)" y2="-223.8" x2="243.0006" y1="-434" x1="243.0006" gradientUnits="userSpaceOnUse" id="SVGID_21_">
		<stop style="stop-color:#3DBF9D" offset="0"></stop>
		<stop style="stop-color:#D6F2E9" offset="0.9851"></stop>
	</linearGradient>
	<path d="M311.4,344H174.7c-7,0-12.8-5.8-12.8-12.8V146.6c0-7,5.8-12.8,12.8-12.8h136.6c7,0,12.8,5.8,12.8,12.8v184.6
		C324.2,338.4,318.6,344,311.4,344z" class="st20"></path>
	<path d="M303,344H182.6c-6.2,0-11.4-5.4-11.4-12V158.6c0-6.6,5.1-12,11.4-12H303c6.2,0,11.4,5.4,11.4,12V332
		C314.2,338.6,309.3,344,303,344z" class="st21"></path>
	
		<linearGradient gradientTransform="matrix(1 0 0 -1 0 -90)" y2="-233" x2="214.4" y1="-443.3" x1="214.4" gradientUnits="userSpaceOnUse" id="SVGID_22_">
		<stop style="stop-color:#58CCB0" offset="0"></stop>
		<stop style="stop-color:#E5F9F4" offset="0.9851"></stop>
	</linearGradient>
	<path d="M282.7,353.3H146.1c-7,0-12.8-5.8-12.8-12.8V155.8c0-7,5.8-12.8,12.8-12.8l136.6,48.3c7,0,12.8,5.8,12.8,12.8
		v136.3C295.5,347.4,289.8,353.3,282.7,353.3z" class="st22"></path>
	<g>
		
			<linearGradient gradientTransform="matrix(1 0 0 -1 0 -90)" y2="-263" x2="154.7091" y1="-263" x1="123.3491" gradientUnits="userSpaceOnUse" id="SVGID_23_">
			<stop style="stop-color:#BDEFE3" offset="0"></stop>
			<stop style="stop-color:#B3E9DC" offset="0.9851"></stop>
		</linearGradient>
		<path d="M149.8,178.2H128c-2.7,0-4.8-2.1-4.8-4.8v-0.8c0-2.7,2.1-4.8,4.8-4.8h21.8c2.7,0,4.8,2.1,4.8,4.8v0.8
			C154.6,176.2,152.5,178.2,149.8,178.2z" class="st23"></path>
		
			<linearGradient gradientTransform="matrix(1 0 0 -1 0 -90)" y2="-298.2" x2="154.7091" y1="-298.2" x1="123.3491" gradientUnits="userSpaceOnUse" id="SVGID_24_">
			<stop style="stop-color:#BDEFE3" offset="0"></stop>
			<stop style="stop-color:#B3E9DC" offset="0.9851"></stop>
		</linearGradient>
		<path d="M149.8,213.4H128c-2.7,0-4.8-2.1-4.8-4.8v-0.8c0-2.7,2.1-4.8,4.8-4.8h21.8c2.7,0,4.8,2.1,4.8,4.8v0.8
			C154.6,211.4,152.5,213.4,149.8,213.4z" class="st24"></path>
		
			<linearGradient gradientTransform="matrix(1 0 0 -1 0 -90)" y2="-333.4" x2="154.7091" y1="-333.4" x1="123.3491" gradientUnits="userSpaceOnUse" id="SVGID_25_">
			<stop style="stop-color:#BDEFE3" offset="0"></stop>
			<stop style="stop-color:#B3E9DC" offset="0.9851"></stop>
		</linearGradient>
		<path d="M149.8,248.6H128c-2.7,0-4.8-2.1-4.8-4.8V243c0-2.7,2.1-4.8,4.8-4.8h21.8c2.7,0,4.8,2.1,4.8,4.8v0.8
			C154.6,246.6,152.5,248.6,149.8,248.6z" class="st25"></path>
		
			<linearGradient gradientTransform="matrix(1 0 0 -1 0 -90)" y2="-368.8" x2="154.7091" y1="-368.8" x1="123.3491" gradientUnits="userSpaceOnUse" id="SVGID_26_">
			<stop style="stop-color:#BDEFE3" offset="0"></stop>
			<stop style="stop-color:#B3E9DC" offset="0.9851"></stop>
		</linearGradient>
		<path d="M149.8,284H128c-2.7,0-4.8-2.1-4.8-4.8v-0.8c0-2.7,2.1-4.8,4.8-4.8h21.8c2.7,0,4.8,2.1,4.8,4.8v0.8
			C154.6,281.8,152.5,284,149.8,284z" class="st26"></path>
		
			<linearGradient gradientTransform="matrix(1 0 0 -1 0 -90)" y2="-404" x2="154.7091" y1="-404" x1="123.3491" gradientUnits="userSpaceOnUse" id="SVGID_27_">
			<stop style="stop-color:#BDEFE3" offset="0"></stop>
			<stop style="stop-color:#B3E9DC" offset="0.9851"></stop>
		</linearGradient>
		<path d="M149.8,319.2H128c-2.7,0-4.8-2.1-4.8-4.8v-0.8c0-2.7,2.1-4.8,4.8-4.8h21.8c2.7,0,4.8,2.1,4.8,4.8v0.8
			C154.6,317,152.5,319.2,149.8,319.2z" class="st27"></path>
	</g>
	
		<linearGradient gradientTransform="matrix(1 0 0 -1 0 -90)" y2="-379" x2="312" y1="-449.4" x1="312" gradientUnits="userSpaceOnUse" id="SVGID_28_">
		<stop style="stop-color:#3DBF9D" offset="0"></stop>
		<stop style="stop-color:#D6F2E9" offset="0.9851"></stop>
	</linearGradient>
	<circle r="35.2" cy="324.2" cx="312" class="st28"></circle>
	
		<linearGradient gradientTransform="matrix(0.7071 0.7071 -0.7071 0.7071 -326.8844 643.1277)" y2="-562.9807" x2="0.2169" y1="-575.4644" x1="0.2169" gradientUnits="userSpaceOnUse" id="SVGID_29_">
		<stop style="stop-color:#58CCB0" offset="0"></stop>
		<stop style="stop-color:#E5F9F4" offset="0.9851"></stop>
	</linearGradient>
	<path d="M76.8,240.6c0,0-3.5-8.6-10.6-12.3c0,0,8.2,11.8,5.1,17c0,0,13.6-0.3,19.8,2.2
		C91.2,247.4,81.3,242.2,76.8,240.6z" class="st29"></path>
	
		<linearGradient gradientTransform="matrix(0.7071 -0.7071 0.7071 0.7071 -570.2551 -1519.2765)" y2="1901.0033" x2="-549.8313" y1="1891.7283" x1="-549.8313" gradientUnits="userSpaceOnUse" id="SVGID_30_">
		<stop style="stop-color:#58CCB0" offset="0"></stop>
		<stop style="stop-color:#E5F9F4" offset="0.9851"></stop>
	</linearGradient>
	<path d="M381.8,209.8c0,0-6.4,2.6-9.1,7.8c0,0,8.8-6.1,12.6-3.8c0,0-0.2-10.1,1.6-14.7
		C386.7,199,382.9,206.6,381.8,209.8z" class="st30"></path>
	<g>
		
			<linearGradient gradientTransform="matrix(1 0 0 1 0 -572)" y2="831.3067" x2="362.3732" y1="868.8889" x1="362.3732" gradientUnits="userSpaceOnUse" id="SVGID_31_">
			<stop style="stop-color:#E9FFFD" offset="0"></stop>
			<stop style="stop-color:#63D0B5" offset="0.9851"></stop>
		</linearGradient>
		<path d="M365.3,293.6c-4.5-16.3-7.7-23.2-15.5-34.2c0,0,26.4,26.9,25.1,34.2C373.6,301,365.3,293.6,365.3,293.6z" class="st31"></path>
		
			<linearGradient gradientTransform="matrix(1 0 0 1 0 -572)" y2="836.4904" x2="376.5371" y1="872.5953" x1="376.5371" gradientUnits="userSpaceOnUse" id="SVGID_32_">
			<stop style="stop-color:#E9FFFD" offset="0"></stop>
			<stop style="stop-color:#63D0B5" offset="0.9851"></stop>
		</linearGradient>
		<path d="M369.8,293.6c0,0,6.7-26.4,13.8-29.1c0,0-10.2,30.9-8.6,34.2C376.5,302.2,367.7,301.3,369.8,293.6z" class="st32"></path>
	</g>
	
		<linearGradient gradientTransform="matrix(1 0 0 1 0 -572)" y2="786.2" x2="308.4949" y1="786.2" x1="295.589" gradientUnits="userSpaceOnUse" id="SVGID_33_">
		<stop style="stop-color:#FFFFFF;stop-opacity:0" offset="0"></stop>
		<stop style="stop-color:#FFFFFF" offset="1"></stop>
	</linearGradient>
	<path d="M306.9,218.2h-11.4v-8h11.4c1,0,1.6,0.6,1.6,1.6v4.8C308.5,217.4,307.8,218.2,306.9,218.2z" class="st33"></path>
	
		<linearGradient gradientTransform="matrix(1 0 0 1 0 -572)" y2="819.8" x2="308.4949" y1="819.8" x1="295.589" gradientUnits="userSpaceOnUse" id="SVGID_34_">
		<stop style="stop-color:#FFFFFF;stop-opacity:0" offset="0"></stop>
		<stop style="stop-color:#FFFFFF" offset="1"></stop>
	</linearGradient>
	<path d="M306.9,251.8h-11.4v-8h11.4c1,0,1.6,0.6,1.6,1.6v4.8C308.5,251,307.8,251.8,306.9,251.8z" class="st34"></path>
	<path d="M316.5,324.2l9.1-9.1c1.3-1.3,1.3-3.2,0-4.5s-3.2-1.3-4.5,0l-9.1,9.1l-9.1-9.1c-1.3-1.3-3.2-1.3-4.5,0
		s-1.3,3.2,0,4.5l9.1,9.1l-9.1,9.1c-1.3,1.3-1.3,3.2,0,4.5s3.2,1.3,4.5,0l9.1-9.1l9.1,9.1c1.3,1.3,3.2,1.3,4.5,0s1.3-3.2,0-4.5
		L316.5,324.2z" class="st35"></path>
</g>
</svg>
