<svg xml:space="preserve" style="enable-background:new 0 0 480 480;" viewBox="0 0 480 480" y="0px" x="0px" xmlns:xlink="http://www.w3.org/1999/xlink" xmlns="http://www.w3.org/2000/svg" id="图层_1" version="1.1">
<style type="text/css">
	.st0{fill:url(#SVGID_1_);}
	.st1{fill:url(#SVGID_2_);}
	.st2{fill:url(#SVGID_3_);}
	.st3{fill:url(#SVGID_4_);}
	.st4{fill:url(#SVGID_5_);}
	.st5{fill:url(#SVGID_6_);}
	.st6{fill:url(#SVGID_7_);}
	.st7{fill:url(#SVGID_8_);}
	.st8{fill:url(#SVGID_9_);}
	.st9{fill:url(#SVGID_10_);}
	.st10{fill:url(#SVGID_11_);}
	.st11{fill:url(#SVGID_12_);}
	.st12{fill:url(#SVGID_13_);}
	.st13{fill:url(#SVGID_14_);}
	.st14{fill:url(#SVGID_15_);}
	.st15{fill:url(#SVGID_16_);}
	.st16{fill:url(#SVGID_17_);}
	.st17{fill:url(#SVGID_18_);}
	.st18{fill:url(#SVGID_19_);}
	.st19{fill:url(#SVGID_20_);}
	.st20{fill:url(#SVGID_21_);}
	.st21{fill:url(#SVGID_22_);}
	.st22{fill:url(#SVGID_23_);}
	.st23{fill:url(#SVGID_24_);}
	.st24{fill:#FFFFFF;}
	.st25{fill:url(#SVGID_25_);}
	.st26{fill:url(#SVGID_26_);}
	.st27{fill:url(#SVGID_27_);}
</style>
<g>
	<g>
		
			<linearGradient gradientTransform="matrix(1 0 0 1 0 -572)" y2="635.6" x2="88.65" y1="785.4" x1="88.65" gradientUnits="userSpaceOnUse" id="SVGID_1_">
			<stop style="stop-color:#FFFFFF" offset="0"></stop>
			<stop style="stop-color:#CFF4EE" offset="1"></stop>
		</linearGradient>
		<rect height="149.8" width="33.9" class="st0" y="63.6" x="71.7"></rect>
		
			<linearGradient gradientTransform="matrix(1 0 0 1 0 -572)" y2="602.9" x2="122.55" y1="772.3" x1="122.55" gradientUnits="userSpaceOnUse" id="SVGID_2_">
			<stop style="stop-color:#FFFFFF" offset="0"></stop>
			<stop style="stop-color:#CFF4EE" offset="1"></stop>
		</linearGradient>
		<rect height="169.4" width="33.9" class="st1" y="30.9" x="105.6"></rect>
	</g>
	<g>
		
			<linearGradient gradientTransform="matrix(1 0 0 1 0 -572)" y2="636.7" x2="348.9" y1="752.7" x1="348.9" gradientUnits="userSpaceOnUse" id="SVGID_3_">
			<stop style="stop-color:#FFFFFF" offset="0"></stop>
			<stop style="stop-color:#CFF4EE" offset="1"></stop>
		</linearGradient>
		<rect height="116" width="33.4" class="st2" y="64.7" x="332.2"></rect>
		
			<linearGradient gradientTransform="matrix(1 0 0 1 0 -572)" y2="617.3" x2="382.3" y1="752.7" x1="382.3" gradientUnits="userSpaceOnUse" id="SVGID_4_">
			<stop style="stop-color:#FFFFFF" offset="0"></stop>
			<stop style="stop-color:#CFF4EE" offset="1"></stop>
		</linearGradient>
		<rect height="135.4" width="33.4" class="st3" y="45.3" x="365.6"></rect>
		
			<linearGradient gradientTransform="matrix(1 0 0 1 0 -572)" y2="654.8" x2="415.9" y1="763" x1="415.9" gradientUnits="userSpaceOnUse" id="SVGID_5_">
			<stop style="stop-color:#FFFFFF" offset="0"></stop>
			<stop style="stop-color:#CFF4EE" offset="1"></stop>
		</linearGradient>
		<rect height="108.2" width="33.4" class="st4" y="82.8" x="399.2"></rect>
	</g>
	
		<linearGradient gradientTransform="matrix(1 0 0 1 0 -572)" y2="801.3" x2="240" y1="1025.3" x1="240" gradientUnits="userSpaceOnUse" id="SVGID_6_">
		<stop style="stop-color:#FFFFFF;stop-opacity:0.2" offset="0"></stop>
		<stop style="stop-color:#DEFFFD" offset="1"></stop>
	</linearGradient>
	<ellipse ry="112" rx="240" cy="341.3" cx="240" class="st5"></ellipse>
	
		<linearGradient gradientTransform="matrix(1 0 0 1 0 -572)" y2="881.3" x2="40.3" y1="938.9" x1="40.3" gradientUnits="userSpaceOnUse" id="SVGID_7_">
		<stop style="stop-color:#F0FFFA" offset="0"></stop>
		<stop style="stop-color:#72C2BA;stop-opacity:0.3" offset="1"></stop>
	</linearGradient>
	<polygon points="40.3,309.3 20,344.5 37.3,344.5 37.3,366.9 43.2,366.9 43.2,344.5 60.6,344.5" class="st6"></polygon>
	
		<linearGradient gradientTransform="matrix(1 0 0 1 0 -572)" y2="876.7828" x2="261.9805" y1="1016.5172" x1="286.6195" gradientUnits="userSpaceOnUse" id="SVGID_8_">
		<stop style="stop-color:#FFFFFF;stop-opacity:0" offset="0"></stop>
		<stop style="stop-color:#BDEFE3" offset="1"></stop>
	</linearGradient>
	<polygon points="118.4,330.1 226.7,432 430.2,419.2 355.8,330.1" class="st7"></polygon>
	<g>
		
			<linearGradient gradientTransform="matrix(1 0 0 1 0 -572)" y2="762.9" x2="403.0329" y1="818.0736" x1="403.0329" gradientUnits="userSpaceOnUse" id="SVGID_9_">
			<stop style="stop-color:#FFFFFF;stop-opacity:0" offset="0"></stop>
			<stop style="stop-color:#CFF4EE" offset="1"></stop>
		</linearGradient>
		<path d="M430.1,237c-5.9-22.4-5-46.1-25.8-46.1c-14.4,0-27.4,45.9-28.5,50.2C374.9,245.6,433.9,251.2,430.1,237z" class="st8"></path>
		
			<linearGradient gradientTransform="matrix(1 0 0 1 0 -572)" y2="740.5" x2="366.1195" y1="821.2524" x1="366.1195" gradientUnits="userSpaceOnUse" id="SVGID_10_">
			<stop style="stop-color:#FFFFFF;stop-opacity:0" offset="0"></stop>
			<stop style="stop-color:#CFF4EE" offset="1"></stop>
		</linearGradient>
		<path d="M405.6,235.9c-8.8-32.6-7.2-67.4-37.6-67.4c-21.1,0-40,67.2-41.6,73.6C324.8,248.5,411.2,256.8,405.6,235.9z" class="st9"></path>
	</g>
	
		<linearGradient gradientTransform="matrix(1 0 0 1 0 -572)" y2="836.5" x2="71.45" y1="878.1" x1="71.45" gradientUnits="userSpaceOnUse" id="SVGID_11_">
		<stop style="stop-color:#F0FFFA" offset="0"></stop>
		<stop style="stop-color:#BDEFE3" offset="1"></stop>
	</linearGradient>
	<polygon points="71.4,264.5 56.8,290 69.3,290 69.3,306.1 73.6,306.1 73.6,290 86.1,290" class="st10"></polygon>
	<g>
		
			<linearGradient gradientTransform="matrix(1 0 0 1 0 -572)" y2="767.9105" x2="59.6986" y1="830.9" x1="59.6986" gradientUnits="userSpaceOnUse" id="SVGID_12_">
			<stop style="stop-color:#FFFFFF;stop-opacity:0" offset="0"></stop>
			<stop style="stop-color:#CFF4EE" offset="1"></stop>
		</linearGradient>
		<path d="M90.4,248.5c-6.7-25.4-13.1-49.9-29.3-52.5s-31,52.3-32.3,57.3C27.5,258.3,94.9,264.8,90.4,248.5z" class="st11"></path>
		
			<linearGradient gradientTransform="matrix(1 0 0 1 0 -572)" y2="758.6169" x2="38.1626" y1="803.6588" x1="38.1626" gradientUnits="userSpaceOnUse" id="SVGID_13_">
			<stop style="stop-color:#FFFFFF;stop-opacity:0" offset="0"></stop>
			<stop style="stop-color:#CFF4EE" offset="1"></stop>
		</linearGradient>
		<path d="M60.2,224.2c-4.8-18.2-9.3-35.7-21-37.6S17,224.2,16,227.7C15.2,231.2,63.2,235.9,60.2,224.2z" class="st12"></path>
		
			<linearGradient gradientTransform="matrix(1 0 0 1 0 -572)" y2="749.9942" x2="100.5195" y1="830.8524" x1="100.5195" gradientUnits="userSpaceOnUse" id="SVGID_14_">
			<stop style="stop-color:#FFFFFF;stop-opacity:0" offset="0"></stop>
			<stop style="stop-color:#CFF4EE" offset="1"></stop>
		</linearGradient>
		<path d="M140,245.5c-8.8-32.6-16.8-64.2-37.6-67.4s-40,67.2-41.6,73.6C59.2,258.1,145.6,266.4,140,245.5z" class="st13"></path>
	</g>
	
		<linearGradient gradientTransform="matrix(1 0 0 1 0 -572)" y2="717.2" x2="304.55" y1="910.3" x1="304.55" gradientUnits="userSpaceOnUse" id="SVGID_15_">
		<stop style="stop-color:#58CCB0" offset="0"></stop>
		<stop style="stop-color:#D6F2E9" offset="0.9851"></stop>
	</linearGradient>
	<path d="M356.8,338.3H245.9c-3.5,0-6.4-2.9-6.4-6.4V151.6c0-3.5,2.9-6.4,6.4-6.4h110.9c7,0,12.8,5.8,12.8,12.8v167.5
		C369.6,332.5,363.8,338.3,356.8,338.3z" class="st14"></path>
	
		<linearGradient gradientTransform="matrix(1 0 0 1 0 -572)" y2="717.2" x2="175.45" y1="910.3" x1="175.45" gradientUnits="userSpaceOnUse" id="SVGID_16_">
		<stop style="stop-color:#3DBF9D" offset="0"></stop>
		<stop style="stop-color:#E5F9F4" offset="0.9851"></stop>
	</linearGradient>
	<path d="M234.1,338.3H123.2c-7,0-12.8-5.8-12.8-12.8V158c0-7,5.8-12.8,12.8-12.8h110.9c3.5,0,6.4,2.9,6.4,6.4v180.3
		C240.5,335.4,237.6,338.3,234.1,338.3z" class="st15"></path>
	
		<linearGradient gradientTransform="matrix(1 0 0 1 0 -572)" y2="873.3167" x2="431.0076" y1="924.5167" x1="431.0076" gradientUnits="userSpaceOnUse" id="SVGID_17_">
		<stop style="stop-color:#F0FFFA" offset="0"></stop>
		<stop style="stop-color:#72C2BA;stop-opacity:0.3" offset="1"></stop>
	</linearGradient>
	<path d="M453.9,317.2c-0.5-3.7-5.3-4.5-9.8-8.8c-4.5-4.5-5.9-7-11.5-7c-10.6,0-10.6,9.8-13.3,9.8
		c-8.3,0-11.5,9.8-11.5,12.3s3.5,5.3,8.8,8.8c3.5,2.4,9.1,2.4,12.3,2.1v18.2h4.5v-18.4c2.4-0.3,3.7-2.2,11.5,0.8
		C449.4,336.7,455.7,329.6,453.9,317.2z" class="st16"></path>
	
		<linearGradient gradientTransform="matrix(0.7012 0.713 -0.713 0.7012 -370.2907 595.6158)" y2="-757.9465" x2="-9.1936" y1="-747.1894" x1="-9.1936" gradientUnits="userSpaceOnUse" id="SVGID_18_">
		<stop style="stop-color:#FFFFFF" offset="0"></stop>
		<stop style="stop-color:#CFF4EE" offset="1"></stop>
	</linearGradient>
	<path d="M164,73.2c0,0-11.4-12.6-10.1-20.6c1.3-8,8.8,5.4,10.2,10.4C165.8,69.2,164,73.2,164,73.2z" class="st17"></path>
	
		<linearGradient gradientTransform="matrix(0.9394 0.3429 -0.3429 0.9394 -33.7038 -44.3284)" y2="-10.5981" x2="248.9138" y1="3.6896" x1="248.9138" gradientUnits="userSpaceOnUse" id="SVGID_19_">
		<stop style="stop-color:#FFFFFF" offset="0"></stop>
		<stop style="stop-color:#CFF4EE" offset="1"></stop>
	</linearGradient>
	<path d="M213,49.6c0,0-20.8-8.6-23.8-18.9c-3-10.2,13.8,1.4,18.1,6.6C212.8,43.9,213,49.6,213,49.6z" class="st18"></path>
	
		<linearGradient gradientTransform="matrix(0.9394 0.3429 -0.3429 0.9394 -33.7038 -44.3284)" y2="-18.6196" x2="310.359" y1="-11.1613" x1="310.359" gradientUnits="userSpaceOnUse" id="SVGID_20_">
		<stop style="stop-color:#FFFFFF" offset="0"></stop>
		<stop style="stop-color:#CFF4EE" offset="1"></stop>
	</linearGradient>
	<path d="M269.1,54.3c0,0-10.9-4.5-12.5-9.9s7.2,0.8,9.4,3.5C269,51.2,269.1,54.3,269.1,54.3z" class="st19"></path>
	
		<linearGradient gradientTransform="matrix(0.9825 -0.1864 0.1864 0.9825 -51.0745 -846.1681)" y2="962.3134" x2="79.6626" y1="972.1535" x1="79.6626" gradientUnits="userSpaceOnUse" id="SVGID_21_">
		<stop style="stop-color:#FFFFFF" offset="0"></stop>
		<stop style="stop-color:#CFF4EE" offset="1"></stop>
	</linearGradient>
	<path d="M218.6,92.2c0,0-15.4,2.1-20.8-2.9c-5.4-5,8.6-4,13-2.4C216.5,88.8,218.6,92.2,218.6,92.2z" class="st20"></path>
	
		<linearGradient gradientTransform="matrix(0.9514 0.3079 -0.3079 0.9514 -12.4795 -114.4727)" y2="118.3208" x2="340.6168" y1="134.9606" x1="340.6168" gradientUnits="userSpaceOnUse" id="SVGID_22_">
		<stop style="stop-color:#F0FFFA" offset="0"></stop>
		<stop style="stop-color:#72C2BA;stop-opacity:0.3" offset="1"></stop>
	</linearGradient>
	<path d="M286.7,124.2c0,0-24.5-9.3-28.5-21c-4-11.8,16,1.1,21.3,6.9C286.4,117.5,286.7,124.2,286.7,124.2z" class="st21"></path>
	
		<linearGradient gradientTransform="matrix(1 0 0 1 0 -572)" y2="722.9" x2="300.7" y1="904.5" x1="300.7" gradientUnits="userSpaceOnUse" id="SVGID_23_">
		<stop style="stop-color:#3DBF9D" offset="0"></stop>
		<stop style="stop-color:#D6F2E9" offset="0.9851"></stop>
	</linearGradient>
	<path d="M349,332.5H246c-3.5,0-6.4-2.9-6.4-6.4V157.3c0-3.5,2.9-6.4,6.4-6.4h103c7,0,12.8,5.8,12.8,12.8v156
		C361.8,326.8,356.2,332.5,349,332.5z" class="st22"></path>
	
		<linearGradient gradientTransform="matrix(1 0 0 1 0 -572)" y2="722.9" x2="179.3013" y1="904.5" x1="179.3013" gradientUnits="userSpaceOnUse" id="SVGID_24_">
		<stop style="stop-color:#58CCB0" offset="0"></stop>
		<stop style="stop-color:#E5F9F4" offset="0.9851"></stop>
	</linearGradient>
	<path d="M234.1,332.5H131c-7,0-12.8-5.8-12.8-12.8v-156c0-7,5.8-12.8,12.8-12.8h103c3.5,0,6.4,2.9,6.4,6.4v168.8
		C240.5,329.6,237.6,332.5,234.1,332.5z" class="st23"></path>
	<g>
		<path d="M207.4,200.5H153c-2.2,0-4-1.8-4-4l0,0c0-2.2,1.8-4,4-4h54.4c2.2,0,4,1.8,4,4l0,0
			C211.4,198.8,209.6,200.5,207.4,200.5z" class="st24"></path>
		<path d="M186.6,239.7H153c-2.2,0-4-1.8-4-4l0,0c0-2.2,1.8-4,4-4h33.6c2.2,0,4,1.8,4,4l0,0
			C190.6,238,188.8,239.7,186.6,239.7z" class="st24"></path>
		<path d="M199.4,278.9H153c-2.2,0-4-1.8-4-4l0,0c0-2.2,1.8-4,4-4h46.4c2.2,0,4,1.8,4,4l0,0
			C203.4,277.2,201.6,278.9,199.4,278.9z" class="st24"></path>
	</g>
	<g>
		
			<linearGradient gradientTransform="matrix(1 0 0 1 0 -572)" y2="863.7" x2="342.4" y1="934.1" x1="342.4" gradientUnits="userSpaceOnUse" id="SVGID_25_">
			<stop style="stop-color:#3DBF9D" offset="0"></stop>
			<stop style="stop-color:#D6F2E9" offset="0.9851"></stop>
		</linearGradient>
		<circle r="35.2" cy="326.9" cx="342.4" class="st25"></circle>
		
			<linearGradient gradientTransform="matrix(1 0 0 1 0 -572)" y2="886.1533" x2="342.4" y1="914.9533" x1="342.4" gradientUnits="userSpaceOnUse" id="SVGID_26_">
			<stop style="stop-color:#58CCB0" offset="0"></stop>
			<stop style="stop-color:#D6F2E9" offset="0.9851"></stop>
		</linearGradient>
		<circle r="14.4" cy="328.5" cx="342.4" class="st26"></circle>
		
			<linearGradient gradientTransform="matrix(1 0 0 1 0 -572)" y2="863.7534" x2="342.4" y1="886.1533" x1="342.4" gradientUnits="userSpaceOnUse" id="SVGID_27_">
			<stop style="stop-color:#3DBF9D" offset="0"></stop>
			<stop style="stop-color:#D3F1E7" offset="0.9851"></stop>
		</linearGradient>
		<path d="M345.6,314.1h-6.4c-2.7,0-4.8-2.1-4.8-4.8v-12.8c0-2.7,2.1-4.8,4.8-4.8h6.4c2.7,0,4.8,2.1,4.8,4.8v12.8
			C350.4,312,348.3,314.1,345.6,314.1z" class="st27"></path>
	</g>
	<path d="M342.4,310.9L342.4,310.9c-2.7,0-4.8-2.1-4.8-4.8v-20.8c0-2.7,2.1-4.8,4.8-4.8l0,0c2.7,0,4.8,2.1,4.8,4.8
		v20.8C347.2,308.8,345.1,310.9,342.4,310.9z" class="st24"></path>
</g>
</svg>
