<svg xml:space="preserve" style="enable-background:new 0 0 480 480;" viewBox="0 0 480 480" y="0px" x="0px" xmlns:xlink="http://www.w3.org/1999/xlink" xmlns="http://www.w3.org/2000/svg" id="图层_1" version="1.1">
<style type="text/css">
	.st0{fill:url(#SVGID_1_);}
	.st1{fill:url(#SVGID_2_);}
	.st2{fill:url(#SVGID_3_);}
	.st3{fill:url(#SVGID_4_);}
	.st4{fill:url(#SVGID_5_);}
	.st5{fill:url(#SVGID_6_);}
	.st6{fill:url(#SVGID_7_);}
	.st7{fill:url(#SVGID_8_);}
	.st8{fill:url(#SVGID_9_);}
	.st9{fill:url(#SVGID_10_);}
	.st10{fill:url(#SVGID_11_);}
	.st11{fill:url(#SVGID_12_);}
	.st12{fill:url(#SVGID_13_);}
	.st13{fill:url(#SVGID_14_);}
	.st14{fill:url(#SVGID_15_);}
	.st15{fill:url(#SVGID_16_);}
	.st16{fill:url(#SVGID_17_);}
	.st17{fill:url(#SVGID_18_);}
	.st18{fill:url(#SVGID_19_);}
	.st19{fill:url(#SVGID_20_);}
	.st20{fill:url(#SVGID_21_);}
	.st21{fill:url(#SVGID_22_);}
	.st22{fill:url(#SVGID_23_);}
	.st23{fill:url(#SVGID_24_);}
	.st24{fill:url(#SVGID_25_);}
	.st25{fill:url(#SVGID_26_);}
	.st26{fill:url(#SVGID_27_);}
	.st27{fill:url(#SVGID_28_);}
	.st28{fill:#FFFFFF;}
	.st29{fill:url(#SVGID_29_);}
	.st30{fill:url(#SVGID_30_);}
	.st31{fill:url(#SVGID_31_);}
	.st32{fill:url(#SVGID_32_);}
	.st33{fill:url(#SVGID_33_);}
	.st34{fill:url(#SVGID_34_);}
</style>
<g>
	<g>
		
			<linearGradient gradientTransform="matrix(1 0 0 1 0 -286)" y2="347.2438" x2="88.64" y1="497.0038" x1="88.64" gradientUnits="userSpaceOnUse" id="SVGID_1_">
			<stop style="stop-color:#FFFFFF" offset="0"></stop>
			<stop style="stop-color:#CFF4EE" offset="1"></stop>
		</linearGradient>
		<rect height="149.8" width="33.9" class="st0" y="61.2" x="71.7"></rect>
		
			<linearGradient gradientTransform="matrix(1 0 0 1 0 -286)" y2="314.6038" x2="122.56" y1="484.0438" x1="122.56" gradientUnits="userSpaceOnUse" id="SVGID_2_">
			<stop style="stop-color:#FFFFFF" offset="0"></stop>
			<stop style="stop-color:#CFF4EE" offset="1"></stop>
		</linearGradient>
		<rect height="169.4" width="33.9" class="st1" y="28.6" x="105.6"></rect>
	</g>
	<g>
		
			<linearGradient gradientTransform="matrix(1 0 0 1 0 -286)" y2="348.3638" x2="348.88" y1="464.3638" x1="348.88" gradientUnits="userSpaceOnUse" id="SVGID_3_">
			<stop style="stop-color:#FFFFFF" offset="0"></stop>
			<stop style="stop-color:#CFF4EE" offset="1"></stop>
		</linearGradient>
		<rect height="116" width="33.4" class="st2" y="62.4" x="332.2"></rect>
		
			<linearGradient gradientTransform="matrix(1 0 0 1 0 -286)" y2="329.0038" x2="382.32" y1="464.3638" x1="382.32" gradientUnits="userSpaceOnUse" id="SVGID_4_">
			<stop style="stop-color:#FFFFFF" offset="0"></stop>
			<stop style="stop-color:#CFF4EE" offset="1"></stop>
		</linearGradient>
		<rect height="135.4" width="33.4" class="st3" y="43" x="365.6"></rect>
		
			<linearGradient gradientTransform="matrix(1 0 0 1 0 -286)" y2="366.4438" x2="415.92" y1="474.6038" x1="415.92" gradientUnits="userSpaceOnUse" id="SVGID_5_">
			<stop style="stop-color:#FFFFFF" offset="0"></stop>
			<stop style="stop-color:#CFF4EE" offset="1"></stop>
		</linearGradient>
		<rect height="108.2" width="33.4" class="st4" y="80.4" x="399.2"></rect>
	</g>
	
		<linearGradient gradientTransform="matrix(1 0 0 1 0 -286)" y2="513.3962" x2="240" y1="737.3962" x1="240" gradientUnits="userSpaceOnUse" id="SVGID_6_">
		<stop style="stop-color:#FFFFFF;stop-opacity:0.2" offset="0"></stop>
		<stop style="stop-color:#DEFFFD" offset="1"></stop>
	</linearGradient>
	<ellipse ry="112" rx="240" cy="339.4" cx="240" class="st5"></ellipse>
	
		<linearGradient gradientTransform="matrix(1 0 0 1 0 -286)" y2="593.0038" x2="40.32" y1="650.6038" x1="40.32" gradientUnits="userSpaceOnUse" id="SVGID_7_">
		<stop style="stop-color:#F0FFFA" offset="0"></stop>
		<stop style="stop-color:#72C2BA;stop-opacity:0.3" offset="1"></stop>
	</linearGradient>
	<polygon points="40.3,307 20,342.2 37.3,342.2 37.3,364.6 43.2,364.6 43.2,342.2 60.6,342.2" class="st6"></polygon>
	
		<linearGradient gradientTransform="matrix(1 0 0 1 0 -286)" y2="548.2038" x2="71.44" y1="589.8038" x1="71.44" gradientUnits="userSpaceOnUse" id="SVGID_8_">
		<stop style="stop-color:#F0FFFA" offset="0"></stop>
		<stop style="stop-color:#BDEFE3" offset="1"></stop>
	</linearGradient>
	<polygon points="71.4,262.2 56.8,287.6 69.3,287.6 69.3,303.8 73.6,303.8 73.6,287.6 86.1,287.6" class="st7"></polygon>
	
		<linearGradient gradientTransform="matrix(1 0 0 1 0 -286)" y2="613.7311" x2="263.1298" y1="730.6765" x1="283.7502" gradientUnits="userSpaceOnUse" id="SVGID_9_">
		<stop style="stop-color:#FFFFFF;stop-opacity:0" offset="0"></stop>
		<stop style="stop-color:#BDEFE3" offset="1"></stop>
	</linearGradient>
	<polygon points="135.7,350.2 236.9,434.3 411.2,422.2 321.6,348.6" class="st8"></polygon>
	<g>
		
			<linearGradient gradientTransform="matrix(1 0 0 1 0 -286)" y2="474.6038" x2="403.044" y1="529.7941" x1="403.044" gradientUnits="userSpaceOnUse" id="SVGID_10_">
			<stop style="stop-color:#FFFFFF;stop-opacity:0" offset="0"></stop>
			<stop style="stop-color:#CFF4EE" offset="1"></stop>
		</linearGradient>
		<path d="M430.1,234.7c-5.9-22.4-5-46.1-25.8-46.1c-14.4,0-27.4,45.9-28.5,50.2C374.9,243.3,433.9,248.9,430.1,234.7z" class="st9"></path>
		
			<linearGradient gradientTransform="matrix(1 0 0 1 0 -286)" y2="452.2038" x2="366.1195" y1="532.9584" x1="366.1195" gradientUnits="userSpaceOnUse" id="SVGID_11_">
			<stop style="stop-color:#FFFFFF;stop-opacity:0" offset="0"></stop>
			<stop style="stop-color:#CFF4EE" offset="1"></stop>
		</linearGradient>
		<path d="M405.6,233.6c-8.8-32.6-7.2-67.4-37.6-67.4c-21.1,0-40,67.2-41.6,73.6S411.2,254.5,405.6,233.6z" class="st10"></path>
	</g>
	<g>
		
			<linearGradient gradientTransform="matrix(1 0 0 1 0 -286)" y2="479.637" x2="59.698" y1="542.5972" x1="59.698" gradientUnits="userSpaceOnUse" id="SVGID_12_">
			<stop style="stop-color:#FFFFFF;stop-opacity:0" offset="0"></stop>
			<stop style="stop-color:#CFF4EE" offset="1"></stop>
		</linearGradient>
		<path d="M90.4,246.2c-6.7-25.4-13.1-49.9-29.3-52.5S30.1,246,28.8,251C27.5,256,94.9,262.5,90.4,246.2z" class="st11"></path>
		
			<linearGradient gradientTransform="matrix(1 0 0 1 0 -286)" y2="470.3097" x2="38.1443" y1="515.3514" x1="38.1443" gradientUnits="userSpaceOnUse" id="SVGID_13_">
			<stop style="stop-color:#FFFFFF;stop-opacity:0" offset="0"></stop>
			<stop style="stop-color:#CFF4EE" offset="1"></stop>
		</linearGradient>
		<path d="M60.2,221.9c-4.8-18.2-9.3-35.7-21-37.6C27.5,182.4,17,221.9,16,225.4C15.2,228.9,63.2,233.6,60.2,221.9z" class="st12"></path>
		
			<linearGradient gradientTransform="matrix(1 0 0 1 0 -286)" y2="461.698" x2="100.5195" y1="542.5584" x1="100.5195" gradientUnits="userSpaceOnUse" id="SVGID_14_">
			<stop style="stop-color:#FFFFFF;stop-opacity:0" offset="0"></stop>
			<stop style="stop-color:#CFF4EE" offset="1"></stop>
		</linearGradient>
		<path d="M140,243.2c-8.8-32.6-16.8-64.2-37.6-67.4s-40,67.2-41.6,73.6C59.2,255.8,145.6,264.1,140,243.2z" class="st13"></path>
	</g>
	
		<linearGradient gradientTransform="matrix(1 0 0 1 0 -286)" y2="585.0038" x2="431.0324" y1="636.2038" x1="431.0324" gradientUnits="userSpaceOnUse" id="SVGID_15_">
		<stop style="stop-color:#F0FFFA" offset="0"></stop>
		<stop style="stop-color:#72C2BA;stop-opacity:0.3" offset="1"></stop>
	</linearGradient>
	<path d="M453.9,314.8c-0.5-3.7-5.3-4.5-9.8-8.8c-4.5-4.5-5.9-7-11.5-7c-10.6,0-10.6,9.8-13.3,9.8
		c-8.3,0-11.5,9.8-11.5,12.3s3.5,5.3,8.8,8.8c3.5,2.4,9.1,2.4,12.3,2.1v18.2h4.5v-18.4c2.4-0.3,3.7-2.2,11.5,0.8
		C449.4,334.4,455.7,327.3,453.9,314.8z" class="st14"></path>
	
		<linearGradient gradientTransform="matrix(0.7012 0.713 -0.713 0.7012 -106.1515 251.3238)" y2="-329.8669" x2="49.3806" y1="-319.1098" x1="49.3806" gradientUnits="userSpaceOnUse" id="SVGID_16_">
		<stop style="stop-color:#FFFFFF" offset="0"></stop>
		<stop style="stop-color:#CFF4EE" offset="1"></stop>
	</linearGradient>
	<path d="M164,70.8c0,0-11.4-12.6-10.1-20.6c1.3-8,8.8,5.4,10.2,10.4C165.8,66.8,164,70.8,164,70.8z" class="st15"></path>
	
		<linearGradient gradientTransform="matrix(0.9394 0.3429 -0.3429 0.9394 19.8666 -61.452)" y2="29.1496" x2="206.3651" y1="43.4373" x1="206.3651" gradientUnits="userSpaceOnUse" id="SVGID_17_">
		<stop style="stop-color:#FFFFFF" offset="0"></stop>
		<stop style="stop-color:#CFF4EE" offset="1"></stop>
	</linearGradient>
	<path d="M213,55.3c0,0-20.8-8.6-23.8-18.9c-3-10.2,13.8,1.4,18.1,6.6C212.8,49.6,213,55.3,213,55.3z" class="st16"></path>
	
		<linearGradient gradientTransform="matrix(0.9394 0.3429 -0.3429 0.9394 19.8666 -61.452)" y2="21.1352" x2="267.8738" y1="28.5999" x1="267.8738" gradientUnits="userSpaceOnUse" id="SVGID_18_">
		<stop style="stop-color:#FFFFFF" offset="0"></stop>
		<stop style="stop-color:#CFF4EE" offset="1"></stop>
	</linearGradient>
	<path d="M269.1,60c0,0-10.9-4.5-12.5-9.9s7.2,0.8,9.4,3.5C269,56.9,269.1,60,269.1,60z" class="st17"></path>
	
		<linearGradient gradientTransform="matrix(0.9825 -0.1864 0.1864 0.9825 -35.6045 -395.3905)" y2="514.2535" x2="148.8691" y1="524.0936" x1="148.8691" gradientUnits="userSpaceOnUse" id="SVGID_19_">
		<stop style="stop-color:#FFFFFF" offset="0"></stop>
		<stop style="stop-color:#CFF4EE" offset="1"></stop>
	</linearGradient>
	<path d="M218.6,89.9c0,0-15.4,2.1-20.8-2.9c-5.4-5,8.6-4,13-2.4C216.5,86.5,218.6,89.9,218.6,89.9z" class="st18"></path>
	
		<linearGradient gradientTransform="matrix(0.9514 0.3079 -0.3079 0.9514 30.4829 -100.6563)" y2="116.1392" x2="294.8065" y1="132.7827" x1="294.8065" gradientUnits="userSpaceOnUse" id="SVGID_20_">
		<stop style="stop-color:#F0FFFA" offset="0"></stop>
		<stop style="stop-color:#72C2BA;stop-opacity:0.3" offset="1"></stop>
	</linearGradient>
	<path d="M286.7,121.9c0,0-24.5-9.3-28.5-21c-4-11.8,16,1.1,21.3,6.9C286.4,115.2,286.7,121.9,286.7,121.9z" class="st19"></path>
	
		<linearGradient gradientTransform="matrix(1 0 0 1 0 -286)" y2="420.2038" x2="243.04" y1="630.4438" x1="243.04" gradientUnits="userSpaceOnUse" id="SVGID_21_">
		<stop style="stop-color:#3DBF9D" offset="0"></stop>
		<stop style="stop-color:#D6F2E9" offset="0.9851"></stop>
	</linearGradient>
	<path d="M311.4,344.4H174.7c-7,0-12.8-5.8-12.8-12.8V147c0-7,5.8-12.8,12.8-12.8h136.6c7,0,12.8,5.8,12.8,12.8v184.6
		C324.2,338.7,318.6,344.4,311.4,344.4z" class="st20"></path>
	
		<linearGradient gradientTransform="matrix(1 0 0 1 0 -286)" y2="429.3238" x2="214.4" y1="639.5638" x1="214.4" gradientUnits="userSpaceOnUse" id="SVGID_22_">
		<stop style="stop-color:#58CCB0" offset="0"></stop>
		<stop style="stop-color:#E5F9F4" offset="0.9851"></stop>
	</linearGradient>
	<path d="M282.7,353.6H146.1c-7,0-12.8-5.8-12.8-12.8V156.1c0-7,5.8-12.8,12.8-12.8h136.6c7,0,12.8,5.8,12.8,12.8
		v184.6C295.5,347.8,289.8,353.6,282.7,353.6z" class="st21"></path>
	<g>
		
			<linearGradient gradientTransform="matrix(1 0 0 1 0 -286)" y2="459.3238" x2="154.7091" y1="459.3238" x1="123.3491" gradientUnits="userSpaceOnUse" id="SVGID_23_">
			<stop style="stop-color:#BDEFE3" offset="0"></stop>
			<stop style="stop-color:#B3E9DC" offset="0.9851"></stop>
		</linearGradient>
		<path d="M149.8,178.5H128c-2.7,0-4.8-2.1-4.8-4.8v-0.8c0-2.7,2.1-4.8,4.8-4.8h21.8c2.7,0,4.8,2.1,4.8,4.8v0.8
			C154.6,176.4,152.5,178.5,149.8,178.5z" class="st22"></path>
		
			<linearGradient gradientTransform="matrix(1 0 0 1 0 -286)" y2="494.6838" x2="154.7091" y1="494.6838" x1="123.3491" gradientUnits="userSpaceOnUse" id="SVGID_24_">
			<stop style="stop-color:#BDEFE3" offset="0"></stop>
			<stop style="stop-color:#B3E9DC" offset="0.9851"></stop>
		</linearGradient>
		<path d="M149.8,213.9H128c-2.7,0-4.8-2.1-4.8-4.8v-0.8c0-2.7,2.1-4.8,4.8-4.8h21.8c2.7,0,4.8,2.1,4.8,4.8v0.8
			C154.6,211.6,152.5,213.9,149.8,213.9z" class="st23"></path>
		
			<linearGradient gradientTransform="matrix(1 0 0 1 0 -286)" y2="529.8838" x2="154.7091" y1="529.8838" x1="123.3491" gradientUnits="userSpaceOnUse" id="SVGID_25_">
			<stop style="stop-color:#BDEFE3" offset="0"></stop>
			<stop style="stop-color:#B3E9DC" offset="0.9851"></stop>
		</linearGradient>
		<path d="M149.8,249.1H128c-2.7,0-4.8-2.1-4.8-4.8v-0.8c0-2.7,2.1-4.8,4.8-4.8h21.8c2.7,0,4.8,2.1,4.8,4.8v0.8
			C154.6,247,152.5,249.1,149.8,249.1z" class="st24"></path>
		
			<linearGradient gradientTransform="matrix(1 0 0 1 0 -286)" y2="565.0838" x2="154.7091" y1="565.0838" x1="123.3491" gradientUnits="userSpaceOnUse" id="SVGID_26_">
			<stop style="stop-color:#BDEFE3" offset="0"></stop>
			<stop style="stop-color:#B3E9DC" offset="0.9851"></stop>
		</linearGradient>
		<path d="M149.8,284.3H128c-2.7,0-4.8-2.1-4.8-4.8v-0.8c0-2.7,2.1-4.8,4.8-4.8h21.8c2.7,0,4.8,2.1,4.8,4.8v0.8
			C154.6,282.2,152.5,284.3,149.8,284.3z" class="st25"></path>
		
			<linearGradient gradientTransform="matrix(1 0 0 1 0 -286)" y2="600.4438" x2="154.7091" y1="600.4438" x1="123.3491" gradientUnits="userSpaceOnUse" id="SVGID_27_">
			<stop style="stop-color:#BDEFE3" offset="0"></stop>
			<stop style="stop-color:#B3E9DC" offset="0.9851"></stop>
		</linearGradient>
		<path d="M149.8,319.6H128c-2.7,0-4.8-2.1-4.8-4.8V314c0-2.7,2.1-4.8,4.8-4.8h21.8c2.7,0,4.8,2.1,4.8,4.8v0.8
			C154.6,317.4,152.5,319.6,149.8,319.6z" class="st26"></path>
	</g>
	
		<linearGradient gradientTransform="matrix(1 0 0 1 0 -286)" y2="575.4038" x2="312" y1="645.8038" x1="312" gradientUnits="userSpaceOnUse" id="SVGID_28_">
		<stop style="stop-color:#3DBF9D" offset="0"></stop>
		<stop style="stop-color:#D6F2E9" offset="0.9851"></stop>
	</linearGradient>
	<circle r="35.2" cy="324.6" cx="312" class="st27"></circle>
	<path d="M332.8,309.9c-1.1-1.1-3-1.1-4.2,0l-23.2,23.2L295.4,323c-1.1-1.1-3-1.1-4.2,0c-1.1,1.1-1.1,3,0,4.2
		l12.2,12.2c1.1,1.1,3,1.1,4.2,0l25.3-25.3C333.9,312.9,333.9,311,332.8,309.9z" class="st28"></path>
	
		<linearGradient gradientTransform="matrix(1 0 0 -1 0 482)" y2="326.1962" x2="28.64" y1="338.6762" x1="28.64" gradientUnits="userSpaceOnUse" id="SVGID_29_">
		<stop style="stop-color:#58CCB0" offset="0"></stop>
		<stop style="stop-color:#E5F9F4" offset="0.9851"></stop>
	</linearGradient>
	<path d="M29.3,148.8c0,0-8.6-3.7-16.3-1.3c0,0,14.2,2.7,15.7,8.3c0,0,9.4-9.8,15.7-12.5
		C44.3,143.3,33.4,146.7,29.3,148.8z" class="st29"></path>
	
		<linearGradient gradientTransform="matrix(1 0 0 -1 0 482)" y2="354.6296" x2="40.32" y1="363.9096" x1="40.32" gradientUnits="userSpaceOnUse" id="SVGID_30_">
		<stop style="stop-color:#58CCB0" offset="0"></stop>
		<stop style="stop-color:#E5F9F4" offset="0.9851"></stop>
	</linearGradient>
	<path d="M40.8,122c0,0-6.4-2.7-12.2-1c0,0,10.6,1.9,11.7,6.2c0,0,7-7.4,11.7-9.3C51.8,118,43.8,120.6,40.8,122z" class="st30"></path>
	<g>
		
			<linearGradient gradientTransform="matrix(1 0 0 -1 0 482)" y2="222.3562" x2="362.3425" y1="184.774" x1="362.3425" gradientUnits="userSpaceOnUse" id="SVGID_31_">
			<stop style="stop-color:#E9FFFD" offset="0"></stop>
			<stop style="stop-color:#63D0B5" offset="0.9851"></stop>
		</linearGradient>
		<path d="M365.3,293.9c-4.5-16.3-7.7-23.2-15.5-34.2c0,0,26.4,26.9,25.1,34.2C373.6,301.4,365.3,293.9,365.3,293.9z" class="st31"></path>
		
			<linearGradient gradientTransform="matrix(1 0 0 -1 0 482)" y2="217.1459" x2="376.48" y1="181.0409" x1="376.48" gradientUnits="userSpaceOnUse" id="SVGID_32_">
			<stop style="stop-color:#E9FFFD" offset="0"></stop>
			<stop style="stop-color:#63D0B5" offset="0.9851"></stop>
		</linearGradient>
		<path d="M369.8,293.9c0,0,6.7-26.4,13.8-29.1c0,0-10.2,30.9-8.6,34.2C376.5,302.5,367.7,301.6,369.8,293.9z" class="st32"></path>
	</g>
	
		<linearGradient gradientTransform="matrix(1 0 0 -1 0 482)" y2="299.3162" x2="308.4949" y1="299.3162" x1="295.589" gradientUnits="userSpaceOnUse" id="SVGID_33_">
		<stop style="stop-color:#FFFFFF;stop-opacity:0" offset="0"></stop>
		<stop style="stop-color:#FFFFFF" offset="1"></stop>
	</linearGradient>
	<path d="M306.9,186.7h-11.4v-8h11.4c1,0,1.6,0.6,1.6,1.6v4.8C308.5,185.9,307.8,186.7,306.9,186.7z" class="st33"></path>
	
		<linearGradient gradientTransform="matrix(1 0 0 -1 0 482)" y2="265.8762" x2="308.4949" y1="265.8762" x1="295.589" gradientUnits="userSpaceOnUse" id="SVGID_34_">
		<stop style="stop-color:#FFFFFF;stop-opacity:0" offset="0"></stop>
		<stop style="stop-color:#FFFFFF" offset="1"></stop>
	</linearGradient>
	<path d="M306.9,220.1h-11.4v-8h11.4c1,0,1.6,0.6,1.6,1.6v4.8C308.5,219.5,307.8,220.1,306.9,220.1z" class="st34"></path>
</g>
</svg>
