<svg xml:space="preserve" style="enable-background:new 0 0 400 400;" viewBox="0 0 400 400" y="0px" x="0px" xmlns:xlink="http://www.w3.org/1999/xlink" xmlns="http://www.w3.org/2000/svg" id="图层_1" version="1.1">
<style type="text/css">
	.st0{fill:url(#SVGID_1_);}
	.st1{fill:url(#SVGID_2_);}
	.st2{fill:#E2AC7A;}
	.st3{fill:url(#SVGID_3_);}
	.st4{fill:#F7F7F7;}
	.st5{fill:url(#SVGID_4_);}
	.st6{fill:#D3E1E5;}
	.st7{fill:url(#SVGID_5_);}
	.st8{fill:url(#SVGID_6_);}
	.st9{fill:url(#SVGID_7_);}
	.st10{fill:url(#SVGID_8_);}
	.st11{fill:url(#SVGID_9_);}
	.st12{fill:url(#SVGID_10_);}
	.st13{fill:url(#SVGID_11_);}
	.st14{fill:url(#SVGID_12_);}
	.st15{fill:url(#SVGID_13_);}
	.st16{fill:url(#SVGID_14_);}
	.st17{fill:url(#SVGID_15_);}
	.st18{fill:url(#SVGID_16_);}
	.st19{fill:url(#SVGID_17_);}
	.st20{fill:url(#SVGID_18_);}
	.st21{fill:url(#SVGID_19_);}
	.st22{fill:url(#SVGID_20_);}
	.st23{fill:url(#SVGID_21_);}
	.st24{fill:url(#SVGID_22_);}
	.st25{fill:url(#SVGID_23_);}
	.st26{fill:url(#SVGID_24_);}
	.st27{fill:url(#SVGID_25_);}
	.st28{fill:url(#SVGID_26_);}
	.st29{fill:url(#SVGID_27_);}
	.st30{fill:url(#SVGID_28_);}
	.st31{fill:url(#SVGID_29_);}
	.st32{fill:url(#SVGID_30_);}
	.st33{fill:url(#SVGID_31_);}
	.st34{fill:url(#SVGID_32_);}
	.st35{fill:url(#SVGID_33_);}
	.st36{fill:url(#SVGID_34_);}
	.st37{fill:url(#SVGID_35_);}
	.st38{fill:url(#SVGID_36_);}
	.st39{fill:url(#SVGID_37_);}
	.st40{fill:url(#SVGID_38_);}
	.st41{fill:url(#SVGID_39_);}
</style>
<g>
	<g>
		<linearGradient y2="337.1548" x2="187.9094" y1="237.3947" x1="187.9094" gradientUnits="userSpaceOnUse" id="SVGID_1_">
			<stop style="stop-color:#A7DF98" offset="0"></stop>
			<stop style="stop-color:#CDE89F" offset="1"></stop>
		</linearGradient>
		<ellipse ry="49.9" rx="187.9" cy="287.3" cx="187.9" class="st0"></ellipse>
	</g>
	<g>
		<linearGradient y2="189.1509" x2="400" y1="189.1509" x1="207.0252" gradientUnits="userSpaceOnUse" id="SVGID_2_">
			<stop style="stop-color:#FF96AB" offset="0"></stop>
			<stop style="stop-color:#FFCF73" offset="1"></stop>
		</linearGradient>
		<path d="M221.3,211.1c39.1-37.2,23.5-43,76.3-68.5s50.9-17.6,74.3-27.4c22.6-9.4,47,33.3,5.9,62.6
			s-15.7,66.5-64.6,72.4s-101.7,23.5-105.6,7.8C203.7,242.4,221.3,211.1,221.3,211.1z" class="st1"></path>
		<g>
			<g>
				<path d="M210.1,251.1l-1.1-1.6c1.9-1.2,5.2-3.4,9.6-6.3c22.6-14.8,75.6-49.3,92-64c19.4-17.4,60.3-46.7,60.7-47
					l1.1,1.6c-0.4,0.3-41.3,29.5-60.6,46.9c-16.5,14.9-69.6,49.5-92.3,64.2C215.3,247.6,212,249.8,210.1,251.1z" class="st2"></path>
			</g>
			<g>
				<path d="M285.3,200.7l-0.2-1.9c0.4-0.1,42.6-5.2,50.2-9l0.9,1.8C328.3,195.4,287.1,200.4,285.3,200.7z" class="st2"></path>
			</g>
			<g>
				
					<rect height="2" width="47.6" class="st2" transform="matrix(0.9512 -0.3086 0.3086 0.9512 -31.9093 115.8409)" y="157.8" x="326.4"></rect>
			</g>
			<g>
				<path d="M228.6,238.7l0-2c14.1-0.1,51.7-0.7,56.1-3.1l0.9,1.7C280.1,238.4,233.9,238.7,228.6,238.7z" class="st2"></path>
			</g>
			<g>
				<path d="M312.3,179.9l-1.9-0.2c0.5-4.4,5.2-42.8,15.3-46.8l0.7,1.8C318.7,137.8,313.6,168.4,312.3,179.9z" class="st2"></path>
			</g>
		</g>
	</g>
	<linearGradient y2="160.9597" x2="333.674" y1="160.9597" x1="40.2195" gradientUnits="userSpaceOnUse" id="SVGID_3_">
		<stop style="stop-color:#5296A8" offset="0"></stop>
		<stop style="stop-color:#7CB4EE" offset="0.505"></stop>
		<stop style="stop-color:#5398AA" offset="1"></stop>
	</linearGradient>
	<path d="M325.7,259.1H48.2c-4.4,0-8-3.6-8-8V70.8c0-4.4,3.6-8,8-8h277.5c4.4,0,8,3.6,8,8v180.2
		C333.7,255.5,330.1,259.1,325.7,259.1z" class="st3"></path>
	<g>
		<path d="M315.9,239.7H58c-4.4,0-8-3.6-8-8V80.6c0-4.4,3.6-8,8-8h257.9c4.4,0,8,3.6,8,8v151.1
			C323.9,236.1,320.3,239.7,315.9,239.7z" class="st4"></path>
	</g>
	<linearGradient y2="281.7131" x2="221.8058" y1="281.7131" x1="152.0878" gradientUnits="userSpaceOnUse" id="SVGID_4_">
		<stop style="stop-color:#5296A8" offset="0"></stop>
		<stop style="stop-color:#7CB4EE" offset="0.505"></stop>
		<stop style="stop-color:#5398AA" offset="1"></stop>
	</linearGradient>
	<path d="M218.6,288h-63.3c-1.8,0-3.2-1.4-3.2-3.2v-6.1c0-1.8,1.4-3.2,3.2-3.2h63.3c1.8,0,3.2,1.4,3.2,3.2v6.1
		C221.8,286.5,220.4,288,218.6,288z" class="st5"></path>
	<g>
		<g>
			<path d="M271.1,162.6l12.5-12.5c1.9-1.9,1.9-5,0-6.9l0,0c-1.9-1.9-5-1.9-6.9,0l-12.5,12.5l-12.5-12.5
				c-1.9-1.9-5-1.9-6.9,0l0,0c-1.9,1.9-1.9,5,0,6.9l12.5,12.5l-12.5,12.5c-1.9,1.9-1.9,5,0,6.9s5,1.9,6.9,0l12.5-12.5l12.5,12.5
				c1.9,1.9,5,1.9,6.9,0s1.9-5,0-6.9L271.1,162.6z" class="st6"></path>
		</g>
		<g>
			<path d="M148.3,167.5h-20.4c-1.4,0-2.5-1.1-2.5-2.5v-4.8c0-1.4,1.1-2.5,2.5-2.5h20.4c1.4,0,2.5,1.1,2.5,2.5v4.8
				C150.8,166.4,149.6,167.5,148.3,167.5z" class="st6"></path>
		</g>
		<g>
			<path d="M289.1,121.5h-49.8c-1.4,0-2.5-1.1-2.5-2.5v-4.8c0-1.4,1.1-2.5,2.5-2.5h49.8c1.4,0,2.5,1.1,2.5,2.5v4.8
				C291.6,120.4,290.5,121.5,289.1,121.5z" class="st6"></path>
		</g>
		<g>
			<path d="M165,121.5H84.8c-1.4,0-2.5-1.1-2.5-2.5v-4.8c0-1.4,1.1-2.5,2.5-2.5H165c1.4,0,2.5,1.1,2.5,2.5v4.8
				C167.5,120.4,166.4,121.5,165,121.5z" class="st6"></path>
		</g>
		<g>
			<path d="M105.2,167.5H84.8c-1.4,0-2.5-1.1-2.5-2.5v-4.8c0-1.4,1.1-2.5,2.5-2.5h20.4c1.4,0,2.5,1.1,2.5,2.5v4.8
				C107.7,166.4,106.6,167.5,105.2,167.5z" class="st6"></path>
		</g>
		<g>
			<g>
				<path d="M289.1,213.5h-49.8c-1.4,0-2.5-1.1-2.5-2.5v-4.8c0-1.4,1.1-2.5,2.5-2.5h49.8c1.4,0,2.5,1.1,2.5,2.5v4.8
					C291.6,212.4,290.5,213.5,289.1,213.5z" class="st6"></path>
			</g>
			<g>
				<path d="M191.3,213.5H84.8c-1.4,0-2.5-1.1-2.5-2.5v-4.8c0-1.4,1.1-2.5,2.5-2.5h106.5c1.4,0,2.5,1.1,2.5,2.5v4.8
					C193.8,212.4,192.7,213.5,191.3,213.5z" class="st6"></path>
			</g>
		</g>
	</g>
	<g>
		<g>
			
				<linearGradient gradientTransform="matrix(0.9987 -5.143791e-02 5.143791e-02 0.9987 -29.168 14.039)" y2="149.9424" x2="229.7505" y1="310.0447" x1="69.6481" gradientUnits="userSpaceOnUse" id="SVGID_5_">
				<stop style="stop-color:#4357DA" offset="0"></stop>
				<stop style="stop-color:#87CCBA" offset="1"></stop>
			</linearGradient>
			<path d="M221.5,164.1l-31.2,34.6l-27-24.3l31.2-34.6c-18.7-7.1-40.7-2.5-54.9,13.2c-14.1,15.6-16.5,37.6-7.8,55.4
				L51,290c-6.9,7.7-6.3,19.6,1.4,26.5c7.7,6.9,19.6,6.3,26.5-1.4l80.7-81.5c18.6,6.8,40.3,2.1,54.3-13.5
				C228.2,204.4,230.5,182,221.5,164.1z" class="st7"></path>
		</g>
		<linearGradient y2="292.9228" x2="67.4706" y1="303.5476" x1="56.8458" gradientUnits="userSpaceOnUse" id="SVGID_6_">
			<stop style="stop-color:#81C2BD" offset="0"></stop>
			<stop style="stop-color:#87CCBA" offset="1"></stop>
		</linearGradient>
		<circle r="7.5" cy="298.2" cx="62.2" class="st8"></circle>
		
			<linearGradient gradientTransform="matrix(0.7071 -0.7071 0.7071 0.7071 -348.4832 364.5949)" y2="284.656" x2="466.9102" y1="350.6305" x1="400.9357" gradientUnits="userSpaceOnUse" id="SVGID_7_">
			<stop style="stop-color:#81C2BD" offset="0"></stop>
			<stop style="stop-color:#87CCBA" offset="1"></stop>
		</linearGradient>
		<path d="M227.8,314.5l-12.8,12.8c-2.3,2.3-6.1,2.3-8.5,0L136.3,257l21.2-21.2l70.3,70.3
			C230.2,308.4,230.2,312.2,227.8,314.5z" class="st9"></path>
		
			<linearGradient gradientTransform="matrix(0.7071 -0.7071 0.6903 0.6903 -321.3415 351.7514)" y2="164.1021" x2="429.6909" y1="209.1796" x1="384.6134" gradientUnits="userSpaceOnUse" id="SVGID_8_">
			<stop style="stop-color:#81C2BD" offset="0"></stop>
			<stop style="stop-color:#C6CCBA" offset="1"></stop>
		</linearGradient>
		<polygon points="126.6,213.3 116,223.9 64.2,172.1 74.8,161.4" class="st10"></polygon>
		
			<linearGradient gradientTransform="matrix(0.7071 -0.7071 0.7071 0.7071 -318.5367 319.651)" y2="145.7915" x2="391.7117" y1="164.2745" x1="373.2288" gradientUnits="userSpaceOnUse" id="SVGID_9_">
			<stop style="stop-color:#81C2BD" offset="0"></stop>
			<stop style="stop-color:#87CCBA" offset="1"></stop>
		</linearGradient>
		<path d="M74.6,161.3L64,171.9l-14.2-17.7c-1.8-2.3-1.8-5.4,0-7.1l0,0c1.8-1.8,4.8-1.8,7.1,0L74.6,161.3z" class="st11"></path>
		<linearGradient y2="286.186" x2="180.901" y1="293.8775" x1="173.2095" gradientUnits="userSpaceOnUse" id="SVGID_10_">
			<stop style="stop-color:#529AA9" offset="0"></stop>
			<stop style="stop-color:#87CCBA" offset="1"></stop>
		</linearGradient>
		<path d="M144,249.3l-7.7,7.7l63.9,63.9c4.5,4.5,11.2,5.5,16.7,3.1L144,249.3z" class="st12"></path>
		<linearGradient y2="272.1978" x2="194.0294" y1="277.6537" x1="188.5735" gradientUnits="userSpaceOnUse" id="SVGID_11_">
			<stop style="stop-color:#81BBE3" offset="0"></stop>
			<stop style="stop-color:#87CCBA" offset="1"></stop>
		</linearGradient>
		<path d="M157.6,235.7l-5.5,5.5l73.3,72.6c1.2-4.9-0.1-10.3-3.9-14.1L157.6,235.7z" class="st13"></path>
		<linearGradient y2="158.0422" x2="58.5673" y1="162.2638" x1="54.3457" gradientUnits="userSpaceOnUse" id="SVGID_12_">
			<stop style="stop-color:#9FE3CF" offset="0"></stop>
			<stop style="stop-color:#44665E" offset="1"></stop>
		</linearGradient>
		<path d="M64.3,171.5l-15.4-23.1c-0.8,1.7-0.6,4,0.9,5.8L64,171.9L64.3,171.5z" class="st14"></path>
		<linearGradient y2="151.8261" x2="65.1578" y1="155.2978" x1="61.6861" gradientUnits="userSpaceOnUse" id="SVGID_13_">
			<stop style="stop-color:#9FE3CF" offset="0"></stop>
			<stop style="stop-color:#87CCBA" offset="1"></stop>
		</linearGradient>
		<path d="M72.4,163.5l2.2-2.2l-17.7-14.2c-1.4-1.1-3.2-1.5-4.7-1.3L72.4,163.5z" class="st15"></path>
		<g>
			
				<linearGradient gradientTransform="matrix(0.3536 0.3536 -1.9927 1.9927 1351.8485 -714.8999)" y2="539.5262" x2="-379.4995" y1="566.1961" x1="-406.1695" gradientUnits="userSpaceOnUse" id="SVGID_14_">
				<stop style="stop-color:#4357DA" offset="0"></stop>
				<stop style="stop-color:#71A6C4" offset="1"></stop>
			</linearGradient>
			<polygon points="65.3,290.7 68.4,293.8 157.3,205 154.2,201.9" class="st16"></polygon>
		</g>
		<g>
			
				<linearGradient gradientTransform="matrix(0.3536 0.3536 -1.9927 1.9927 1351.8485 -714.8999)" y2="540.2381" x2="-356.3597" y1="566.908" x1="-383.0296" gradientUnits="userSpaceOnUse" id="SVGID_15_">
				<stop style="stop-color:#4357DA" offset="0"></stop>
				<stop style="stop-color:#6FA2C5" offset="1"></stop>
			</linearGradient>
			<polygon points="72.1,300.3 75.2,303.4 164,214.6 160.9,211.5" class="st17"></polygon>
		</g>
	</g>
	<linearGradient y2="249.7316" x2="295.2974" y1="249.7316" x1="278.3422" gradientUnits="userSpaceOnUse" id="SVGID_16_">
		<stop style="stop-color:#52CBA9" offset="0"></stop>
		<stop style="stop-color:#7CDCEE" offset="0.505"></stop>
		<stop style="stop-color:#53B4AA" offset="1"></stop>
	</linearGradient>
	<path d="M293.3,254.5h-13c-1.1,0-2-0.9-2-2V247c0-1.1,0.9-2,2-2h13c1.1,0,2,0.9,2,2v5.5
		C295.3,253.6,294.4,254.5,293.3,254.5z" class="st18"></path>
	<g>
		<g>
			<linearGradient y2="311.8921" x2="259.929" y1="242.8759" x1="259.929" gradientUnits="userSpaceOnUse" id="SVGID_17_">
				<stop style="stop-color:#00D5BC" offset="0"></stop>
				<stop style="stop-color:#006DD4" offset="1"></stop>
			</linearGradient>
			<path d="M283.3,308.1c0,0-9.7,3.8-23.9,3.8c-12,0-22.8-3.8-22.8-3.8c-3.2,0-5.9-2.6-5.9-5.9v-59.3h58.4v59.3
				C289.1,305.4,286.5,308.1,283.3,308.1z" class="st19"></path>
		</g>
		<linearGradient y2="251.1638" x2="259.9888" y1="231.5976" x1="259.9888" gradientUnits="userSpaceOnUse" id="SVGID_18_">
			<stop style="stop-color:#00D5BC" offset="0"></stop>
			<stop style="stop-color:#006DD4" offset="1"></stop>
		</linearGradient>
		<path d="M230.7,242.9c0-6.2,5.4-11.3,30.6-11.3c23.5,0,28.9,9.1,27.8,11.3c-0.4,0.8-2.5,8.4-26.3,8.3
			S230.7,246.1,230.7,242.9z" class="st20"></path>
		<g>
			<g>
				<linearGradient y2="227.0071" x2="244.9361" y1="215.9059" x1="244.9361" gradientUnits="userSpaceOnUse" id="SVGID_19_">
					<stop style="stop-color:#C2D5D3" offset="0"></stop>
					<stop style="stop-color:#8FC6FF" offset="1"></stop>
				</linearGradient>
				<polygon points="244.9,215.9 241.7,227 248.1,227" class="st21"></polygon>
				<linearGradient y2="217.5156" x2="246.8942" y1="226.8667" x1="241.4954" gradientUnits="userSpaceOnUse" id="SVGID_20_">
					<stop style="stop-color:#C2D5D3" offset="0"></stop>
					<stop style="stop-color:#8FA4FF" offset="1"></stop>
				</linearGradient>
				<polygon points="244.2,227 244.8,216.3 241.7,227" class="st22"></polygon>
			</g>
			<linearGradient y2="242.8059" x2="244.9361" y1="226.8972" x1="244.9361" gradientUnits="userSpaceOnUse" id="SVGID_21_">
				<stop style="stop-color:#EAFF15" offset="0"></stop>
				<stop style="stop-color:#D47484" offset="1"></stop>
			</linearGradient>
			<rect height="15.9" width="6.4" class="st23" y="226.9" x="241.7"></rect>
		</g>
		<g>
			<g>
				<linearGradient y2="234.4226" x2="259.3826" y1="220.8381" x1="259.3826" gradientUnits="userSpaceOnUse" id="SVGID_22_">
					<stop style="stop-color:#C2D5D3" offset="0"></stop>
					<stop style="stop-color:#8FC6FF" offset="1"></stop>
				</linearGradient>
				<polygon points="259.4,220.8 255.5,234.4 263.3,234.4" class="st24"></polygon>
				<linearGradient y2="222.8079" x2="261.7788" y1="234.2507" x1="255.1723" gradientUnits="userSpaceOnUse" id="SVGID_23_">
					<stop style="stop-color:#C2D5D3" offset="0"></stop>
					<stop style="stop-color:#8FA4FF" offset="1"></stop>
				</linearGradient>
				<polygon points="258.5,234.4 259.2,221.3 255.5,234.4" class="st25"></polygon>
			</g>
			<linearGradient y2="251.1596" x2="259.3826" y1="234.2879" x1="259.3826" gradientUnits="userSpaceOnUse" id="SVGID_24_">
				<stop style="stop-color:#EAFF54" offset="0"></stop>
				<stop style="stop-color:#00FBFF" offset="1"></stop>
			</linearGradient>
			<path d="M263.3,251.2v-16.9h-7.8v16.6C257.7,251,262.9,251.1,263.3,251.2z" class="st26"></path>
		</g>
		<g>
			<g>
				<linearGradient y2="232.5406" x2="275.3596" y1="218.9561" x1="275.3596" gradientUnits="userSpaceOnUse" id="SVGID_25_">
					<stop style="stop-color:#C2D5D3" offset="0"></stop>
					<stop style="stop-color:#8FC6FF" offset="1"></stop>
				</linearGradient>
				<polygon points="275.4,219 271.4,232.5 279.3,232.5" class="st27"></polygon>
				<linearGradient y2="220.9259" x2="277.7558" y1="232.3687" x1="271.1492" gradientUnits="userSpaceOnUse" id="SVGID_26_">
					<stop style="stop-color:#C2D5D3" offset="0"></stop>
					<stop style="stop-color:#8FA4FF" offset="1"></stop>
				</linearGradient>
				<polygon points="274.4,232.5 275.2,219.5 271.4,232.5" class="st28"></polygon>
			</g>
			<linearGradient y2="243.8247" x2="275.3596" y1="232.4061" x1="275.3596" gradientUnits="userSpaceOnUse" id="SVGID_27_">
				<stop style="stop-color:#EAFF15" offset="0"></stop>
				<stop style="stop-color:#05B696" offset="1"></stop>
			</linearGradient>
			<rect height="11.4" width="7.8" class="st29" y="232.4" x="271.4"></rect>
		</g>
		<g>
			<g>
				<linearGradient y2="238.4475" x2="268.1358" y1="224.863" x1="268.1358" gradientUnits="userSpaceOnUse" id="SVGID_28_">
					<stop style="stop-color:#C2D5D3" offset="0"></stop>
					<stop style="stop-color:#8FC6FF" offset="1"></stop>
				</linearGradient>
				<polygon points="268.1,224.9 264.2,238.4 272,238.4" class="st30"></polygon>
				<linearGradient y2="226.8328" x2="270.532" y1="238.2757" x1="263.9255" gradientUnits="userSpaceOnUse" id="SVGID_29_">
					<stop style="stop-color:#C2D5D3" offset="0"></stop>
					<stop style="stop-color:#8FA4FF" offset="1"></stop>
				</linearGradient>
				<polygon points="267.2,238.4 268,225.4 264.2,238.4" class="st31"></polygon>
			</g>
			<linearGradient y2="249.7316" x2="268.1359" y1="238.313" x1="268.1359" gradientUnits="userSpaceOnUse" id="SVGID_30_">
				<stop style="stop-color:#EAFF15" offset="0"></stop>
				<stop style="stop-color:#05B696" offset="1"></stop>
			</linearGradient>
			<rect height="11.4" width="7.8" class="st32" y="238.3" x="264.2"></rect>
		</g>
		<g>
			<g>
				<linearGradient y2="235.0508" x2="249.9268" y1="220.8381" x1="249.9268" gradientUnits="userSpaceOnUse" id="SVGID_31_">
					<stop style="stop-color:#C2D5D3" offset="0"></stop>
					<stop style="stop-color:#8FC6FF" offset="1"></stop>
				</linearGradient>
				<polygon points="249.9,220.8 245.8,235.1 254,235.1" class="st33"></polygon>
				<linearGradient y2="222.899" x2="252.4338" y1="234.871" x1="245.5217" gradientUnits="userSpaceOnUse" id="SVGID_32_">
					<stop style="stop-color:#C2D5D3" offset="0"></stop>
					<stop style="stop-color:#8FA4FF" offset="1"></stop>
				</linearGradient>
				<polygon points="249,235.1 249.8,221.4 245.8,235.1" class="st34"></polygon>
			</g>
			<linearGradient y2="246.8569" x2="249.9269" y1="234.9101" x1="249.9269" gradientUnits="userSpaceOnUse" id="SVGID_33_">
				<stop style="stop-color:#EAFF15" offset="0"></stop>
				<stop style="stop-color:#05B696" offset="1"></stop>
			</linearGradient>
			<rect height="11.9" width="8.2" class="st35" y="234.9" x="245.8"></rect>
		</g>
		<g>
			<g>
				<linearGradient y2="233.4795" x2="276.8292" y1="223.5863" x1="276.8292" gradientUnits="userSpaceOnUse" id="SVGID_34_">
					<stop style="stop-color:#C2D5D3" offset="0"></stop>
					<stop style="stop-color:#8FC6FF" offset="1"></stop>
				</linearGradient>
				<polygon points="276.8,223.6 274,233.5 279.7,233.5" class="st36"></polygon>
				<linearGradient y2="225.0209" x2="278.5743" y1="233.3544" x1="273.7629" gradientUnits="userSpaceOnUse" id="SVGID_35_">
					<stop style="stop-color:#C2D5D3" offset="0"></stop>
					<stop style="stop-color:#8FA4FF" offset="1"></stop>
				</linearGradient>
				<polygon points="276.2,233.5 276.7,224 274,233.5" class="st37"></polygon>
			</g>
			<linearGradient y2="247.5591" x2="276.8292" y1="233.3816" x1="276.8292" gradientUnits="userSpaceOnUse" id="SVGID_36_">
				<stop style="stop-color:#EAFF15" offset="0"></stop>
				<stop style="stop-color:#D47484" offset="1"></stop>
			</linearGradient>
			<rect height="14.2" width="5.7" class="st38" y="233.4" x="274"></rect>
		</g>
	</g>
	<g>
		<g>
			<g>
				<linearGradient y2="296.5939" x2="26.6662" y1="257.0935" x1="26.6662" gradientUnits="userSpaceOnUse" id="SVGID_37_">
					<stop style="stop-color:#FFCF7F" offset="0"></stop>
					<stop style="stop-color:#FF6315" offset="1"></stop>
				</linearGradient>
				<path d="M42.2,294.4c0,0-6.5,2.2-15.9,2.2c-8,0-15.2-2.2-15.2-2.2c-2.2,0-3.9-1.5-3.9-3.4v-34h38.9v34
					C46.1,292.9,44.4,294.4,42.2,294.4z" class="st39"></path>
			</g>
			<linearGradient y2="261.8369" x2="26.706" y1="250.6385" x1="26.706" gradientUnits="userSpaceOnUse" id="SVGID_38_">
				<stop style="stop-color:#FFCF7F" offset="0"></stop>
				<stop style="stop-color:#FF6315" offset="1"></stop>
			</linearGradient>
			<path d="M7.2,257.1c0-3.5,3.6-6.5,20.4-6.5c15.7,0,19.2,5.2,18.5,6.5c-0.2,0.4-1.7,4.8-17.5,4.7
				C12.8,261.7,7.2,258.9,7.2,257.1z" class="st40"></path>
		</g>
		<linearGradient y2="256.756" x2="25.2626" y1="219.4745" x1="25.2626" gradientUnits="userSpaceOnUse" id="SVGID_39_">
			<stop style="stop-color:#00DFFB" offset="0"></stop>
			<stop style="stop-color:#15D400" offset="1"></stop>
		</linearGradient>
		<path d="M38.5,235c-0.9,0-1.7,0.9-1.7,2v6.6h-6.1v-19.8c0-2.4-2-4.4-4.4-4.4s-4.4,2-4.4,4.4v15.5h-7.5v-6.6
			c0-1.1-0.9-2-2-2c-1.1,0-2,0.9-2,2v8.8c0,1.1,0.9,2,2,2c0.2,0,0.4-0.1,0.7-0.1h8.8v9c0,2.4,2,4.4,4.4,4.4s4.4-2,4.4-4.4v-4.6h7.3
			c0.2,0.1,0.3,0.1,0.5,0.1c0.9,0,1.7-0.9,1.7-2v-8.8C40.1,235.9,39.4,235,38.5,235z" class="st41"></path>
	</g>
</g>
</svg>
