<svg xml:space="preserve" style="enable-background:new 0 0 300 300;" viewBox="0 0 300 300" y="0px" x="0px" xmlns:xlink="http://www.w3.org/1999/xlink" xmlns="http://www.w3.org/2000/svg" id="图层_1" version="1.1">
<style type="text/css">
	.st0{fill:url(#SVGID_1_);}
	.st1{fill:url(#SVGID_2_);}
	.st2{fill:url(#SVGID_3_);}
	.st3{fill:url(#SVGID_4_);}
	.st4{fill:url(#SVGID_5_);}
	.st5{fill:url(#SVGID_6_);}
	.st6{fill:url(#SVGID_7_);}
	.st7{fill:url(#SVGID_8_);}
	.st8{fill:url(#SVGID_9_);}
	.st9{fill:url(#SVGID_10_);}
	.st10{fill:url(#SVGID_11_);}
	.st11{fill:url(#SVGID_12_);}
	.st12{fill:#D0D0E2;}
	.st13{fill:#504A7F;}
	.st14{fill:url(#SVGID_13_);}
	.st15{fill:url(#SVGID_14_);}
	.st16{fill:url(#SVGID_15_);}
	.st17{fill:url(#SVGID_16_);}
	.st18{fill:url(#SVGID_17_);}
	.st19{fill:url(#SVGID_18_);}
	.st20{fill:url(#SVGID_19_);}
	.st21{fill:#FFFFFF;}
	.st22{fill:url(#SVGID_20_);}
	.st23{fill:url(#SVGID_21_);}
	.st24{fill:url(#SVGID_22_);}
	.st25{fill:url(#SVGID_23_);}
	.st26{fill:url(#SVGID_24_);}
	.st27{fill:url(#SVGID_25_);}
	.st28{fill:url(#SVGID_26_);}
	.st29{fill:url(#SVGID_27_);}
	.st30{fill:url(#SVGID_28_);}
	.st31{fill:url(#SVGID_29_);}
</style>
<g>
	<linearGradient y2="51.3093" x2="93.3207" y1="161.2488" x1="93.3207" gradientUnits="userSpaceOnUse" id="SVGID_1_">
		<stop style="stop-color:#FFFFFF;stop-opacity:0" offset="0"></stop>
		<stop style="stop-color:#C7EDE4" offset="1"></stop>
	</linearGradient>
	<rect height="109.9" width="25.5" class="st0" y="51.3" x="80.6"></rect>
	<linearGradient y2="30.3482" x2="115.2735" y1="161.2488" x1="115.2735" gradientUnits="userSpaceOnUse" id="SVGID_2_">
		<stop style="stop-color:#FFFFFF;stop-opacity:0" offset="0"></stop>
		<stop style="stop-color:#C7EDE4" offset="1"></stop>
	</linearGradient>
	<rect height="130.9" width="21.3" class="st1" y="30.3" x="104.6"></rect>
	<linearGradient y2="58.4124" x2="193.0133" y1="160.8557" x1="193.0133" gradientUnits="userSpaceOnUse" id="SVGID_3_">
		<stop style="stop-color:#FFFFFF;stop-opacity:0" offset="0"></stop>
		<stop style="stop-color:#C7EDE4" offset="1"></stop>
	</linearGradient>
	<rect height="102.4" width="24.8" class="st2" y="58.4" x="180.6"></rect>
	<linearGradient y2="41.7995" x2="212.2271" y1="144.2427" x1="212.2271" gradientUnits="userSpaceOnUse" id="SVGID_4_">
		<stop style="stop-color:#FFFFFF;stop-opacity:0" offset="0"></stop>
		<stop style="stop-color:#C7EDE4" offset="1"></stop>
	</linearGradient>
	<rect height="102.4" width="24.8" class="st3" y="41.8" x="199.8"></rect>
	<linearGradient y2="172.6521" x2="184.4017" y1="217.0938" x1="184.4017" gradientUnits="userSpaceOnUse" id="SVGID_5_">
		<stop style="stop-color:#FFFFFF;stop-opacity:0.4" offset="0"></stop>
		<stop style="stop-color:#86CEBA" offset="1"></stop>
	</linearGradient>
	<path d="M226.3,180c-8.3-9.3-57.4-12.5-70.3,6.6c-11.5,17-19.1,25.9-16.8,25.9c2.4,0,86.7,13.4,89.8-5.5
		S226.6,180.4,226.3,180z" class="st4"></path>
	<linearGradient y2="179.8505" x2="219.9583" y1="235.5984" x1="219.9583" gradientUnits="userSpaceOnUse" id="SVGID_6_">
		<stop style="stop-color:#FFFFFF;stop-opacity:0.4" offset="0"></stop>
		<stop style="stop-color:#86CEBA" offset="1"></stop>
	</linearGradient>
	<path d="M189.4,196.9c0,0,27.8-19.8,43.6-16.7s27.6,0.8,45.7,25.2c18.1,24.4,1.7,3.9,11.3,28.8
		c1.9,4.9-127.1-4.4-138.1-12.3S180.5,194.6,189.4,196.9z" class="st5"></path>
	
		<linearGradient gradientTransform="matrix(0.9144 0.4048 -0.4048 0.9144 97.0363 -95.2536)" y2="186.3356" x2="258.4573" y1="186.3356" x1="236.655" gradientUnits="userSpaceOnUse" id="SVGID_7_">
		<stop style="stop-color:#BEE5DA;stop-opacity:0.8" offset="0"></stop>
		<stop style="stop-color:#86CEBA" offset="1"></stop>
	</linearGradient>
	<path d="M256.7,182.5c0,0-14.3-2.3-17.8-9.5C235.5,165.8,247.8,165.4,256.7,182.5z" class="st6"></path>
	<linearGradient y2="174.9004" x2="114.4673" y1="222.1986" x1="114.4673" gradientUnits="userSpaceOnUse" id="SVGID_8_">
		<stop style="stop-color:#FFFFFF;stop-opacity:0.4" offset="0"></stop>
		<stop style="stop-color:#86CEBA" offset="1"></stop>
	</linearGradient>
	<path d="M148.7,179.9c-9.5-1.9-40.5-12.3-61.5,4.3c-52.7,41.6,56.7,44.9,64.6,29.9S155.1,181.1,148.7,179.9z" class="st7"></path>
	<linearGradient y2="190.3893" x2="80.6186" y1="236.35" x1="80.6186" gradientUnits="userSpaceOnUse" id="SVGID_9_">
		<stop style="stop-color:#FFFFFF;stop-opacity:0.4" offset="0"></stop>
		<stop style="stop-color:#86CEBA" offset="1"></stop>
	</linearGradient>
	<path d="M144,196.7c-0.8-0.2-47.3-14.2-82.7,0S9.2,212.5,10,218c0.8,5.5,26,1.6,30.7,6.3c4.7,4.7,6.3,8.7,18.1,9.5
		c11.8,0.8,31.4-14.5,41.7-7.3c10.3,7.3,37.1,13.6,43.4,7.3C150.3,227.5,156.6,199.9,144,196.7z" class="st8"></path>
	
		<linearGradient gradientTransform="matrix(0.547 -0.8371 0.8371 0.547 -68.8887 98.2473)" y2="108.0389" x2="83.8742" y1="108.0389" x1="72.104" gradientUnits="userSpaceOnUse" id="SVGID_10_">
		<stop style="stop-color:#BEE5DA;stop-opacity:0.8" offset="0"></stop>
		<stop style="stop-color:#86CEBA" offset="1"></stop>
	</linearGradient>
	<path d="M66.3,100.4c0,0-6.9-8.9-6.8-11.7c0.1-3.2,5.4-6.3,7.5-0.4C68.9,94.3,68,95.7,66.3,100.4z" class="st9"></path>
	<linearGradient y2="78.7172" x2="257.8005" y1="78.7172" x1="245.1212" gradientUnits="userSpaceOnUse" id="SVGID_11_">
		<stop style="stop-color:#BEE5DA;stop-opacity:0.8" offset="0"></stop>
		<stop style="stop-color:#86CEBA" offset="1"></stop>
	</linearGradient>
	<polygon points="251.5,72.7 253.4,76.7 257.8,77.3 254.6,80.4 255.4,84.7 251.5,82.7 247.5,84.7 248.3,80.4 
		245.1,77.3 249.5,76.7" class="st10"></polygon>
	<linearGradient y2="196.6222" x2="70.0839" y1="201.743" x1="70.0839" gradientUnits="userSpaceOnUse" id="SVGID_12_">
		<stop style="stop-color:#FFFFFF;stop-opacity:0" offset="0"></stop>
		<stop style="stop-color:#F5FBFA;stop-opacity:0.1781" offset="0.1781"></stop>
		<stop style="stop-color:#DCF0EB;stop-opacity:0.476" offset="0.476"></stop>
		<stop style="stop-color:#B2DFD4;stop-opacity:0.8549" offset="0.8549"></stop>
		<stop style="stop-color:#A0D8CA" offset="1"></stop>
	</linearGradient>
	<path d="M66.4,197.1c3.1-1.2,10.9,0,12.5,2.2c1.6,2.2-20,3.6-17.6,1.3S62,198.7,66.4,197.1z" class="st11"></path>
	<path d="M110.4,115.3l-1.6-6.8c-0.2-0.7,0.7-1,1.1-0.4l4.4,8.1c0.3,0.5-0.2,1-0.7,0.8l-2.8-1.3
		C110.6,115.6,110.5,115.5,110.4,115.3z" class="st12"></path>
	<path d="M109.5,114.6H102c-0.8,0-1,1.1-0.2,1.4l10.1,3.5c0.3,0.1,0.6-0.4,0.4-0.7l-2.5-4
		C109.7,114.7,109.6,114.6,109.5,114.6z" class="st12"></path>
	<path d="M124,225.2c3.7,3.7-2.8,13.8,10.2,12s16.2-14.8,21.7-12.9s2.8,10.2,11.1,8.3s20.8-5.5,28.1-4.6
		s9.4-9.9,9.4-9.9l7.3,4.2c-3.2-1.6-11-1-1.7,2.5c5.2,1.9-20.9,0.1-31.6,2.3c-10.8,2.2-12.3,0-15.1-5.5s-14.5,0.6-20.9,7.4
		c-6.5,6.8-6-4.4-7.2-8.7c-1.2-4.3-14.6-4.8-18-4.5c-3.4,0.3-19.2,3.6-20.7,4.5c-1.5,0.9-1.8,1.6-5.2,1c-1.4-0.3-4.7,0.8-7.8,2.2
		c0.5-0.5,0.9-1,1.4-1.5c-11.2,5.6-20.5,10.7-20.5,10.7s27.2-4.6,29.1-3.7s0.9,10.2,0.9,10.2S120.3,221.5,124,225.2z" class="st12"></path>
	<path d="M167.1,159.6c0,0-10.8,51.6-6.9,43.9c3.9-7.7,14.1-18.5,12.5-31.9C171,158.2,167.1,159.6,167.1,159.6z" class="st13"></path>
	<path d="M131.8,207.4c0.7-2.5,1.2-4.9,4.8-8.2s2-9.3,3.5-12.1S148,158,150,158c1.9,0-6.8,16.6-5.9,19.8
		s4.6,6.9,1.8,12.5c-2.8,5.5,0.2,7.3-4.9,13.2C136,209.5,131.5,208.6,131.8,207.4z" class="st12"></path>
	<path d="M150.2,143.3c-0.1-2.5,2.6-7.4-0.3-7.4c-2.9,0-13.1,1.8-16.8,0c-3.7-1.8-3.7-0.9-8-4.6
		c-4.3-3.7,2.2-4.6,1.7-3.7c-0.5,0.9,7.8,4.9,10.6,5.2s22.4-2.5,21.8,0.9c-0.6,3.4,0,12.2-6.5,15.8
		C146.4,153.2,150.2,143.3,150.2,143.3z" class="st12"></path>
	<path d="M138.5,216.2c1.2-1.8,3-2.5,3.9-5.8c0.9-3.2,4.7-3.2,4.9-6.1c0.1-0.7,0.2-1.6,0.3-2.6
		c0.3-2.7,0.9-6.2,0.9-9.6c0-4.6,2.8-15.2,2.8-15.2l2.3-8.2c0,0,0.7,4.8,0,6.6c-0.7,1.8,0,0.9-0.9,5.5s-2.4,3-2.3,6.9
		c0,3.9-0.1,5.1-0.3,7.5c-0.1,2.4,0.1,13-1.5,13c-1.6,0-1.1,1.1-2.3,2.4c-1.2,1.3-7.2,6.1-7.7,6.9S138.5,216.2,138.5,216.2z" class="st12"></path>
	<linearGradient y2="213.9744" x2="157.4216" y1="254.4753" x1="157.4216" gradientUnits="userSpaceOnUse" id="SVGID_13_">
		<stop style="stop-color:#FFFFFF;stop-opacity:0" offset="0"></stop>
		<stop style="stop-color:#F5FBFA;stop-opacity:0.1781" offset="0.1781"></stop>
		<stop style="stop-color:#DCF0EB;stop-opacity:0.476" offset="0.476"></stop>
		<stop style="stop-color:#B2DFD4;stop-opacity:0.8549" offset="0.8549"></stop>
		<stop style="stop-color:#A0D8CA" offset="1"></stop>
	</linearGradient>
	<path d="M81.8,240.8c-6.4,2.5-2.4,4.2,10.4,4.2s18.4,5.8,24.8,6.7s71.9,5.8,76.6,0c4.8-5.8,20.2-8.2,35.1-4.2
		c13.5,3.6,33.7-10.1,24.4-14.2c-9.9-4.3-26.8-17.1-49.2-18.2s-45.1,7.2-49.3,5.6c-4.2-1.6-9-5.8-17-6.6s-16,2.5-34.3,4.2
		C84.9,220,59.4,230,59.4,234.1S81.8,240.8,81.8,240.8z" class="st14"></path>
	<g>
		
			<linearGradient gradientTransform="matrix(0.9344 0.3562 -0.3562 0.9344 76.4054 2.4531)" y2="169.0179" x2="26.951" y1="169.0179" x1="23.7924" gradientUnits="userSpaceOnUse" id="SVGID_14_">
			<stop style="stop-color:#BEE5DA;stop-opacity:0.8" offset="0"></stop>
			<stop style="stop-color:#86CEBA" offset="1"></stop>
		</linearGradient>
		<path d="M37,177.3l-0.2-0.1c-0.8-0.3-1.1-1.1-0.8-1.9l5-13c0.3-0.8,1.1-1.1,1.9-0.8l0.2,0.1c0.8,0.3,1.1,1.1,0.8,1.9
			l-5,13C38.6,177.2,37.8,177.6,37,177.3z" class="st15"></path>
		
			<linearGradient gradientTransform="matrix(0.9344 0.3562 -0.3562 0.9344 76.4054 2.4531)" y2="182.8283" x2="26.951" y1="182.8283" x1="23.7924" gradientUnits="userSpaceOnUse" id="SVGID_15_">
			<stop style="stop-color:#BEE5DA;stop-opacity:0.8" offset="0"></stop>
			<stop style="stop-color:#86CEBA" offset="1"></stop>
		</linearGradient>
		<circle r="1.6" cy="182.3" cx="35" class="st16"></circle>
	</g>
	
		<linearGradient gradientTransform="matrix(-0.4669 0.8843 -0.8843 -0.4669 484.0841 8.4753)" y2="165.6669" x2="219.47" y1="171.2283" x1="219.47" gradientUnits="userSpaceOnUse" id="SVGID_16_">
		<stop style="stop-color:#BEE5DA;stop-opacity:0.8" offset="0"></stop>
		<stop style="stop-color:#86CEBA" offset="1"></stop>
	</linearGradient>
	<path d="M235.4,113.9c0,0-2.3,4.5-7.1,12.4s-0.8,6.9,3.5,3.3C236.1,126.1,238.9,116.2,235.4,113.9z" class="st17"></path>
	<linearGradient y2="236.35" x2="163.0462" y1="269.6518" x1="163.0462" gradientUnits="userSpaceOnUse" id="SVGID_17_">
		<stop style="stop-color:#FFFFFF;stop-opacity:0" offset="0"></stop>
		<stop style="stop-color:#F6FBFA;stop-opacity:0.1758" offset="0.1758"></stop>
		<stop style="stop-color:#DDF1EC;stop-opacity:0.4638" offset="0.4638"></stop>
		<stop style="stop-color:#B6E1D6;stop-opacity:0.826" offset="0.826"></stop>
		<stop style="stop-color:#A0D8CA" offset="1"></stop>
	</linearGradient>
	<polygon points="100.3,237.6 114.5,269.7 225.7,269.7 203.8,236.3" class="st18"></polygon>
	<linearGradient y2="136.9637" x2="71.3473" y1="136.9637" x1="47.4472" gradientUnits="userSpaceOnUse" id="SVGID_18_">
		<stop style="stop-color:#BEE5DA;stop-opacity:0.8" offset="0"></stop>
		<stop style="stop-color:#86CEBA" offset="1"></stop>
	</linearGradient>
	<path d="M69.2,137c0-1.4,0.9-2.6,2.1-3.1c-0.3-1.1-0.7-2.2-1.3-3.2c-1.6,0.7-3.6,0-4.3-1.6c-0.4-0.9-0.4-1.8,0-2.7
		c-1-0.6-2.1-1-3.2-1.3c-0.5,1.3-1.7,2.1-3.1,2.1c-1.4,0-2.6-0.9-3.1-2.1c-1.1,0.3-2.2,0.7-3.2,1.3c0.6,1.2,0.3,2.7-0.7,3.6
		c-1,1-2.4,1.2-3.6,0.7c-0.6,1-1.1,2.1-1.3,3.2c1.3,0.5,2.1,1.7,2.1,3.1c0,1.4-0.9,2.6-2.1,3.1c0.3,1.1,0.7,2.2,1.3,3.2
		c1.6-0.7,3.6,0,4.3,1.6c0.4,0.9,0.4,1.8,0,2.7c1,0.6,2.1,1,3.2,1.3c0.5-1.3,1.7-2.1,3.1-2.1c1.4,0,2.6,0.9,3.1,2.1
		c1.1-0.3,2.2-0.7,3.2-1.3c-0.6-1.2-0.3-2.7,0.7-3.6c1-1,2.4-1.2,3.6-0.7c0.6-1,1.1-2.1,1.3-3.2C70.1,139.5,69.2,138.3,69.2,137z
		 M59.4,140.2c-1.8,0-3.3-1.5-3.2-3.3c0-1.7,1.5-3.1,3.2-3.1c1.8,0,3.3,1.5,3.2,3.3C62.6,138.8,61.1,140.1,59.4,140.2z" class="st19"></path>
	<g>
		<linearGradient y2="237.6271" x2="150.6147" y1="84.0842" x1="150.6147" gradientUnits="userSpaceOnUse" id="SVGID_19_">
			<stop style="stop-color:#ACDDBA" offset="0"></stop>
			<stop style="stop-color:#48B394" offset="1"></stop>
		</linearGradient>
		<path d="M200.5,237.6h-99.8c-2.8,0-5-2.2-5-5V89.1c0-2.8,2.2-5,5-5h99.8c2.8,0,5,2.2,5,5v143.5
			C205.5,235.4,203.3,237.6,200.5,237.6z" class="st20"></path>
		<path d="M193,229h-84.7c-2.8,0-5-2.2-5-5V97.7c0-2.8,2.2-5,5-5H193c2.8,0,5,2.2,5,5V224C198,226.8,195.7,229,193,229
			z" class="st21"></path>
		<linearGradient y2="87.2578" x2="175.3033" y1="87.2578" x1="125.9261" gradientUnits="userSpaceOnUse" id="SVGID_20_">
			<stop style="stop-color:#ACDDBA" offset="0"></stop>
			<stop style="stop-color:#48B394" offset="1"></stop>
		</linearGradient>
		<path d="M166.8,78.7h-32.3c-4.7,0-8.5,3.8-8.5,8.5v0c0,4.7,3.8,8.5,8.5,8.5h32.3c4.7,0,8.5-3.8,8.5-8.5v0
			C175.3,82.5,171.5,78.7,166.8,78.7z M162.5,94h-23.9c-0.7,0-1.2-0.6-1.2-1.2c0-0.7,0.6-1.2,1.2-1.2h23.9c0.7,0,1.2,0.6,1.2,1.2
			C163.8,93.5,163.2,94,162.5,94z" class="st22"></path>
		<g>
			<linearGradient y2="146.446" x2="183.9291" y1="146.446" x1="117.3004" gradientUnits="userSpaceOnUse" id="SVGID_21_">
				<stop style="stop-color:#BFE0D6;stop-opacity:0.8" offset="0"></stop>
				<stop style="stop-color:#86CEBA" offset="1"></stop>
			</linearGradient>
			<path d="M150.6,113.1c-18.4,0-33.3,14.9-33.3,33.3c0,18.4,14.9,33.3,33.3,33.3s33.3-14.9,33.3-33.3
				C183.9,128,169,113.1,150.6,113.1z M150.6,166c-10.8,0-19.6-8.8-19.6-19.6c0-10.8,8.8-19.6,19.6-19.6s19.6,8.8,19.6,19.6
				C170.2,157.3,161.4,166,150.6,166z" class="st23"></path>
			<linearGradient y2="158.362" x2="168.0749" y1="158.362" x1="117.3004" gradientUnits="userSpaceOnUse" id="SVGID_22_">
				<stop style="stop-color:#86CEBA" offset="0"></stop>
				<stop style="stop-color:#48B394" offset="1"></stop>
			</linearGradient>
			<path d="M158.6,164.3c-3.1,1.4-6.7,2-10.5,1.5c-8.1-1-14.8-7.2-16.6-15.2c-0.5-2.1-0.6-4.2-0.4-6.1
				c0.2-2.4-0.8-4.8-2.8-6.2l0,0c-4.3-3.1-10.4-0.4-10.9,4.9c-0.3,2.9-0.2,5.9,0.3,9c2.5,14.2,14,25.4,28.3,27.3
				c6.4,0.8,12.5-0.2,17.9-2.5c4.8-2.1,5.4-8.7,1.2-11.8l0,0C163.3,163.7,160.8,163.3,158.6,164.3z" class="st24"></path>
		</g>
		<g>
			<linearGradient y2="207.2137" x2="188.1221" y1="207.2137" x1="160.1" gradientUnits="userSpaceOnUse" id="SVGID_23_">
				<stop style="stop-color:#BFE0D6;stop-opacity:0.8" offset="0"></stop>
				<stop style="stop-color:#86CEBA" offset="1"></stop>
			</linearGradient>
			<path d="M160.4,219.2L160.4,219.2c-0.4-0.4-0.4-1,0-1.4l26-22.6c0.4-0.4,1-0.4,1.4,0l0,0c0.4,0.4,0.4,1,0,1.4
				l-26,22.6C161.4,219.6,160.8,219.6,160.4,219.2z" class="st25"></path>
			<linearGradient y2="217.0569" x2="192.0556" y1="217.0569" x1="174.1111" gradientUnits="userSpaceOnUse" id="SVGID_24_">
				<stop style="stop-color:#BFE0D6;stop-opacity:0.8" offset="0"></stop>
				<stop style="stop-color:#86CEBA" offset="1"></stop>
			</linearGradient>
			<path d="M183.1,208.1c-5,0-9,4-9,9c0,5,4,9,9,9s9-4,9-9C192.1,212.1,188,208.1,183.1,208.1z M183.1,223.2
				c-3.4,0-6.1-2.7-6.1-6.1c0-3.4,2.7-6.1,6.1-6.1c3.4,0,6.1,2.7,6.1,6.1C189.2,220.4,186.5,223.2,183.1,223.2z" class="st26"></path>
			<linearGradient y2="219.1353" x2="192.0556" y1="219.1353" x1="178.7047" gradientUnits="userSpaceOnUse" id="SVGID_25_">
				<stop style="stop-color:#86CEBA" offset="0"></stop>
				<stop style="stop-color:#48B394" offset="1"></stop>
			</linearGradient>
			<path d="M188.5,214.4c0.6,1.2,0.8,2.5,0.5,4c-0.5,2.2-2.2,4.1-4.5,4.6c-1.4,0.3-2.7,0.2-3.8-0.3
				c-0.6-0.2-1.2-0.1-1.7,0.3l0,0c-0.7,0.7-0.5,1.9,0.4,2.3c1.5,0.7,3.3,0.9,5.1,0.6c3.7-0.7,6.7-3.7,7.3-7.5c0.3-2-0.1-3.8-0.9-5.4
				c-0.4-0.9-1.6-1-2.3-0.3l0,0C188.3,213.2,188.3,213.8,188.5,214.4z" class="st27"></path>
			<linearGradient y2="196.772" x2="174.9997" y1="196.772" x1="157.0552" gradientUnits="userSpaceOnUse" id="SVGID_26_">
				<stop style="stop-color:#BFE0D6;stop-opacity:0.8" offset="0"></stop>
				<stop style="stop-color:#86CEBA" offset="1"></stop>
			</linearGradient>
			<path d="M166,187.8c-5,0-9,4-9,9s4,9,9,9c5,0,9-4,9-9S171,187.8,166,187.8z M166,190.7c3.4,0,6.1,2.7,6.1,6.1
				c0,3.4-2.7,6.1-6.1,6.1c-3.4,0-6.1-2.7-6.1-6.1C159.9,193.4,162.7,190.7,166,190.7z" class="st28"></path>
			<linearGradient y2="194.4752" x2="170.843" y1="194.4752" x1="157.0553" gradientUnits="userSpaceOnUse" id="SVGID_27_">
				<stop style="stop-color:#86CEBA" offset="0"></stop>
				<stop style="stop-color:#48B394" offset="1"></stop>
			</linearGradient>
			<path d="M168.7,191.3c-1.2-0.6-2.5-0.8-4-0.5c-2.2,0.5-4.1,2.2-4.6,4.5c-0.3,1.4-0.2,2.7,0.3,3.8
				c0.2,0.6,0.1,1.2-0.3,1.7l0,0c-0.7,0.7-1.9,0.5-2.3-0.4c-0.7-1.5-0.9-3.3-0.6-5.1c0.7-3.7,3.7-6.7,7.5-7.3c2-0.3,3.8,0.1,5.4,0.9
				c0.9,0.4,1,1.6,0.3,2.3l0,0C169.9,191.5,169.3,191.6,168.7,191.3z" class="st29"></path>
		</g>
		<g>
			
				<linearGradient gradientTransform="matrix(-0.7071 -0.7071 0.7071 -0.7071 31.581 483.059)" y2="246.176" x2="126.5307" y1="246.176" x1="120.1093" gradientUnits="userSpaceOnUse" id="SVGID_28_">
				<stop style="stop-color:#BFE0D6;stop-opacity:0.8" offset="0"></stop>
				<stop style="stop-color:#86CEBA" offset="1"></stop>
			</linearGradient>
			<path d="M95.7,244.5c1.3,1.3,3.5,1.1,5-0.4l33.4-33.4l7.1-11.6l-11.6,7.1l-33.4,33.4
				C94.6,241.1,94.4,243.3,95.7,244.5z M129.7,207.1l3.4,3.4l-0.9,0.9l-3.4-3.4L129.7,207.1z" class="st30"></path>
			
				<linearGradient gradientTransform="matrix(-0.7071 -0.7071 0.7071 -0.7071 31.581 483.059)" y2="225.7039" x2="120.1093" y1="225.7039" x1="117.6428" gradientUnits="userSpaceOnUse" id="SVGID_29_">
				<stop style="stop-color:#BFE0D6;stop-opacity:0.8" offset="0"></stop>
				<stop style="stop-color:#86CEBA" offset="1"></stop>
			</linearGradient>
			<path d="M108.5,236.2l0.4,0.4c0.8,0.8,0.8,2,0,2.7l-1.8,1.8c-0.8,0.8-2,0.8-2.7,0l-0.4-0.4L108.5,236.2z" class="st31"></path>
		</g>
	</g>
</g>
</svg>
