<svg xml:space="preserve" style="enable-background:new 0 0 480 480;" viewBox="0 0 480 480" y="0px" x="0px" xmlns:xlink="http://www.w3.org/1999/xlink" xmlns="http://www.w3.org/2000/svg" id="图层_1" version="1.1">
<style type="text/css">
	.st0{fill:url(#SVGID_1_);}
	.st1{fill:url(#SVGID_2_);}
	.st2{fill:url(#SVGID_3_);}
	.st3{fill:url(#SVGID_4_);}
	.st4{fill:url(#SVGID_5_);}
	.st5{fill:url(#SVGID_6_);}
	.st6{fill:url(#SVGID_7_);}
	.st7{fill:url(#SVGID_8_);}
	.st8{fill:url(#SVGID_9_);}
	.st9{fill:url(#SVGID_10_);}
	.st10{fill:url(#SVGID_11_);}
	.st11{fill:url(#SVGID_12_);}
	.st12{fill:url(#SVGID_13_);}
	.st13{fill:url(#SVGID_14_);}
	.st14{fill:url(#SVGID_15_);}
	.st15{fill:url(#SVGID_16_);}
	.st16{fill:url(#SVGID_17_);}
	.st17{fill:url(#SVGID_18_);}
	.st18{fill:url(#SVGID_19_);}
	.st19{fill:url(#SVGID_20_);}
	.st20{fill:url(#SVGID_21_);}
	.st21{fill:url(#SVGID_22_);}
	.st22{fill:url(#SVGID_23_);}
	.st23{fill:url(#SVGID_24_);}
	.st24{fill:url(#SVGID_25_);}
	.st25{fill:url(#SVGID_26_);}
	.st26{fill:#E4EFE9;}
	.st27{fill:url(#SVGID_27_);}
</style>
<g>
	
		<linearGradient gradientTransform="matrix(1 0 0 -1 0 -90)" y2="-397.2" x2="56.3" y1="-454.8" x1="56.3" gradientUnits="userSpaceOnUse" id="SVGID_1_">
		<stop style="stop-color:#F0FFFA" offset="0"></stop>
		<stop style="stop-color:#72C2BA;stop-opacity:0.3" offset="1"></stop>
	</linearGradient>
	<polygon points="56.3,307.2 36,342.4 53.3,342.4 53.3,364.8 59.2,364.8 59.2,342.4 76.6,342.4" class="st0"></polygon>
	
		<linearGradient gradientTransform="matrix(0.7012 0.713 0.713 -0.7012 -988.1545 1045.8424)" y2="1515.6541" x2="101.4667" y1="1504.897" x1="101.4667" gradientUnits="userSpaceOnUse" id="SVGID_2_">
		<stop style="stop-color:#FFFFFF" offset="0"></stop>
		<stop style="stop-color:#CFF4EE" offset="1"></stop>
	</linearGradient>
	<path d="M164,71c0,0-11.4-12.6-10.1-20.6c1.3-8,8.8,5.4,10.2,10.4C165.8,67,164,71,164,71z" class="st1"></path>
	
		<linearGradient gradientTransform="matrix(0.9394 0.3429 0.3429 -0.9394 -308.3301 484.9657)" y2="596.4764" x2="327.4218" y1="582.1889" x1="327.4218" gradientUnits="userSpaceOnUse" id="SVGID_3_">
		<stop style="stop-color:#FFFFFF" offset="0"></stop>
		<stop style="stop-color:#CFF4EE" offset="1"></stop>
	</linearGradient>
	<path d="M213,55.5c0,0-20.8-8.6-23.8-18.9c-3-10.2,13.8,1.4,18.1,6.6C212.8,49.8,213,55.5,213,55.5z" class="st2"></path>
	
		<linearGradient gradientTransform="matrix(0.9394 0.3429 0.3429 -0.9394 -308.3301 484.9657)" y2="604.4845" x2="388.867" y1="597.0262" x1="388.867" gradientUnits="userSpaceOnUse" id="SVGID_4_">
		<stop style="stop-color:#FFFFFF" offset="0"></stop>
		<stop style="stop-color:#CFF4EE" offset="1"></stop>
	</linearGradient>
	<path d="M269.1,60.2c0,0-10.9-4.5-12.5-9.9s7.2,0.8,9.4,3.5C269,57.1,269.1,60.2,269.1,60.2z" class="st3"></path>
	
		<linearGradient gradientTransform="matrix(0.9825 -0.1864 -0.1864 -0.9825 84.5422 -427.86)" y2="-523.9519" x2="24.7861" y1="-533.7917" x1="24.7861" gradientUnits="userSpaceOnUse" id="SVGID_5_">
		<stop style="stop-color:#FFFFFF" offset="0"></stop>
		<stop style="stop-color:#CFF4EE" offset="1"></stop>
	</linearGradient>
	<path d="M218.6,90.1c0,0-15.4,2.1-20.8-2.9c-5.4-5,8.6-4,13-2.4C216.5,86.7,218.6,90.1,218.6,90.1z" class="st4"></path>
	<g>
		
			<linearGradient gradientTransform="matrix(1 0 0 -1 0 -90)" y2="-151.4" x2="88.65" y1="-301.2" x1="88.65" gradientUnits="userSpaceOnUse" id="SVGID_6_">
			<stop style="stop-color:#FFFFFF" offset="0"></stop>
			<stop style="stop-color:#CFF4EE" offset="1"></stop>
		</linearGradient>
		<rect height="149.8" width="33.9" class="st5" y="61.4" x="71.7"></rect>
		
			<linearGradient gradientTransform="matrix(1 0 0 -1 0 -90)" y2="-118.8" x2="122.55" y1="-288.2" x1="122.55" gradientUnits="userSpaceOnUse" id="SVGID_7_">
			<stop style="stop-color:#FFFFFF" offset="0"></stop>
			<stop style="stop-color:#CFF4EE" offset="1"></stop>
		</linearGradient>
		<rect height="169.4" width="33.9" class="st6" y="28.8" x="105.6"></rect>
	</g>
	<g>
		
			<linearGradient gradientTransform="matrix(1 0 0 -1 0 -90)" y2="-152.6" x2="348.9" y1="-268.6" x1="348.9" gradientUnits="userSpaceOnUse" id="SVGID_8_">
			<stop style="stop-color:#FFFFFF" offset="0"></stop>
			<stop style="stop-color:#CFF4EE" offset="1"></stop>
		</linearGradient>
		<rect height="116" width="33.4" class="st7" y="62.6" x="332.2"></rect>
		
			<linearGradient gradientTransform="matrix(1 0 0 -1 0 -90)" y2="-133.2" x2="382.3" y1="-268.6" x1="382.3" gradientUnits="userSpaceOnUse" id="SVGID_9_">
			<stop style="stop-color:#FFFFFF" offset="0"></stop>
			<stop style="stop-color:#CFF4EE" offset="1"></stop>
		</linearGradient>
		<rect height="135.4" width="33.4" class="st8" y="43.2" x="365.6"></rect>
		
			<linearGradient gradientTransform="matrix(1 0 0 -1 0 -90)" y2="-170.6" x2="415.9" y1="-278.8" x1="415.9" gradientUnits="userSpaceOnUse" id="SVGID_10_">
			<stop style="stop-color:#FFFFFF" offset="0"></stop>
			<stop style="stop-color:#CFF4EE" offset="1"></stop>
		</linearGradient>
		<rect height="108.2" width="33.4" class="st9" y="80.6" x="399.2"></rect>
	</g>
	
		<linearGradient gradientTransform="matrix(1 0 0 -1 0 -90)" y2="-317.2" x2="240" y1="-541.2" x1="240" gradientUnits="userSpaceOnUse" id="SVGID_11_">
		<stop style="stop-color:#FFFFFF;stop-opacity:0.2" offset="0"></stop>
		<stop style="stop-color:#DEFFFD" offset="1"></stop>
	</linearGradient>
	<ellipse ry="112" rx="240" cy="339.2" cx="240" class="st10"></ellipse>
	
		<linearGradient gradientTransform="matrix(1 0 0 -1 0 -90)" y2="-352.4" x2="71.45" y1="-394" x1="71.45" gradientUnits="userSpaceOnUse" id="SVGID_12_">
		<stop style="stop-color:#F0FFFA" offset="0"></stop>
		<stop style="stop-color:#BDEFE3" offset="1"></stop>
	</linearGradient>
	<polygon points="71.4,262.4 56.8,287.8 69.3,287.8 69.3,304 73.6,304 73.6,287.8 86.1,287.8" class="st11"></polygon>
	
		<linearGradient gradientTransform="matrix(1 0 0 -1 0 -90)" y2="-414.4735" x2="290.7836" y1="-522.3239" x1="309.8001" gradientUnits="userSpaceOnUse" id="SVGID_13_">
		<stop style="stop-color:#FFFFFF;stop-opacity:0" offset="0"></stop>
		<stop style="stop-color:#BDEFE3" offset="1"></stop>
	</linearGradient>
	<polygon points="196.5,352.6 267.4,439.8 399.2,376.5 330.9,317.4" class="st12"></polygon>
	<g>
		
			<linearGradient gradientTransform="matrix(1 0 0 -1 0 -90)" y2="-278.8" x2="403.0329" y1="-333.9736" x1="403.0329" gradientUnits="userSpaceOnUse" id="SVGID_14_">
			<stop style="stop-color:#FFFFFF;stop-opacity:0" offset="0"></stop>
			<stop style="stop-color:#CFF4EE" offset="1"></stop>
		</linearGradient>
		<path d="M430.1,234.9c-5.9-22.4-5-46.1-25.8-46.1c-14.4,0-27.4,45.9-28.5,50.2C374.9,243.5,433.9,249.1,430.1,234.9z" class="st13"></path>
		
			<linearGradient gradientTransform="matrix(1 0 0 -1 0 -90)" y2="-256.4" x2="366.1195" y1="-337.1524" x1="366.1195" gradientUnits="userSpaceOnUse" id="SVGID_15_">
			<stop style="stop-color:#FFFFFF;stop-opacity:0" offset="0"></stop>
			<stop style="stop-color:#CFF4EE" offset="1"></stop>
		</linearGradient>
		<path d="M405.6,233.8c-8.8-32.6-7.2-67.4-37.6-67.4c-21.1,0-40,67.2-41.6,73.6S411.2,254.7,405.6,233.8z" class="st14"></path>
	</g>
	<g>
		
			<linearGradient gradientTransform="matrix(1 0 0 -1 0 -90)" y2="-283.8105" x2="59.6986" y1="-346.8" x1="59.6986" gradientUnits="userSpaceOnUse" id="SVGID_16_">
			<stop style="stop-color:#FFFFFF;stop-opacity:0" offset="0"></stop>
			<stop style="stop-color:#CFF4EE" offset="1"></stop>
		</linearGradient>
		<path d="M90.4,246.4c-6.7-25.4-13.1-49.9-29.3-52.5s-31,52.3-32.3,57.3C27.5,256.2,94.9,262.7,90.4,246.4z" class="st15"></path>
		
			<linearGradient gradientTransform="matrix(1 0 0 -1 0 -90)" y2="-274.5171" x2="38.1626" y1="-319.5587" x1="38.1626" gradientUnits="userSpaceOnUse" id="SVGID_17_">
			<stop style="stop-color:#FFFFFF;stop-opacity:0" offset="0"></stop>
			<stop style="stop-color:#CFF4EE" offset="1"></stop>
		</linearGradient>
		<path d="M60.2,222.1c-4.8-18.2-9.3-35.7-21-37.6C27.5,182.6,17,222.1,16,225.6C15.2,229.1,63.2,233.8,60.2,222.1z" class="st16"></path>
		
			<linearGradient gradientTransform="matrix(1 0 0 -1 0 -90)" y2="-265.8942" x2="100.5195" y1="-346.7524" x1="100.5195" gradientUnits="userSpaceOnUse" id="SVGID_18_">
			<stop style="stop-color:#FFFFFF;stop-opacity:0" offset="0"></stop>
			<stop style="stop-color:#CFF4EE" offset="1"></stop>
		</linearGradient>
		<path d="M140,243.4c-8.8-32.6-16.8-64.2-37.6-67.4s-40,67.2-41.6,73.6C59.2,256,145.6,264.3,140,243.4z" class="st17"></path>
	</g>
	
		<linearGradient gradientTransform="matrix(1 0 0 -1 0 -90)" y2="-389.2" x2="431.0076" y1="-440.4" x1="431.0076" gradientUnits="userSpaceOnUse" id="SVGID_19_">
		<stop style="stop-color:#F0FFFA" offset="0"></stop>
		<stop style="stop-color:#72C2BA;stop-opacity:0.3" offset="1"></stop>
	</linearGradient>
	<path d="M453.9,315c-0.5-3.7-5.3-4.5-9.8-8.8c-4.5-4.5-5.9-7-11.5-7c-10.6,0-10.6,9.8-13.3,9.8
		c-8.3,0-11.5,9.8-11.5,12.3s3.5,5.3,8.8,8.8c3.5,2.4,9.1,2.4,12.3,2.1v18.2h4.5V332c2.4-0.3,3.7-2.2,11.5,0.8
		C449.4,334.6,455.7,327.5,453.9,315z" class="st18"></path>
	
		<linearGradient gradientTransform="matrix(0.9514 0.3079 0.3079 -0.9514 -257.4988 414.3724)" y2="462.3589" x2="410.2527" y1="445.7191" x1="410.2527" gradientUnits="userSpaceOnUse" id="SVGID_20_">
		<stop style="stop-color:#F0FFFA" offset="0"></stop>
		<stop style="stop-color:#72C2BA;stop-opacity:0.3" offset="1"></stop>
	</linearGradient>
	<path d="M286.7,122.1c0,0-24.5-9.3-28.5-21c-4-11.8,16,1.1,21.3,6.9C286.4,115.4,286.7,122.1,286.7,122.1z" class="st19"></path>
	<g>
		
			<linearGradient gradientTransform="matrix(1 0 0 1 0 -572)" y2="735.1691" x2="238.75" y1="852" x1="238.75" gradientUnits="userSpaceOnUse" id="SVGID_21_">
			<stop style="stop-color:#58CCB0" offset="0"></stop>
			<stop style="stop-color:#E5F9F4" offset="0.9851"></stop>
		</linearGradient>
		<polygon points="332.2,236.5 215.2,280 145.3,205.6 252,163" class="st20"></polygon>
		
			<linearGradient gradientTransform="matrix(1 0 0 1 0 -572)" y2="777.6" x2="179.6" y1="941.3" x1="179.6" gradientUnits="userSpaceOnUse" id="SVGID_22_">
			<stop style="stop-color:#3DBF9D" offset="0"></stop>
			<stop style="stop-color:#E5F9F4" offset="0.9851"></stop>
		</linearGradient>
		<polygon points="215.2,280 213.9,369.3 144,302.4 145.3,205.6" class="st21"></polygon>
		
			<linearGradient gradientTransform="matrix(1 0 0 1 0 -572)" y2="808.5" x2="273.05" y1="941.3" x1="273.05" gradientUnits="userSpaceOnUse" id="SVGID_23_">
			<stop style="stop-color:#58CCB0" offset="0"></stop>
			<stop style="stop-color:#E5F9F4" offset="0.9851"></stop>
		</linearGradient>
		<polygon points="332.2,236.5 330.9,317.4 213.9,369.3 215.2,280" class="st22"></polygon>
		
			<linearGradient gradientTransform="matrix(1 0 0 1 0 -572)" y2="808.5" x2="299.8" y1="889.4" x1="299.8" gradientUnits="userSpaceOnUse" id="SVGID_24_">
			<stop style="stop-color:#58CCB0" offset="0"></stop>
			<stop style="stop-color:#E5F9F4" offset="0.9851"></stop>
		</linearGradient>
		<polygon points="330.9,317.4 267.4,260.5 332.2,236.5" class="st23"></polygon>
		
			<linearGradient gradientTransform="matrix(1 0 0 1 0 -572)" y2="766.3506" x2="236.8076" y1="839.2688" x1="278.907" gradientUnits="userSpaceOnUse" id="SVGID_25_">
			<stop style="stop-color:#3DBF9D" offset="0"></stop>
			<stop style="stop-color:#D6F2E9" offset="0.9851"></stop>
		</linearGradient>
		<polyline points="332.2,236.5 299.8,184.8 185.8,223.8 215.2,280" class="st24"></polyline>
		
			<linearGradient gradientTransform="matrix(1 0 0 1 0 -572)" y2="888.35" x2="172.9546" y1="888.35" x1="215.1546" gradientUnits="userSpaceOnUse" id="SVGID_26_">
			<stop style="stop-color:#3DBF9D" offset="0"></stop>
			<stop style="stop-color:#D6F2E9" offset="0.9851"></stop>
		</linearGradient>
		<polyline points="215.2,280 176.5,263.4 173,354.7 213.9,369.3" class="st25"></polyline>
		<g>
			<path d="M247.5,321.9c-1.6,0.6-3.2,1.1-4.6,1.1c-1.1,0-1.9-1-1.6-1.9l0,0c0.2-0.8,0.8-1.3,1.6-1.3
				c6.6-0.2,17.1-10.4,23.8-21.3c-1.3,0-2.6-0.2-3.8-0.3c-6.1-0.8-9.9-3-10.6-6.2c-0.5-2.1,0.3-5.3,6.4-8.8c7.8-4.6,13-5.6,15.5-3.2
				c3.2,3,0.8,9.9-1.9,15.2c14.2-1.3,33.4-9,44-28.5c0.5-0.8,1.3-1.1,2.1-0.6l0,0c0.8,0.5,1.1,1.4,0.6,2.2
				c-11.7,21.6-33.4,29.6-48.6,30.2C265,307.8,255.7,318.6,247.5,321.9z M265.8,283.2c-1.4,0.6-3.2,1.4-5.4,2.7
				c-3.4,1.9-5.1,4-5,5.4c0.3,1.4,2.9,3,7.8,3.7c1.6,0.2,3.4,0.3,5.3,0.3c0.3-0.5,0.5-1,0.8-1.4c3.4-6.6,3.8-10.6,2.7-11.5
				C271.8,282.1,270.4,281.3,265.8,283.2z" class="st26"></path>
		</g>
		
			<linearGradient gradientTransform="matrix(1 0 0 1 0 -572)" y2="792.5" x2="333.45" y1="889.4" x1="333.45" gradientUnits="userSpaceOnUse" id="SVGID_27_">
			<stop style="stop-color:#3DBF9D" offset="0"></stop>
			<stop style="stop-color:#D6F2E9" offset="0.9851"></stop>
		</linearGradient>
		<polygon points="330.9,317.4 332.2,236.5 335.4,220.5 336,296.8" class="st27"></polygon>
	</g>
</g>
</svg>
