<svg xml:space="preserve" style="enable-background:new 0 0 480 480;" viewBox="0 0 480 480" y="0px" x="0px" xmlns:xlink="http://www.w3.org/1999/xlink" xmlns="http://www.w3.org/2000/svg" id="图层_1" version="1.1">
<style type="text/css">
	.st0{fill:url(#SVGID_1_);}
	.st1{fill:url(#SVGID_2_);}
	.st2{fill:url(#SVGID_3_);}
	.st3{fill:url(#SVGID_4_);}
	.st4{fill:url(#SVGID_5_);}
	.st5{fill:url(#SVGID_6_);}
	.st6{fill:url(#SVGID_7_);}
	.st7{fill:url(#SVGID_8_);}
	.st8{fill:url(#SVGID_9_);}
	.st9{fill:url(#SVGID_10_);}
	.st10{fill:url(#SVGID_11_);}
	.st11{fill:url(#SVGID_12_);}
	.st12{fill:url(#SVGID_13_);}
	.st13{fill:url(#SVGID_14_);}
	.st14{fill:url(#SVGID_15_);}
	.st15{fill:url(#SVGID_16_);}
	.st16{fill:url(#SVGID_17_);}
	.st17{fill:url(#SVGID_18_);}
	.st18{fill:url(#SVGID_19_);}
	.st19{fill:url(#SVGID_20_);}
	.st20{fill:url(#SVGID_21_);}
	.st21{fill:url(#SVGID_22_);}
	.st22{fill:url(#SVGID_23_);}
	.st23{fill:url(#SVGID_24_);}
	.st24{fill:url(#SVGID_25_);}
	.st25{fill:url(#SVGID_26_);}
	.st26{fill:url(#SVGID_27_);}
	.st27{fill:url(#SVGID_28_);}
	.st28{fill:#FFFFFF;}
</style>
<g>
	<g>
		
			<linearGradient gradientTransform="matrix(1 0 0 1 0 -572)" y2="633.3" x2="88.65" y1="783.1" x1="88.65" gradientUnits="userSpaceOnUse" id="SVGID_1_">
			<stop style="stop-color:#FFFFFF" offset="0"></stop>
			<stop style="stop-color:#CFF4EE" offset="1"></stop>
		</linearGradient>
		<rect height="149.8" width="33.9" class="st0" y="61.3" x="71.7"></rect>
		
			<linearGradient gradientTransform="matrix(1 0 0 1 0 -572)" y2="600.6" x2="122.55" y1="770" x1="122.55" gradientUnits="userSpaceOnUse" id="SVGID_2_">
			<stop style="stop-color:#FFFFFF" offset="0"></stop>
			<stop style="stop-color:#CFF4EE" offset="1"></stop>
		</linearGradient>
		<rect height="169.4" width="33.9" class="st1" y="28.6" x="105.6"></rect>
	</g>
	<g>
		
			<linearGradient gradientTransform="matrix(1 0 0 1 0 -572)" y2="634.4" x2="348.9" y1="750.4" x1="348.9" gradientUnits="userSpaceOnUse" id="SVGID_3_">
			<stop style="stop-color:#FFFFFF" offset="0"></stop>
			<stop style="stop-color:#CFF4EE" offset="1"></stop>
		</linearGradient>
		<rect height="116" width="33.4" class="st2" y="62.4" x="332.2"></rect>
		
			<linearGradient gradientTransform="matrix(1 0 0 1 0 -572)" y2="615" x2="382.3" y1="750.4" x1="382.3" gradientUnits="userSpaceOnUse" id="SVGID_4_">
			<stop style="stop-color:#FFFFFF" offset="0"></stop>
			<stop style="stop-color:#CFF4EE" offset="1"></stop>
		</linearGradient>
		<rect height="135.4" width="33.4" class="st3" y="43" x="365.6"></rect>
		
			<linearGradient gradientTransform="matrix(1 0 0 1 0 -572)" y2="652.5" x2="415.9" y1="760.7" x1="415.9" gradientUnits="userSpaceOnUse" id="SVGID_5_">
			<stop style="stop-color:#FFFFFF" offset="0"></stop>
			<stop style="stop-color:#CFF4EE" offset="1"></stop>
		</linearGradient>
		<rect height="108.2" width="33.4" class="st4" y="80.5" x="399.2"></rect>
	</g>
	
		<linearGradient gradientTransform="matrix(1 0 0 1 0 -572)" y2="799.4" x2="240" y1="1023.4" x1="240" gradientUnits="userSpaceOnUse" id="SVGID_6_">
		<stop style="stop-color:#FFFFFF;stop-opacity:0.2" offset="0"></stop>
		<stop style="stop-color:#DEFFFD" offset="1"></stop>
	</linearGradient>
	<ellipse ry="112" rx="240" cy="339.4" cx="240" class="st5"></ellipse>
	
		<linearGradient gradientTransform="matrix(1 0 0 1 0 -572)" y2="879" x2="40.3" y1="936.6" x1="40.3" gradientUnits="userSpaceOnUse" id="SVGID_7_">
		<stop style="stop-color:#F0FFFA" offset="0"></stop>
		<stop style="stop-color:#72C2BA;stop-opacity:0.3" offset="1"></stop>
	</linearGradient>
	<polygon points="40.3,307 20,342.2 37.3,342.2 37.3,364.6 43.2,364.6 43.2,342.2 60.6,342.2" class="st6"></polygon>
	
		<linearGradient gradientTransform="matrix(1 0 0 1 0 -572)" y2="834.2" x2="71.45" y1="875.8" x1="71.45" gradientUnits="userSpaceOnUse" id="SVGID_8_">
		<stop style="stop-color:#F0FFFA" offset="0"></stop>
		<stop style="stop-color:#BDEFE3" offset="1"></stop>
	</linearGradient>
	<polygon points="71.4,262.2 56.8,287.7 69.3,287.7 69.3,303.8 73.6,303.8 73.6,287.7 86.1,287.7" class="st7"></polygon>
	
		<linearGradient gradientTransform="matrix(1 0 0 1 0 -572)" y2="901.6379" x2="273.4141" y1="1003.5621" x1="291.386" gradientUnits="userSpaceOnUse" id="SVGID_9_">
		<stop style="stop-color:#FFFFFF;stop-opacity:0" offset="0"></stop>
		<stop style="stop-color:#BDEFE3" offset="1"></stop>
	</linearGradient>
	<polygon points="156.8,350.2 237.8,415.2 408,411 321.6,348.6" class="st8"></polygon>
	<g>
		
			<linearGradient gradientTransform="matrix(1 0 0 1 0 -572)" y2="760.6583" x2="403.0329" y1="815.8485" x1="403.0329" gradientUnits="userSpaceOnUse" id="SVGID_10_">
			<stop style="stop-color:#FFFFFF;stop-opacity:0" offset="0"></stop>
			<stop style="stop-color:#CFF4EE" offset="1"></stop>
		</linearGradient>
		<path d="M430.1,234.7c-5.9-22.4-5-46.1-25.8-46.1c-14.4,0-27.4,45.9-28.5,50.2C374.9,243.4,433.9,249,430.1,234.7z" class="st9"></path>
		
			<linearGradient gradientTransform="matrix(1 0 0 1 0 -572)" y2="738.2" x2="366.1195" y1="818.9913" x1="366.1195" gradientUnits="userSpaceOnUse" id="SVGID_11_">
			<stop style="stop-color:#FFFFFF;stop-opacity:0" offset="0"></stop>
			<stop style="stop-color:#CFF4EE" offset="1"></stop>
		</linearGradient>
		<path d="M405.6,233.6c-8.8-32.6-7.2-67.4-37.6-67.4c-21.1,0-40,67.2-41.6,73.6C324.8,246.2,411.2,254.6,405.6,233.6z" class="st10"></path>
	</g>
	<g>
		
			<linearGradient gradientTransform="matrix(1 0 0 1 0 -572)" y2="765.6788" x2="59.6986" y1="828.639" x1="59.6986" gradientUnits="userSpaceOnUse" id="SVGID_12_">
			<stop style="stop-color:#FFFFFF;stop-opacity:0" offset="0"></stop>
			<stop style="stop-color:#CFF4EE" offset="1"></stop>
		</linearGradient>
		<path d="M90.4,246.2c-6.7-25.4-13.1-49.9-29.3-52.5S30.1,246,28.8,251C27.5,256,94.9,262.6,90.4,246.2z" class="st11"></path>
		
			<linearGradient gradientTransform="matrix(1 0 0 1 0 -572)" y2="756.3532" x2="38.1626" y1="801.3948" x1="38.1626" gradientUnits="userSpaceOnUse" id="SVGID_13_">
			<stop style="stop-color:#FFFFFF;stop-opacity:0" offset="0"></stop>
			<stop style="stop-color:#CFF4EE" offset="1"></stop>
		</linearGradient>
		<path d="M60.2,221.9c-4.8-18.2-9.3-35.7-21-37.6S17,221.9,16,225.4C15.2,229,63.2,233.6,60.2,221.9z" class="st12"></path>
		
			<linearGradient gradientTransform="matrix(1 0 0 1 0 -572)" y2="747.6942" x2="100.5195" y1="828.5913" x1="100.5195" gradientUnits="userSpaceOnUse" id="SVGID_14_">
			<stop style="stop-color:#FFFFFF;stop-opacity:0" offset="0"></stop>
			<stop style="stop-color:#CFF4EE" offset="1"></stop>
		</linearGradient>
		<path d="M140,243.2c-8.8-32.6-16.8-64.2-37.6-67.4s-40,67.2-41.6,73.6C59.2,255.8,145.6,264.2,140,243.2z" class="st13"></path>
	</g>
	
		<linearGradient gradientTransform="matrix(1 0 0 1 0 -572)" y2="871.04" x2="431.0076" y1="922.24" x1="431.0076" gradientUnits="userSpaceOnUse" id="SVGID_15_">
		<stop style="stop-color:#F0FFFA" offset="0"></stop>
		<stop style="stop-color:#72C2BA;stop-opacity:0.3" offset="1"></stop>
	</linearGradient>
	<path d="M453.9,314.9c-0.5-3.7-5.3-4.5-9.8-8.8c-4.5-4.5-5.9-7-11.5-7c-10.6,0-10.6,9.8-13.3,9.8
		c-8.3,0-11.5,9.8-11.5,12.3c0,2.6,3.5,5.3,8.8,8.8c3.5,2.4,9.1,2.4,12.3,2.1v18.2h4.5v-18.4c2.4-0.3,3.7-2.2,11.5,0.8
		C449.4,334.4,455.7,327.4,453.9,314.9z" class="st14"></path>
	
		<linearGradient gradientTransform="matrix(0.7012 0.713 -0.713 0.7012 -370.2907 595.6158)" y2="-759.5995" x2="-10.8334" y1="-748.8422" x1="-10.8334" gradientUnits="userSpaceOnUse" id="SVGID_16_">
		<stop style="stop-color:#FFFFFF" offset="0"></stop>
		<stop style="stop-color:#CFF4EE" offset="1"></stop>
	</linearGradient>
	<path d="M164,70.9c0,0-11.4-12.6-10.1-20.6c1.3-8,8.8,5.4,10.2,10.4C165.8,66.9,164,70.9,164,70.9z" class="st15"></path>
	
		<linearGradient gradientTransform="matrix(0.9394 0.3429 -0.3429 0.9394 -33.7038 -44.3284)" y2="-5.3073" x2="250.9026" y1="8.9802" x1="250.9026" gradientUnits="userSpaceOnUse" id="SVGID_17_">
		<stop style="stop-color:#FFFFFF" offset="0"></stop>
		<stop style="stop-color:#CFF4EE" offset="1"></stop>
	</linearGradient>
	<path d="M213,55.4c0,0-20.8-8.6-23.8-18.9c-3-10.2,13.8,1.4,18.1,6.6C212.8,49.6,213,55.4,213,55.4z" class="st16"></path>
	
		<linearGradient gradientTransform="matrix(0.9394 0.3429 -0.3429 0.9394 -33.7038 -44.3284)" y2="-13.3154" x2="312.3134" y1="-5.8571" x1="312.3134" gradientUnits="userSpaceOnUse" id="SVGID_18_">
		<stop style="stop-color:#FFFFFF" offset="0"></stop>
		<stop style="stop-color:#CFF4EE" offset="1"></stop>
	</linearGradient>
	<path d="M269.1,60c0,0-10.9-4.5-12.5-9.9s7.2,0.8,9.4,3.5C269,57,269.1,60,269.1,60z" class="st17"></path>
	
		<linearGradient gradientTransform="matrix(0.9825 -0.1864 0.1864 0.9825 -51.0745 -846.1681)" y2="959.9996" x2="80.0913" y1="969.8398" x1="80.0913" gradientUnits="userSpaceOnUse" id="SVGID_19_">
		<stop style="stop-color:#FFFFFF" offset="0"></stop>
		<stop style="stop-color:#CFF4EE" offset="1"></stop>
	</linearGradient>
	<path d="M218.6,89.9c0,0-15.4,2.1-20.8-2.9c-5.4-5,8.6-4,13-2.4C216.5,86.6,218.6,89.9,218.6,89.9z" class="st18"></path>
	
		<linearGradient gradientTransform="matrix(0.9514 0.3079 -0.3079 0.9514 -12.4795 -114.4727)" y2="116.0561" x2="339.9086" y1="132.6959" x1="339.9086" gradientUnits="userSpaceOnUse" id="SVGID_20_">
		<stop style="stop-color:#F0FFFA" offset="0"></stop>
		<stop style="stop-color:#72C2BA;stop-opacity:0.3" offset="1"></stop>
	</linearGradient>
	<path d="M286.7,121.9c0,0-24.5-9.3-28.5-21c-4-11.8,16,1.1,21.3,6.9C286.4,115.2,286.7,121.9,286.7,121.9z" class="st19"></path>
	<g>
		<g>
			
				<linearGradient gradientTransform="matrix(1 0 0 1 0 -572)" y2="706.2" x2="243.0006" y1="916.5" x1="243.0006" gradientUnits="userSpaceOnUse" id="SVGID_21_">
				<stop style="stop-color:#3DBF9D" offset="0"></stop>
				<stop style="stop-color:#D6F2E9" offset="0.9851"></stop>
			</linearGradient>
			<path d="M311.4,344.5H174.7c-7,0-12.8-5.8-12.8-12.8V147c0-7,5.8-12.8,12.8-12.8h136.6c7,0,12.8,5.8,12.8,12.8
				v184.6C324.2,338.7,318.6,344.5,311.4,344.5z" class="st20"></path>
			
				<linearGradient gradientTransform="matrix(1 0 0 1 0 -572)" y2="715.4" x2="237.3" y1="925.6" x1="237.3" gradientUnits="userSpaceOnUse" id="SVGID_22_">
				<stop style="stop-color:#58CCB0" offset="0"></stop>
				<stop style="stop-color:#E5F9F4" offset="0.9851"></stop>
			</linearGradient>
			<path d="M305.6,353.6H169c-7,0-12.8-5.8-12.8-12.8V156.2c0-7,5.8-12.8,12.8-12.8h136.6c7,0,12.8,5.8,12.8,12.8
				v184.6C318.4,347.8,312.6,353.6,305.6,353.6z" class="st21"></path>
		</g>
		<g>
			
				<linearGradient gradientTransform="matrix(1 0 0 1 0 -572)" y2="745.4" x2="177.52" y1="745.4" x1="146.16" gradientUnits="userSpaceOnUse" id="SVGID_23_">
				<stop style="stop-color:#BDEFE3" offset="0"></stop>
				<stop style="stop-color:#B3E9DC" offset="0.9851"></stop>
			</linearGradient>
			<path d="M172.6,178.6h-21.8c-2.7,0-4.8-2.1-4.8-4.8V173c0-2.7,2.1-4.8,4.8-4.8h21.8c2.7,0,4.8,2.1,4.8,4.8v0.8
				C177.4,176.5,175.4,178.6,172.6,178.6z" class="st22"></path>
			
				<linearGradient gradientTransform="matrix(1 0 0 1 0 -572)" y2="780.7" x2="177.52" y1="780.7" x1="146.16" gradientUnits="userSpaceOnUse" id="SVGID_24_">
				<stop style="stop-color:#BDEFE3" offset="0"></stop>
				<stop style="stop-color:#B3E9DC" offset="0.9851"></stop>
			</linearGradient>
			<path d="M172.6,213.9h-21.8c-2.7,0-4.8-2.1-4.8-4.8v-0.8c0-2.7,2.1-4.8,4.8-4.8h21.8c2.7,0,4.8,2.1,4.8,4.8v0.8
				C177.4,211.7,175.4,213.9,172.6,213.9z" class="st23"></path>
			
				<linearGradient gradientTransform="matrix(1 0 0 1 0 -572)" y2="815.9" x2="177.52" y1="815.9" x1="146.16" gradientUnits="userSpaceOnUse" id="SVGID_25_">
				<stop style="stop-color:#BDEFE3" offset="0"></stop>
				<stop style="stop-color:#B3E9DC" offset="0.9851"></stop>
			</linearGradient>
			<path d="M172.6,249.1h-21.8c-2.7,0-4.8-2.1-4.8-4.8v-0.8c0-2.7,2.1-4.8,4.8-4.8h21.8c2.7,0,4.8,2.1,4.8,4.8v0.8
				C177.4,247,175.4,249.1,172.6,249.1z" class="st24"></path>
			
				<linearGradient gradientTransform="matrix(1 0 0 1 0 -572)" y2="851.1" x2="177.52" y1="851.1" x1="146.16" gradientUnits="userSpaceOnUse" id="SVGID_26_">
				<stop style="stop-color:#BDEFE3" offset="0"></stop>
				<stop style="stop-color:#B3E9DC" offset="0.9851"></stop>
			</linearGradient>
			<path d="M172.6,284.3h-21.8c-2.7,0-4.8-2.1-4.8-4.8v-0.8c0-2.7,2.1-4.8,4.8-4.8h21.8c2.7,0,4.8,2.1,4.8,4.8v0.8
				C177.4,282.2,175.4,284.3,172.6,284.3z" class="st25"></path>
			
				<linearGradient gradientTransform="matrix(1 0 0 1 0 -572)" y2="886.5" x2="177.52" y1="886.5" x1="146.16" gradientUnits="userSpaceOnUse" id="SVGID_27_">
				<stop style="stop-color:#BDEFE3" offset="0"></stop>
				<stop style="stop-color:#B3E9DC" offset="0.9851"></stop>
			</linearGradient>
			<path d="M172.6,319.7h-21.8c-2.7,0-4.8-2.1-4.8-4.8v-0.8c0-2.7,2.1-4.8,4.8-4.8h21.8c2.7,0,4.8,2.1,4.8,4.8v0.8
				C177.4,317.4,175.4,319.7,172.6,319.7z" class="st26"></path>
		</g>
	</g>
	<g>
		
			<linearGradient gradientTransform="matrix(1 0 0 1 0 -572)" y2="861.4" x2="312" y1="931.8" x1="312" gradientUnits="userSpaceOnUse" id="SVGID_28_">
			<stop style="stop-color:#3DBF9D" offset="0"></stop>
			<stop style="stop-color:#D6F2E9" offset="0.9851"></stop>
		</linearGradient>
		<circle r="35.2" cy="324.6" cx="312" class="st27"></circle>
		<path d="M321.1,321.9l-15-8.6c-2.1-1.3-4.8,0.3-4.8,2.7v17.4c0,2.4,2.7,4,4.8,2.7l15-8.6
			C323.2,326.2,323.2,323,321.1,321.9z" class="st28"></path>
	</g>
</g>
</svg>
