<svg xml:space="preserve" style="enable-background:new 0 0 300 300;" viewBox="0 0 300 300" y="0px" x="0px" xmlns:xlink="http://www.w3.org/1999/xlink" xmlns="http://www.w3.org/2000/svg" id="图层_1" version="1.1">
<style type="text/css">
	.st0{fill:url(#SVGID_1_);}
	.st1{fill:url(#SVGID_2_);}
	.st2{fill:url(#SVGID_3_);}
	.st3{fill:url(#SVGID_4_);}
	.st4{fill:url(#SVGID_5_);}
	.st5{fill:url(#SVGID_6_);}
	.st6{fill:url(#SVGID_7_);}
	.st7{fill:url(#SVGID_8_);}
	.st8{fill:url(#SVGID_9_);}
	.st9{fill:url(#SVGID_10_);}
	.st10{fill:url(#SVGID_11_);}
	.st11{fill:url(#SVGID_12_);}
	.st12{fill:url(#SVGID_13_);}
	.st13{fill:url(#SVGID_14_);}
	.st14{fill:url(#SVGID_15_);}
	.st15{fill:url(#SVGID_16_);}
	.st16{fill:url(#SVGID_17_);}
	.st17{fill:url(#SVGID_18_);}
	.st18{fill:url(#SVGID_19_);}
	.st19{fill:url(#SVGID_20_);}
	.st20{fill:url(#SVGID_21_);}
	.st21{fill:url(#SVGID_22_);}
	.st22{fill:url(#SVGID_23_);}
	.st23{fill:url(#SVGID_24_);}
	.st24{fill:url(#SVGID_25_);}
	.st25{fill:#FFFFFF;}
	.st26{fill:url(#SVGID_26_);}
</style>
<g>
	<g>
		
			<linearGradient gradientTransform="matrix(1 0 0 1 0 -390)" y2="428.125" x2="55.4063" y1="521.75" x1="55.4063" gradientUnits="userSpaceOnUse" id="SVGID_1_">
			<stop style="stop-color:#FFFFFF" offset="0"></stop>
			<stop style="stop-color:#CFF4EE" offset="1"></stop>
		</linearGradient>
		<rect height="93.6" width="21.2" class="st0" y="38.1" x="44.8"></rect>
		
			<linearGradient gradientTransform="matrix(1 0 0 1 0 -390)" y2="407.625" x2="76.5938" y1="513.5" x1="76.5938" gradientUnits="userSpaceOnUse" id="SVGID_2_">
			<stop style="stop-color:#FFFFFF" offset="0"></stop>
			<stop style="stop-color:#CFF4EE" offset="1"></stop>
		</linearGradient>
		<rect height="105.9" width="21.2" class="st1" y="17.6" x="66"></rect>
	</g>
	<g>
		
			<linearGradient gradientTransform="matrix(1 0 0 1 0 -390)" y2="428.8125" x2="218.0625" y1="501.3125" x1="218.0625" gradientUnits="userSpaceOnUse" id="SVGID_3_">
			<stop style="stop-color:#FFFFFF" offset="0"></stop>
			<stop style="stop-color:#CFF4EE" offset="1"></stop>
		</linearGradient>
		<rect height="72.5" width="20.9" class="st2" y="38.8" x="207.6"></rect>
		
			<linearGradient gradientTransform="matrix(1 0 0 1 0 -390)" y2="416.625" x2="238.9375" y1="501.25" x1="238.9375" gradientUnits="userSpaceOnUse" id="SVGID_4_">
			<stop style="stop-color:#FFFFFF" offset="0"></stop>
			<stop style="stop-color:#CFF4EE" offset="1"></stop>
		</linearGradient>
		<rect height="84.6" width="20.9" class="st3" y="26.6" x="228.5"></rect>
		
			<linearGradient gradientTransform="matrix(1 0 0 1 0 -390)" y2="440.125" x2="259.9375" y1="507.75" x1="259.9375" gradientUnits="userSpaceOnUse" id="SVGID_5_">
			<stop style="stop-color:#FFFFFF" offset="0"></stop>
			<stop style="stop-color:#CFF4EE" offset="1"></stop>
		</linearGradient>
		<rect height="67.6" width="20.9" class="st4" y="50.1" x="249.5"></rect>
	</g>
	
		<linearGradient gradientTransform="matrix(1 0 0 1 0 -390)" y2="532.375" x2="150" y1="672.375" x1="150" gradientUnits="userSpaceOnUse" id="SVGID_6_">
		<stop style="stop-color:#FFFFFF;stop-opacity:0.2" offset="0"></stop>
		<stop style="stop-color:#DEFFFD" offset="1"></stop>
	</linearGradient>
	<ellipse ry="70" rx="150" cy="212.4" cx="150" class="st5"></ellipse>
	
		<linearGradient gradientTransform="matrix(1 0 0 1 0 -390)" y2="581.625" x2="25.1875" y1="617.625" x1="25.1875" gradientUnits="userSpaceOnUse" id="SVGID_7_">
		<stop style="stop-color:#F0FFFA" offset="0"></stop>
		<stop style="stop-color:#72C2BA;stop-opacity:0.3" offset="1"></stop>
	</linearGradient>
	<polygon points="25.2,191.6 12.5,213.6 23.3,213.6 23.3,227.6 27,227.6 27,213.6 37.9,213.6" class="st6"></polygon>
	
		<linearGradient gradientTransform="matrix(1 0 0 1 0 -390)" y2="553.625" x2="44.6563" y1="579.625" x1="44.6563" gradientUnits="userSpaceOnUse" id="SVGID_8_">
		<stop style="stop-color:#F0FFFA" offset="0"></stop>
		<stop style="stop-color:#BDEFE3" offset="1"></stop>
	</linearGradient>
	<polygon points="44.6,163.6 35.5,179.5 43.3,179.5 43.3,189.6 46,189.6 46,179.5 53.8,179.5" class="st7"></polygon>
	
		<linearGradient gradientTransform="matrix(1 0 0 1 0 -390)" y2="572.5807" x2="164.4626" y1="645.6693" x1="177.3499" gradientUnits="userSpaceOnUse" id="SVGID_9_">
		<stop style="stop-color:#FFFFFF;stop-opacity:0" offset="0"></stop>
		<stop style="stop-color:#BDEFE3" offset="1"></stop>
	</linearGradient>
	<polygon points="84.8,196.6 128,243.5 257,241.6 211,195.6" class="st8"></polygon>
	<g>
		
			<linearGradient gradientTransform="matrix(1 0 0 1 0 -390)" y2="507.6457" x2="251.8956" y1="542.1396" x1="251.8956" gradientUnits="userSpaceOnUse" id="SVGID_10_">
			<stop style="stop-color:#FFFFFF;stop-opacity:0" offset="0"></stop>
			<stop style="stop-color:#CFF4EE" offset="1"></stop>
		</linearGradient>
		<path d="M268.8,146.4c-3.7-14-3.1-28.8-16.1-28.8c-9,0-17.1,28.7-17.8,31.4C234.3,151.9,271.2,155.4,268.8,146.4z" class="st9"></path>
		
			<linearGradient gradientTransform="matrix(1 0 0 1 0 -390)" y2="493.6875" x2="228.8247" y1="544.1578" x1="228.8247" gradientUnits="userSpaceOnUse" id="SVGID_11_">
			<stop style="stop-color:#FFFFFF;stop-opacity:0" offset="0"></stop>
			<stop style="stop-color:#CFF4EE" offset="1"></stop>
		</linearGradient>
		<path d="M253.5,145.8c-5.5-20.4-4.5-42.1-23.5-42.1c-13.2,0-25,42-26,46S257,158.9,253.5,145.8z" class="st10"></path>
	</g>
	<g>
		
			<linearGradient gradientTransform="matrix(1 0 0 1 0 -390)" y2="510.7566" x2="37.3116" y1="550.127" x1="37.3116" gradientUnits="userSpaceOnUse" id="SVGID_12_">
			<stop style="stop-color:#FFFFFF;stop-opacity:0" offset="0"></stop>
			<stop style="stop-color:#CFF4EE" offset="1"></stop>
		</linearGradient>
		<path d="M56.5,153.6c-4.2-15.9-8.2-31.2-18.3-32.8c-10.1-1.6-19.4,32.7-20.2,35.8C17.2,159.7,59.3,163.9,56.5,153.6z" class="st11"></path>
		
			<linearGradient gradientTransform="matrix(1 0 0 1 0 -390)" y2="504.9861" x2="23.8516" y1="533.1373" x1="23.8516" gradientUnits="userSpaceOnUse" id="SVGID_13_">
			<stop style="stop-color:#FFFFFF;stop-opacity:0" offset="0"></stop>
			<stop style="stop-color:#CFF4EE" offset="1"></stop>
		</linearGradient>
		<path d="M37.6,138.4c-3-11.4-5.8-22.3-13.1-23.5c-7.3-1.2-13.9,23.5-14.5,25.8C9.5,142.9,39.5,145.8,37.6,138.4z" class="st12"></path>
		
			<linearGradient gradientTransform="matrix(1 0 0 1 0 -390)" y2="499.6214" x2="62.8247" y1="550.1578" x1="62.8247" gradientUnits="userSpaceOnUse" id="SVGID_14_">
			<stop style="stop-color:#FFFFFF;stop-opacity:0" offset="0"></stop>
			<stop style="stop-color:#CFF4EE" offset="1"></stop>
		</linearGradient>
		<path d="M87.5,151.8C82,131.4,77,111.7,64,109.7c-13-2-25,42-26,46S91,164.9,87.5,151.8z" class="st13"></path>
	</g>
	
		<linearGradient gradientTransform="matrix(1 0 0 1 0 -390)" y2="576.625" x2="269.3798" y1="608.625" x1="269.3798" gradientUnits="userSpaceOnUse" id="SVGID_15_">
		<stop style="stop-color:#F0FFFA" offset="0"></stop>
		<stop style="stop-color:#72C2BA;stop-opacity:0.3" offset="1"></stop>
	</linearGradient>
	<path d="M283.7,196.5c-0.3-2.3-3.3-2.8-6.1-5.5c-2.8-2.8-3.7-4.4-7.2-4.4c-6.6,0-6.6,6.1-8.3,6.1
		c-5.2,0-7.2,6.1-7.2,7.7s2.2,3.3,5.5,5.5c2.2,1.5,5.7,1.5,7.7,1.3v11.4h2.8v-11.5c1.5-0.2,2.3-1.4,7.2,0.5
		C280.9,208.8,284.8,204.4,283.7,196.5z" class="st14"></path>
	
		<linearGradient gradientTransform="matrix(0.7012 0.713 -0.713 0.7012 -733.0735 995.2376)" y2="-1269.3611" x2="-99.3318" y1="-1262.6379" x1="-99.3318" gradientUnits="userSpaceOnUse" id="SVGID_16_">
		<stop style="stop-color:#FFFFFF" offset="0"></stop>
		<stop style="stop-color:#CFF4EE" offset="1"></stop>
	</linearGradient>
	<path d="M102.5,44.1c0,0-7.1-7.9-6.3-12.9s5.5,3.4,6.4,6.5C103.6,41.6,102.5,44.1,102.5,44.1z" class="st15"></path>
	
		<linearGradient gradientTransform="matrix(0.9394 0.3429 -0.3429 0.9394 -171.528 269.2561)" y2="-334.0546" x2="196.2219" y1="-325.1248" x1="196.2219" gradientUnits="userSpaceOnUse" id="SVGID_17_">
		<stop style="stop-color:#FFFFFF" offset="0"></stop>
		<stop style="stop-color:#CFF4EE" offset="1"></stop>
	</linearGradient>
	<path d="M133.1,34.3c0,0-13-5.4-14.9-11.8c-1.9-6.4,8.6,0.9,11.3,4.1C133,30.8,133.1,34.3,133.1,34.3z" class="st16"></path>
	
		<linearGradient gradientTransform="matrix(0.9394 0.3429 -0.3429 0.9394 -171.528 269.2561)" y2="-339.0597" x2="234.6466" y1="-334.3982" x1="234.6466" gradientUnits="userSpaceOnUse" id="SVGID_18_">
		<stop style="stop-color:#FFFFFF" offset="0"></stop>
		<stop style="stop-color:#CFF4EE" offset="1"></stop>
	</linearGradient>
	<path d="M168.2,37.3c0,0-6.8-2.8-7.8-6.2s4.5,0.5,5.9,2.2C168.1,35.3,168.2,37.3,168.2,37.3z" class="st17"></path>
	
		<linearGradient gradientTransform="matrix(0.9825 -0.1864 0.1864 0.9825 1.6016 -752.0405)" y2="812.815" x2="-24.4191" y1="818.9651" x1="-24.4191" gradientUnits="userSpaceOnUse" id="SVGID_19_">
		<stop style="stop-color:#FFFFFF" offset="0"></stop>
		<stop style="stop-color:#CFF4EE" offset="1"></stop>
	</linearGradient>
	<path d="M136.6,55.9c0,0-9.6,1.3-13-1.8c-3.4-3.1,5.4-2.5,8.1-1.5C135.3,53.9,136.6,55.9,136.6,55.9z" class="st18"></path>
	
		<linearGradient gradientTransform="matrix(0.9514 0.3079 -0.3079 0.9514 -133.6717 187.5648)" y2="-212.9468" x2="252.3226" y1="-202.5469" x1="252.3226" gradientUnits="userSpaceOnUse" id="SVGID_20_">
		<stop style="stop-color:#F0FFFA" offset="0"></stop>
		<stop style="stop-color:#72C2BA;stop-opacity:0.3" offset="1"></stop>
	</linearGradient>
	<path d="M179.2,75.9c0,0-15.3-5.8-17.8-13.1c-2.5-7.4,10,0.7,13.3,4.3C179,71.8,179.2,75.9,179.2,75.9z" class="st19"></path>
	
		<linearGradient gradientTransform="matrix(0.7071 0.7071 0.7071 -0.7071 -539.4286 856.2577)" y2="910.0787" x2="-84.1361" y1="917.881" x1="-84.1361" gradientUnits="userSpaceOnUse" id="SVGID_21_">
		<stop style="stop-color:#58CCB0" offset="0"></stop>
		<stop style="stop-color:#E5F9F4" offset="0.9851"></stop>
	</linearGradient>
	<path d="M48,150.4c0,0-2.2-5.4-6.6-7.7c0,0,5.1,7.4,3.2,10.6c0,0,8.5-0.2,12.4,1.4C57,154.6,50.8,151.4,48,150.4z" class="st20"></path>
	
		<linearGradient gradientTransform="matrix(0.7071 -0.7071 -0.7071 -0.7071 -357.1251 -1304.7323)" y2="-1439.7889" x2="-594.2943" y1="-1433.9921" x1="-594.2943" gradientUnits="userSpaceOnUse" id="SVGID_22_">
		<stop style="stop-color:#58CCB0" offset="0"></stop>
		<stop style="stop-color:#E5F9F4" offset="0.9851"></stop>
	</linearGradient>
	<path d="M238.6,131.1c0,0-4,1.6-5.7,4.9c0,0,5.5-3.8,7.9-2.4c0,0-0.1-6.3,1-9.2C241.7,124.4,239.3,129.1,238.6,131.1z" class="st21"></path>
	<g>
		
			<linearGradient gradientTransform="matrix(1 0 0 -1 0 -270)" y2="-432.0667" x2="226.4833" y1="-455.5556" x1="226.4833" gradientUnits="userSpaceOnUse" id="SVGID_23_">
			<stop style="stop-color:#E9FFFD" offset="0"></stop>
			<stop style="stop-color:#63D0B5" offset="0.9851"></stop>
		</linearGradient>
		<path d="M228.3,183.5c-2.8-10.2-4.8-14.5-9.7-21.4c0,0,16.5,16.8,15.7,21.4C233.5,188.1,228.3,183.5,228.3,183.5z" class="st22"></path>
		
			<linearGradient gradientTransform="matrix(1 0 0 -1 0 -270)" y2="-435.3065" x2="235.3357" y1="-457.872" x1="235.3357" gradientUnits="userSpaceOnUse" id="SVGID_24_">
			<stop style="stop-color:#E9FFFD" offset="0"></stop>
			<stop style="stop-color:#63D0B5" offset="0.9851"></stop>
		</linearGradient>
		<path d="M231.1,183.5c0,0,4.2-16.5,8.6-18.2c0,0-6.4,19.3-5.4,21.4C235.3,188.9,229.8,188.3,231.1,183.5z" class="st23"></path>
	</g>
	<linearGradient y2="105" x2="149.5" y1="198" x1="149.5" gradientUnits="userSpaceOnUse" id="SVGID_25_">
		<stop style="stop-color:#58CCB0" offset="0"></stop>
		<stop style="stop-color:#E5F9F4" offset="0.9851"></stop>
	</linearGradient>
	<path d="M213,198H86c-2.8,0-5-2.2-5-5v-83c0-2.8,2.2-5,5-5h127c2.8,0,5,2.2,5,5v83C218,195.8,215.8,198,213,198z" class="st24"></path>
	<path d="M198.4,131h-32c-1.1,0-2-0.9-2-2l0,0c0-1.1,0.9-2,2-2h32c1.1,0,2,0.9,2,2l0,0
		C200.4,130.1,199.5,131,198.4,131z" class="st25"></path>
	<path d="M199.5,152.5h-37.7c-1.1,0-2-0.9-2-2l0,0c0-1.1,0.9-2,2-2h37.7c1.1,0,2,0.9,2,2l0,0
		C201.5,151.6,200.6,152.5,199.5,152.5z" class="st25"></path>
	<path d="M200.9,171.5h-45.4c-1.1,0-2-0.9-2-2l0,0c0-1.1,0.9-2,2-2h45.4c1.1,0,2,0.9,2,2l0,0
		C202.9,170.6,202,171.5,200.9,171.5z" class="st25"></path>
	<path d="M119.5,129c4.1,0,7.5,3.4,7.5,7.5s-3.4,7.5-7.5,7.5s-7.5-3.4-7.5-7.5S115.4,129,119.5,129 M119.5,124
		c-6.9,0-12.5,5.6-12.5,12.5s5.6,12.5,12.5,12.5s12.5-5.6,12.5-12.5S126.4,124,119.5,124L119.5,124z" class="st25"></path>
	<path d="M97.5,181c1.2,0,2.2-0.9,2.5-2.1c1.9-9.4,10.2-16.4,20.1-16.4s18.2,7.1,20.1,16.4c0.2,1.2,1.2,2.1,2.5,2.1
		l0,0c1.6,0,2.8-1.4,2.5-3c-2.3-11.7-12.6-20.5-25-20.5s-22.7,8.8-25,20.5C94.7,179.6,95.9,181,97.5,181L97.5,181z" class="st25"></path>
	
		<linearGradient gradientTransform="matrix(1 0 0 -1 0 16)" y2="-153.625" x2="203" y1="-197.625" x1="203" gradientUnits="userSpaceOnUse" id="SVGID_26_">
		<stop style="stop-color:#38BF9D" offset="0"></stop>
		<stop style="stop-color:#D6F2E9" offset="0.9851"></stop>
	</linearGradient>
	<circle r="22" cy="191.6" cx="203" class="st26"></circle>
	<path d="M217.4,180.7c-0.8-0.8-2.2-0.8-3.1,0l-17.2,17.2l-5.4-5.5c-0.8-0.8-2.2-0.8-3.1,0c-0.8,0.8-0.8,2.2,0,3.1l7,7
		c0.8,0.8,2.2,0.8,3.1,0l18.7-18.7C218.2,182.9,218.2,181.5,217.4,180.7z" class="st25"></path>
</g>
</svg>
