<svg xml:space="preserve" style="enable-background:new 0 0 400 400;" viewBox="0 0 400 400" y="0px" x="0px" xmlns:xlink="http://www.w3.org/1999/xlink" xmlns="http://www.w3.org/2000/svg" id="图层_1" version="1.1">
<style type="text/css">
	.st0{fill:url(#SVGID_1_);}
	.st1{fill:url(#SVGID_2_);}
	.st2{fill:url(#SVGID_3_);}
	.st3{fill:#93B28A;}
	.st4{fill:url(#SVGID_4_);}
	.st5{fill:#76C3CE;}
	.st6{fill:url(#SVGID_5_);}
	.st7{fill:url(#SVGID_6_);}
	.st8{fill:url(#SVGID_7_);}
	.st9{fill:url(#SVGID_8_);}
	.st10{fill:url(#SVGID_9_);}
	.st11{fill:url(#SVGID_10_);}
	.st12{fill:url(#SVGID_11_);}
	.st13{fill:url(#SVGID_12_);}
	.st14{fill:url(#SVGID_13_);}
	.st15{fill:url(#SVGID_14_);}
	.st16{fill:url(#SVGID_15_);}
	.st17{fill:url(#SVGID_16_);}
	.st18{fill:url(#SVGID_17_);}
	.st19{fill:url(#SVGID_18_);}
	.st20{fill:url(#SVGID_19_);}
	.st21{fill:url(#SVGID_20_);}
	.st22{fill:url(#SVGID_21_);}
	.st23{fill:url(#SVGID_22_);}
	.st24{fill:url(#SVGID_23_);}
	.st25{fill:url(#SVGID_24_);}
	.st26{fill:url(#SVGID_25_);}
	.st27{fill:url(#SVGID_26_);}
	.st28{fill:url(#SVGID_27_);}
	.st29{fill:url(#SVGID_28_);}
	.st30{fill:url(#SVGID_29_);}
	.st31{fill:#ABC6AF;}
	.st32{fill:url(#SVGID_30_);}
	.st33{fill:url(#SVGID_31_);}
	.st34{fill:url(#SVGID_32_);}
	.st35{fill:url(#SVGID_33_);}
	.st36{fill:url(#SVGID_34_);}
	.st37{fill:url(#SVGID_35_);}
	.st38{fill:url(#SVGID_36_);}
	.st39{fill:url(#SVGID_37_);}
	.st40{fill:url(#SVGID_38_);}
	.st41{fill:url(#SVGID_39_);}
	.st42{fill:url(#SVGID_40_);}
	.st43{fill:url(#SVGID_41_);}
	.st44{fill:url(#SVGID_42_);}
	.st45{fill:url(#SVGID_43_);}
	.st46{fill:url(#SVGID_44_);}
	.st47{fill:url(#SVGID_45_);}
	.st48{fill:url(#SVGID_46_);}
	.st49{fill:url(#SVGID_47_);}
	.st50{fill:url(#SVGID_48_);}
	.st51{fill:url(#SVGID_49_);}
	.st52{fill:url(#SVGID_50_);}
	.st53{fill:url(#SVGID_51_);}
</style>
<g>
	<linearGradient y2="207.7174" x2="199.6976" y1="335.0192" x1="199.6976" gradientUnits="userSpaceOnUse" id="SVGID_1_">
		<stop style="stop-color:#EF8CA2" offset="0"></stop>
		<stop style="stop-color:#5145D8" offset="1"></stop>
	</linearGradient>
	<ellipse ry="63.7" rx="147.5" cy="271.4" cx="199.7" class="st0"></ellipse>
	<linearGradient y2="213.1235" x2="199.6976" y1="318.1883" x1="199.6976" gradientUnits="userSpaceOnUse" id="SVGID_2_">
		<stop style="stop-color:#3A85E4" offset="0"></stop>
		<stop style="stop-color:#84CDF5" offset="1"></stop>
	</linearGradient>
	<ellipse ry="52.5" rx="131.1" cy="265.7" cx="199.7" class="st1"></ellipse>
	<g>
		<linearGradient y2="172.6991" x2="400" y1="172.6991" x1="206.737" gradientUnits="userSpaceOnUse" id="SVGID_3_">
			<stop style="stop-color:#A1FFCF" offset="0"></stop>
			<stop style="stop-color:#EADC90" offset="1"></stop>
		</linearGradient>
		<path d="M221,194.7c39.2-37.2,23.5-43.1,76.4-68.6s50.9-17.6,74.5-27.4c22.7-9.4,47,33.3,5.9,62.7
			s-15.7,66.6-64.7,72.5s-101.9,23.5-105.8,7.8S221,194.7,221,194.7z" class="st2"></path>
		<g>
			<g>
				<path d="M223.5,234.7l-1.1-1.6c1.9-1.2,5.2-3.4,9.6-6.3c22.7-14.8,75.7-49.4,92.1-64.1
					c19.4-17.5,60.4-46.8,60.8-47.1l1.1,1.6c-0.4,0.3-41.3,29.6-60.7,47c-16.5,14.9-69.7,49.5-92.4,64.3
					C228.7,231.3,225.4,233.4,223.5,234.7z" class="st3"></path>
			</g>
			<g>
				<path d="M298.9,184.2l-0.2-1.9c0.4-0.1,42.7-5.2,50.3-9l0.9,1.8C341.9,178.9,300.6,184,298.9,184.2z" class="st3"></path>
			</g>
			<g>
				
					<rect height="2" width="47.7" class="st3" transform="matrix(0.9512 -0.3086 0.3086 0.9512 -26.1525 119.2452)" y="141.3" x="340.1"></rect>
			</g>
			<g>
				<path d="M242.1,222.4l0-2c14.1-0.1,51.8-0.7,56.2-3.1l0.9,1.7C293.6,222,247.3,222.3,242.1,222.4z" class="st3"></path>
			</g>
			<g>
				<path d="M325.8,163.5l-1.9-0.2c0.5-4.4,5.3-42.8,15.3-46.8l0.7,1.8C332.3,121.2,327.2,151.9,325.8,163.5z" class="st3"></path>
			</g>
		</g>
	</g>
	<g>
		<linearGradient y2="125.4986" x2="292.8964" y1="125.4986" x1="226.7697" gradientUnits="userSpaceOnUse" id="SVGID_4_">
			<stop style="stop-color:#82E4E1" offset="0"></stop>
			<stop style="stop-color:#84CDF5" offset="1"></stop>
		</linearGradient>
		<rect height="121" width="66.1" class="st4" y="65" x="226.8"></rect>
		<path d="M292.9,71.9v-2.1H289V65h-2.5v4.9h-4.3V65h-2.5v4.9h-4.3V65h-2.5v4.9h-4.3V65H266v4.9h-4.3V65h-2.5v4.9h-4.3
			V65h-2.5v4.9h-4.3V65h-2.5v4.9h-4.3V65h-2.5v4.9h-4.3V65h-2.5v4.9h-5.2v2.1h5.2v2.7h-5.2v2.1h5.2v2.7h-5.2v2.1h5.2v2.7h-5.2v2.1
			h5.2v2.7h-5.2V91h5.2v2.7h-5.2v2.1h5.2v2.7h-5.2v2.1h5.2v2.7h-5.2v2.1h5.2v2.7h-5.2v2.1h5.2v2.7h-5.2v2.1h5.2v2.7h-5.2v2.1h5.2
			v2.7h-5.2v2.1h5.2v2.7h-5.2v2.1h5.2v2.7h-5.2v2.1h5.2v2.7h-5.2v2.1h5.2v2.7h-5.2v2.1h5.2v2.7h-5.2v2.1h5.2v2.7h-5.2v2.1h5.2v2.7
			h-5.2v2.1h5.2v2.7h-5.2v2.1h5.2v2.7h-5.2v2.1h5.2v2.7h-5.2v2.1h5.2v2.7h-5.2v2.1h5.2v2.7h-5.2v2.1h5.2v4.4h2.5v-4.4h4.3v4.4h2.5
			v-4.4h4.3v4.4h2.5v-4.4h4.3v4.4h2.5v-4.4h4.3v4.4h2.5v-4.4h4.3v4.4h2.5v-4.4h4.3v4.4h2.5v-4.4h4.3v4.4h2.5v-4.4h4.3v4.4h2.5v-4.4
			h3.9v-2.1H289v-2.7h3.9v-2.1H289v-2.7h3.9V170H289v-2.7h3.9v-2.1H289v-2.7h3.9v-2.1H289v-2.7h3.9v-2.1H289V153h3.9v-2.1H289v-2.7
			h3.9v-2.1H289v-2.7h3.9v-2.1H289v-2.7h3.9v-2.1H289v-2.7h3.9v-2.1H289v-2.7h3.9v-2.1H289v-2.7h3.9v-2.1H289v-2.7h3.9v-2.1H289
			v-2.7h3.9v-2.1H289v-2.7h3.9V108H289v-2.7h3.9v-2.1H289v-2.7h3.9v-2.1H289v-2.7h3.9v-2.1H289V91h3.9v-2.1H289v-2.7h3.9v-2.1H289
			v-2.7h3.9v-2.1H289v-2.7h3.9v-2.1H289v-2.7H292.9z M279.7,71.9v2.7h-4.3v-2.7H279.7z M259.2,91v2.7h-4.3V91H259.2z M254.9,88.9
			v-2.7h4.3v2.7H254.9z M259.2,95.8v2.7h-4.3v-2.7H259.2z M259.2,100.6v2.7h-4.3v-2.7H259.2z M259.2,105.3v2.7h-4.3v-2.7H259.2z
			 M259.2,110.1v2.7h-4.3v-2.7H259.2z M259.2,114.9v2.7h-4.3v-2.7H259.2z M259.2,119.6v2.7h-4.3v-2.7H259.2z M259.2,124.4v2.7h-4.3
			v-2.7H259.2z M259.2,129.2v2.7h-4.3v-2.7H259.2z M259.2,133.9v2.7h-4.3v-2.7H259.2z M259.2,138.7v2.7h-4.3v-2.7H259.2z
			 M259.2,143.5v2.7h-4.3v-2.7H259.2z M259.2,148.3v2.7h-4.3v-2.7H259.2z M259.2,153v2.7h-4.3V153H259.2z M259.2,157.8v2.7h-4.3
			v-2.7H259.2z M259.2,162.6v2.7h-4.3v-2.7H259.2z M261.7,162.6h4.3v2.7h-4.3V162.6z M261.7,160.5v-2.7h4.3v2.7H261.7z M261.7,155.7
			V153h4.3v2.7H261.7z M261.7,150.9v-2.7h4.3v2.7H261.7z M261.7,146.2v-2.7h4.3v2.7H261.7z M261.7,141.4v-2.7h4.3v2.7H261.7z
			 M261.7,136.6v-2.7h4.3v2.7H261.7z M261.7,131.9v-2.7h4.3v2.7H261.7z M261.7,127.1v-2.7h4.3v2.7H261.7z M261.7,122.3v-2.7h4.3v2.7
			H261.7z M261.7,117.5v-2.7h4.3v2.7H261.7z M261.7,112.8v-2.7h4.3v2.7H261.7z M261.7,108v-2.7h4.3v2.7H261.7z M261.7,103.2v-2.7
			h4.3v2.7H261.7z M261.7,98.5v-2.7h4.3v2.7H261.7z M261.7,93.7V91h4.3v2.7H261.7z M261.7,88.9v-2.7h4.3v2.7H261.7z M261.7,84.2
			v-2.7h4.3v2.7H261.7z M259.2,84.2h-4.3v-2.7h4.3V84.2z M252.4,84.2h-4.3v-2.7h4.3V84.2z M252.4,86.2v2.7h-4.3v-2.7H252.4z
			 M252.4,91v2.7h-4.3V91H252.4z M252.4,95.8v2.7h-4.3v-2.7H252.4z M252.4,100.6v2.7h-4.3v-2.7H252.4z M252.4,105.3v2.7h-4.3v-2.7
			H252.4z M252.4,110.1v2.7h-4.3v-2.7H252.4z M252.4,114.9v2.7h-4.3v-2.7H252.4z M252.4,119.6v2.7h-4.3v-2.7H252.4z M252.4,124.4
			v2.7h-4.3v-2.7H252.4z M252.4,129.2v2.7h-4.3v-2.7H252.4z M252.4,133.9v2.7h-4.3v-2.7H252.4z M252.4,138.7v2.7h-4.3v-2.7H252.4z
			 M252.4,143.5v2.7h-4.3v-2.7H252.4z M252.4,148.3v2.7h-4.3v-2.7H252.4z M252.4,153v2.7h-4.3V153H252.4z M252.4,157.8v2.7h-4.3
			v-2.7H252.4z M252.4,162.6v2.7h-4.3v-2.7H252.4z M252.4,167.3v2.7h-4.3v-2.7H252.4z M254.9,167.3h4.3v2.7h-4.3V167.3z
			 M261.7,167.3h4.3v2.7h-4.3V167.3z M268.5,167.3h4.3v2.7h-4.3V167.3z M268.5,165.2v-2.7h4.3v2.7H268.5z M268.5,160.5v-2.7h4.3v2.7
			H268.5z M268.5,155.7V153h4.3v2.7H268.5z M268.5,150.9v-2.7h4.3v2.7H268.5z M268.5,146.2v-2.7h4.3v2.7H268.5z M268.5,141.4v-2.7
			h4.3v2.7H268.5z M268.5,136.6v-2.7h4.3v2.7H268.5z M268.5,131.9v-2.7h4.3v2.7H268.5z M268.5,127.1v-2.7h4.3v2.7H268.5z
			 M268.5,122.3v-2.7h4.3v2.7H268.5z M268.5,117.5v-2.7h4.3v2.7H268.5z M268.5,112.8v-2.7h4.3v2.7H268.5z M268.5,108v-2.7h4.3v2.7
			H268.5z M268.5,103.2v-2.7h4.3v2.7H268.5z M268.5,98.5v-2.7h4.3v2.7H268.5z M268.5,93.7V91h4.3v2.7H268.5z M268.5,88.9v-2.7h4.3
			v2.7H268.5z M268.5,84.2v-2.7h4.3v2.7H268.5z M268.5,79.4v-2.7h4.3v2.7H268.5z M266,79.4h-4.3v-2.7h4.3V79.4z M259.2,79.4h-4.3
			v-2.7h4.3V79.4z M252.4,79.4h-4.3v-2.7h4.3V79.4z M245.6,79.4h-4.3v-2.7h4.3V79.4z M245.6,81.5v2.7h-4.3v-2.7H245.6z M245.6,86.2
			v2.7h-4.3v-2.7H245.6z M245.6,91v2.7h-4.3V91H245.6z M245.6,95.8v2.7h-4.3v-2.7H245.6z M245.6,100.6v2.7h-4.3v-2.7H245.6z
			 M245.6,105.3v2.7h-4.3v-2.7H245.6z M245.6,110.1v2.7h-4.3v-2.7H245.6z M245.6,114.9v2.7h-4.3v-2.7H245.6z M245.6,119.6v2.7h-4.3
			v-2.7H245.6z M245.6,124.4v2.7h-4.3v-2.7H245.6z M245.6,129.2v2.7h-4.3v-2.7H245.6z M245.6,133.9v2.7h-4.3v-2.7H245.6z
			 M245.6,138.7v2.7h-4.3v-2.7H245.6z M245.6,143.5v2.7h-4.3v-2.7H245.6z M245.6,148.3v2.7h-4.3v-2.7H245.6z M245.6,153v2.7h-4.3
			V153H245.6z M245.6,157.8v2.7h-4.3v-2.7H245.6z M245.6,162.6v2.7h-4.3v-2.7H245.6z M245.6,167.3v2.7h-4.3v-2.7H245.6z
			 M245.6,172.1v2.7h-4.3v-2.7H245.6z M248.1,172.1h4.3v2.7h-4.3V172.1z M254.9,172.1h4.3v2.7h-4.3V172.1z M261.7,172.1h4.3v2.7
			h-4.3V172.1z M268.5,172.1h4.3v2.7h-4.3V172.1z M275.3,172.1h4.3v2.7h-4.3V172.1z M275.3,170v-2.7h4.3v2.7H275.3z M275.3,165.2
			v-2.7h4.3v2.7H275.3z M275.3,160.5v-2.7h4.3v2.7H275.3z M275.3,155.7V153h4.3v2.7H275.3z M275.3,150.9v-2.7h4.3v2.7H275.3z
			 M275.3,146.2v-2.7h4.3v2.7H275.3z M275.3,141.4v-2.7h4.3v2.7H275.3z M275.3,136.6v-2.7h4.3v2.7H275.3z M275.3,131.9v-2.7h4.3v2.7
			H275.3z M275.3,127.1v-2.7h4.3v2.7H275.3z M275.3,122.3v-2.7h4.3v2.7H275.3z M275.3,117.5v-2.7h4.3v2.7H275.3z M275.3,112.8v-2.7
			h4.3v2.7H275.3z M275.3,108v-2.7h4.3v2.7H275.3z M275.3,103.2v-2.7h4.3v2.7H275.3z M275.3,98.5v-2.7h4.3v2.7H275.3z M275.3,93.7
			V91h4.3v2.7H275.3z M275.3,88.9v-2.7h4.3v2.7H275.3z M275.3,84.2v-2.7h4.3v2.7H275.3z M275.3,79.4v-2.7h4.3v2.7H275.3z
			 M272.9,71.9v2.7h-4.3v-2.7H272.9z M266,71.9v2.7h-4.3v-2.7H266z M259.2,71.9v2.7h-4.3v-2.7H259.2z M252.4,71.9v2.7h-4.3v-2.7
			H252.4z M245.6,71.9v2.7h-4.3v-2.7H245.6z M234.4,71.9h4.3v2.7h-4.3V71.9z M234.4,76.7h4.3v2.7h-4.3V76.7z M234.4,81.5h4.3v2.7
			h-4.3V81.5z M234.4,86.2h4.3v2.7h-4.3V86.2z M234.4,91h4.3v2.7h-4.3V91z M234.4,95.8h4.3v2.7h-4.3V95.8z M234.4,100.6h4.3v2.7
			h-4.3V100.6z M234.4,105.3h4.3v2.7h-4.3V105.3z M234.4,110.1h4.3v2.7h-4.3V110.1z M234.4,114.9h4.3v2.7h-4.3V114.9z M234.4,119.6
			h4.3v2.7h-4.3V119.6z M234.4,124.4h4.3v2.7h-4.3V124.4z M234.4,129.2h4.3v2.7h-4.3V129.2z M234.4,133.9h4.3v2.7h-4.3V133.9z
			 M234.4,138.7h4.3v2.7h-4.3V138.7z M234.4,143.5h4.3v2.7h-4.3V143.5z M234.4,148.3h4.3v2.7h-4.3V148.3z M234.4,153h4.3v2.7h-4.3
			V153z M234.4,157.8h4.3v2.7h-4.3V157.8z M234.4,162.6h4.3v2.7h-4.3V162.6z M234.4,167.3h4.3v2.7h-4.3V167.3z M234.4,172.1h4.3v2.7
			h-4.3V172.1z M234.4,179.6v-2.7h4.3v2.7H234.4z M241.2,179.6v-2.7h4.3v2.7H241.2z M248.1,179.6v-2.7h4.3v2.7H248.1z M254.9,179.6
			v-2.7h4.3v2.7H254.9z M261.7,179.6v-2.7h4.3v2.7H261.7z M268.5,179.6v-2.7h4.3v2.7H268.5z M275.3,179.6v-2.7h4.3v2.7H275.3z
			 M286.5,179.6h-4.3v-2.7h4.3V179.6z M286.5,174.8h-4.3v-2.7h4.3V174.8z M286.5,170h-4.3v-2.7h4.3V170z M286.5,165.2h-4.3v-2.7h4.3
			V165.2z M286.5,160.5h-4.3v-2.7h4.3V160.5z M286.5,155.7h-4.3V153h4.3V155.7z M286.5,150.9h-4.3v-2.7h4.3V150.9z M286.5,146.2
			h-4.3v-2.7h4.3V146.2z M286.5,141.4h-4.3v-2.7h4.3V141.4z M286.5,136.6h-4.3v-2.7h4.3V136.6z M286.5,131.9h-4.3v-2.7h4.3V131.9z
			 M286.5,127.1h-4.3v-2.7h4.3V127.1z M286.5,122.3h-4.3v-2.7h4.3V122.3z M286.5,117.5h-4.3v-2.7h4.3V117.5z M286.5,112.8h-4.3v-2.7
			h4.3V112.8z M286.5,108h-4.3v-2.7h4.3V108z M286.5,103.2h-4.3v-2.7h4.3V103.2z M286.5,98.5h-4.3v-2.7h4.3V98.5z M286.5,93.7h-4.3
			V91h4.3V93.7z M286.5,88.9h-4.3v-2.7h4.3V88.9z M286.5,84.2h-4.3v-2.7h4.3V84.2z M286.5,79.4h-4.3v-2.7h4.3V79.4z M286.5,74.6
			h-4.3v-2.7h4.3V74.6z" class="st5"></path>
	</g>
	<g>
		<g>
			<linearGradient y2="131.4639" x2="150.136" y1="131.4639" x1="83.2572" gradientUnits="userSpaceOnUse" id="SVGID_5_">
				<stop style="stop-color:#2A80D4" offset="0"></stop>
				<stop style="stop-color:#7BC5F2" offset="1"></stop>
			</linearGradient>
			<polygon points="117.3,111.7 83.3,131.5 117.5,151.2 150.1,131.5" class="st6"></polygon>
			<linearGradient y2="143.9527" x2="117.5062" y1="143.9527" x1="83.2572" gradientUnits="userSpaceOnUse" id="SVGID_6_">
				<stop style="stop-color:#2A80D4" offset="0"></stop>
				<stop style="stop-color:#7BC5F2" offset="1"></stop>
			</linearGradient>
			<polygon points="83.3,131.5 83.3,137.6 117.5,156.4 117.5,151.2" class="st7"></polygon>
			<linearGradient y2="143.9526" x2="150.136" y1="143.9526" x1="117.5062" gradientUnits="userSpaceOnUse" id="SVGID_7_">
				<stop style="stop-color:#2A80D4" offset="0"></stop>
				<stop style="stop-color:#7BC5F2" offset="1"></stop>
			</linearGradient>
			<polygon points="117.5,151.2 150.1,131.5 150.1,136.3 117.5,156.4" class="st8"></polygon>
		</g>
		<g>
			<linearGradient y2="120.3721" x2="116.6947" y1="80.8244" x1="116.6947" gradientUnits="userSpaceOnUse" id="SVGID_8_">
				<stop style="stop-color:#82E4E1" offset="0"></stop>
				<stop style="stop-color:#84CDF5;stop-opacity:0" offset="1"></stop>
			</linearGradient>
			<polygon points="117.3,80.8 83.3,100.6 117.5,120.4 150.1,100.6" class="st9"></polygon>
			<linearGradient y2="151.3037" x2="100.3798" y1="100.5984" x1="100.3798" gradientUnits="userSpaceOnUse" id="SVGID_9_">
				<stop style="stop-color:#82E4E1" offset="0"></stop>
				<stop style="stop-color:#84CDF5;stop-opacity:0" offset="1"></stop>
			</linearGradient>
			<polygon points="83.3,100.6 83.3,131.7 117.5,151.3 117.5,120.4" class="st10"></polygon>
			<linearGradient y2="151.3037" x2="133.8192" y1="100.5981" x1="133.8192" gradientUnits="userSpaceOnUse" id="SVGID_10_">
				<stop style="stop-color:#82E4E1" offset="0"></stop>
				<stop style="stop-color:#84CDF5;stop-opacity:0" offset="1"></stop>
			</linearGradient>
			<polygon points="117.5,120.4 150.1,100.6 150.1,131.1 117.5,151.3" class="st11"></polygon>
		</g>
		<g>
			<linearGradient y2="96.1112" x2="150.136" y1="96.1112" x1="83.2572" gradientUnits="userSpaceOnUse" id="SVGID_11_">
				<stop style="stop-color:#2A80D4" offset="0"></stop>
				<stop style="stop-color:#7BC5F2" offset="1"></stop>
			</linearGradient>
			<polygon points="117.3,76.3 83.3,96.1 117.5,115.9 150.1,96.1" class="st12"></polygon>
			<linearGradient y2="108.6" x2="117.5062" y1="108.6" x1="83.2572" gradientUnits="userSpaceOnUse" id="SVGID_12_">
				<stop style="stop-color:#2A80D4" offset="0"></stop>
				<stop style="stop-color:#7BC5F2" offset="1"></stop>
			</linearGradient>
			<polygon points="83.3,96.1 83.3,102.2 117.5,121.1 117.5,115.9" class="st13"></polygon>
			<linearGradient y2="108.5999" x2="150.136" y1="108.5999" x1="117.5062" gradientUnits="userSpaceOnUse" id="SVGID_13_">
				<stop style="stop-color:#2A80D4" offset="0"></stop>
				<stop style="stop-color:#7BC5F2" offset="1"></stop>
			</linearGradient>
			<polygon points="117.5,115.9 150.1,96.1 150.1,100.9 117.5,121.1" class="st14"></polygon>
		</g>
		
			<linearGradient gradientTransform="matrix(0.5 0.866 -0.6677 0.3855 296.1972 -67.176)" y2="298.1499" x2="72.2608" y1="298.1499" x1="71.1761" gradientUnits="userSpaceOnUse" id="SVGID_14_">
			<stop style="stop-color:#82E4E1" offset="0"></stop>
			<stop style="stop-color:#84CDF5" offset="1"></stop>
		</linearGradient>
		<polygon points="129.3,111.4 129.9,112.3 136.7,108.4 136.1,107.4" class="st15"></polygon>
		
			<linearGradient gradientTransform="matrix(0.5 0.866 -0.6677 0.3855 296.1972 -67.176)" y2="320.4743" x2="102.0715" y1="320.4743" x1="100.9869" gradientUnits="userSpaceOnUse" id="SVGID_15_">
			<stop style="stop-color:#82E4E1" offset="0"></stop>
			<stop style="stop-color:#84CDF5" offset="1"></stop>
		</linearGradient>
		<polygon points="129.3,145.8 129.9,146.7 136.7,142.8 136.1,141.9" class="st16"></polygon>
	</g>
	
		<linearGradient gradientTransform="matrix(0 1 -1 0 570.7668 -191.7847)" y2="378.6966" x2="321.7052" y1="378.6966" x1="284.0282" gradientUnits="userSpaceOnUse" id="SVGID_16_">
		<stop style="stop-color:#82E4E1" offset="0"></stop>
		<stop style="stop-color:#84CDF5" offset="1"></stop>
	</linearGradient>
	<polygon points="190.1,129.9 190.1,92.2 194,92.2 194,129.9" class="st17"></polygon>
	<g>
		<g>
			<linearGradient y2="226.0574" x2="81.4918" y1="226.0574" x1="2.332992e-03" gradientUnits="userSpaceOnUse" id="SVGID_17_">
				<stop style="stop-color:#2A80D4" offset="0"></stop>
				<stop style="stop-color:#7BC5F2" offset="1"></stop>
			</linearGradient>
			<polygon points="41.5,202 0,226.1 41.7,250.2 81.5,226.1" class="st18"></polygon>
			<linearGradient y2="241.2746" x2="41.7336" y1="241.2746" x1="2.332992e-03" gradientUnits="userSpaceOnUse" id="SVGID_18_">
				<stop style="stop-color:#2A80D4" offset="0"></stop>
				<stop style="stop-color:#7BC5F2" offset="1"></stop>
			</linearGradient>
			<polygon points="0,226.1 0,233.5 41.7,256.5 41.7,250.2" class="st19"></polygon>
			<linearGradient y2="241.2744" x2="81.4918" y1="241.2744" x1="41.7336" gradientUnits="userSpaceOnUse" id="SVGID_19_">
				<stop style="stop-color:#2A80D4" offset="0"></stop>
				<stop style="stop-color:#7BC5F2" offset="1"></stop>
			</linearGradient>
			<polygon points="41.7,250.2 81.5,226.1 81.5,231.9 41.7,256.5" class="st20"></polygon>
		</g>
		<g>
			<linearGradient y2="212.5424" x2="40.7447" y1="164.3549" x1="40.7447" gradientUnits="userSpaceOnUse" id="SVGID_20_">
				<stop style="stop-color:#82E4E1" offset="0"></stop>
				<stop style="stop-color:#84CDF5;stop-opacity:0" offset="1"></stop>
			</linearGradient>
			<polygon points="41.5,164.4 0,188.4 41.7,212.5 81.5,188.4" class="st21"></polygon>
			<linearGradient y2="250.2315" x2="20.8656" y1="188.4488" x1="20.8656" gradientUnits="userSpaceOnUse" id="SVGID_21_">
				<stop style="stop-color:#82E4E1" offset="0"></stop>
				<stop style="stop-color:#84CDF5;stop-opacity:0" offset="1"></stop>
			</linearGradient>
			<polygon points="0,188.4 0,226.3 41.7,250.2 41.7,212.5" class="st22"></polygon>
			<linearGradient y2="250.2315" x2="61.6104" y1="188.4485" x1="61.6104" gradientUnits="userSpaceOnUse" id="SVGID_22_">
				<stop style="stop-color:#82E4E1" offset="0"></stop>
				<stop style="stop-color:#84CDF5;stop-opacity:0" offset="1"></stop>
			</linearGradient>
			<polygon points="41.7,212.5 81.5,188.4 81.5,225.7 41.7,250.2" class="st23"></polygon>
		</g>
		<g>
			<linearGradient y2="182.9813" x2="81.4918" y1="182.9813" x1="2.332992e-03" gradientUnits="userSpaceOnUse" id="SVGID_23_">
				<stop style="stop-color:#2A80D4" offset="0"></stop>
				<stop style="stop-color:#7BC5F2" offset="1"></stop>
			</linearGradient>
			<polygon points="41.5,158.9 0,183 41.7,207.1 81.5,183" class="st24"></polygon>
			<linearGradient y2="198.1986" x2="41.7336" y1="198.1986" x1="2.332992e-03" gradientUnits="userSpaceOnUse" id="SVGID_24_">
				<stop style="stop-color:#2A80D4" offset="0"></stop>
				<stop style="stop-color:#7BC5F2" offset="1"></stop>
			</linearGradient>
			<polygon points="0,183 0,190.4 41.7,213.4 41.7,207.1" class="st25"></polygon>
			<linearGradient y2="198.1984" x2="81.4918" y1="198.1984" x1="41.7336" gradientUnits="userSpaceOnUse" id="SVGID_25_">
				<stop style="stop-color:#2A80D4" offset="0"></stop>
				<stop style="stop-color:#7BC5F2" offset="1"></stop>
			</linearGradient>
			<polygon points="41.7,207.1 81.5,183 81.5,188.8 41.7,213.4" class="st26"></polygon>
		</g>
		
			<linearGradient gradientTransform="matrix(0.5 0.866 -0.6677 0.3855 296.1972 -67.176)" y2="437.7534" x2="114.0182" y1="437.7534" x1="112.6966" gradientUnits="userSpaceOnUse" id="SVGID_26_">
			<stop style="stop-color:#82E4E1" offset="0"></stop>
			<stop style="stop-color:#84CDF5" offset="1"></stop>
		</linearGradient>
		<polygon points="56.1,201.6 56.8,202.7 65.1,197.9 64.4,196.8" class="st27"></polygon>
		
			<linearGradient gradientTransform="matrix(0.5 0.866 -0.6677 0.3855 296.1972 -67.176)" y2="464.9548" x2="150.3416" y1="464.9548" x1="149.02" gradientUnits="userSpaceOnUse" id="SVGID_27_">
			<stop style="stop-color:#82E4E1" offset="0"></stop>
			<stop style="stop-color:#84CDF5" offset="1"></stop>
		</linearGradient>
		<polygon points="56.1,243.5 56.8,244.6 65.1,239.9 64.4,238.7" class="st28"></polygon>
	</g>
	<linearGradient y2="181.0222" x2="110.6537" y1="181.0222" x1="41.7336" gradientUnits="userSpaceOnUse" id="SVGID_28_">
		<stop style="stop-color:#82E4E1" offset="0"></stop>
		<stop style="stop-color:#84CDF5" offset="1"></stop>
	</linearGradient>
	<rect height="3.9" width="68.9" class="st29" y="179.1" x="41.7"></rect>
	<g>
		<linearGradient y2="184.7145" x2="329.2144" y1="184.7145" x1="70.1808" gradientUnits="userSpaceOnUse" id="SVGID_29_">
			<stop style="stop-color:#89D4B8" offset="0"></stop>
			<stop style="stop-color:#EFF5F4" offset="1"></stop>
		</linearGradient>
		<path d="M319.7,207.7c0-0.2,0-0.4,0-0.7c0-22.9-16.6-41.9-38.3-45.7c-5.4-14-19-24-35-24c-2.5,0-5,0.3-7.4,0.7
			c-9.7-16.9-27.8-28.2-48.6-28.2c-20.1,0-37.7,10.6-47.6,26.5c-0.5,0-1.1,0-1.6,0c-28.8,0-52.1,23.3-52.1,52.1
			c0,4.4,0.5,8.6,1.6,12.7c-11.9,4-20.5,15.2-20.5,28.4c0,16.6,13.4,30,30,30h199c16.6,0,30-13.4,30-30
			C329.2,220.9,325.6,213.2,319.7,207.7z" class="st30"></path>
		<g>
			<path d="M82.7,216.8c-0.8-3.3-1.4-6.8-1.6-10.4c-5.3,4.4-9.1,10.6-10.4,17.7C74.1,220.8,78.2,218.3,82.7,216.8z" class="st31"></path>
			<path d="M328.7,224.1c-0.1-0.4-0.1-0.7-0.2-1.1c0,0,0,0.1,0,0.1c0,0.2,0,0.5,0,0.7
				C328.5,223.9,328.6,224,328.7,224.1z" class="st31"></path>
			<path d="M136.9,147.3c0.6,0,1.2,0,1.8,0c10.6-17.1,29.5-28.4,51.1-28.4c22.3,0,41.8,12.2,52.2,30.3
				c2.6-0.5,5.2-0.8,7.9-0.8c17.1,0,31.7,10.7,37.5,25.7c11.9,2.1,22.3,8.4,29.7,17.3c-5.5-15.5-19.1-27.1-35.6-30.1
				c-5.4-14-19-24-35-24c-2.5,0-5,0.3-7.4,0.7c-9.7-16.9-27.8-28.2-48.6-28.2c-20.1,0-37.7,10.6-47.6,26.5c-0.5,0-1.1,0-1.6,0
				c-21.8,0-40.4,13.4-48.2,32.3C103.2,155.6,119.1,147.3,136.9,147.3z" class="st31"></path>
		</g>
	</g>
	<g>
		<g>
			<linearGradient y2="245.6055" x2="324.2041" y1="245.6055" x1="262.8303" gradientUnits="userSpaceOnUse" id="SVGID_30_">
				<stop style="stop-color:#2A80D4" offset="0"></stop>
				<stop style="stop-color:#7BC5F2" offset="1"></stop>
			</linearGradient>
			<polygon points="294.1,227.5 262.8,245.6 294.3,263.8 324.2,245.6" class="st32"></polygon>
			<linearGradient y2="257.0663" x2="294.2602" y1="257.0663" x1="262.8303" gradientUnits="userSpaceOnUse" id="SVGID_31_">
				<stop style="stop-color:#2A80D4" offset="0"></stop>
				<stop style="stop-color:#7BC5F2" offset="1"></stop>
			</linearGradient>
			<polygon points="262.8,245.6 262.8,251.2 294.3,268.5 294.3,263.8" class="st33"></polygon>
			<linearGradient y2="257.0662" x2="324.2041" y1="257.0662" x1="294.2602" gradientUnits="userSpaceOnUse" id="SVGID_32_">
				<stop style="stop-color:#2A80D4" offset="0"></stop>
				<stop style="stop-color:#7BC5F2" offset="1"></stop>
			</linearGradient>
			<polygon points="294.3,263.8 324.2,245.6 324.2,250 294.3,268.5" class="st34"></polygon>
		</g>
		<g>
			<linearGradient y2="235.4267" x2="293.5154" y1="199.1343" x1="293.5154" gradientUnits="userSpaceOnUse" id="SVGID_33_">
				<stop style="stop-color:#82E4E1" offset="0"></stop>
				<stop style="stop-color:#84CDF5;stop-opacity:0" offset="1"></stop>
			</linearGradient>
			<polygon points="294.1,199.1 262.8,217.3 294.3,235.4 324.2,217.3" class="st35"></polygon>
			<linearGradient y2="263.8123" x2="278.5435" y1="217.2806" x1="278.5435" gradientUnits="userSpaceOnUse" id="SVGID_34_">
				<stop style="stop-color:#82E4E1" offset="0"></stop>
				<stop style="stop-color:#84CDF5;stop-opacity:0" offset="1"></stop>
			</linearGradient>
			<polygon points="262.8,217.3 262.8,245.8 294.3,263.8 294.3,235.4" class="st36"></polygon>
			<linearGradient y2="263.8123" x2="309.2304" y1="217.2804" x1="309.2304" gradientUnits="userSpaceOnUse" id="SVGID_35_">
				<stop style="stop-color:#82E4E1" offset="0"></stop>
				<stop style="stop-color:#84CDF5;stop-opacity:0" offset="1"></stop>
			</linearGradient>
			<polygon points="294.3,235.4 324.2,217.3 324.2,245.3 294.3,263.8" class="st37"></polygon>
		</g>
		<g>
			<linearGradient y2="213.1628" x2="324.2041" y1="213.1628" x1="262.8303" gradientUnits="userSpaceOnUse" id="SVGID_36_">
				<stop style="stop-color:#2A80D4" offset="0"></stop>
				<stop style="stop-color:#7BC5F2" offset="1"></stop>
			</linearGradient>
			<polygon points="294.1,195 262.8,213.2 294.3,231.3 324.2,213.2" class="st38"></polygon>
			<linearGradient y2="224.6236" x2="294.2602" y1="224.6236" x1="262.8303" gradientUnits="userSpaceOnUse" id="SVGID_37_">
				<stop style="stop-color:#2A80D4" offset="0"></stop>
				<stop style="stop-color:#7BC5F2" offset="1"></stop>
			</linearGradient>
			<polygon points="262.8,213.2 262.8,218.8 294.3,236.1 294.3,231.3" class="st39"></polygon>
			<linearGradient y2="224.6235" x2="324.2041" y1="224.6235" x1="294.2602" gradientUnits="userSpaceOnUse" id="SVGID_38_">
				<stop style="stop-color:#2A80D4" offset="0"></stop>
				<stop style="stop-color:#7BC5F2" offset="1"></stop>
			</linearGradient>
			<polygon points="294.3,231.3 324.2,213.2 324.2,217.6 294.3,236.1" class="st40"></polygon>
		</g>
		
			<linearGradient gradientTransform="matrix(0.5 0.866 -0.6677 0.3855 296.1972 -67.176)" y2="176.2115" x2="260.3451" y1="176.2115" x1="259.3497" gradientUnits="userSpaceOnUse" id="SVGID_39_">
			<stop style="stop-color:#82E4E1" offset="0"></stop>
			<stop style="stop-color:#84CDF5" offset="1"></stop>
		</linearGradient>
		<polygon points="305.1,227.2 305.6,228 311.8,224.4 311.3,223.6" class="st41"></polygon>
		
			<linearGradient gradientTransform="matrix(0.5 0.866 -0.6677 0.3855 296.1972 -67.176)" y2="196.6983" x2="287.702" y1="196.6983" x1="286.7067" gradientUnits="userSpaceOnUse" id="SVGID_40_">
			<stop style="stop-color:#82E4E1" offset="0"></stop>
			<stop style="stop-color:#84CDF5" offset="1"></stop>
		</linearGradient>
		<polygon points="305.1,258.7 305.6,259.6 311.8,256 311.3,255.1" class="st42"></polygon>
	</g>
	<linearGradient y2="94.2028" x2="194.0295" y1="94.2028" x1="119.8633" gradientUnits="userSpaceOnUse" id="SVGID_41_">
		<stop style="stop-color:#82E4E1" offset="0"></stop>
		<stop style="stop-color:#84CDF5" offset="1"></stop>
	</linearGradient>
	<rect height="3.9" width="74.2" class="st43" y="92.2" x="119.9"></rect>
	<linearGradient y2="94.0075" x2="122.2223" y1="94.0075" x1="117.5043" gradientUnits="userSpaceOnUse" id="SVGID_42_">
		<stop style="stop-color:#82E4E1" offset="0"></stop>
		<stop style="stop-color:#84CDF5" offset="1"></stop>
	</linearGradient>
	<circle r="2.4" cy="94" cx="119.9" class="st44"></circle>
	<linearGradient y2="181.0222" x2="43.1061" y1="181.0222" x1="38.3881" gradientUnits="userSpaceOnUse" id="SVGID_43_">
		<stop style="stop-color:#82E4E1" offset="0"></stop>
		<stop style="stop-color:#84CDF5" offset="1"></stop>
	</linearGradient>
	<circle r="2.4" cy="181" cx="40.7" class="st45"></circle>
	<linearGradient y2="257.3738" x2="136.3625" y1="257.3738" x1="98.65" gradientUnits="userSpaceOnUse" id="SVGID_44_">
		<stop style="stop-color:#647ACC" offset="0"></stop>
		<stop style="stop-color:#A6E1E9" offset="0.995"></stop>
	</linearGradient>
	<circle r="18.9" cy="257.4" cx="117.5" class="st46"></circle>
	<linearGradient y2="265.0146" x2="254.9327" y1="265.0146" x1="216.1147" gradientUnits="userSpaceOnUse" id="SVGID_45_">
		<stop style="stop-color:#647ACC" offset="0"></stop>
		<stop style="stop-color:#A6E1E9" offset="0.995"></stop>
	</linearGradient>
	<circle r="19.4" cy="265" cx="235.5" class="st47"></circle>
	<linearGradient y2="149.3479" x2="303.6969" y1="149.3479" x1="270.5238" gradientUnits="userSpaceOnUse" id="SVGID_46_">
		<stop style="stop-color:#647ACC" offset="0"></stop>
		<stop style="stop-color:#A6E1E9" offset="0.995"></stop>
	</linearGradient>
	<circle r="16.6" cy="149.3" cx="287.1" class="st48"></circle>
	<linearGradient y2="79.3898" x2="219.6407" y1="79.3898" x1="191.7793" gradientUnits="userSpaceOnUse" id="SVGID_47_">
		<stop style="stop-color:#647ACC" offset="0"></stop>
		<stop style="stop-color:#A6E1E9" offset="0.995"></stop>
	</linearGradient>
	<circle r="13.9" cy="79.4" cx="205.7" class="st49"></circle>
	<g>
		<g>
			<linearGradient y2="278.8385" x2="203.4362" y1="278.8385" x1="149.041" gradientUnits="userSpaceOnUse" id="SVGID_48_">
				<stop style="stop-color:#EF8F6D" offset="0"></stop>
				<stop style="stop-color:#EF8CA8" offset="1"></stop>
			</linearGradient>
			<path d="M172.7,252.6l-23.3,49c-1.2,2.6,0.7,5.6,3.5,5.6h46.6c2.9,0,4.8-3,3.5-5.6l-23.3-49
				C178.4,249.7,174.1,249.7,172.7,252.6z" class="st50"></path>
		</g>
		<linearGradient y2="271.438" x2="187.9764" y1="271.438" x1="160.176" gradientUnits="userSpaceOnUse" id="SVGID_49_">
			<stop style="stop-color:#92D7BB" offset="0"></stop>
			<stop style="stop-color:#EADC90" offset="1"></stop>
		</linearGradient>
		<polygon points="160.2,279 188,269.9 185.1,263.9 164.1,270.7" class="st51"></polygon>
		<linearGradient y2="286.9888" x2="194.2145" y1="286.9888" x1="151.7021" gradientUnits="userSpaceOnUse" id="SVGID_50_">
			<stop style="stop-color:#92D7BB" offset="0"></stop>
			<stop style="stop-color:#EADC90" offset="1"></stop>
		</linearGradient>
		<path d="M194.2,283.1l-2.9-6.1l-35.8,11.7l-3.6,7.6c-0.1,0.2-0.2,0.5-0.3,0.7L194.2,283.1z" class="st52"></path>
		<linearGradient y2="298.701" x2="200.4525" y1="298.701" x1="153.1728" gradientUnits="userSpaceOnUse" id="SVGID_51_">
			<stop style="stop-color:#92D7BB" offset="0"></stop>
			<stop style="stop-color:#EADC90" offset="1"></stop>
		</linearGradient>
		<path d="M197.6,290.1l-44.4,14.5c1.4,1.6,3.4,2.6,5.7,2.6h7.7l33.8-11.1L197.6,290.1z" class="st53"></path>
	</g>
</g>
</svg>
