<svg xml:space="preserve" style="enable-background:new 0 0 400 400;" viewBox="0 0 400 400" y="0px" x="0px" xmlns:xlink="http://www.w3.org/1999/xlink" xmlns="http://www.w3.org/2000/svg" id="图层_1" version="1.1">
<style type="text/css">
	.st0{fill:url(#SVGID_1_);}
	.st1{fill:url(#SVGID_2_);}
	.st2{fill:url(#SVGID_3_);}
	.st3{fill:url(#SVGID_4_);}
	.st4{fill:url(#SVGID_5_);}
	.st5{fill:url(#SVGID_6_);}
	.st6{fill:url(#SVGID_7_);}
	.st7{fill:url(#SVGID_8_);}
	.st8{fill:url(#SVGID_9_);}
	.st9{fill:#9FD8E2;}
	.st10{fill:#6EBCCE;}
	.st11{fill:#B8D8D4;}
	.st12{fill:url(#SVGID_10_);}
	.st13{fill:url(#SVGID_11_);}
	.st14{fill:url(#SVGID_12_);}
	.st15{fill:#93B28A;}
	.st16{fill:url(#SVGID_13_);}
	.st17{fill:#FFFFFF;}
	.st18{fill:url(#SVGID_14_);}
	.st19{fill:url(#SVGID_15_);}
	.st20{fill:url(#SVGID_16_);}
	.st21{fill:url(#SVGID_17_);}
	.st22{fill:#D3E1E5;}
	.st23{fill:#D8CB98;}
	.st24{fill:url(#SVGID_18_);}
	.st25{fill:url(#SVGID_19_);}
</style>
<g>
	<g>
		<linearGradient y2="337.4113" x2="174.1634" y1="252.0812" x1="174.1634" gradientUnits="userSpaceOnUse" id="SVGID_1_">
			<stop style="stop-color:#8289E1" offset="0"></stop>
			<stop style="stop-color:#84CDF5" offset="1"></stop>
		</linearGradient>
		<path d="M36,283C17.8,292-20,309,13.2,322.1s79.3-0.7,123.7,6.5s53.6,15.6,94,0s57.1-0.7,67.7-15.6
			c10.6-15,88.8-15.3,24.9-49S43.9,279,36,283z" class="st0"></path>
	</g>
	<g>
		<linearGradient y2="143.4184" x2="218.2498" y1="143.4184" x1="174.1634" gradientUnits="userSpaceOnUse" id="SVGID_2_">
			<stop style="stop-color:#64B1D6" offset="0"></stop>
			<stop style="stop-color:#C4EBE9" offset="0.995"></stop>
		</linearGradient>
		<path d="M174.2,224.2c0,0,0-94.8,0-103.2s25.2-44.1,37-57.7c11.8-13.6,5.4,160.9,5.4,160.9H174.2z" class="st1"></path>
		<g>
			<linearGradient y2="119.0845" x2="207.9394" y1="119.0845" x1="184.4737" gradientUnits="userSpaceOnUse" id="SVGID_3_">
				<stop style="stop-color:#64B1D6" offset="0"></stop>
				<stop style="stop-color:#C4EBE9" offset="0.995"></stop>
			</linearGradient>
			<rect height="4.9" width="23.5" class="st2" y="116.6" x="184.5"></rect>
			<linearGradient y2="133.0043" x2="207.9394" y1="133.0043" x1="184.4737" gradientUnits="userSpaceOnUse" id="SVGID_4_">
				<stop style="stop-color:#64B1D6" offset="0"></stop>
				<stop style="stop-color:#C4EBE9" offset="0.995"></stop>
			</linearGradient>
			<rect height="4.9" width="23.5" class="st3" y="130.6" x="184.5"></rect>
			<linearGradient y2="146.9242" x2="207.9394" y1="146.9242" x1="184.4737" gradientUnits="userSpaceOnUse" id="SVGID_5_">
				<stop style="stop-color:#64B1D6" offset="0"></stop>
				<stop style="stop-color:#C4EBE9" offset="0.995"></stop>
			</linearGradient>
			<rect height="4.9" width="23.5" class="st4" y="144.5" x="184.5"></rect>
			<linearGradient y2="160.844" x2="207.9394" y1="160.844" x1="184.4737" gradientUnits="userSpaceOnUse" id="SVGID_6_">
				<stop style="stop-color:#64B1D6" offset="0"></stop>
				<stop style="stop-color:#C4EBE9" offset="0.995"></stop>
			</linearGradient>
			<rect height="4.9" width="23.5" class="st5" y="158.4" x="184.5"></rect>
		</g>
	</g>
	<linearGradient y2="84.406" x2="272.2454" y1="294.7463" x1="272.2454" gradientUnits="userSpaceOnUse" id="SVGID_7_">
		<stop style="stop-color:#73BFCC" offset="0"></stop>
		<stop style="stop-color:#D9EBE9" offset="0.995"></stop>
	</linearGradient>
	<rect height="210.3" width="55.1" class="st6" y="84.4" x="244.7"></rect>
	<linearGradient y2="119.0845" x2="261.6359" y1="149.7203" x1="261.6359" gradientUnits="userSpaceOnUse" id="SVGID_8_">
		<stop style="stop-color:#73BFCC" offset="0"></stop>
		<stop style="stop-color:#D9EBE9" offset="0.995"></stop>
	</linearGradient>
	<rect height="30.6" width="23.5" class="st7" y="119.1" x="249.9"></rect>
	<linearGradient y2="119.0845" x2="288.8369" y1="149.7203" x1="288.8369" gradientUnits="userSpaceOnUse" id="SVGID_9_">
		<stop style="stop-color:#73BFCC" offset="0"></stop>
		<stop style="stop-color:#D9EBE9" offset="0.995"></stop>
	</linearGradient>
	<rect height="30.6" width="11.5" class="st8" y="119.1" x="283.1"></rect>
	<g>
		<g>
			<rect height="1.7" width="21.7" class="st9" y="124" x="250.8"></rect>
		</g>
		<g>
			<rect height="1.7" width="21.7" class="st9" y="129.4" x="250.8"></rect>
		</g>
	</g>
	<g>
		<g>
			<rect height="1.7" width="8.2" class="st9" y="124" x="284.8"></rect>
		</g>
		<g>
			<rect height="1.7" width="8.2" class="st9" y="129.4" x="284.8"></rect>
		</g>
	</g>
	<g>
		<g>
			<rect height="30.6" width="23.5" class="st10" y="163.1" x="249.9"></rect>
		</g>
		<g>
			<rect height="30.6" width="11.5" class="st10" y="163.1" x="283.1"></rect>
		</g>
		<g>
			<g>
				<rect height="1.7" width="21.7" class="st9" y="168" x="250.8"></rect>
			</g>
			<g>
				<rect height="1.7" width="21.7" class="st9" y="173.3" x="250.8"></rect>
			</g>
		</g>
		<g>
			<g>
				<rect height="1.7" width="8.2" class="st9" y="168" x="284.8"></rect>
			</g>
			<g>
				<rect height="1.7" width="8.2" class="st9" y="173.3" x="284.8"></rect>
			</g>
		</g>
	</g>
	<g>
		<g>
			<rect height="30.6" width="23.5" class="st10" y="207.1" x="249.9"></rect>
		</g>
		<g>
			<rect height="30.6" width="11.5" class="st10" y="207.1" x="283.1"></rect>
		</g>
		<g>
			<g>
				<rect height="1.7" width="21.7" class="st9" y="212" x="250.8"></rect>
			</g>
			<g>
				<rect height="1.7" width="21.7" class="st9" y="217.3" x="250.8"></rect>
			</g>
		</g>
		<g>
			<g>
				<rect height="1.7" width="8.2" class="st9" y="212" x="284.8"></rect>
			</g>
			<g>
				<rect height="1.7" width="8.2" class="st9" y="217.3" x="284.8"></rect>
			</g>
		</g>
	</g>
	<rect height="5.4" width="61.2" class="st11" y="92.8" x="241.7"></rect>
	<linearGradient y2="134.4024" x2="139.6132" y1="264.373" x1="139.6132" gradientUnits="userSpaceOnUse" id="SVGID_10_">
		<stop style="stop-color:#6986D6" offset="0"></stop>
		<stop style="stop-color:#A8D3D7" offset="0.995"></stop>
	</linearGradient>
	<rect height="130" width="52.7" class="st12" y="134.4" x="113.3"></rect>
	<g>
		<linearGradient y2="189.5761" x2="113.2856" y1="189.5761" x1="33.7629" gradientUnits="userSpaceOnUse" id="SVGID_11_">
			<stop style="stop-color:#E5CBA8" offset="0"></stop>
			<stop style="stop-color:#D1E3DB" offset="0.995"></stop>
		</linearGradient>
		<rect height="210.3" width="79.5" class="st13" y="84.4" x="33.8"></rect>
		<g>
			<g>
				<rect height="30.6" width="33.9" class="st10" y="119.1" x="41.3"></rect>
			</g>
			<g>
				<rect height="30.6" width="16.6" class="st10" y="119.1" x="89.2"></rect>
			</g>
			<g>
				<g>
					<rect height="1.7" width="31.3" class="st9" y="124" x="42.6"></rect>
				</g>
				<g>
					<rect height="1.7" width="31.3" class="st9" y="129.4" x="42.6"></rect>
				</g>
			</g>
			<g>
				<g>
					<rect height="1.7" width="11.8" class="st9" y="124" x="91.6"></rect>
				</g>
				<g>
					<rect height="1.7" width="11.8" class="st9" y="129.4" x="91.6"></rect>
				</g>
			</g>
		</g>
		<g>
			<g>
				<rect height="30.6" width="33.9" class="st10" y="163.1" x="41.3"></rect>
			</g>
			<g>
				<rect height="30.6" width="16.6" class="st10" y="163.1" x="89.2"></rect>
			</g>
			<g>
				<g>
					<rect height="1.7" width="31.3" class="st9" y="168" x="42.6"></rect>
				</g>
				<g>
					<rect height="1.7" width="31.3" class="st9" y="173.3" x="42.6"></rect>
				</g>
			</g>
			<g>
				<g>
					<rect height="1.7" width="11.8" class="st9" y="168" x="91.6"></rect>
				</g>
				<g>
					<rect height="1.7" width="11.8" class="st9" y="173.3" x="91.6"></rect>
				</g>
			</g>
		</g>
		<g>
			<g>
				<rect height="30.6" width="33.9" class="st10" y="207.1" x="41.3"></rect>
			</g>
			<g>
				<rect height="30.6" width="16.6" class="st10" y="207.1" x="89.2"></rect>
			</g>
			<g>
				<g>
					<rect height="1.7" width="31.3" class="st9" y="212" x="42.6"></rect>
				</g>
				<g>
					<rect height="1.7" width="31.3" class="st9" y="217.3" x="42.6"></rect>
				</g>
			</g>
			<g>
				<g>
					<rect height="1.7" width="11.8" class="st9" y="212" x="91.6"></rect>
				</g>
				<g>
					<rect height="1.7" width="11.8" class="st9" y="217.3" x="91.6"></rect>
				</g>
			</g>
		</g>
	</g>
	<g>
		<linearGradient y2="226.7779" x2="400" y1="226.7779" x1="207.1128" gradientUnits="userSpaceOnUse" id="SVGID_12_">
			<stop style="stop-color:#99DB8D" offset="0"></stop>
			<stop style="stop-color:#D2BE9A" offset="1"></stop>
		</linearGradient>
		<path d="M221.4,248.7c39.1-37.2,23.5-43,76.3-68.4s50.8-17.6,74.3-27.4c22.6-9.4,46.9,33.2,5.9,62.6
			s-15.6,66.5-64.5,72.4s-101.7,23.5-105.6,7.8S221.4,248.7,221.4,248.7z" class="st14"></path>
		<g>
			<g>
				<path d="M223.9,288.6l-1.1-1.6c1.9-1.2,5.2-3.4,9.6-6.3c22.6-14.7,75.6-49.3,92-64c19.4-17.4,60.3-46.7,60.7-47
					l1.1,1.6c-0.4,0.3-41.2,29.5-60.5,46.9c-16.5,14.9-69.6,49.4-92.2,64.2C229.1,285.2,225.7,287.4,223.9,288.6z" class="st15"></path>
			</g>
			<g>
				<path d="M299.1,238.3l-0.2-1.9c0.4-0.1,42.6-5.2,50.2-9l0.9,1.7C342,233,300.8,238.1,299.1,238.3z" class="st15"></path>
			</g>
			<g>
				
					<rect height="2" width="47.6" class="st15" transform="matrix(0.9512 -0.3086 0.3086 0.9512 -42.8561 121.9093)" y="195.5" x="340.2"></rect>
			</g>
			<g>
				<path d="M242.4,276.3l0-2c14.1-0.1,51.7-0.7,56.1-3.1l0.9,1.7C293.8,276,247.6,276.3,242.4,276.3z" class="st15"></path>
			</g>
			<g>
				<path d="M326,217.6l-1.9-0.2c0.5-4.4,5.2-42.7,15.3-46.7l0.7,1.8C332.5,175.4,327.3,206,326,217.6z" class="st15"></path>
			</g>
		</g>
	</g>
	<g>
		<linearGradient y2="233.7484" x2="307.3621" y1="233.7484" x1="75.802" gradientUnits="userSpaceOnUse" id="SVGID_13_">
			<stop style="stop-color:#647ACC" offset="0"></stop>
			<stop style="stop-color:#A6E1E9" offset="0.995"></stop>
		</linearGradient>
		<path d="M303.4,308.4H79.8c-2.2,0-4-1.8-4-4V163.1c0-2.2,1.8-4,4-4h223.6c2.2,0,4,1.8,4,4v141.3
			C307.4,306.6,305.6,308.4,303.4,308.4z" class="st16"></path>
		<path d="M294.6,301.2h-206c-2.2,0-4-1.8-4-4V170.3c0-2.2,1.8-4,4-4h206c2.2,0,4,1.8,4,4v126.9
			C298.6,299.4,296.8,301.2,294.6,301.2z" class="st17"></path>
		<g>
			<linearGradient y2="215.7745" x2="156.7936" y1="215.7745" x1="128.9281" gradientUnits="userSpaceOnUse" id="SVGID_14_">
				<stop style="stop-color:#2D375C" offset="0"></stop>
				<stop style="stop-color:#A6E1E9" offset="0.995"></stop>
			</linearGradient>
			<path d="M156.8,219.9v2.1h-13.4c-1.9,4.1-5.5,7-12.7,8.6c-0.3-0.7-0.8-1.6-1.4-2.1c6.2-1.3,9.5-3.4,11.3-6.5h-11.6
				v-2.1h12.6c1-3,1.2-6.7,1.3-11.3h2.5c-0.1,4.4-0.4,8.1-1.3,11.3H156.8z M131.9,211.3h-2.4v-6.6h12.6c-0.4-1-1-2.2-1.6-3.2
				l2.4-0.7c0.8,1.2,1.7,2.8,2.1,3.9H156v6.6h-2.5v-4.3h-21.6V211.3z M132.6,213.6c1.8,1,4,2.5,5.1,3.6l-1.5,1.8
				c-1-1.2-3.2-2.7-5-3.8L132.6,213.6z M139.1,214c-0.9-1.1-3-2.7-4.8-3.7l1.5-1.5c1.7,0.9,3.8,2.4,4.8,3.5L139.1,214z M145.1,223
				c4.3,1.6,8.9,3.8,11.5,5.8l-1.5,1.9c-2.6-2-6.9-4.2-11.2-5.9L145.1,223z" class="st18"></path>
			<linearGradient y2="216.9827" x2="187.8425" y1="216.9827" x1="162.4844" gradientUnits="userSpaceOnUse" id="SVGID_15_">
				<stop style="stop-color:#2D375C" offset="0"></stop>
				<stop style="stop-color:#A6E1E9" offset="0.995"></stop>
			</linearGradient>
			<path d="M182.3,219.7c-6.7,2.3-14,4.9-19,6.6l-0.9-2.4c4.7-1.4,12.4-4,19.4-6.4L182.3,219.7z M187.8,204.8
				c-0.2,17-0.5,22.5-1.7,24.1c-0.7,1.1-1.5,1.4-2.7,1.5c-1.2,0.1-3.4,0.1-5.2,0c0-0.7-0.3-1.7-0.8-2.3c2.3,0.2,4.3,0.2,5.1,0.2
				c0.6,0,1-0.1,1.3-0.5c1-1.1,1.3-7,1.5-22H163v-2.3h24.8V204.8z M168.3,208.5c2.8,1.9,6.7,4.7,8.6,6.5l-1.7,1.9
				c-1.8-1.8-5.6-4.8-8.5-6.8L168.3,208.5z" class="st19"></path>
			<linearGradient y2="215.9211" x2="222.7374" y1="215.9211" x1="193.3079" gradientUnits="userSpaceOnUse" id="SVGID_16_">
				<stop style="stop-color:#2D375C" offset="0"></stop>
				<stop style="stop-color:#A6E1E9" offset="0.995"></stop>
			</linearGradient>
			<path d="M203.5,222.2c0.2,0.7,0.7,1.6,1,2.1c-5.6,4.3-6.4,5-6.9,5.7c-0.3-0.5-1.1-1.3-1.5-1.6
				c0.7-0.6,1.8-1.8,1.8-3.5v-11.2h-4.6v-2.3h6.9v13.4L203.5,222.2z M200,208.4c-1-1.4-3.3-3.5-5-4.9l1.6-1.5c1.8,1.4,4,3.4,5.1,4.8
				L200,208.4z M222.7,227.3v2.3h-19.7v-2.3h2.8v-15.6h2.4v15.6h4.4v-21.4h-8.4v-2.3h17.9v2.3h-7v8.5h6.4v2.3h-6.4v10.7H222.7z" class="st20"></path>
			<linearGradient y2="216.7188" x2="253.9505" y1="216.7188" x1="226.8336" gradientUnits="userSpaceOnUse" id="SVGID_17_">
				<stop style="stop-color:#2D375C" offset="0"></stop>
				<stop style="stop-color:#A6E1E9" offset="0.995"></stop>
			</linearGradient>
			<path d="M229.1,222.4v3h-2.3v-22.3h9.9v19.3H229.1z M229.1,205.3v6.2h5.3v-6.2H229.1z M234.4,220.1v-6.4h-5.3v6.4
				H234.4z M254,227.6c0,1.5-0.4,2.2-1.4,2.7c-1.1,0.4-2.9,0.5-5.6,0.5c-0.1-0.7-0.5-1.7-0.8-2.4c2.1,0.1,4.1,0,4.7,0
				c0.6,0,0.8-0.2,0.8-0.8v-7.2h-9.1c-0.7,3.8-2.3,7.7-5.8,10.5c-0.3-0.5-1.3-1.3-1.8-1.6c5.2-4.2,5.7-10.4,5.7-15.4v-11.5H254
				V227.6z M251.6,218.2v-5.7H243v1.5c0,1.3,0,2.8-0.2,4.2H251.6z M243,204.7v5.6h8.6v-5.6H243z" class="st21"></path>
		</g>
		<g>
			<path d="M229.3,262.4h-75.5c-0.8,0-1.5-0.7-1.5-1.5v-2.9c0-0.8,0.7-1.5,1.5-1.5h75.5c0.8,0,1.5,0.7,1.5,1.5v2.9
				C230.8,261.7,230.2,262.4,229.3,262.4z" class="st22"></path>
		</g>
		<g>
			<path d="M229.3,279.1h-75.5c-0.8,0-1.5-0.7-1.5-1.5v-2.9c0-0.8,0.7-1.5,1.5-1.5h75.5c0.8,0,1.5,0.7,1.5,1.5v2.9
				C230.8,278.5,230.2,279.1,229.3,279.1z" class="st22"></path>
		</g>
	</g>
	<rect height="5.4" width="66.5" class="st23" y="92.8" x="41.3"></rect>
	<g>
		<linearGradient y2="305.2539" x2="34.4351" y1="279.0918" x1="34.4351" gradientUnits="userSpaceOnUse" id="SVGID_18_">
			<stop style="stop-color:#828983" offset="0"></stop>
			<stop style="stop-color:#84CDF5" offset="1"></stop>
		</linearGradient>
		<rect height="26.2" width="7.3" class="st24" y="279.1" x="30.8"></rect>
		<linearGradient y2="287.6834" x2="33.1132" y1="247.4364" x1="33.1132" gradientUnits="userSpaceOnUse" id="SVGID_19_">
			<stop style="stop-color:#82D37B" offset="0"></stop>
			<stop style="stop-color:#84CDF5" offset="1"></stop>
		</linearGradient>
		<path d="M48.6,249.5c-13.7-4.6-24.6-0.8-31.3,2.9C5.6,258.9,11.4,261,5,266.8s-0.6,17.8,9.9,18.8
			c10.5,1,27.2,1.5,32.6,2c5.4,0.5,16.3-0.9,16.3-11.7C63.9,265.1,57.4,252.5,48.6,249.5z" class="st25"></path>
	</g>
</g>
</svg>
