<svg xml:space="preserve" style="enable-background:new 0 0 480 480;" viewBox="0 0 480 480" y="0px" x="0px" xmlns:xlink="http://www.w3.org/1999/xlink" xmlns="http://www.w3.org/2000/svg" id="图层_1" version="1.1">
<style type="text/css">
	.st0{fill:url(#SVGID_1_);}
	.st1{fill:url(#SVGID_2_);}
	.st2{fill:url(#SVGID_3_);}
	.st3{fill:url(#SVGID_4_);}
	.st4{fill:url(#SVGID_5_);}
	.st5{fill:url(#SVGID_6_);}
	.st6{fill:url(#SVGID_7_);}
	.st7{fill:url(#SVGID_8_);}
	.st8{fill:url(#SVGID_9_);}
	.st9{fill:url(#SVGID_10_);}
	.st10{fill:url(#SVGID_11_);}
	.st11{fill:url(#SVGID_12_);}
	.st12{fill:url(#SVGID_13_);}
	.st13{fill:url(#SVGID_14_);}
	.st14{fill:url(#SVGID_15_);}
	.st15{fill:url(#SVGID_16_);}
	.st16{fill:url(#SVGID_17_);}
	.st17{fill:url(#SVGID_18_);}
	.st18{fill:url(#SVGID_19_);}
	.st19{fill:url(#SVGID_20_);}
	.st20{fill:url(#SVGID_21_);}
	.st21{fill:url(#SVGID_22_);}
	.st22{fill:url(#SVGID_23_);}
	.st23{fill:url(#SVGID_24_);}
	.st24{fill:none;}
	.st25{fill:url(#SVGID_25_);}
	.st26{fill:#FFFFFF;}
	.st27{fill:url(#SVGID_26_);}
	.st28{fill:url(#SVGID_27_);}
	.st29{fill:url(#SVGID_28_);}
	.st30{fill:url(#SVGID_29_);}
	.st31{fill:url(#SVGID_30_);}
	.st32{fill:url(#SVGID_31_);}
</style>
<g>
	
		<linearGradient gradientTransform="matrix(1 0 0 1 0 -286)" y2="442.8038" x2="28.7" y1="430.3238" x1="28.7" gradientUnits="userSpaceOnUse" id="SVGID_1_">
		<stop style="stop-color:#58CCB0" offset="0"></stop>
		<stop style="stop-color:#E5F9F4" offset="0.9851"></stop>
	</linearGradient>
	<path d="M29.3,149.8c0,0-8.6-3.7-16.3-1.3c0,0,14.2,2.7,15.7,8.3c0,0,9.4-9.8,15.7-12.5
		C44.3,144.3,33.4,147.7,29.3,149.8z" class="st0"></path>
	<g>
		
			<linearGradient gradientTransform="matrix(1 0 0 -1 0 196)" y2="133.8" x2="88.65" y1="-16" x1="88.65" gradientUnits="userSpaceOnUse" id="SVGID_2_">
			<stop style="stop-color:#FFFFFF" offset="0"></stop>
			<stop style="stop-color:#CFF4EE" offset="1"></stop>
		</linearGradient>
		<rect height="149.8" width="33.9" class="st1" y="62.2" x="71.7"></rect>
		
			<linearGradient gradientTransform="matrix(1 0 0 -1 0 196)" y2="166.4" x2="122.55" y1="-3" x1="122.55" gradientUnits="userSpaceOnUse" id="SVGID_3_">
			<stop style="stop-color:#FFFFFF" offset="0"></stop>
			<stop style="stop-color:#CFF4EE" offset="1"></stop>
		</linearGradient>
		<rect height="169.4" width="33.9" class="st2" y="29.6" x="105.6"></rect>
	</g>
	<g>
		
			<linearGradient gradientTransform="matrix(1 0 0 -1 0 196)" y2="132.6" x2="348.9" y1="16.6" x1="348.9" gradientUnits="userSpaceOnUse" id="SVGID_4_">
			<stop style="stop-color:#FFFFFF" offset="0"></stop>
			<stop style="stop-color:#CFF4EE" offset="1"></stop>
		</linearGradient>
		<rect height="116" width="33.4" class="st3" y="63.4" x="332.2"></rect>
		
			<linearGradient gradientTransform="matrix(1 0 0 -1 0 196)" y2="152" x2="382.3" y1="16.6" x1="382.3" gradientUnits="userSpaceOnUse" id="SVGID_5_">
			<stop style="stop-color:#FFFFFF" offset="0"></stop>
			<stop style="stop-color:#CFF4EE" offset="1"></stop>
		</linearGradient>
		<rect height="135.4" width="33.4" class="st4" y="44" x="365.6"></rect>
		
			<linearGradient gradientTransform="matrix(1 0 0 -1 0 196)" y2="114.6" x2="415.9" y1="6.4" x1="415.9" gradientUnits="userSpaceOnUse" id="SVGID_6_">
			<stop style="stop-color:#FFFFFF" offset="0"></stop>
			<stop style="stop-color:#CFF4EE" offset="1"></stop>
		</linearGradient>
		<rect height="108.2" width="33.4" class="st5" y="81.4" x="399.2"></rect>
	</g>
	
		<linearGradient gradientTransform="matrix(1 0 0 -1 0 196)" y2="-32.4" x2="240" y1="-256.4" x1="240" gradientUnits="userSpaceOnUse" id="SVGID_7_">
		<stop style="stop-color:#FFFFFF;stop-opacity:0.2" offset="0"></stop>
		<stop style="stop-color:#DEFFFD" offset="1"></stop>
	</linearGradient>
	<ellipse ry="112" rx="240" cy="340.4" cx="240" class="st6"></ellipse>
	
		<linearGradient gradientTransform="matrix(1 0 0 -1 0 196)" y2="-112" x2="40.3" y1="-169.6" x1="40.3" gradientUnits="userSpaceOnUse" id="SVGID_8_">
		<stop style="stop-color:#F0FFFA" offset="0"></stop>
		<stop style="stop-color:#72C2BA;stop-opacity:0.3" offset="1"></stop>
	</linearGradient>
	<polygon points="40.3,308 20,343.2 37.3,343.2 37.3,365.6 43.2,365.6 43.2,343.2 60.6,343.2" class="st7"></polygon>
	
		<linearGradient gradientTransform="matrix(1 0 0 -1 0 196)" y2="-67.2" x2="71.45" y1="-108.8" x1="71.45" gradientUnits="userSpaceOnUse" id="SVGID_9_">
		<stop style="stop-color:#F0FFFA" offset="0"></stop>
		<stop style="stop-color:#BDEFE3" offset="1"></stop>
	</linearGradient>
	<polygon points="71.4,263.2 56.8,288.6 69.3,288.6 69.3,304.8 73.6,304.8 73.6,288.6 86.1,288.6" class="st8"></polygon>
	
		<linearGradient gradientTransform="matrix(1 0 0 -1 0 196)" y2="-64.3416" x2="259.6098" y1="-171.7826" x1="278.5544" gradientUnits="userSpaceOnUse" id="SVGID_10_">
		<stop style="stop-color:#FFFFFF;stop-opacity:0" offset="0"></stop>
		<stop style="stop-color:#BDEFE3" offset="1"></stop>
	</linearGradient>
	<polygon points="175,275.3 181.2,365.6 372.6,351.2 279.6,271" class="st9"></polygon>
	<g>
		
			<linearGradient gradientTransform="matrix(1 0 0 -1 0 196)" y2="6.4" x2="403.0329" y1="-48.7736" x1="403.0329" gradientUnits="userSpaceOnUse" id="SVGID_11_">
			<stop style="stop-color:#FFFFFF;stop-opacity:0" offset="0"></stop>
			<stop style="stop-color:#CFF4EE" offset="1"></stop>
		</linearGradient>
		<path d="M430.1,235.7c-5.9-22.4-5-46.1-25.8-46.1c-14.4,0-27.4,45.9-28.5,50.2C374.9,244.3,433.9,249.9,430.1,235.7z" class="st10"></path>
		
			<linearGradient gradientTransform="matrix(1 0 0 -1 0 196)" y2="28.8" x2="366.1195" y1="-51.9524" x1="366.1195" gradientUnits="userSpaceOnUse" id="SVGID_12_">
			<stop style="stop-color:#FFFFFF;stop-opacity:0" offset="0"></stop>
			<stop style="stop-color:#CFF4EE" offset="1"></stop>
		</linearGradient>
		<path d="M405.6,234.6c-8.8-32.6-7.2-67.4-37.6-67.4c-21.1,0-40,67.2-41.6,73.6S411.2,255.5,405.6,234.6z" class="st11"></path>
	</g>
	<g>
		
			<linearGradient gradientTransform="matrix(1 0 0 -1 0 196)" y2="1.3895" x2="59.6986" y1="-61.6" x1="59.6986" gradientUnits="userSpaceOnUse" id="SVGID_13_">
			<stop style="stop-color:#FFFFFF;stop-opacity:0" offset="0"></stop>
			<stop style="stop-color:#CFF4EE" offset="1"></stop>
		</linearGradient>
		<path d="M90.4,247.2c-6.7-25.4-13.1-49.9-29.3-52.5S30.1,247,28.8,252C27.5,257,94.9,263.5,90.4,247.2z" class="st12"></path>
		
			<linearGradient gradientTransform="matrix(1 0 0 -1 0 196)" y2="10.6829" x2="38.1626" y1="-34.3588" x1="38.1626" gradientUnits="userSpaceOnUse" id="SVGID_14_">
			<stop style="stop-color:#FFFFFF;stop-opacity:0" offset="0"></stop>
			<stop style="stop-color:#CFF4EE" offset="1"></stop>
		</linearGradient>
		<path d="M60.2,222.9c-4.8-18.2-9.3-35.7-21-37.6C27.5,183.4,17,222.9,16,226.4C15.2,229.9,63.2,234.6,60.2,222.9z" class="st13"></path>
		
			<linearGradient gradientTransform="matrix(1 0 0 -1 0 196)" y2="19.3058" x2="100.5195" y1="-61.5524" x1="100.5195" gradientUnits="userSpaceOnUse" id="SVGID_15_">
			<stop style="stop-color:#FFFFFF;stop-opacity:0" offset="0"></stop>
			<stop style="stop-color:#CFF4EE" offset="1"></stop>
		</linearGradient>
		<path d="M140,244.2c-8.8-32.6-16.8-64.2-37.6-67.4s-40,67.2-41.6,73.6C59.2,256.8,145.6,265.1,140,244.2z" class="st14"></path>
	</g>
	
		<linearGradient gradientTransform="matrix(1 0 0 -1 0 196)" y2="-104" x2="431.0076" y1="-155.2" x1="431.0076" gradientUnits="userSpaceOnUse" id="SVGID_16_">
		<stop style="stop-color:#F0FFFA" offset="0"></stop>
		<stop style="stop-color:#72C2BA;stop-opacity:0.3" offset="1"></stop>
	</linearGradient>
	<path d="M453.9,315.8c-0.5-3.7-5.3-4.5-9.8-8.8c-4.5-4.5-5.9-7-11.5-7c-10.6,0-10.6,9.8-13.3,9.8
		c-8.3,0-11.5,9.8-11.5,12.3s3.5,5.3,8.8,8.8c3.5,2.4,9.1,2.4,12.3,2.1v18.2h4.5v-18.4c2.4-0.3,3.7-2.2,11.5,0.8
		C449.4,335.4,455.7,328.3,453.9,315.8z" class="st15"></path>
	
		<linearGradient gradientTransform="matrix(0.7012 0.713 0.713 -0.7012 -683.8461 861.7198)" y2="1169.0293" x2="19.9396" y1="1158.2722" x1="19.9396" gradientUnits="userSpaceOnUse" id="SVGID_17_">
		<stop style="stop-color:#FFFFFF" offset="0"></stop>
		<stop style="stop-color:#CFF4EE" offset="1"></stop>
	</linearGradient>
	<path d="M164,71.8c0,0-11.4-12.6-10.1-20.6c1.3-8,8.8,5.4,10.2,10.4C165.8,67.8,164,71.8,164,71.8z" class="st16"></path>
	
		<linearGradient gradientTransform="matrix(0.9394 0.3429 0.3429 -0.9394 -221.2311 534.2348)" y2="612.126" x2="228.9862" y1="597.8383" x1="228.9862" gradientUnits="userSpaceOnUse" id="SVGID_18_">
		<stop style="stop-color:#FFFFFF" offset="0"></stop>
		<stop style="stop-color:#CFF4EE" offset="1"></stop>
	</linearGradient>
	<path d="M213,56.3c0,0-20.8-8.6-23.8-18.9c-3-10.2,13.8,1.4,18.1,6.6C212.8,50.6,213,56.3,213,56.3z" class="st17"></path>
	
		<linearGradient gradientTransform="matrix(0.9394 0.3429 0.3429 -0.9394 -221.2311 534.2348)" y2="620.1458" x2="290.4313" y1="612.6874" x1="290.4313" gradientUnits="userSpaceOnUse" id="SVGID_19_">
		<stop style="stop-color:#FFFFFF" offset="0"></stop>
		<stop style="stop-color:#CFF4EE" offset="1"></stop>
	</linearGradient>
	<path d="M269.1,61c0,0-10.9-4.5-12.5-9.9s7.2,0.8,9.4,3.5C269,57.9,269.1,61,269.1,61z" class="st18"></path>
	
		<linearGradient gradientTransform="matrix(0.9825 -0.1864 -0.1864 -0.9825 73.1605 -6.7168)" y2="-113.1108" x2="114.316" y1="-122.951" x1="114.316" gradientUnits="userSpaceOnUse" id="SVGID_20_">
		<stop style="stop-color:#FFFFFF" offset="0"></stop>
		<stop style="stop-color:#CFF4EE" offset="1"></stop>
	</linearGradient>
	<path d="M218.6,90.9c0,0-15.4,2.1-20.8-2.9c-5.4-5,8.6-4,13-2.4C216.5,87.5,218.6,90.9,218.6,90.9z" class="st19"></path>
	
		<linearGradient gradientTransform="matrix(0.9514 0.3079 0.3079 -0.9514 -183.4358 487.0605)" y2="507.9473" x2="317.6515" y1="491.3075" x1="317.6515" gradientUnits="userSpaceOnUse" id="SVGID_21_">
		<stop style="stop-color:#F0FFFA" offset="0"></stop>
		<stop style="stop-color:#72C2BA;stop-opacity:0.3" offset="1"></stop>
	</linearGradient>
	<path d="M286.7,122.9c0,0-24.5-9.3-28.5-21c-4-11.8,16,1.1,21.3,6.9C286.4,116.2,286.7,122.9,286.7,122.9z" class="st20"></path>
	
		<linearGradient gradientTransform="matrix(1 0 0 1 0 -286)" y2="414.3704" x2="40.3" y1="405.0904" x1="40.3" gradientUnits="userSpaceOnUse" id="SVGID_22_">
		<stop style="stop-color:#58CCB0" offset="0"></stop>
		<stop style="stop-color:#E5F9F4" offset="0.9851"></stop>
	</linearGradient>
	<path d="M40.8,123c0,0-6.4-2.7-12.2-1c0,0,10.6,1.9,11.7,6.2c0,0,7-7.4,11.7-9.3C51.8,119,43.8,121.6,40.8,123z" class="st21"></path>
	<g>
		
			<linearGradient gradientTransform="matrix(1 0 0 1 0 -286)" y2="546.6511" x2="362.3732" y1="584.2333" x1="362.3732" gradientUnits="userSpaceOnUse" id="SVGID_23_">
			<stop style="stop-color:#E9FFFD" offset="0"></stop>
			<stop style="stop-color:#63D0B5" offset="0.9851"></stop>
		</linearGradient>
		<path d="M365.3,294.9c-4.5-16.3-7.7-23.2-15.5-34.2c0,0,26.4,26.9,25.1,34.2C373.6,302.4,365.3,294.9,365.3,294.9z" class="st22"></path>
		
			<linearGradient gradientTransform="matrix(1 0 0 1 0 -286)" y2="551.8524" x2="376.5371" y1="587.9574" x1="376.5371" gradientUnits="userSpaceOnUse" id="SVGID_24_">
			<stop style="stop-color:#E9FFFD" offset="0"></stop>
			<stop style="stop-color:#63D0B5" offset="0.9851"></stop>
		</linearGradient>
		<path d="M369.8,294.9c0,0,6.7-26.4,13.8-29.1c0,0-10.2,30.9-8.6,34.2C376.5,303.5,367.7,302.6,369.8,294.9z" class="st23"></path>
	</g>
	<path d="M191.3,256.2c-1,5.9-0.2,8.8,0.8,9.5c0.9,0.6,3.5,1.2,10.6-1.6c-4.2-4.3-7.5-9.5-9.7-15.2
		C192.4,251.3,191.8,253.8,191.3,256.2z" class="st24"></path>
	<g>
		<linearGradient y2="234.3808" x2="161.1228" y1="276.3636" x1="119.1401" gradientUnits="userSpaceOnUse" id="SVGID_25_">
			<stop style="stop-color:#E9FFFD" offset="0"></stop>
			<stop style="stop-color:#63D0B5" offset="0.9851"></stop>
		</linearGradient>
		<path d="M152.9,282.6h-25.4c-2.8,0-5-2.2-5-5v-44.4c0-2.8,2.2-5,5-5h25.4c2.8,0,5,2.2,5,5v44.4
			C157.9,280.3,155.6,282.6,152.9,282.6z" class="st25"></path>
		<g>
			<path d="M149.8,277.8h-19.3c-2.8,0-5-2.2-5-5v-36.6c0-2.8,2.2-5,5-5h19.3c2.8,0,5,2.2,5,5v36.6
				C154.8,275.6,152.5,277.8,149.8,277.8z" class="st26"></path>
			<linearGradient y2="262.4682" x2="146.8709" y1="286.9586" x1="122.3806" gradientUnits="userSpaceOnUse" id="SVGID_26_">
				<stop style="stop-color:#E9FFFD" offset="0"></stop>
				<stop style="stop-color:#63D0B5" offset="0.9851"></stop>
			</linearGradient>
			<path d="M152.7,282.6h-32.7c-2.8,0-5-2.2-5-5v-7.2c0-2.8,2.2-5,5-5h27.7c2.8,0,5,2.2,5,5V282.6z" class="st27"></path>
			<linearGradient y2="242.1652" x2="149.551" y1="242.1652" x1="130.7119" gradientUnits="userSpaceOnUse" id="SVGID_27_">
				<stop style="stop-color:#F0FFFA" offset="0"></stop>
				<stop style="stop-color:#72C2BA;stop-opacity:0.3" offset="1"></stop>
			</linearGradient>
			<path d="M148.1,243.9h-15.9c-0.8,0-1.5-0.7-1.5-1.5v-0.6c0-0.8,0.7-1.5,1.5-1.5h15.9c0.8,0,1.5,0.7,1.5,1.5v0.6
				C149.6,243.3,148.9,243.9,148.1,243.9z" class="st28"></path>
			<linearGradient y2="253.8865" x2="144.6951" y1="253.8865" x1="130.7119" gradientUnits="userSpaceOnUse" id="SVGID_28_">
				<stop style="stop-color:#F0FFFA" offset="0"></stop>
				<stop style="stop-color:#72C2BA;stop-opacity:0.3" offset="1"></stop>
			</linearGradient>
			<path d="M143.2,255.7h-11c-0.8,0-1.5-0.7-1.5-1.5v-0.6c0-0.8,0.7-1.5,1.5-1.5h11c0.8,0,1.5,0.7,1.5,1.5v0.6
				C144.7,255,144,255.7,143.2,255.7z" class="st29"></path>
			<path d="M144.2,274h-20.7c-1.1,0-1.9-0.9-1.9-1.9v-0.8c0-1.1,0.9-1.9,1.9-1.9h20.7c1.1,0,1.9,0.9,1.9,1.9v0.8
				C146.2,273.1,145.3,274,144.2,274z" class="st26"></path>
		</g>
	</g>
	<g>
		
			<linearGradient gradientTransform="matrix(0.7937 -0.7937 0.692 0.692 -134.5591 274.7735)" y2="331.4763" x2="277.193" y1="331.4763" x1="255.2364" gradientUnits="userSpaceOnUse" id="SVGID_29_">
			<stop style="stop-color:#F0FFFA" offset="0"></stop>
			<stop style="stop-color:#72C2BA;stop-opacity:0.3" offset="1"></stop>
		</linearGradient>
		<path d="M333.6,316.5l-3.8,3.8c-3.8,3.8-9.8,3.8-13.6,0l-37.5-37.5c-3.8-3.8-3.8-9.8,0-13.6l3.8-3.8
			c3.8-3.8,9.8-3.8,13.6,0l37.5,37.5C337.3,306.7,337.3,312.7,333.6,316.5z" class="st30"></path>
		<linearGradient y2="298.2792" x2="228.6089" y1="129.859" x1="228.6089" gradientUnits="userSpaceOnUse" id="SVGID_30_">
			<stop style="stop-color:#E9FFFD" offset="0"></stop>
			<stop style="stop-color:#63D0B5" offset="0.9851"></stop>
		</linearGradient>
		<circle r="84.2" cy="214.1" cx="228.6" class="st31"></circle>
		<linearGradient y2="214.0691" x2="284.3476" y1="214.0691" x1="172.8703" gradientUnits="userSpaceOnUse" id="SVGID_31_">
			<stop style="stop-color:#FFFFFF" offset="0"></stop>
			<stop style="stop-color:#CFF4EE" offset="1"></stop>
		</linearGradient>
		<circle r="55.7" cy="214.1" cx="228.6" class="st32"></circle>
	</g>
</g>
</svg>
