<svg xml:space="preserve" style="enable-background:new 0 0 300 300;" viewBox="0 0 300 300" y="0px" x="0px" xmlns:xlink="http://www.w3.org/1999/xlink" xmlns="http://www.w3.org/2000/svg" id="图层_1" version="1.1">
<style type="text/css">
	.st0{fill:url(#SVGID_1_);}
	.st1{fill:url(#SVGID_2_);}
	.st2{fill:url(#SVGID_3_);}
	.st3{fill:url(#SVGID_4_);}
	.st4{fill:url(#SVGID_5_);}
	.st5{fill:url(#SVGID_6_);}
	.st6{fill:url(#SVGID_7_);}
	.st7{fill:url(#SVGID_8_);}
	.st8{fill:url(#SVGID_9_);}
	.st9{fill:url(#SVGID_10_);}
	.st10{fill:url(#SVGID_11_);}
	.st11{fill:url(#SVGID_12_);}
	.st12{fill:url(#SVGID_13_);}
	.st13{fill:url(#SVGID_14_);}
	.st14{fill:url(#SVGID_15_);}
	.st15{fill:url(#SVGID_16_);}
	.st16{fill:url(#SVGID_17_);}
	.st17{fill:url(#SVGID_18_);}
	.st18{fill:url(#SVGID_19_);}
	.st19{fill:url(#SVGID_20_);}
	.st20{fill:url(#SVGID_21_);}
	.st21{fill:url(#SVGID_22_);}
	.st22{fill:url(#SVGID_23_);}
	.st23{fill:url(#SVGID_24_);}
	.st24{fill:url(#SVGID_25_);}
	.st25{fill:url(#SVGID_26_);}
	.st26{fill:url(#SVGID_27_);}
	.st27{fill:url(#SVGID_28_);}
	.st28{fill:url(#SVGID_29_);}
	.st29{opacity:0.29;fill:url(#SVGID_30_);}
	.st30{fill:url(#SVGID_31_);}
	.st31{fill:#FFFFFF;}
</style>
<linearGradient gradientTransform="matrix(1 0 0 -1 0 -90)" y2="-281.6" x2="25.2" y1="-317.6" x1="25.2" gradientUnits="userSpaceOnUse" id="SVGID_1_">
	<stop style="stop-color:#F0FFFA" offset="0"></stop>
	<stop style="stop-color:#72C2BA;stop-opacity:0.3" offset="1"></stop>
</linearGradient>
<polygon points="25.2,191.6 12.5,213.6 23.3,213.6 23.3,227.6 27,227.6 27,213.6 37.9,213.6" class="st0"></polygon>
<g>
	<g>
		
			<linearGradient gradientTransform="matrix(1 0 0 -1 0 -90)" y2="-128.1" x2="55.4" y1="-221.7" x1="55.4" gradientUnits="userSpaceOnUse" id="SVGID_2_">
			<stop style="stop-color:#FFFFFF" offset="0"></stop>
			<stop style="stop-color:#CFF4EE" offset="1"></stop>
		</linearGradient>
		<rect height="93.6" width="21.2" class="st1" y="38.1" x="44.8"></rect>
		
			<linearGradient gradientTransform="matrix(1 0 0 -1 0 -90)" y2="-107.6" x2="76.6" y1="-213.5" x1="76.6" gradientUnits="userSpaceOnUse" id="SVGID_3_">
			<stop style="stop-color:#FFFFFF" offset="0"></stop>
			<stop style="stop-color:#CFF4EE" offset="1"></stop>
		</linearGradient>
		<rect height="105.9" width="21.2" class="st2" y="17.6" x="66"></rect>
	</g>
	<g>
		
			<linearGradient gradientTransform="matrix(1 0 0 -1 0 -90)" y2="-128.8" x2="218.05" y1="-201.3" x1="218.05" gradientUnits="userSpaceOnUse" id="SVGID_4_">
			<stop style="stop-color:#FFFFFF" offset="0"></stop>
			<stop style="stop-color:#CFF4EE" offset="1"></stop>
		</linearGradient>
		<rect height="72.5" width="20.9" class="st3" y="38.8" x="207.6"></rect>
		
			<linearGradient gradientTransform="matrix(1 0 0 -1 0 -90)" y2="-116.6" x2="238.95" y1="-201.2" x1="238.95" gradientUnits="userSpaceOnUse" id="SVGID_5_">
			<stop style="stop-color:#FFFFFF" offset="0"></stop>
			<stop style="stop-color:#CFF4EE" offset="1"></stop>
		</linearGradient>
		<rect height="84.6" width="20.9" class="st4" y="26.6" x="228.5"></rect>
		
			<linearGradient gradientTransform="matrix(1 0 0 -1 0 -90)" y2="-140.1" x2="259.95" y1="-207.7" x1="259.95" gradientUnits="userSpaceOnUse" id="SVGID_6_">
			<stop style="stop-color:#FFFFFF" offset="0"></stop>
			<stop style="stop-color:#CFF4EE" offset="1"></stop>
		</linearGradient>
		<rect height="67.6" width="20.9" class="st5" y="50.1" x="249.5"></rect>
	</g>
	
		<linearGradient gradientTransform="matrix(1 0 0 -1 0 -90)" y2="-232.4" x2="150" y1="-372.4" x1="150" gradientUnits="userSpaceOnUse" id="SVGID_7_">
		<stop style="stop-color:#FFFFFF;stop-opacity:0.2" offset="0"></stop>
		<stop style="stop-color:#DEFFFD" offset="1"></stop>
	</linearGradient>
	<ellipse ry="70" rx="150" cy="212.4" cx="150" class="st6"></ellipse>
	
		<linearGradient gradientTransform="matrix(1 0 0 -1 0 -90)" y2="-253.6" x2="44.65" y1="-279.6" x1="44.65" gradientUnits="userSpaceOnUse" id="SVGID_8_">
		<stop style="stop-color:#F0FFFA" offset="0"></stop>
		<stop style="stop-color:#BDEFE3" offset="1"></stop>
	</linearGradient>
	<polygon points="44.6,163.6 35.5,179.5 43.3,179.5 43.3,189.6 46,189.6 46,179.5 53.8,179.5" class="st7"></polygon>
	
		<linearGradient gradientTransform="matrix(1 0 0 -1 0 -90)" y2="-296.3877" x2="166.1975" y1="-369.5533" x1="179.0983" gradientUnits="userSpaceOnUse" id="SVGID_9_">
		<stop style="stop-color:#FFFFFF;stop-opacity:0" offset="0"></stop>
		<stop style="stop-color:#BDEFE3" offset="1"></stop>
	</linearGradient>
	<polygon points="106.3,216.9 128.1,271.1 238.9,269 193.6,215.8" class="st8"></polygon>
	<g>
		
			<linearGradient gradientTransform="matrix(1 0 0 -1 0 -90)" y2="-207.6749" x2="251.9025" y1="-242.1688" x1="251.9025" gradientUnits="userSpaceOnUse" id="SVGID_10_">
			<stop style="stop-color:#FFFFFF;stop-opacity:0" offset="0"></stop>
			<stop style="stop-color:#CFF4EE" offset="1"></stop>
		</linearGradient>
		<path d="M268.8,146.4c-3.7-14-3.1-28.8-16.1-28.8c-9,0-17.1,28.7-17.8,31.4C234.3,151.9,271.2,155.4,268.8,146.4z" class="st9"></path>
		
			<linearGradient gradientTransform="matrix(1 0 0 -1 0 -90)" y2="-193.7" x2="228.8247" y1="-244.1716" x1="228.8247" gradientUnits="userSpaceOnUse" id="SVGID_11_">
			<stop style="stop-color:#FFFFFF;stop-opacity:0" offset="0"></stop>
			<stop style="stop-color:#CFF4EE" offset="1"></stop>
		</linearGradient>
		<path d="M253.5,145.8c-5.5-20.4-4.5-42.1-23.5-42.1c-13.2,0-25,42-26,46S257,158.9,253.5,145.8z" class="st10"></path>
	</g>
	<g>
		
			<linearGradient gradientTransform="matrix(1 0 0 -1 0 -90)" y2="-210.7458" x2="37.3112" y1="-250.1349" x1="37.3112" gradientUnits="userSpaceOnUse" id="SVGID_12_">
			<stop style="stop-color:#FFFFFF;stop-opacity:0" offset="0"></stop>
			<stop style="stop-color:#CFF4EE" offset="1"></stop>
		</linearGradient>
		<path d="M56.5,153.6c-4.2-15.9-8.2-31.2-18.3-32.8c-10.1-1.6-19.4,32.7-20.2,35.8C17.2,159.7,59.3,163.9,56.5,153.6z" class="st11"></path>
		
			<linearGradient gradientTransform="matrix(1 0 0 -1 0 -90)" y2="-205.0024" x2="23.8402" y1="-233.1535" x1="23.8402" gradientUnits="userSpaceOnUse" id="SVGID_13_">
			<stop style="stop-color:#FFFFFF;stop-opacity:0" offset="0"></stop>
			<stop style="stop-color:#CFF4EE" offset="1"></stop>
		</linearGradient>
		<path d="M37.6,138.4c-3-11.4-5.8-22.3-13.1-23.5S10.6,138.4,10,140.7C9.5,142.9,39.5,145.8,37.6,138.4z" class="st12"></path>
		
			<linearGradient gradientTransform="matrix(1 0 0 -1 0 -90)" y2="-199.6339" x2="62.8247" y1="-250.1716" x1="62.8247" gradientUnits="userSpaceOnUse" id="SVGID_14_">
			<stop style="stop-color:#FFFFFF;stop-opacity:0" offset="0"></stop>
			<stop style="stop-color:#CFF4EE" offset="1"></stop>
		</linearGradient>
		<path d="M87.5,151.8C82,131.4,77,111.7,64,109.7s-25,42-26,46S91,164.9,87.5,151.8z" class="st13"></path>
	</g>
	
		<linearGradient gradientTransform="matrix(1 0 0 -1 0 -90)" y2="-276.6" x2="269.3953" y1="-308.6" x1="269.3953" gradientUnits="userSpaceOnUse" id="SVGID_15_">
		<stop style="stop-color:#F0FFFA" offset="0"></stop>
		<stop style="stop-color:#72C2BA;stop-opacity:0.3" offset="1"></stop>
	</linearGradient>
	<path d="M283.7,196.5c-0.3-2.3-3.3-2.8-6.1-5.5c-2.8-2.8-3.7-4.4-7.2-4.4c-6.6,0-6.6,6.1-8.3,6.1
		c-5.2,0-7.2,6.1-7.2,7.7s2.2,3.3,5.5,5.5c2.2,1.5,5.7,1.5,7.7,1.3v11.4h2.8v-11.5c1.5-0.2,2.3-1.4,7.2,0.5
		C280.9,208.8,284.8,204.4,283.7,196.5z" class="st14"></path>
	
		<linearGradient gradientTransform="matrix(0.7012 0.713 0.713 -0.7012 -946.9735 1205.5977)" y2="1569.3611" x2="-99.3551" y1="1562.6379" x1="-99.3551" gradientUnits="userSpaceOnUse" id="SVGID_16_">
		<stop style="stop-color:#FFFFFF" offset="0"></stop>
		<stop style="stop-color:#CFF4EE" offset="1"></stop>
	</linearGradient>
	<path d="M102.5,44.1c0,0-7.1-7.9-6.3-12.9s5.5,3.4,6.4,6.5C103.6,41.6,102.5,44.1,102.5,44.1z" class="st15"></path>
	
		<linearGradient gradientTransform="matrix(0.9394 0.3429 0.3429 -0.9394 -274.398 551.0761)" y2="634.0546" x2="196.1793" y1="625.1248" x1="196.1793" gradientUnits="userSpaceOnUse" id="SVGID_17_">
		<stop style="stop-color:#FFFFFF" offset="0"></stop>
		<stop style="stop-color:#CFF4EE" offset="1"></stop>
	</linearGradient>
	<path d="M133.1,34.3c0,0-13-5.4-14.9-11.8s8.6,0.9,11.3,4.1C133,30.8,133.1,34.3,133.1,34.3z" class="st16"></path>
	
		<linearGradient gradientTransform="matrix(0.9394 0.3429 0.3429 -0.9394 -274.398 551.0761)" y2="639.0597" x2="234.6564" y1="634.3982" x1="234.6564" gradientUnits="userSpaceOnUse" id="SVGID_18_">
		<stop style="stop-color:#FFFFFF" offset="0"></stop>
		<stop style="stop-color:#CFF4EE" offset="1"></stop>
	</linearGradient>
	<path d="M168.2,37.3c0,0-6.8-2.8-7.8-6.2s4.5,0.5,5.9,2.2C168.1,35.3,168.2,37.3,168.2,37.3z" class="st17"></path>
	
		<linearGradient gradientTransform="matrix(0.9825 -0.1864 -0.1864 -0.9825 57.5216 -457.2905)" y2="-512.815" x2="-24.4534" y1="-518.9651" x1="-24.4534" gradientUnits="userSpaceOnUse" id="SVGID_19_">
		<stop style="stop-color:#FFFFFF" offset="0"></stop>
		<stop style="stop-color:#CFF4EE" offset="1"></stop>
	</linearGradient>
	<path d="M136.6,55.9c0,0-9.6,1.3-13-1.8s5.4-2.5,8.1-1.5C135.3,53.9,136.6,55.9,136.6,55.9z" class="st18"></path>
	
		<linearGradient gradientTransform="matrix(0.9514 0.3079 0.3079 -0.9514 -226.0417 472.9848)" y2="512.9468" x2="252.3509" y1="502.5469" x1="252.3509" gradientUnits="userSpaceOnUse" id="SVGID_20_">
		<stop style="stop-color:#F0FFFA" offset="0"></stop>
		<stop style="stop-color:#72C2BA;stop-opacity:0.3" offset="1"></stop>
	</linearGradient>
	<path d="M179.2,75.9c0,0-15.3-5.8-17.8-13.1c-2.5-7.4,10,0.7,13.3,4.3C179,71.8,179.2,75.9,179.2,75.9z" class="st19"></path>
	
		<linearGradient gradientTransform="matrix(0.7071 0.7071 -0.7071 0.7071 -327.2986 644.1277)" y2="-610.0787" x2="-84.0964" y1="-617.881" x1="-84.0964" gradientUnits="userSpaceOnUse" id="SVGID_21_">
		<stop style="stop-color:#58CCB0" offset="0"></stop>
		<stop style="stop-color:#E5F9F4" offset="0.9851"></stop>
	</linearGradient>
	<path d="M48,150.4c0,0-2.2-5.4-6.6-7.7c0,0,5.1,7.4,3.2,10.6c0,0,8.5-0.2,12.4,1.4C57,154.6,50.8,151.4,48,150.4z" class="st20"></path>
	
		<linearGradient gradientTransform="matrix(0.7071 -0.7071 0.7071 0.7071 -569.2551 -1516.8623)" y2="1739.7926" x2="-594.2987" y1="1733.9921" x1="-594.2987" gradientUnits="userSpaceOnUse" id="SVGID_22_">
		<stop style="stop-color:#58CCB0" offset="0"></stop>
		<stop style="stop-color:#E5F9F4" offset="0.9851"></stop>
	</linearGradient>
	<path d="M238.6,131.1c0,0-4,1.6-5.7,4.9c0,0,5.5-3.8,7.9-2.4c0,0-0.1-6.3,1-9.2C241.7,124.4,239.3,129.1,238.6,131.1z" class="st21"></path>
	<g>
		
			<linearGradient gradientTransform="matrix(1 0 0 1 0 -570)" y2="732.0555" x2="226.4641" y1="755.5444" x1="226.4641" gradientUnits="userSpaceOnUse" id="SVGID_23_">
			<stop style="stop-color:#E9FFFD" offset="0"></stop>
			<stop style="stop-color:#63D0B5" offset="0.9851"></stop>
		</linearGradient>
		<path d="M228.3,183.5c-2.8-10.2-4.8-14.5-9.7-21.4c0,0,16.5,16.8,15.7,21.4C233.5,188.1,228.3,183.5,228.3,183.5z" class="st22"></path>
		
			<linearGradient gradientTransform="matrix(1 0 0 1 0 -570)" y2="735.3065" x2="235.3" y1="757.872" x1="235.3" gradientUnits="userSpaceOnUse" id="SVGID_24_">
			<stop style="stop-color:#E9FFFD" offset="0"></stop>
			<stop style="stop-color:#63D0B5" offset="0.9851"></stop>
		</linearGradient>
		<path d="M231.1,183.5c0,0,4.2-16.5,8.6-18.2c0,0-6.4,19.3-5.4,21.4C235.3,188.9,229.8,188.3,231.1,183.5z" class="st23"></path>
	</g>
	<linearGradient y2="98.7395" x2="132.8949" y1="229.9731" x1="156.0349" gradientUnits="userSpaceOnUse" id="SVGID_25_">
		<stop style="stop-color:#58CCB0" offset="0"></stop>
		<stop style="stop-color:#E5F9F4" offset="0.9851"></stop>
	</linearGradient>
	<path d="M186.8,193.8c-12.7-6.7-18.3-9.4-26.2-10.3c9.4-5.6,17.7-17.3,20.8-30.9c0.4,0.1,0.9,0.2,1.3,0.2
		c3.5,0,6.4-4.1,6.4-9.3c0-5.1-2.9-9.3-6.4-9.3c-0.1,0-0.3,0-0.4,0c-2.5-20.9-16.5-36.9-33.4-36.9c-9.2,0-24.2,0.9-30.3,8.7
		c-5,6.4-1.9,18.8-3.1,28.2c-0.2,0-0.4,0-0.6,0c-3.5,0-6.4,4.1-6.4,9.3c0,5.1,2.9,9.3,6.4,9.3c0.5,0,1-0.1,1.5-0.3
		c3.2,14.2,11.9,26.3,21.8,31.6c-12.2,2.1-24.5,6.8-28.9,9.8c-7.5,5-7.2,21.6,0,27.6c7.2,6,81.7,9.1,84.8-2
		C198.4,204.5,196.1,199.1,186.8,193.8z" class="st24"></path>
	<g>
		<g>
			
				<linearGradient gradientTransform="matrix(1 0 0 -1 0 300)" y2="218.9402" x2="196.2011" y1="204.2553" x1="198.7904" gradientUnits="userSpaceOnUse" id="SVGID_26_">
				<stop style="stop-color:#58CCB0" offset="0"></stop>
				<stop style="stop-color:#E5F9F4" offset="0.9851"></stop>
			</linearGradient>
			<path d="M200.2,90.8v4h3.8v-4c0-4.9-3.4-8.8-7.7-8.8H191v4.5h5.3C198.4,86.4,200.2,88.4,200.2,90.8z" class="st25"></path>
			
				<linearGradient gradientTransform="matrix(1 0 0 -1 0 300)" y2="122.2277" x2="196.5313" y1="110.2983" x1="198.6347" gradientUnits="userSpaceOnUse" id="SVGID_27_">
				<stop style="stop-color:#58CCB0" offset="0"></stop>
				<stop style="stop-color:#E5F9F4" offset="0.9851"></stop>
			</linearGradient>
			<path d="M200.2,177.2v4c0,2.4-1.7,4.5-3.8,4.5h-5.3v4.5h5.3c4.2,0,7.7-4,7.7-8.8v-4h-3.9V177.2z" class="st26"></path>
		</g>
		<g>
			
				<linearGradient gradientTransform="matrix(1 0 0 -1 0 300)" y2="217.7507" x2="101.3562" y1="205.8214" x1="103.4596" gradientUnits="userSpaceOnUse" id="SVGID_28_">
				<stop style="stop-color:#58CCB0" offset="0"></stop>
				<stop style="stop-color:#E5F9F4" offset="0.9851"></stop>
			</linearGradient>
			<path d="M99.8,94.8v-4c0-2.4,1.7-4.5,3.8-4.5h5.3v-4.5h-5.3c-4.2,0-7.7,4-7.7,8.8v4h3.9V94.8z" class="st27"></path>
			
				<linearGradient gradientTransform="matrix(1 0 0 -1 0 300)" y2="123.7948" x2="101.2003" y1="109.1099" x1="103.7896" gradientUnits="userSpaceOnUse" id="SVGID_29_">
				<stop style="stop-color:#58CCB0" offset="0"></stop>
				<stop style="stop-color:#E5F9F4" offset="0.9851"></stop>
			</linearGradient>
			<path d="M99.8,181.2v-4h-3.8v4c0,4.9,3.4,8.8,7.7,8.8h5.3v-4.5h-5.3C101.6,185.5,99.8,183.6,99.8,181.2z" class="st28"></path>
		</g>
	</g>
	<linearGradient y2="136.0013" x2="184.3473" y1="136.0013" x1="151.0866" gradientUnits="userSpaceOnUse" id="SVGID_30_">
		<stop style="stop-color:#58CCB0" offset="0"></stop>
		<stop style="stop-color:#E5F9F4;stop-opacity:0" offset="0.9851"></stop>
	</linearGradient>
	<rect height="108" width="33.3" class="st29" y="82" x="151.1"></rect>
	<g>
		
			<linearGradient gradientTransform="matrix(1 0 0 1 0 -284)" y2="474.6" x2="187.0692" y1="518.6" x1="187.0692" gradientUnits="userSpaceOnUse" id="SVGID_31_">
			<stop style="stop-color:#38BF9D" offset="0"></stop>
			<stop style="stop-color:#D6F2E9" offset="0.9851"></stop>
		</linearGradient>
		<circle r="22" cy="212.6" cx="187.1" class="st30"></circle>
		<path d="M201.5,201.7c-0.8-0.8-2.2-0.8-3.1,0l-17.2,17.2l-5.4-5.5c-0.8-0.8-2.2-0.8-3.1,0c-0.8,0.8-0.8,2.2,0,3.1
			l7,7c0.8,0.8,2.2,0.8,3.1,0l18.7-18.7C202.3,203.9,202.3,202.5,201.5,201.7z" class="st31"></path>
	</g>
</g>
</svg>
