<svg xml:space="preserve" style="enable-background:new 0 0 480 480;" viewBox="0 0 480 480" y="0px" x="0px" xmlns:xlink="http://www.w3.org/1999/xlink" xmlns="http://www.w3.org/2000/svg" id="图层_1" version="1.1">
<style type="text/css">
	.st0{fill:#17846F;}
	.st1{fill:url(#SVGID_1_);}
	.st2{fill:url(#SVGID_2_);}
	.st3{fill:url(#SVGID_3_);}
	.st4{fill:#B7E5D0;}
	.st5{fill:#DFF2E9;}
	.st6{fill:#E8D0C8;}
	.st7{fill:#938785;}
	.st8{fill:#E2A760;}
	.st9{fill:#7F4F3C;}
	.st10{fill:#3A2522;}
	.st11{fill:url(#SVGID_4_);}
	.st12{fill:url(#SVGID_5_);}
	.st13{fill:url(#SVGID_6_);}
	.st14{fill:url(#SVGID_7_);}
	.st15{fill:url(#SVGID_8_);}
	.st16{fill:url(#SVGID_9_);}
	.st17{fill:url(#SVGID_10_);}
</style>
<g>
	<ellipse ry="98.1" rx="240" cy="304.9" cx="240" class="st0"></ellipse>
	
		<linearGradient gradientTransform="matrix(1 0 0 -1 0 482)" y2="210.6922" x2="249.4341" y1="405.0383" x1="249.4341" gradientUnits="userSpaceOnUse" id="SVGID_1_">
		<stop style="stop-color:#86BDA2" offset="0"></stop>
		<stop style="stop-color:#3AAD81" offset="1"></stop>
	</linearGradient>
	<path d="M371.1,271.3H127.9c-5.2,0-9.5-4.3-9.5-9.5V86.5c0-5.2,4.3-9.5,9.5-9.5h243c5.2,0,9.5,4.3,9.5,9.5v175.3
		C380.6,267,376.3,271.3,371.1,271.3z" class="st1"></path>
	
		<linearGradient gradientTransform="matrix(1 0 0 -1 0 482)" y2="197.3765" x2="235.1672" y1="391.7226" x1="235.1672" gradientUnits="userSpaceOnUse" id="SVGID_2_">
		<stop style="stop-color:#9ADBC0" offset="0"></stop>
		<stop style="stop-color:#3AAD81" offset="1"></stop>
	</linearGradient>
	<path d="M356.8,284.6H113.7c-5.2,0-9.5-4.3-9.5-9.5V99.8c0-5.2,4.3-9.5,9.5-9.5h243c5.2,0,9.5,4.3,9.5,9.5v175.3
		C366.3,280.3,362.1,284.6,356.8,284.6z" class="st2"></path>
	
		<linearGradient gradientTransform="matrix(1 0 0 -1 0 482)" y2="159.3316" x2="309.1149" y1="286.1479" x1="309.1149" gradientUnits="userSpaceOnUse" id="SVGID_3_">
		<stop style="stop-color:#9ADBC0" offset="0"></stop>
		<stop style="stop-color:#3AAD81" offset="1"></stop>
	</linearGradient>
	<path d="M309.1,195.9c-25.8,0-46.9,23.8-46.9,53.1s46.9,73.7,46.9,73.7S356,278.3,356,249S335.1,195.9,309.1,195.9z" class="st3"></path>
	<circle r="21.2" cy="249" cx="309.1" class="st4"></circle>
	<path d="M235.2,142h-90.4c-2.7,0-4.8-2.1-4.8-4.8l0,0c0-2.7,2.1-4.8,4.8-4.8h90.4c2.7,0,4.8,2.1,4.8,4.8l0,0
		C240,139.9,237.9,142,235.2,142z" class="st5"></path>
	<path d="M208.3,186.3h-63.4c-2.7,0-4.8-2.1-4.8-4.8l0,0c0-2.7,2.1-4.8,4.8-4.8h63.4c2.7,0,4.8,2.1,4.8,4.8l0,0
		C213.1,184.3,211,186.3,208.3,186.3z" class="st5"></path>
	<g>
		<polygon points="109.7,364 109.7,367.8 115.9,367.8 115.9,364.7" class="st6"></polygon>
		<polygon points="138.9,363.7 138.9,367.4 145,367.4 145,364.4" class="st6"></polygon>
		<path d="M139.5,164.3c0,0,19.2,36.1,2.4,52.3c-19.7,19-35.8,7.9-41.5,4.8c-5.7-3.2,1-22,2.7-35.7
			S139.5,164.3,139.5,164.3z" class="st6"></path>
		<rect height="14.3" width="11.1" class="st6" y="223" x="114.8"></rect>
		<path d="M108.3,293.8c0,0-2.1,70.2,0.5,70.2s8.6,1.6,9.8,0s7.9-55.5,7.9-55.5s9,54.7,10.1,55.5c1.6,1.1,9.8,1,10.3,0
			c1.9-5.1-4.8-72.9-4.8-72.9S108,293.3,108.3,293.8z" class="st7"></path>
		<path d="M102.1,237.2c1-1.9,18.4-0.6,22.8-0.6c4.6,0,12.5-1.6,14.7,1.6c2.2,3.2,4.3,21.2,4.3,21.2s0,33.3,0,34.9
			s-38.4,7.9-40.6-3.2C101.1,280,99.9,242,102.1,237.2z" class="st8"></path>
		<path d="M139.2,164.3c22.2,1.6,20.6,17,20.6,17l-30,22.5c0,0-17.9,33-33,19.5C76.1,204.4,73.4,159.6,139.2,164.3z" class="st9"></path>
		<path d="M156,256.7c0,0,8.1,2.5,9,1.9c1-0.6,20.3-24.6,21.1-25.7s2.2-3.8,2.9-3.5c0.5,0.3-0.5,3-0.5,3s3-5.4,3.8-4.4
			c0.5,0.6-2.4,5.1-2.4,5.1s4.4-5.5,5.2-5.1c1.1,0.8-4.4,6.3-4.4,6.3s4.9-4.4,5.2-3.6s-4.4,5.2-4.4,5.2s4-3.3,4.9-2.7
			c0.8,0.6-8.6,5.5-8.6,5.5S172.3,268.1,169,268c-3.3-0.2-14.7-3.3-14.7-3.3L156,256.7z" class="st6"></path>
		<path d="M139.7,243.7c0,0,14.1,7,16.2,10.8c1.4,2.5,0.2,8.2-0.8,10.5c-1.6,3.6-14.7-5.2-14.7-5.2L139.7,243.7z" class="st8"></path>
		<path d="M109.7,367.7c0,0,10-1,12,0.2c2.1,1,0.5,3.3-2.5,3.8c-3,0.5-8.2,1.3-10.3-0.5
			C106.8,369.4,109.7,367.7,109.7,367.7z" class="st10"></path>
		<path d="M138.9,367.2c0,0,10-1,12,0.2c2.1,1,0.5,3.3-2.5,3.8c-3,0.5-8.2,1.3-10.3-0.5S138.9,367.2,138.9,367.2z" class="st10"></path>
	</g>
	
		<linearGradient gradientTransform="matrix(1 0 0 -1 0 482)" y2="172.1039" x2="424.7192" y1="218.3977" x1="424.7192" gradientUnits="userSpaceOnUse" id="SVGID_4_">
		<stop style="stop-color:#9ADBC0" offset="0"></stop>
		<stop style="stop-color:#17846F;stop-opacity:0.3" offset="1"></stop>
	</linearGradient>
	<path d="M404.5,298.6c6-15.9,2.1-35,2.1-35l12.5,30.1l26.5-26.3l-27.4,42.5C418,309.8,400.1,310.5,404.5,298.6z" class="st11"></path>
	<g>
		
			<linearGradient gradientTransform="matrix(1 0 0 -1 0 482)" y2="331.9605" x2="45.9313" y1="342.6389" x1="45.9313" gradientUnits="userSpaceOnUse" id="SVGID_5_">
			<stop style="stop-color:#9ADBC0" offset="0"></stop>
			<stop style="stop-color:#3AAD81" offset="1"></stop>
		</linearGradient>
		<path d="M24.6,149.7L24.6,149.7c0.5,0.5,1.1,0.5,1.4,0c5.2-5.1,12.4-8.2,20.3-8.2c7.6,0,14.4,2.9,19.7,7.6
			c0.5,0.3,1.1,0.3,1.4,0l0,0c0.5-0.5,0.3-1.1,0-1.4c-5.5-5.1-13-8.2-21.1-8.2c-8.6,0-16.2,3.3-21.9,8.9
			C24.1,148.6,24.1,149.2,24.6,149.7z" class="st12"></path>
		
			<linearGradient gradientTransform="matrix(1 0 0 -1 0 482)" y2="324.1362" x2="46.0815" y1="331.3354" x1="46.0815" gradientUnits="userSpaceOnUse" id="SVGID_6_">
			<stop style="stop-color:#9ADBC0" offset="0"></stop>
			<stop style="stop-color:#3AAD81" offset="1"></stop>
		</linearGradient>
		<path d="M32.7,157.5L32.7,157.5c0.5,0.5,1.1,0.5,1.4,0c3.2-3,7.5-4.9,12.2-4.9c4.4,0,8.6,1.7,11.7,4.4
			c0.5,0.3,1,0.3,1.4,0l0,0c0.5-0.5,0.3-1.1,0-1.4c-3.5-3-8.1-4.9-13.2-4.9c-5.2,0-10,2.1-13.6,5.4
			C32.3,156.4,32.3,157.2,32.7,157.5z" class="st13"></path>
		
			<linearGradient gradientTransform="matrix(1 0 0 -1 0 482)" y2="315.7196" x2="46.2532" y1="319.1964" x1="46.2532" gradientUnits="userSpaceOnUse" id="SVGID_7_">
			<stop style="stop-color:#9ADBC0" offset="0"></stop>
			<stop style="stop-color:#3AAD81" offset="1"></stop>
		</linearGradient>
		<path d="M41.5,165.9L41.5,165.9c0.5,0.3,1,0.5,1.4,0.2c1-0.8,2.2-1.1,3.5-1.1c1.3,0,2.4,0.3,3.3,1.1
			c0.5,0.3,1,0.3,1.3-0.2l0,0c0.5-0.5,0.3-1.1-0.2-1.6c-1.3-1-2.9-1.4-4.6-1.4c-1.7,0-3.5,0.6-4.8,1.6
			C41.1,164.8,41.1,165.6,41.5,165.9z" class="st14"></path>
	</g>
	<g>
		
			<linearGradient gradientTransform="matrix(0.7071 0.7071 0.7071 -0.7071 207.3507 -166.8258)" y2="-91.792" x2="399.0733" y1="-78.6706" x1="399.0733" gradientUnits="userSpaceOnUse" id="SVGID_8_">
			<stop style="stop-color:#9ADBC0" offset="0"></stop>
			<stop style="stop-color:#3AAD81" offset="1"></stop>
		</linearGradient>
		<path d="M406.3,161.3L406.3,161.3c0,0.8,0.6,1.3,1.3,1.3c9,0.2,18.1,3.6,24.9,10.5c6.5,6.5,10,15.1,10.5,23.6
			c0,0.6,0.6,1.3,1.3,1.3h0.2c0.6,0,1.3-0.6,1.3-1.3c-0.5-9.2-4.1-18.4-11.3-25.4c-7.5-7.5-17-11.1-26.6-11.3
			C406.8,160,406.3,160.7,406.3,161.3z" class="st15"></path>
		
			<linearGradient gradientTransform="matrix(0.7071 0.7071 0.7071 -0.7071 207.3507 -166.8258)" y2="-101.4022" x2="399.1007" y1="-92.5598" x1="399.1007" gradientUnits="userSpaceOnUse" id="SVGID_9_">
			<stop style="stop-color:#9ADBC0" offset="0"></stop>
			<stop style="stop-color:#3AAD81" offset="1"></stop>
		</linearGradient>
		<path d="M406.6,175.2L406.6,175.2c0,0.8,0.5,1.3,1.1,1.3c5.4,0.2,10.8,2.2,14.7,6.3c4,4,6,8.9,6.3,14.1
			c0,0.6,0.6,1.1,1.3,1.1l0,0c0.8,0,1.3-0.6,1.3-1.4c-0.3-5.7-2.7-11.3-7.1-15.7c-4.6-4.6-10.5-7-16.5-7.1
			C407.1,174,406.6,174.5,406.6,175.2z" class="st16"></path>
		
			<linearGradient gradientTransform="matrix(0.7071 0.7071 0.7071 -0.7071 207.3507 -166.8258)" y2="-111.7481" x2="399.3276" y1="-107.476" x1="399.3276" gradientUnits="userSpaceOnUse" id="SVGID_10_">
			<stop style="stop-color:#9ADBC0" offset="0"></stop>
			<stop style="stop-color:#3AAD81" offset="1"></stop>
		</linearGradient>
		<path d="M406.9,190.1L406.9,190.1c0,0.6,0.5,1.3,1.1,1.3c1.4,0.2,2.9,0.8,4,1.9s1.7,2.4,1.9,3.8
			c0.2,0.6,0.6,1.1,1.3,1.1l0,0c0.8,0,1.3-0.6,1.3-1.4c-0.3-1.9-1.3-3.8-2.7-5.2c-1.6-1.6-3.5-2.4-5.5-2.7
			C407.6,188.9,406.9,189.5,406.9,190.1z" class="st17"></path>
	</g>
</g>
</svg>
