<svg xml:space="preserve" style="enable-background:new 0 0 480 480;" viewBox="0 0 480 480" y="0px" x="0px" xmlns:xlink="http://www.w3.org/1999/xlink" xmlns="http://www.w3.org/2000/svg" id="图层_1" version="1.1">
<style type="text/css">
	.st0{fill:url(#SVGID_1_);}
	.st1{fill:url(#SVGID_2_);}
	.st2{fill:url(#SVGID_3_);}
	.st3{fill:url(#SVGID_4_);}
	.st4{fill:url(#SVGID_5_);}
	.st5{fill:url(#SVGID_6_);}
	.st6{fill:url(#SVGID_7_);}
	.st7{fill:url(#SVGID_8_);}
	.st8{fill:url(#SVGID_9_);}
	.st9{fill:url(#SVGID_10_);}
	.st10{fill:url(#SVGID_11_);}
	.st11{fill:url(#SVGID_12_);}
	.st12{fill:url(#SVGID_13_);}
	.st13{fill:url(#SVGID_14_);}
	.st14{fill:url(#SVGID_15_);}
	.st15{fill:url(#SVGID_16_);}
	.st16{fill:url(#SVGID_17_);}
	.st17{fill:url(#SVGID_18_);}
	.st18{fill:url(#SVGID_19_);}
	.st19{fill:url(#SVGID_20_);}
	.st20{fill:url(#SVGID_21_);}
	.st21{fill:url(#SVGID_22_);}
	.st22{fill:url(#SVGID_23_);}
	.st23{fill:url(#SVGID_24_);}
	.st24{fill:url(#SVGID_25_);}
	.st25{fill:url(#SVGID_26_);}
	.st26{fill:url(#SVGID_27_);}
	.st27{fill:#FFFFFF;}
	.st28{fill:url(#SVGID_28_);}
	.st29{fill:url(#SVGID_29_);}
	.st30{fill:url(#SVGID_30_);}
	.st31{fill:url(#SVGID_31_);}
	.st32{fill:url(#SVGID_32_);}
	.st33{fill:url(#SVGID_33_);}
	.st34{fill:url(#SVGID_34_);}
	.st35{fill:url(#SVGID_35_);}
</style>
<g>
	
		<linearGradient gradientTransform="matrix(0.9394 0.3429 0.3429 -0.9394 -274.8015 551.3584)" y2="664.1103" x2="267.0586" y1="649.8228" x1="267.0586" gradientUnits="userSpaceOnUse" id="SVGID_1_">
		<stop style="stop-color:#FFFFFF" offset="0"></stop>
		<stop style="stop-color:#CFF4EE" offset="1"></stop>
	</linearGradient>
	<path d="M213,37.7c0,0-20.8-8.6-23.8-18.9c-3-10.2,13.8,1.4,18.1,6.6C212.8,32,213,37.7,213,37.7z" class="st0"></path>
	
		<linearGradient gradientTransform="matrix(0.9394 0.3429 0.3429 -0.9394 -274.8015 551.3584)" y2="672.1186" x2="328.5037" y1="664.6603" x1="328.5037" gradientUnits="userSpaceOnUse" id="SVGID_2_">
		<stop style="stop-color:#FFFFFF" offset="0"></stop>
		<stop style="stop-color:#CFF4EE" offset="1"></stop>
	</linearGradient>
	<path d="M269.1,42.4c0,0-10.9-4.5-12.5-9.9s7.2,0.8,9.4,3.5C269,39.3,269.1,42.4,269.1,42.4z" class="st1"></path>
	<g>
		
			<linearGradient gradientTransform="matrix(1 0 0 -1 0 -90)" y2="-165.8" x2="88.65" y1="-315.6" x1="88.65" gradientUnits="userSpaceOnUse" id="SVGID_3_">
			<stop style="stop-color:#FFFFFF" offset="0"></stop>
			<stop style="stop-color:#CFF4EE" offset="1"></stop>
		</linearGradient>
		<rect height="149.8" width="33.9" class="st2" y="75.8" x="71.7"></rect>
		
			<linearGradient gradientTransform="matrix(1 0 0 -1 0 -90)" y2="-133.2" x2="122.55" y1="-302.6" x1="122.55" gradientUnits="userSpaceOnUse" id="SVGID_4_">
			<stop style="stop-color:#FFFFFF" offset="0"></stop>
			<stop style="stop-color:#CFF4EE" offset="1"></stop>
		</linearGradient>
		<rect height="169.4" width="33.9" class="st3" y="43.2" x="105.6"></rect>
	</g>
	<g>
		
			<linearGradient gradientTransform="matrix(1 0 0 -1 0 -90)" y2="-166.9" x2="348.9" y1="-282.9" x1="348.9" gradientUnits="userSpaceOnUse" id="SVGID_5_">
			<stop style="stop-color:#FFFFFF" offset="0"></stop>
			<stop style="stop-color:#CFF4EE" offset="1"></stop>
		</linearGradient>
		<rect height="116" width="33.4" class="st4" y="76.9" x="332.2"></rect>
		
			<linearGradient gradientTransform="matrix(1 0 0 -1 0 -90)" y2="-147.6" x2="382.3" y1="-283" x1="382.3" gradientUnits="userSpaceOnUse" id="SVGID_6_">
			<stop style="stop-color:#FFFFFF" offset="0"></stop>
			<stop style="stop-color:#CFF4EE" offset="1"></stop>
		</linearGradient>
		<rect height="135.4" width="33.4" class="st5" y="57.6" x="365.6"></rect>
		
			<linearGradient gradientTransform="matrix(1 0 0 -1 0 -90)" y2="-185" x2="415.9" y1="-293.2" x1="415.9" gradientUnits="userSpaceOnUse" id="SVGID_7_">
			<stop style="stop-color:#FFFFFF" offset="0"></stop>
			<stop style="stop-color:#CFF4EE" offset="1"></stop>
		</linearGradient>
		<rect height="108.2" width="33.4" class="st6" y="95" x="399.2"></rect>
	</g>
	
		<linearGradient gradientTransform="matrix(1 0 0 -1 0 -90)" y2="-331.2" x2="240" y1="-555.2" x1="240" gradientUnits="userSpaceOnUse" id="SVGID_8_">
		<stop style="stop-color:#FFFFFF;stop-opacity:0.2" offset="0"></stop>
		<stop style="stop-color:#DEFFFD" offset="1"></stop>
	</linearGradient>
	<ellipse ry="112" rx="240" cy="353.2" cx="240" class="st7"></ellipse>
	
		<linearGradient gradientTransform="matrix(1 0 0 -1 0 -90)" y2="-411.6" x2="40.3" y1="-469.2" x1="40.3" gradientUnits="userSpaceOnUse" id="SVGID_9_">
		<stop style="stop-color:#F0FFFA" offset="0"></stop>
		<stop style="stop-color:#72C2BA;stop-opacity:0.3" offset="1"></stop>
	</linearGradient>
	<polygon points="40.3,321.6 20,356.8 37.3,356.8 37.3,379.2 43.2,379.2 43.2,356.8 60.6,356.8" class="st8"></polygon>
	
		<linearGradient gradientTransform="matrix(1 0 0 -1 0 -90)" y2="-366.7133" x2="71.45" y1="-408.3133" x1="71.45" gradientUnits="userSpaceOnUse" id="SVGID_10_">
		<stop style="stop-color:#F0FFFA" offset="0"></stop>
		<stop style="stop-color:#BDEFE3" offset="1"></stop>
	</linearGradient>
	<polygon points="71.4,276.8 56.8,302.2 69.3,302.2 69.3,318.4 73.6,318.4 73.6,302.2 86.1,302.2" class="st9"></polygon>
	
		<linearGradient gradientTransform="matrix(1 0 0 -1 0 -90)" y2="-436.9516" x2="238.885" y1="-530.0833" x1="255.3064" gradientUnits="userSpaceOnUse" id="SVGID_11_">
		<stop style="stop-color:#FFFFFF;stop-opacity:0" offset="0"></stop>
		<stop style="stop-color:#BDEFE3" offset="1"></stop>
	</linearGradient>
	<polygon points="185.3,356.4 142.4,426 362.4,421.2 291.2,356.6" class="st10"></polygon>
	<g>
		
			<linearGradient gradientTransform="matrix(1 0 0 -1 0 -90)" y2="-293.1583" x2="403.0329" y1="-348.3485" x1="403.0329" gradientUnits="userSpaceOnUse" id="SVGID_12_">
			<stop style="stop-color:#FFFFFF;stop-opacity:0" offset="0"></stop>
			<stop style="stop-color:#CFF4EE" offset="1"></stop>
		</linearGradient>
		<path d="M430.1,249.2c-5.9-22.4-5-46.1-25.8-46.1c-14.4,0-27.4,45.9-28.5,50.2C374.9,257.9,433.9,263.5,430.1,249.2z" class="st11"></path>
		
			<linearGradient gradientTransform="matrix(1 0 0 -1 0 -90)" y2="-270.7" x2="366.1195" y1="-351.5273" x1="366.1195" gradientUnits="userSpaceOnUse" id="SVGID_13_">
			<stop style="stop-color:#FFFFFF;stop-opacity:0" offset="0"></stop>
			<stop style="stop-color:#CFF4EE" offset="1"></stop>
		</linearGradient>
		<path d="M405.6,248.1c-8.8-32.6-7.2-67.4-37.6-67.4c-21.1,0-40,67.2-41.6,73.6C324.8,260.8,411.2,269.1,405.6,248.1z" class="st12"></path>
	</g>
	<g>
		
			<linearGradient gradientTransform="matrix(1 0 0 -1 0 -90)" y2="-298.2105" x2="59.6986" y1="-361.1641" x1="59.6986" gradientUnits="userSpaceOnUse" id="SVGID_14_">
			<stop style="stop-color:#FFFFFF;stop-opacity:0" offset="0"></stop>
			<stop style="stop-color:#CFF4EE" offset="1"></stop>
		</linearGradient>
		<path d="M90.4,260.8c-6.7-25.4-13.1-49.9-29.3-52.5s-31,52.3-32.3,57.3C27.5,270.5,94.9,277.1,90.4,260.8z" class="st13"></path>
		
			<linearGradient gradientTransform="matrix(1 0 0 -1 0 -90)" y2="-288.8643" x2="38.1626" y1="-333.9061" x1="38.1626" gradientUnits="userSpaceOnUse" id="SVGID_15_">
			<stop style="stop-color:#FFFFFF;stop-opacity:0" offset="0"></stop>
			<stop style="stop-color:#CFF4EE" offset="1"></stop>
		</linearGradient>
		<path d="M60.2,236.4c-4.8-18.2-9.3-35.7-21-37.6C27.5,196.9,17,236.4,16,240C15.2,243.5,63.2,248.1,60.2,236.4z" class="st14"></path>
		
			<linearGradient gradientTransform="matrix(1 0 0 -1 0 -90)" y2="-280.1942" x2="100.5195" y1="-361.1273" x1="100.5195" gradientUnits="userSpaceOnUse" id="SVGID_16_">
			<stop style="stop-color:#FFFFFF;stop-opacity:0" offset="0"></stop>
			<stop style="stop-color:#CFF4EE" offset="1"></stop>
		</linearGradient>
		<path d="M140,257.7c-8.8-32.6-16.8-64.2-37.6-67.4s-40,67.2-41.6,73.6C59.2,270.4,145.6,278.7,140,257.7z" class="st15"></path>
	</g>
	
		<linearGradient gradientTransform="matrix(1 0 0 -1 0 -90)" y2="-403.6" x2="431.0076" y1="-454.8" x1="431.0076" gradientUnits="userSpaceOnUse" id="SVGID_17_">
		<stop style="stop-color:#F0FFFA" offset="0"></stop>
		<stop style="stop-color:#72C2BA;stop-opacity:0.3" offset="1"></stop>
	</linearGradient>
	<path d="M453.9,329.4c-0.5-3.7-5.3-4.5-9.8-8.8c-4.5-4.5-5.9-7-11.5-7c-10.6,0-10.6,9.8-13.3,9.8
		c-8.3,0-11.5,9.8-11.5,12.3c0,2.6,3.5,5.3,8.8,8.8c3.5,2.4,9.1,2.4,12.3,2.1v18.2h4.5v-18.4c2.4-0.3,3.7-2.2,11.5,0.8
		C449.4,348.9,455.7,341.9,453.9,329.4z" class="st16"></path>
	
		<linearGradient gradientTransform="matrix(0.7012 0.713 0.713 -0.7012 -947.9853 1206.0118)" y2="1589.2557" x2="-30.6268" y1="1578.4987" x1="-30.6268" gradientUnits="userSpaceOnUse" id="SVGID_18_">
		<stop style="stop-color:#FFFFFF" offset="0"></stop>
		<stop style="stop-color:#CFF4EE" offset="1"></stop>
	</linearGradient>
	<path d="M164,85.4c0,0-11.4-12.6-10.1-20.6c1.3-8,8.8,5.4,10.2,10.4C165.8,81.4,164,85.4,164,85.4z" class="st17"></path>
	
		<linearGradient gradientTransform="matrix(0.9825 -0.1864 -0.1864 -0.9825 57.6905 -457.4944)" y2="-572.171" x2="42.9776" y1="-582.0109" x1="42.9776" gradientUnits="userSpaceOnUse" id="SVGID_19_">
		<stop style="stop-color:#FFFFFF" offset="0"></stop>
		<stop style="stop-color:#CFF4EE" offset="1"></stop>
	</linearGradient>
	<path d="M218.6,104.4c0,0-15.4,2.1-20.8-2.9c-5.4-5,8.6-4,13-2.4C216.5,101.1,218.6,104.4,218.6,104.4z" class="st18"></path>
	
		<linearGradient gradientTransform="matrix(0.9514 0.3079 0.3079 -0.9514 -226.3982 473.2441)" y2="495.1133" x2="366.9384" y1="478.4735" x1="366.9384" gradientUnits="userSpaceOnUse" id="SVGID_20_">
		<stop style="stop-color:#F0FFFA" offset="0"></stop>
		<stop style="stop-color:#72C2BA;stop-opacity:0.3" offset="1"></stop>
	</linearGradient>
	<path d="M286.7,136.4c0,0-24.5-9.3-28.5-21c-4-11.8,16,1.1,21.3,6.9C286.4,129.7,286.7,136.4,286.7,136.4z" class="st19"></path>
	
		<linearGradient gradientTransform="matrix(0.7071 0.7071 -0.7071 0.7071 -326.8844 643.1277)" y2="-552.454" x2="10.7531" y1="-564.9377" x1="10.7531" gradientUnits="userSpaceOnUse" id="SVGID_21_">
		<stop style="stop-color:#58CCB0" offset="0"></stop>
		<stop style="stop-color:#E5F9F4" offset="0.9851"></stop>
	</linearGradient>
	<path d="M76.8,255.5c0,0-3.5-8.6-10.6-12.3c0,0,8.2,11.8,5.1,17c0,0,13.6-0.3,19.8,2.2
		C91.2,262.4,81.3,257.1,76.8,255.5z" class="st20"></path>
	
		<linearGradient gradientTransform="matrix(0.7071 -0.7071 0.7071 0.7071 -570.2551 -1519.2765)" y2="1911.5358" x2="-560.2966" y1="1902.2549" x1="-560.2966" gradientUnits="userSpaceOnUse" id="SVGID_22_">
		<stop style="stop-color:#58CCB0" offset="0"></stop>
		<stop style="stop-color:#E5F9F4" offset="0.9851"></stop>
	</linearGradient>
	<path d="M381.8,224.6c0,0-6.4,2.6-9.1,7.8c0,0,8.8-6.1,12.6-3.8c0,0-0.2-10.1,1.6-14.7
		C386.7,213.9,382.9,221.4,381.8,224.6z" class="st21"></path>
	<g>
		
			<linearGradient gradientTransform="matrix(1 0 0 1 0 -572)" y2="846.2" x2="362.3732" y1="883.7778" x1="362.3732" gradientUnits="userSpaceOnUse" id="SVGID_23_">
			<stop style="stop-color:#E9FFFD" offset="0"></stop>
			<stop style="stop-color:#63D0B5" offset="0.9851"></stop>
		</linearGradient>
		<path d="M365.3,308.4c-4.5-16.3-7.7-23.2-15.5-34.2c0,0,26.4,26.9,25.1,34.2C373.6,316,365.3,308.4,365.3,308.4z" class="st22"></path>
		
			<linearGradient gradientTransform="matrix(1 0 0 1 0 -572)" y2="851.3967" x2="376.5371" y1="887.5016" x1="376.5371" gradientUnits="userSpaceOnUse" id="SVGID_24_">
			<stop style="stop-color:#E9FFFD" offset="0"></stop>
			<stop style="stop-color:#63D0B5" offset="0.9851"></stop>
		</linearGradient>
		<path d="M369.8,308.4c0,0,6.7-26.4,13.8-29.1c0,0-10.2,30.9-8.6,34.2C376.5,317.1,367.7,316.1,369.8,308.4z" class="st23"></path>
	</g>
	<g>
		
			<linearGradient gradientTransform="matrix(1 0 0 1 0 -572)" y2="813.5607" x2="238.5349" y1="929.2607" x1="238.5349" gradientUnits="userSpaceOnUse" id="SVGID_25_">
			<stop style="stop-color:#58CCB0" offset="0"></stop>
			<stop style="stop-color:#E5F9F4" offset="0.9851"></stop>
		</linearGradient>
		<path d="M287.7,357.6h-98.6c-3.2,0-6.1-2.2-7-5.4l-29.9-101c-1.3-4.5,2.4-9.3,7.4-9.3h157.9c5,0,8.6,4.8,7.4,9.3
			l-29.9,101C293.8,355.3,290.9,357.6,287.7,357.6z" class="st24"></path>
		
			<linearGradient gradientTransform="matrix(1 0 0 1 0 -572)" y2="942.2" x2="238.3" y1="929.6" x1="238.3" gradientUnits="userSpaceOnUse" id="SVGID_26_">
			<stop style="stop-color:#58CCB0" offset="0"></stop>
			<stop style="stop-color:#5FCEB4" offset="0.9851"></stop>
		</linearGradient>
		<path d="M271,370.2h-65.4c-0.8,0-1.6-0.3-1.9-0.8l-7.8-11.8h84.8l-7.8,11.8C272.6,369.9,272,370.2,271,370.2z" class="st25"></path>
		
			<linearGradient gradientTransform="matrix(1 0 0 1 0 -572)" y2="835.3228" x2="334.5124" y1="894" x1="334.5124" gradientUnits="userSpaceOnUse" id="SVGID_27_">
			<stop style="stop-color:#58CCB0" offset="0"></stop>
			<stop style="stop-color:#E5F9F4" offset="0.9851"></stop>
		</linearGradient>
		<path d="M316.6,274c6.4-1.6,46.1-21.6,49.9-2.4c4.3,21.4-54.4,49.6-64.2,50.4L316.6,274z" class="st26"></path>
		<path d="M313.6,283.2c9.4-3.8,37.6-16.3,42.4-6.4c4.2,8.6-45.9,35.8-50.7,35.2L313.6,283.2z" class="st27"></path>
		
			<linearGradient gradientTransform="matrix(1 0 0 1 0 -572)" y2="771" x2="207.313" y1="771" x1="168" gradientUnits="userSpaceOnUse" id="SVGID_28_">
			<stop style="stop-color:#58CCB0" offset="0"></stop>
			<stop style="stop-color:#E5F9F4" offset="0.9851"></stop>
		</linearGradient>
		<path d="M207,242.8c0-16.8-12.8-15.7-25.6-39.2S168,155.2,168,155.2s12,24.8,22.4,41.9
			C211,231.2,207,242.8,207,242.8z" class="st28"></path>
		
			<linearGradient gradientTransform="matrix(1 0 0 1 0 -572)" y2="784.9" x2="235.4125" y1="784.9" x1="204.2667" gradientUnits="userSpaceOnUse" id="SVGID_29_">
			<stop style="stop-color:#58CCB0" offset="0"></stop>
			<stop style="stop-color:#E5F9F4" offset="0.9851"></stop>
		</linearGradient>
		<path d="M234.4,242.8c0-11.7-5.6-13.8-14.6-29.9c-8.8-16.3-15.5-29.9-15.5-29.9s14.2,11.8,21.3,23.7
			C239.8,230.2,234.4,242.8,234.4,242.8z" class="st29"></path>
		
			<linearGradient gradientTransform="matrix(1 0 0 1 0 -572)" y2="769.8" x2="272.2" y1="769.8" x1="237.5252" gradientUnits="userSpaceOnUse" id="SVGID_30_">
			<stop style="stop-color:#58CCB0" offset="0"></stop>
			<stop style="stop-color:#E5F9F4" offset="0.9851"></stop>
		</linearGradient>
		<path d="M241,242.8c0-16.8,2.6-22.4,15.4-45.8s15.8-44.2,15.8-44.2s-12.3,25.3-22.6,42.2
			C229,229.1,241,242.8,241,242.8z" class="st30"></path>
		
			<linearGradient gradientTransform="matrix(1 0 0 1 0 -572)" y2="778.5" x2="299.6753" y1="778.5" x1="275.6899" gradientUnits="userSpaceOnUse" id="SVGID_31_">
			<stop style="stop-color:#58CCB0" offset="0"></stop>
			<stop style="stop-color:#E5F9F4" offset="0.9851"></stop>
		</linearGradient>
		<path d="M276,242.8c0-13.3,10.2-12.5,20.3-31c10.1-18.6-5.3-41.6-5.3-41.6s6.4,22.9-1.8,36.3
			C272.8,233.6,276,242.8,276,242.8z" class="st31"></path>
		
			<linearGradient gradientTransform="matrix(1 0 0 1 0 -572)" y2="750.5255" x2="233" y1="759.3255" x1="233" gradientUnits="userSpaceOnUse" id="SVGID_32_">
			<stop style="stop-color:#FFFFFF" offset="0"></stop>
			<stop style="stop-color:#CFF4EE" offset="1"></stop>
		</linearGradient>
		<circle r="4.5" cy="183" cx="233" class="st32"></circle>
		
			<linearGradient gradientTransform="matrix(0.9512 -0.3087 0.3087 0.9512 -122.9933 -1033.5184)" y2="1296.7598" x2="-9.8338" y1="1304.271" x1="-9.8338" gradientUnits="userSpaceOnUse" id="SVGID_33_">
			<stop style="stop-color:#FFFFFF" offset="0"></stop>
			<stop style="stop-color:#CFF4EE" offset="1"></stop>
		</linearGradient>
		<circle r="3.7" cy="206.5" cx="269.1" class="st33"></circle>
		
			<linearGradient gradientTransform="matrix(1 0 0 1 0 -572)" y2="743.5309" x2="193.3" y1="752.3309" x1="193.3" gradientUnits="userSpaceOnUse" id="SVGID_34_">
			<stop style="stop-color:#FFFFFF" offset="0"></stop>
			<stop style="stop-color:#CFF4EE" offset="1"></stop>
		</linearGradient>
		<circle r="4.5" cy="176" cx="193.3" class="st34"></circle>
		
			<linearGradient gradientTransform="matrix(1 0 0 1 0 -572)" y2="920.0688" x2="238.4329" y1="924.8733" x1="238.4329" gradientUnits="userSpaceOnUse" id="SVGID_35_">
			<stop style="stop-color:#58CCB0" offset="0"></stop>
			<stop style="stop-color:#E5F9F4" offset="0.9851"></stop>
		</linearGradient>
		<path d="M197,351.2L197,351.2c0.3,1,1.4,1.8,2.7,1.8h77.4c1.1,0,2.1-0.5,2.6-1.3l0,0c1-1.6-0.3-3.5-2.6-3.5h-77.4
			C197.8,348.1,196.3,349.7,197,351.2z" class="st35"></path>
		<path d="M289.4,261.6h-102c-2.2,0-4-1.8-4-4l0,0c0-2.2,1.8-4,4-4h102.1c2.2,0,4,1.8,4,4l0,0
			C293.4,259.8,291.7,261.6,289.4,261.6z" class="st27"></path>
	</g>
</g>
</svg>
